<?xml version="1.0" encoding="utf-8" standalone="no"?>
<!DOCTYPE svg PUBLIC "-//W3C//DTD SVG 1.1//EN"
  "http://www.w3.org/Graphics/SVG/1.1/DTD/svg11.dtd">
<!-- Created with matplotlib (http://matplotlib.org/) -->
<svg height="269.7268pt" version="1.1" viewBox="0 0 271.34 269.7268" width="271.34pt" xmlns="http://www.w3.org/2000/svg" xmlns:xlink="http://www.w3.org/1999/xlink">
 <defs>
  <style type="text/css">
*{stroke-linecap:butt;stroke-linejoin:round;}
  </style>
 </defs>
 <g id="figure_1">
  <g id="patch_1">
   <path d="M 0 269.7268 
L 271.34 269.7268 
L 271.34 0 
L 0 0 
z
" style="fill:none;opacity:0;"/>
  </g>
  <g id="axes_1">
   <g id="patch_2">
    <path d="M 13.45 256.2768 
L 257.89 256.2768 
L 257.89 35.8968 
L 13.45 35.8968 
z
" style="fill:#f5f5f5;"/>
   </g>
   <g id="line2d_1">
    <path clip-path="url(#p9106a212d9)" d="M 13.45 256.2768 
L 18.438571 251.779249 
L 23.427143 247.281698 
L 28.415714 242.784147 
L 33.404286 238.286596 
L 38.392857 233.789045 
L 43.381429 229.291494 
L 48.37 224.793943 
L 53.358571 220.296392 
L 58.347143 215.798841 
L 63.335714 211.30129 
L 68.324286 206.803739 
L 73.312857 202.306188 
L 78.301429 197.808637 
L 83.29 193.311086 
L 88.278571 188.813535 
L 93.267143 184.315984 
L 98.255714 179.818433 
L 103.244286 175.320882 
L 108.232857 170.823331 
L 113.221429 166.32578 
L 118.21 161.828229 
L 123.198571 157.330678 
L 128.187143 152.833127 
L 133.175714 148.335576 
L 138.164286 143.838024 
L 143.152857 139.340473 
L 148.141429 134.842922 
L 153.13 130.345371 
L 158.118571 125.84782 
L 163.107143 121.350269 
L 168.095714 116.852718 
L 173.084286 112.355167 
L 178.072857 107.857616 
L 183.061429 103.360065 
L 188.05 98.862514 
L 193.038571 94.364963 
L 198.027143 89.867412 
L 203.015714 85.369861 
L 208.004286 80.87231 
L 212.992857 76.374759 
L 217.981429 71.877208 
L 222.97 67.379657 
L 227.958571 62.882106 
L 232.947143 58.384555 
L 237.935714 53.887004 
L 242.924286 49.389453 
L 247.912857 44.891902 
L 252.901429 40.394351 
L 257.89 35.8968 
" style="fill:none;stroke:#000000;stroke-dasharray:3.7,1.6;stroke-dashoffset:0;"/>
   </g>
   <g id="line2d_2">
    <path clip-path="url(#p9106a212d9)" d="M 13.45 256.2768 
L 18.438571 251.329494 
L 23.427143 246.382188 
L 28.415714 241.434882 
L 33.404286 236.487576 
L 38.392857 231.540269 
L 43.381429 226.592963 
L 48.37 221.645657 
L 53.358571 216.698351 
L 58.347143 211.751045 
L 63.335714 206.803739 
L 68.324286 201.856433 
L 73.312857 196.909127 
L 78.301429 191.96182 
L 83.29 187.014514 
L 88.278571 182.067208 
L 93.267143 177.119902 
L 98.255714 172.172596 
L 103.244286 167.22529 
L 108.232857 162.277984 
L 113.221429 157.330678 
L 118.21 152.383371 
L 123.198571 147.436065 
L 128.187143 142.488759 
L 133.175714 137.541453 
L 138.164286 132.594147 
L 143.152857 127.646841 
L 148.141429 122.699535 
L 153.13 117.752229 
L 158.118571 112.804922 
L 163.107143 107.857616 
L 168.095714 102.91031 
L 173.084286 97.963004 
L 178.072857 93.015698 
L 183.061429 88.068392 
L 188.05 83.121086 
L 193.038571 78.17378 
L 198.027143 73.226473 
L 203.015714 68.279167 
L 208.004286 63.331861 
L 212.992857 58.384555 
L 217.981429 53.437249 
L 222.97 48.489943 
L 227.958571 43.542637 
L 232.947143 38.595331 
L 237.935714 33.648024 
L 242.924286 28.700718 
L 247.912857 23.753412 
L 252.901429 18.806106 
L 257.89 13.8588 
" style="fill:none;stroke:#ff0000;stroke-linecap:round;"/>
   </g>
   <g id="line2d_3">
    <path clip-path="url(#p9106a212d9)" d="M 13.45 256.2768 
L 18.438571 252.229004 
L 23.427143 248.181208 
L 28.415714 244.133412 
L 33.404286 240.085616 
L 38.392857 236.03782 
L 43.381429 231.990024 
L 48.37 227.942229 
L 53.358571 223.894433 
L 58.347143 219.846637 
L 63.335714 215.798841 
L 68.324286 211.751045 
L 73.312857 207.703249 
L 78.301429 203.655453 
L 83.29 199.607657 
L 88.278571 195.559861 
L 93.267143 191.512065 
L 98.255714 187.464269 
L 103.244286 183.416473 
L 108.232857 179.368678 
L 113.221429 175.320882 
L 118.21 171.273086 
L 123.198571 167.22529 
L 128.187143 163.177494 
L 133.175714 159.129698 
L 138.164286 155.081902 
L 143.152857 151.034106 
L 148.141429 146.98631 
L 153.13 142.938514 
L 158.118571 138.890718 
L 163.107143 134.842922 
L 168.095714 130.795127 
L 173.084286 126.747331 
L 178.072857 122.699535 
L 183.061429 118.651739 
L 188.05 114.603943 
L 193.038571 110.556147 
L 198.027143 106.508351 
L 203.015714 102.460555 
L 208.004286 98.412759 
L 212.992857 94.364963 
L 217.981429 90.317167 
L 222.97 86.269371 
L 227.958571 82.221576 
L 232.947143 78.17378 
L 237.935714 74.125984 
L 242.924286 70.078188 
L 247.912857 66.030392 
L 252.901429 61.982596 
L 257.89 57.9348 
" style="fill:none;stroke:#008000;stroke-linecap:round;"/>
   </g>
   <g id="line2d_4">
    <path clip-path="url(#p9106a212d9)" d="M 13.45 256.2768 
L 18.438571 253.128514 
L 23.427143 249.980229 
L 28.415714 246.831943 
L 33.404286 243.683657 
L 38.392857 240.535371 
L 43.381429 237.387086 
L 48.37 234.2388 
L 53.358571 231.090514 
L 58.347143 227.942229 
L 63.335714 224.793943 
L 68.324286 221.645657 
L 73.312857 218.497371 
L 78.301429 215.349086 
L 83.29 212.2008 
L 88.278571 209.052514 
L 93.267143 205.904229 
L 98.255714 202.755943 
L 103.244286 199.607657 
L 108.232857 196.459371 
L 113.221429 193.311086 
L 118.21 190.1628 
L 123.198571 187.014514 
L 128.187143 183.866229 
L 133.175714 180.717943 
L 138.164286 177.569657 
L 143.152857 174.421371 
L 148.141429 171.273086 
L 153.13 168.1248 
L 158.118571 164.976514 
L 163.107143 161.828229 
L 168.095714 158.679943 
L 173.084286 155.531657 
L 178.072857 152.383371 
L 183.061429 149.235086 
L 188.05 146.0868 
L 193.038571 142.938514 
L 198.027143 139.790229 
L 203.015714 136.641943 
L 208.004286 133.493657 
L 212.992857 130.345371 
L 217.981429 127.197086 
L 222.97 124.0488 
L 227.958571 120.900514 
L 232.947143 117.752229 
L 237.935714 114.603943 
L 242.924286 111.455657 
L 247.912857 108.307371 
L 252.901429 105.159086 
L 257.89 102.0108 
" style="fill:none;stroke:#0000ff;stroke-linecap:round;"/>
   </g>
   <g id="patch_3">
    <path d="M 13.45 256.2768 
L 13.45 35.8968 
" style="fill:none;stroke:#333333;stroke-linecap:square;stroke-linejoin:miter;"/>
   </g>
   <g id="patch_4">
    <path d="M 257.89 256.2768 
L 257.89 35.8968 
" style="fill:none;stroke:#333333;stroke-linecap:square;stroke-linejoin:miter;"/>
   </g>
   <g id="patch_5">
    <path d="M 13.45 256.2768 
L 257.89 256.2768 
" style="fill:none;stroke:#333333;stroke-linecap:square;stroke-linejoin:miter;"/>
   </g>
   <g id="patch_6">
    <path d="M 13.45 35.8968 
L 257.89 35.8968 
" style="fill:none;stroke:#333333;stroke-linecap:square;stroke-linejoin:miter;"/>
   </g>
   <g id="text_1">
    <!-- Color Balance -->
    <defs>
     <path d="M 38.671875 62.203125 
Q 32.8125 62.203125 28.296875 60.25 
Q 23.78125 58.296875 20.71875 54.6875 
Q 17.671875 51.078125 16.109375 46 
Q 14.546875 40.921875 14.546875 34.71875 
Q 14.546875 28.515625 16.234375 23.359375 
Q 17.921875 18.21875 21.0625 14.5 
Q 24.21875 10.796875 28.78125 8.734375 
Q 33.34375 6.6875 39.0625 6.6875 
Q 43.0625 6.6875 46.359375 7.734375 
Q 49.65625 8.796875 52.3125 10.6875 
Q 54.984375 12.59375 57.078125 15.203125 
Q 59.1875 17.828125 60.796875 21 
L 68.40625 17.1875 
Q 66.546875 13.328125 63.8125 10 
Q 61.078125 6.6875 57.390625 4.25 
Q 53.71875 1.8125 49.046875 0.40625 
Q 44.390625 -0.984375 38.625 -0.984375 
Q 30.28125 -0.984375 24 1.671875 
Q 17.71875 4.34375 13.5 9.109375 
Q 9.28125 13.875 7.171875 20.40625 
Q 5.078125 26.953125 5.078125 34.71875 
Q 5.078125 42.78125 7.296875 49.265625 
Q 9.515625 55.765625 13.78125 60.328125 
Q 18.0625 64.890625 24.3125 67.359375 
Q 30.5625 69.828125 38.578125 69.828125 
Q 49.5625 69.828125 56.9375 65.53125 
Q 64.3125 61.234375 67.78125 52.78125 
L 58.9375 49.859375 
Q 57.953125 52.296875 56.296875 54.515625 
Q 54.640625 56.734375 52.140625 58.4375 
Q 49.65625 60.15625 46.3125 61.171875 
Q 42.96875 62.203125 38.671875 62.203125 
z
" id="LiberationSans-43"/>
     <path d="M 51.421875 26.46875 
Q 51.421875 12.59375 45.3125 5.796875 
Q 39.203125 -0.984375 27.59375 -0.984375 
Q 22.078125 -0.984375 17.71875 0.671875 
Q 13.375 2.34375 10.375 5.765625 
Q 7.375 9.1875 5.78125 14.328125 
Q 4.203125 19.484375 4.203125 26.46875 
Q 4.203125 53.8125 27.875 53.8125 
Q 34.03125 53.8125 38.5 52.09375 
Q 42.96875 50.390625 45.828125 46.96875 
Q 48.6875 43.5625 50.046875 38.421875 
Q 51.421875 33.296875 51.421875 26.46875 
z
M 42.1875 26.46875 
Q 42.1875 32.625 41.234375 36.625 
Q 40.28125 40.625 38.453125 43.015625 
Q 36.625 45.40625 33.984375 46.359375 
Q 31.34375 47.3125 28.03125 47.3125 
Q 24.65625 47.3125 21.9375 46.3125 
Q 19.234375 45.3125 17.328125 42.890625 
Q 15.4375 40.484375 14.421875 36.46875 
Q 13.421875 32.46875 13.421875 26.46875 
Q 13.421875 20.3125 14.5 16.28125 
Q 15.578125 12.25 17.453125 9.859375 
Q 19.34375 7.46875 21.90625 6.484375 
Q 24.46875 5.515625 27.484375 5.515625 
Q 30.859375 5.515625 33.59375 6.46875 
Q 36.328125 7.421875 38.234375 9.8125 
Q 40.140625 12.203125 41.15625 16.25 
Q 42.1875 20.3125 42.1875 26.46875 
z
" id="LiberationSans-6f"/>
     <path d="M 6.734375 0 
L 6.734375 72.46875 
L 15.53125 72.46875 
L 15.53125 0 
z
" id="LiberationSans-6c"/>
     <path d="M 6.9375 0 
L 6.9375 40.53125 
Q 6.9375 42.1875 6.90625 43.921875 
Q 6.890625 45.65625 6.828125 47.265625 
Q 6.78125 48.875 6.734375 50.28125 
Q 6.6875 51.703125 6.640625 52.828125 
L 14.9375 52.828125 
Q 14.984375 51.703125 15.0625 50.265625 
Q 15.140625 48.828125 15.203125 47.3125 
Q 15.28125 45.796875 15.296875 44.40625 
Q 15.328125 43.015625 15.328125 42.046875 
L 15.53125 42.046875 
Q 16.453125 45.0625 17.5 47.28125 
Q 18.5625 49.515625 19.96875 50.953125 
Q 21.390625 52.390625 23.34375 53.09375 
Q 25.296875 53.8125 28.078125 53.8125 
Q 29.15625 53.8125 30.125 53.640625 
Q 31.109375 53.46875 31.640625 53.328125 
L 31.640625 45.265625 
Q 30.765625 45.515625 29.59375 45.625 
Q 28.421875 45.75 26.953125 45.75 
Q 23.921875 45.75 21.796875 44.375 
Q 19.671875 43.015625 18.328125 40.59375 
Q 17 38.1875 16.359375 34.84375 
Q 15.71875 31.5 15.71875 27.546875 
L 15.71875 0 
z
" id="LiberationSans-72"/>
     <path id="LiberationSans-20"/>
     <path d="M 61.421875 19.390625 
Q 61.421875 14.15625 59.375 10.46875 
Q 57.328125 6.78125 53.859375 4.46875 
Q 50.390625 2.15625 45.796875 1.078125 
Q 41.21875 0 36.140625 0 
L 8.203125 0 
L 8.203125 68.796875 
L 33.203125 68.796875 
Q 38.921875 68.796875 43.40625 67.84375 
Q 47.90625 66.890625 51.03125 64.84375 
Q 54.15625 62.796875 55.78125 59.640625 
Q 57.421875 56.5 57.421875 52.09375 
Q 57.421875 49.21875 56.609375 46.671875 
Q 55.8125 44.140625 54.171875 42.0625 
Q 52.546875 39.984375 50.078125 38.5 
Q 47.609375 37.015625 44.34375 36.28125 
Q 48.484375 35.796875 51.6875 34.375 
Q 54.890625 32.953125 57.03125 30.75 
Q 59.1875 28.5625 60.296875 25.65625 
Q 61.421875 22.75 61.421875 19.390625 
z
M 48.046875 50.984375 
Q 48.046875 56.546875 44.234375 58.9375 
Q 40.4375 61.328125 33.203125 61.328125 
L 17.53125 61.328125 
L 17.53125 39.546875 
L 33.203125 39.546875 
Q 37.3125 39.546875 40.140625 40.34375 
Q 42.96875 41.15625 44.71875 42.640625 
Q 46.484375 44.140625 47.265625 46.234375 
Q 48.046875 48.34375 48.046875 50.984375 
z
M 52 20.125 
Q 52 23.390625 50.796875 25.6875 
Q 49.609375 27.984375 47.359375 29.4375 
Q 45.125 30.90625 41.96875 31.59375 
Q 38.8125 32.28125 34.90625 32.28125 
L 17.53125 32.28125 
L 17.53125 7.46875 
L 35.640625 7.46875 
Q 39.203125 7.46875 42.203125 8.046875 
Q 45.21875 8.640625 47.390625 10.109375 
Q 49.5625 11.578125 50.78125 14.015625 
Q 52 16.453125 52 20.125 
z
" id="LiberationSans-42"/>
     <path d="M 20.21875 -0.984375 
Q 12.25 -0.984375 8.25 3.21875 
Q 4.25 7.421875 4.25 14.75 
Q 4.25 19.96875 6.21875 23.3125 
Q 8.203125 26.65625 11.390625 28.5625 
Q 14.59375 30.46875 18.6875 31.203125 
Q 22.796875 31.9375 27.046875 32.03125 
L 38.921875 32.234375 
L 38.921875 35.109375 
Q 38.921875 38.375 38.234375 40.671875 
Q 37.546875 42.96875 36.125 44.375 
Q 34.71875 45.796875 32.59375 46.453125 
Q 30.46875 47.125 27.59375 47.125 
Q 25.046875 47.125 23 46.75 
Q 20.953125 46.390625 19.4375 45.4375 
Q 17.921875 44.484375 16.984375 42.84375 
Q 16.0625 41.21875 15.765625 38.71875 
L 6.59375 39.546875 
Q 7.078125 42.671875 8.4375 45.28125 
Q 9.8125 47.90625 12.328125 49.796875 
Q 14.84375 51.703125 18.625 52.75 
Q 22.40625 53.8125 27.78125 53.8125 
Q 37.75 53.8125 42.765625 49.234375 
Q 47.796875 44.671875 47.796875 36.03125 
L 47.796875 13.28125 
Q 47.796875 9.375 48.828125 7.390625 
Q 49.859375 5.421875 52.734375 5.421875 
Q 53.46875 5.421875 54.203125 5.515625 
Q 54.9375 5.609375 55.609375 5.765625 
L 55.609375 0.296875 
Q 53.953125 -0.09375 52.3125 -0.28125 
Q 50.6875 -0.484375 48.828125 -0.484375 
Q 46.34375 -0.484375 44.5625 0.171875 
Q 42.78125 0.828125 41.65625 2.171875 
Q 40.53125 3.515625 39.9375 5.484375 
Q 39.359375 7.46875 39.203125 10.109375 
L 38.921875 10.109375 
Q 37.5 7.5625 35.8125 5.515625 
Q 34.125 3.46875 31.875 2.03125 
Q 29.640625 0.59375 26.78125 -0.1875 
Q 23.921875 -0.984375 20.21875 -0.984375 
z
M 22.21875 5.609375 
Q 26.421875 5.609375 29.5625 7.140625 
Q 32.71875 8.6875 34.78125 11.078125 
Q 36.859375 13.484375 37.890625 16.3125 
Q 38.921875 19.140625 38.921875 21.734375 
L 38.921875 26.078125 
L 29.296875 25.875 
Q 26.078125 25.828125 23.171875 25.40625 
Q 20.265625 25 18.0625 23.78125 
Q 15.875 22.5625 14.578125 20.359375 
Q 13.28125 18.171875 13.28125 14.59375 
Q 13.28125 10.296875 15.59375 7.953125 
Q 17.921875 5.609375 22.21875 5.609375 
z
" id="LiberationSans-61"/>
     <path d="M 40.28125 0 
L 40.28125 33.5 
Q 40.28125 37.359375 39.71875 39.9375 
Q 39.15625 42.53125 37.890625 44.109375 
Q 36.625 45.703125 34.546875 46.359375 
Q 32.46875 47.015625 29.390625 47.015625 
Q 26.265625 47.015625 23.75 45.921875 
Q 21.234375 44.828125 19.453125 42.75 
Q 17.671875 40.671875 16.6875 37.625 
Q 15.71875 34.578125 15.71875 30.609375 
L 15.71875 0 
L 6.9375 0 
L 6.9375 41.546875 
Q 6.9375 43.21875 6.90625 45.046875 
Q 6.890625 46.875 6.828125 48.5 
Q 6.78125 50.140625 6.734375 51.3125 
Q 6.6875 52.484375 6.640625 52.828125 
L 14.9375 52.828125 
Q 14.984375 52.59375 15.03125 51.515625 
Q 15.09375 50.4375 15.15625 49.046875 
Q 15.234375 47.65625 15.28125 46.21875 
Q 15.328125 44.78125 15.328125 43.796875 
L 15.484375 43.796875 
Q 16.75 46.09375 18.265625 47.953125 
Q 19.78125 49.8125 21.78125 51.09375 
Q 23.78125 52.390625 26.359375 53.09375 
Q 28.953125 53.8125 32.375 53.8125 
Q 36.765625 53.8125 39.9375 52.734375 
Q 43.109375 51.65625 45.15625 49.40625 
Q 47.21875 47.171875 48.171875 43.625 
Q 49.125 40.09375 49.125 35.203125 
L 49.125 0 
z
" id="LiberationSans-6e"/>
     <path d="M 13.421875 26.65625 
Q 13.421875 22.125 14.078125 18.3125 
Q 14.75 14.5 16.3125 11.734375 
Q 17.875 8.984375 20.4375 7.46875 
Q 23 5.953125 26.765625 5.953125 
Q 31.453125 5.953125 34.59375 8.484375 
Q 37.75 11.03125 38.484375 16.3125 
L 47.359375 15.71875 
Q 46.921875 12.453125 45.453125 9.421875 
Q 44 6.390625 41.484375 4.09375 
Q 38.96875 1.8125 35.34375 0.40625 
Q 31.734375 -0.984375 27 -0.984375 
Q 20.796875 -0.984375 16.453125 1.109375 
Q 12.109375 3.21875 9.390625 6.90625 
Q 6.6875 10.59375 5.46875 15.59375 
Q 4.25 20.609375 4.25 26.46875 
Q 4.25 31.78125 5.125 35.859375 
Q 6 39.9375 7.59375 42.984375 
Q 9.1875 46.046875 11.328125 48.125 
Q 13.484375 50.203125 15.984375 51.4375 
Q 18.5 52.6875 21.28125 53.25 
Q 24.078125 53.8125 26.90625 53.8125 
Q 31.34375 53.8125 34.8125 52.59375 
Q 38.28125 51.375 40.796875 49.25 
Q 43.3125 47.125 44.875 44.234375 
Q 46.4375 41.359375 47.078125 38.03125 
L 38.03125 37.359375 
Q 37.359375 41.75 34.5625 44.328125 
Q 31.78125 46.921875 26.65625 46.921875 
Q 22.90625 46.921875 20.390625 45.671875 
Q 17.875 44.4375 16.3125 41.921875 
Q 14.75 39.40625 14.078125 35.59375 
Q 13.421875 31.78125 13.421875 26.65625 
z
" id="LiberationSans-63"/>
     <path d="M 13.484375 24.5625 
Q 13.484375 20.40625 14.328125 16.90625 
Q 15.1875 13.421875 16.96875 10.90625 
Q 18.75 8.40625 21.53125 7 
Q 24.3125 5.609375 28.21875 5.609375 
Q 33.9375 5.609375 37.375 7.90625 
Q 40.828125 10.203125 42.046875 13.71875 
L 49.75 11.53125 
Q 48.921875 9.328125 47.4375 7.109375 
Q 45.953125 4.890625 43.453125 3.09375 
Q 40.96875 1.3125 37.234375 0.15625 
Q 33.5 -0.984375 28.21875 -0.984375 
Q 16.5 -0.984375 10.375 6 
Q 4.25 12.984375 4.25 26.765625 
Q 4.25 34.1875 6.09375 39.328125 
Q 7.953125 44.484375 11.171875 47.703125 
Q 14.40625 50.921875 18.703125 52.359375 
Q 23 53.8125 27.875 53.8125 
Q 34.515625 53.8125 38.984375 51.65625 
Q 43.453125 49.515625 46.15625 45.71875 
Q 48.875 41.9375 50.015625 36.8125 
Q 51.171875 31.6875 51.171875 25.734375 
L 51.171875 24.5625 
z
M 42.09375 31.296875 
Q 41.359375 39.65625 37.84375 43.484375 
Q 34.328125 47.3125 27.734375 47.3125 
Q 25.53125 47.3125 23.109375 46.609375 
Q 20.703125 45.90625 18.65625 44.09375 
Q 16.609375 42.28125 15.1875 39.171875 
Q 13.765625 36.078125 13.578125 31.296875 
z
" id="LiberationSans-65"/>
    </defs>
    <g style="fill:#111111;" transform="translate(63.3136 23.8968)scale(0.2304 -0.2304)">
     <use xlink:href="#LiberationSans-43"/>
     <use x="72.216797" xlink:href="#LiberationSans-6f"/>
     <use x="127.832031" xlink:href="#LiberationSans-6c"/>
     <use x="150.048828" xlink:href="#LiberationSans-6f"/>
     <use x="205.664062" xlink:href="#LiberationSans-72"/>
     <use x="238.964844" xlink:href="#LiberationSans-20"/>
     <use x="266.748047" xlink:href="#LiberationSans-42"/>
     <use x="333.447266" xlink:href="#LiberationSans-61"/>
     <use x="389.0625" xlink:href="#LiberationSans-6c"/>
     <use x="411.279297" xlink:href="#LiberationSans-61"/>
     <use x="466.894531" xlink:href="#LiberationSans-6e"/>
     <use x="522.509766" xlink:href="#LiberationSans-63"/>
     <use x="572.509766" xlink:href="#LiberationSans-65"/>
    </g>
   </g>
  </g>
 </g>
 <defs>
  <clipPath id="p9106a212d9">
   <rect height="220.38" width="244.44" x="13.45" y="35.8968"/>
  </clipPath>
 </defs>
</svg>
