<?xml version="1.0" encoding="utf-8" standalone="no"?>
<!DOCTYPE svg PUBLIC "-//W3C//DTD SVG 1.1//EN"
  "http://www.w3.org/Graphics/SVG/1.1/DTD/svg11.dtd">
<!-- Created with matplotlib (http://matplotlib.org/) -->
<svg height="754.3958pt" version="1.1" viewBox="0 0 1363.0405 754.3958" width="1363.0405pt" xmlns="http://www.w3.org/2000/svg" xmlns:xlink="http://www.w3.org/1999/xlink">
 <defs>
  <style type="text/css">
*{stroke-linecap:butt;stroke-linejoin:round;}
  </style>
 </defs>
 <g id="figure_1">
  <g id="patch_1">
   <path d="M 0 754.3958 
L 1363.0405 754.3958 
L 1363.0405 0 
L 0 0 
z
" style="fill:none;opacity:0;"/>
  </g>
  <g id="axes_1">
   <g id="patch_2">
    <path d="M 69.0405 696.4068 
L 1349.5905 696.4068 
L 1349.5905 35.8968 
L 69.0405 35.8968 
z
" style="fill:#f5f5f5;"/>
   </g>
   <g id="matplotlib.axis_1">
    <g id="xtick_1">
     <g id="line2d_1">
      <path clip-path="url(#p069b94ab06)" d="M 69.0405 696.4068 
L 69.0405 35.8968 
" style="fill:none;stroke:#d5d5d5;stroke-dasharray:1.85,0.8;stroke-dashoffset:0;stroke-width:0.5;"/>
     </g>
     <g id="line2d_2">
      <defs>
       <path d="M 0 0 
L 0 6.25 
" id="mc652a5f850" style="stroke:#262626;"/>
      </defs>
      <g>
       <use style="fill:#262626;stroke:#262626;" x="69.0405" xlink:href="#mc652a5f850" y="696.4068"/>
      </g>
     </g>
     <g id="text_1">
      <!-- 300 -->
      <defs>
       <path d="M 51.21875 19 
Q 51.21875 14.265625 49.671875 10.546875 
Q 48.140625 6.84375 45.1875 4.265625 
Q 42.234375 1.703125 37.859375 0.359375 
Q 33.5 -0.984375 27.875 -0.984375 
Q 21.484375 -0.984375 17.109375 0.609375 
Q 12.75 2.203125 9.90625 4.8125 
Q 7.078125 7.421875 5.65625 10.765625 
Q 4.25 14.109375 3.8125 17.671875 
L 12.890625 18.5 
Q 13.28125 15.765625 14.328125 13.515625 
Q 15.375 11.28125 17.1875 9.671875 
Q 19 8.0625 21.625 7.171875 
Q 24.265625 6.296875 27.875 6.296875 
Q 34.515625 6.296875 38.296875 9.5625 
Q 42.09375 12.84375 42.09375 19.28125 
Q 42.09375 23.09375 40.40625 25.40625 
Q 38.71875 27.734375 36.203125 29.03125 
Q 33.6875 30.328125 30.734375 30.765625 
Q 27.78125 31.203125 25.296875 31.203125 
L 20.3125 31.203125 
L 20.3125 38.8125 
L 25.09375 38.8125 
Q 27.59375 38.8125 30.265625 39.328125 
Q 32.953125 39.84375 35.171875 41.1875 
Q 37.40625 42.53125 38.84375 44.828125 
Q 40.28125 47.125 40.28125 50.6875 
Q 40.28125 56.203125 37.03125 59.390625 
Q 33.796875 62.59375 27.390625 62.59375 
Q 21.578125 62.59375 17.984375 59.609375 
Q 14.40625 56.640625 13.8125 51.21875 
L 4.984375 51.90625 
Q 5.515625 56.453125 7.46875 59.8125 
Q 9.421875 63.1875 12.421875 65.40625 
Q 15.4375 67.625 19.28125 68.71875 
Q 23.140625 69.828125 27.484375 69.828125 
Q 33.25 69.828125 37.390625 68.375 
Q 41.546875 66.9375 44.1875 64.46875 
Q 46.828125 62.015625 48.0625 58.6875 
Q 49.3125 55.375 49.3125 51.609375 
Q 49.3125 48.578125 48.484375 45.9375 
Q 47.65625 43.3125 45.890625 41.203125 
Q 44.140625 39.109375 41.421875 37.59375 
Q 38.71875 36.078125 34.90625 35.296875 
L 34.90625 35.109375 
Q 39.0625 34.671875 42.140625 33.21875 
Q 45.21875 31.78125 47.21875 29.625 
Q 49.21875 27.484375 50.21875 24.75 
Q 51.21875 22.015625 51.21875 19 
z
" id="LiberationSans-33"/>
       <path d="M 51.703125 34.421875 
Q 51.703125 24.515625 49.828125 17.75 
Q 47.953125 10.984375 44.703125 6.8125 
Q 41.453125 2.640625 37.0625 0.828125 
Q 32.671875 -0.984375 27.6875 -0.984375 
Q 22.65625 -0.984375 18.3125 0.828125 
Q 13.96875 2.640625 10.765625 6.78125 
Q 7.5625 10.9375 5.734375 17.703125 
Q 3.90625 24.46875 3.90625 34.421875 
Q 3.90625 44.828125 5.734375 51.640625 
Q 7.5625 58.453125 10.78125 62.5 
Q 14.015625 66.546875 18.40625 68.1875 
Q 22.796875 69.828125 27.984375 69.828125 
Q 32.90625 69.828125 37.21875 68.1875 
Q 41.546875 66.546875 44.765625 62.5 
Q 48 58.453125 49.84375 51.640625 
Q 51.703125 44.828125 51.703125 34.421875 
z
M 42.78125 34.421875 
Q 42.78125 42.625 41.796875 48.0625 
Q 40.828125 53.515625 38.921875 56.765625 
Q 37.015625 60.015625 34.25 61.359375 
Q 31.5 62.703125 27.984375 62.703125 
Q 24.265625 62.703125 21.4375 61.328125 
Q 18.609375 59.96875 16.671875 56.71875 
Q 14.75 53.46875 13.765625 48.015625 
Q 12.796875 42.578125 12.796875 34.421875 
Q 12.796875 26.515625 13.796875 21.09375 
Q 14.796875 15.671875 16.71875 12.375 
Q 18.65625 9.078125 21.4375 7.640625 
Q 24.21875 6.203125 27.78125 6.203125 
Q 31.25 6.203125 34.03125 7.640625 
Q 36.8125 9.078125 38.734375 12.375 
Q 40.671875 15.671875 41.71875 21.09375 
Q 42.78125 26.515625 42.78125 34.421875 
z
" id="LiberationSans-30"/>
      </defs>
      <g style="fill:#262626;" transform="translate(55.69425 721.2518)scale(0.16 -0.16)">
       <use xlink:href="#LiberationSans-33"/>
       <use x="55.615234" xlink:href="#LiberationSans-30"/>
       <use x="111.230469" xlink:href="#LiberationSans-30"/>
      </g>
     </g>
    </g>
    <g id="xtick_2">
     <g id="line2d_3">
      <path clip-path="url(#p069b94ab06)" d="M 325.663746 696.4068 
L 325.663746 35.8968 
" style="fill:none;stroke:#d5d5d5;stroke-dasharray:1.85,0.8;stroke-dashoffset:0;stroke-width:0.5;"/>
     </g>
     <g id="line2d_4">
      <g>
       <use style="fill:#262626;stroke:#262626;" x="325.663746" xlink:href="#mc652a5f850" y="696.4068"/>
      </g>
     </g>
     <g id="text_2">
      <!-- 400 -->
      <defs>
       <path d="M 43.015625 15.578125 
L 43.015625 0 
L 34.71875 0 
L 34.71875 15.578125 
L 2.296875 15.578125 
L 2.296875 22.40625 
L 33.796875 68.796875 
L 43.015625 68.796875 
L 43.015625 22.515625 
L 52.6875 22.515625 
L 52.6875 15.578125 
z
M 34.71875 58.890625 
Q 34.625 58.640625 34.234375 57.9375 
Q 33.84375 57.234375 33.34375 56.34375 
Q 32.859375 55.46875 32.34375 54.5625 
Q 31.84375 53.65625 31.453125 53.078125 
L 13.8125 27.09375 
Q 13.578125 26.703125 13.109375 26.0625 
Q 12.640625 25.4375 12.15625 24.78125 
Q 11.671875 24.125 11.171875 23.484375 
Q 10.6875 22.859375 10.40625 22.515625 
L 34.71875 22.515625 
z
" id="LiberationSans-34"/>
      </defs>
      <g style="fill:#262626;" transform="translate(312.317496 721.2518)scale(0.16 -0.16)">
       <use xlink:href="#LiberationSans-34"/>
       <use x="55.615234" xlink:href="#LiberationSans-30"/>
       <use x="111.230469" xlink:href="#LiberationSans-30"/>
      </g>
     </g>
    </g>
    <g id="xtick_3">
     <g id="line2d_5">
      <path clip-path="url(#p069b94ab06)" d="M 582.286993 696.4068 
L 582.286993 35.8968 
" style="fill:none;stroke:#d5d5d5;stroke-dasharray:1.85,0.8;stroke-dashoffset:0;stroke-width:0.5;"/>
     </g>
     <g id="line2d_6">
      <g>
       <use style="fill:#262626;stroke:#262626;" x="582.286993" xlink:href="#mc652a5f850" y="696.4068"/>
      </g>
     </g>
     <g id="text_3">
      <!-- 500 -->
      <defs>
       <path d="M 51.421875 22.40625 
Q 51.421875 17.234375 49.859375 12.9375 
Q 48.296875 8.640625 45.21875 5.53125 
Q 42.140625 2.4375 37.578125 0.71875 
Q 33.015625 -0.984375 27 -0.984375 
Q 21.578125 -0.984375 17.546875 0.28125 
Q 13.53125 1.5625 10.734375 3.78125 
Q 7.953125 6 6.3125 8.984375 
Q 4.6875 11.96875 4 15.375 
L 12.890625 16.40625 
Q 13.421875 14.453125 14.390625 12.625 
Q 15.375 10.796875 17.0625 9.34375 
Q 18.75 7.90625 21.21875 7.046875 
Q 23.6875 6.203125 27.203125 6.203125 
Q 30.609375 6.203125 33.390625 7.25 
Q 36.1875 8.296875 38.15625 10.34375 
Q 40.140625 12.40625 41.203125 15.375 
Q 42.28125 18.359375 42.28125 22.21875 
Q 42.28125 25.390625 41.25 28.046875 
Q 40.234375 30.71875 38.328125 32.640625 
Q 36.421875 34.578125 33.65625 35.640625 
Q 30.90625 36.71875 27.390625 36.71875 
Q 25.203125 36.71875 23.34375 36.328125 
Q 21.484375 35.9375 19.890625 35.25 
Q 18.3125 34.578125 17.015625 33.671875 
Q 15.71875 32.765625 14.59375 31.78125 
L 6 31.78125 
L 8.296875 68.796875 
L 47.40625 68.796875 
L 47.40625 61.328125 
L 16.3125 61.328125 
L 14.984375 39.5 
Q 17.328125 41.3125 20.84375 42.59375 
Q 24.359375 43.890625 29.203125 43.890625 
Q 34.328125 43.890625 38.421875 42.328125 
Q 42.53125 40.765625 45.40625 37.90625 
Q 48.296875 35.0625 49.859375 31.109375 
Q 51.421875 27.15625 51.421875 22.40625 
z
" id="LiberationSans-35"/>
      </defs>
      <g style="fill:#262626;" transform="translate(568.940743 721.2518)scale(0.16 -0.16)">
       <use xlink:href="#LiberationSans-35"/>
       <use x="55.615234" xlink:href="#LiberationSans-30"/>
       <use x="111.230469" xlink:href="#LiberationSans-30"/>
      </g>
     </g>
    </g>
    <g id="xtick_4">
     <g id="line2d_7">
      <path clip-path="url(#p069b94ab06)" d="M 838.910239 696.4068 
L 838.910239 35.8968 
" style="fill:none;stroke:#d5d5d5;stroke-dasharray:1.85,0.8;stroke-dashoffset:0;stroke-width:0.5;"/>
     </g>
     <g id="line2d_8">
      <g>
       <use style="fill:#262626;stroke:#262626;" x="838.910239" xlink:href="#mc652a5f850" y="696.4068"/>
      </g>
     </g>
     <g id="text_4">
      <!-- 600 -->
      <defs>
       <path d="M 51.21875 22.515625 
Q 51.21875 17.328125 49.78125 13 
Q 48.34375 8.6875 45.53125 5.578125 
Q 42.71875 2.484375 38.5625 0.75 
Q 34.421875 -0.984375 29 -0.984375 
Q 23 -0.984375 18.5 1.3125 
Q 14.015625 3.609375 11.03125 7.921875 
Q 8.0625 12.25 6.5625 18.53125 
Q 5.078125 24.8125 5.078125 32.8125 
Q 5.078125 42 6.765625 48.921875 
Q 8.453125 55.859375 11.625 60.5 
Q 14.796875 65.140625 19.359375 67.484375 
Q 23.921875 69.828125 29.6875 69.828125 
Q 33.203125 69.828125 36.28125 69.09375 
Q 39.359375 68.359375 41.875 66.71875 
Q 44.390625 65.09375 46.28125 62.40625 
Q 48.1875 59.71875 49.3125 55.8125 
L 40.921875 54.296875 
Q 39.546875 58.734375 36.546875 60.71875 
Q 33.546875 62.703125 29.59375 62.703125 
Q 25.984375 62.703125 23.046875 60.984375 
Q 20.125 59.28125 18.0625 55.875 
Q 16.015625 52.484375 14.90625 47.359375 
Q 13.8125 42.234375 13.8125 35.40625 
Q 16.21875 39.84375 20.5625 42.15625 
Q 24.90625 44.484375 30.515625 44.484375 
Q 35.203125 44.484375 39.015625 42.96875 
Q 42.828125 41.453125 45.53125 38.59375 
Q 48.25 35.75 49.734375 31.671875 
Q 51.21875 27.59375 51.21875 22.515625 
z
M 42.28125 22.125 
Q 42.28125 25.6875 41.40625 28.5625 
Q 40.53125 31.453125 38.765625 33.46875 
Q 37.015625 35.5 34.421875 36.59375 
Q 31.84375 37.703125 28.421875 37.703125 
Q 26.03125 37.703125 23.578125 36.984375 
Q 21.140625 36.28125 19.15625 34.6875 
Q 17.1875 33.109375 15.9375 30.515625 
Q 14.703125 27.9375 14.703125 24.21875 
Q 14.703125 20.40625 15.671875 17.109375 
Q 16.65625 13.8125 18.484375 11.375 
Q 20.3125 8.9375 22.890625 7.515625 
Q 25.484375 6.109375 28.71875 6.109375 
Q 31.890625 6.109375 34.40625 7.203125 
Q 36.921875 8.296875 38.671875 10.375 
Q 40.4375 12.453125 41.359375 15.421875 
Q 42.28125 18.40625 42.28125 22.125 
z
" id="LiberationSans-36"/>
      </defs>
      <g style="fill:#262626;" transform="translate(825.563989 721.2518)scale(0.16 -0.16)">
       <use xlink:href="#LiberationSans-36"/>
       <use x="55.615234" xlink:href="#LiberationSans-30"/>
       <use x="111.230469" xlink:href="#LiberationSans-30"/>
      </g>
     </g>
    </g>
    <g id="xtick_5">
     <g id="line2d_9">
      <path clip-path="url(#p069b94ab06)" d="M 1095.533486 696.4068 
L 1095.533486 35.8968 
" style="fill:none;stroke:#d5d5d5;stroke-dasharray:1.85,0.8;stroke-dashoffset:0;stroke-width:0.5;"/>
     </g>
     <g id="line2d_10">
      <g>
       <use style="fill:#262626;stroke:#262626;" x="1095.533486" xlink:href="#mc652a5f850" y="696.4068"/>
      </g>
     </g>
     <g id="text_5">
      <!-- 700 -->
      <defs>
       <path d="M 50.59375 61.671875 
Q 45.40625 53.765625 41.0625 46.453125 
Q 36.71875 39.15625 33.59375 31.75 
Q 30.46875 24.359375 28.734375 16.578125 
Q 27 8.796875 27 0 
L 17.828125 0 
Q 17.828125 8.25 19.78125 16.1875 
Q 21.734375 24.125 25.046875 31.765625 
Q 28.375 39.40625 32.765625 46.78125 
Q 37.15625 54.15625 42.09375 61.328125 
L 5.125 61.328125 
L 5.125 68.796875 
L 50.59375 68.796875 
z
" id="LiberationSans-37"/>
      </defs>
      <g style="fill:#262626;" transform="translate(1082.187236 721.2518)scale(0.16 -0.16)">
       <use xlink:href="#LiberationSans-37"/>
       <use x="55.615234" xlink:href="#LiberationSans-30"/>
       <use x="111.230469" xlink:href="#LiberationSans-30"/>
      </g>
     </g>
    </g>
    <g id="xtick_6">
     <g id="line2d_11">
      <defs>
       <path d="M 0 0 
L 0 3.75 
" id="m77eac970ef" style="stroke:#262626;"/>
      </defs>
      <g>
       <use style="fill:#262626;stroke:#262626;" x="120.365149" xlink:href="#m77eac970ef" y="696.4068"/>
      </g>
     </g>
    </g>
    <g id="xtick_7">
     <g id="line2d_12">
      <g>
       <use style="fill:#262626;stroke:#262626;" x="171.689799" xlink:href="#m77eac970ef" y="696.4068"/>
      </g>
     </g>
    </g>
    <g id="xtick_8">
     <g id="line2d_13">
      <g>
       <use style="fill:#262626;stroke:#262626;" x="223.014448" xlink:href="#m77eac970ef" y="696.4068"/>
      </g>
     </g>
    </g>
    <g id="xtick_9">
     <g id="line2d_14">
      <g>
       <use style="fill:#262626;stroke:#262626;" x="274.339097" xlink:href="#m77eac970ef" y="696.4068"/>
      </g>
     </g>
    </g>
    <g id="xtick_10">
     <g id="line2d_15">
      <g>
       <use style="fill:#262626;stroke:#262626;" x="376.988396" xlink:href="#m77eac970ef" y="696.4068"/>
      </g>
     </g>
    </g>
    <g id="xtick_11">
     <g id="line2d_16">
      <g>
       <use style="fill:#262626;stroke:#262626;" x="428.313045" xlink:href="#m77eac970ef" y="696.4068"/>
      </g>
     </g>
    </g>
    <g id="xtick_12">
     <g id="line2d_17">
      <g>
       <use style="fill:#262626;stroke:#262626;" x="479.637694" xlink:href="#m77eac970ef" y="696.4068"/>
      </g>
     </g>
    </g>
    <g id="xtick_13">
     <g id="line2d_18">
      <g>
       <use style="fill:#262626;stroke:#262626;" x="530.962344" xlink:href="#m77eac970ef" y="696.4068"/>
      </g>
     </g>
    </g>
    <g id="xtick_14">
     <g id="line2d_19">
      <g>
       <use style="fill:#262626;stroke:#262626;" x="633.611642" xlink:href="#m77eac970ef" y="696.4068"/>
      </g>
     </g>
    </g>
    <g id="xtick_15">
     <g id="line2d_20">
      <g>
       <use style="fill:#262626;stroke:#262626;" x="684.936292" xlink:href="#m77eac970ef" y="696.4068"/>
      </g>
     </g>
    </g>
    <g id="xtick_16">
     <g id="line2d_21">
      <g>
       <use style="fill:#262626;stroke:#262626;" x="736.260941" xlink:href="#m77eac970ef" y="696.4068"/>
      </g>
     </g>
    </g>
    <g id="xtick_17">
     <g id="line2d_22">
      <g>
       <use style="fill:#262626;stroke:#262626;" x="787.58559" xlink:href="#m77eac970ef" y="696.4068"/>
      </g>
     </g>
    </g>
    <g id="xtick_18">
     <g id="line2d_23">
      <g>
       <use style="fill:#262626;stroke:#262626;" x="890.234889" xlink:href="#m77eac970ef" y="696.4068"/>
      </g>
     </g>
    </g>
    <g id="xtick_19">
     <g id="line2d_24">
      <g>
       <use style="fill:#262626;stroke:#262626;" x="941.559538" xlink:href="#m77eac970ef" y="696.4068"/>
      </g>
     </g>
    </g>
    <g id="xtick_20">
     <g id="line2d_25">
      <g>
       <use style="fill:#262626;stroke:#262626;" x="992.884187" xlink:href="#m77eac970ef" y="696.4068"/>
      </g>
     </g>
    </g>
    <g id="xtick_21">
     <g id="line2d_26">
      <g>
       <use style="fill:#262626;stroke:#262626;" x="1044.208837" xlink:href="#m77eac970ef" y="696.4068"/>
      </g>
     </g>
    </g>
    <g id="xtick_22">
     <g id="line2d_27">
      <g>
       <use style="fill:#262626;stroke:#262626;" x="1146.858135" xlink:href="#m77eac970ef" y="696.4068"/>
      </g>
     </g>
    </g>
    <g id="xtick_23">
     <g id="line2d_28">
      <g>
       <use style="fill:#262626;stroke:#262626;" x="1198.182785" xlink:href="#m77eac970ef" y="696.4068"/>
      </g>
     </g>
    </g>
    <g id="xtick_24">
     <g id="line2d_29">
      <g>
       <use style="fill:#262626;stroke:#262626;" x="1249.507434" xlink:href="#m77eac970ef" y="696.4068"/>
      </g>
     </g>
    </g>
    <g id="xtick_25">
     <g id="line2d_30">
      <g>
       <use style="fill:#262626;stroke:#262626;" x="1300.832083" xlink:href="#m77eac970ef" y="696.4068"/>
      </g>
     </g>
    </g>
    <g id="text_6">
     <!-- Wavelength $\lambda$ (nm) -->
     <defs>
      <path d="M 73.78125 0 
L 62.640625 0 
L 50.734375 43.703125 
Q 50.203125 45.5625 49.578125 48.09375 
Q 48.96875 50.640625 48.484375 52.9375 
Q 47.90625 55.609375 47.3125 58.40625 
Q 46.6875 55.5625 46.09375 52.875 
Q 45.5625 50.53125 44.96875 48.046875 
Q 44.390625 45.5625 43.84375 43.703125 
L 31.84375 0 
L 20.703125 0 
L 0.4375 68.796875 
L 10.15625 68.796875 
L 22.515625 25.09375 
Q 23.34375 22.015625 24.09375 18.984375 
Q 24.859375 15.96875 25.390625 13.578125 
Q 26.03125 10.75 26.5625 8.203125 
Q 27.296875 11.578125 28.078125 14.84375 
Q 28.421875 16.21875 28.765625 17.71875 
Q 29.109375 19.234375 29.46875 20.703125 
Q 29.828125 22.171875 30.1875 23.515625 
Q 30.5625 24.859375 30.859375 25.984375 
L 42.828125 68.796875 
L 51.765625 68.796875 
L 63.71875 25.984375 
Q 64.015625 24.859375 64.375 23.515625 
Q 64.75 22.171875 65.109375 20.71875 
Q 65.484375 19.28125 65.8125 17.765625 
Q 66.15625 16.265625 66.5 14.890625 
Q 67.28125 11.625 68.015625 8.203125 
Q 68.0625 8.203125 68.453125 9.890625 
Q 68.84375 11.578125 69.421875 14.109375 
Q 70.015625 16.65625 70.71875 19.609375 
Q 71.4375 22.5625 72.171875 25.09375 
L 84.328125 68.796875 
L 94.046875 68.796875 
z
" id="LiberationSans-57"/>
      <path d="M 20.21875 -0.984375 
Q 12.25 -0.984375 8.25 3.21875 
Q 4.25 7.421875 4.25 14.75 
Q 4.25 19.96875 6.21875 23.3125 
Q 8.203125 26.65625 11.390625 28.5625 
Q 14.59375 30.46875 18.6875 31.203125 
Q 22.796875 31.9375 27.046875 32.03125 
L 38.921875 32.234375 
L 38.921875 35.109375 
Q 38.921875 38.375 38.234375 40.671875 
Q 37.546875 42.96875 36.125 44.375 
Q 34.71875 45.796875 32.59375 46.453125 
Q 30.46875 47.125 27.59375 47.125 
Q 25.046875 47.125 23 46.75 
Q 20.953125 46.390625 19.4375 45.4375 
Q 17.921875 44.484375 16.984375 42.84375 
Q 16.0625 41.21875 15.765625 38.71875 
L 6.59375 39.546875 
Q 7.078125 42.671875 8.4375 45.28125 
Q 9.8125 47.90625 12.328125 49.796875 
Q 14.84375 51.703125 18.625 52.75 
Q 22.40625 53.8125 27.78125 53.8125 
Q 37.75 53.8125 42.765625 49.234375 
Q 47.796875 44.671875 47.796875 36.03125 
L 47.796875 13.28125 
Q 47.796875 9.375 48.828125 7.390625 
Q 49.859375 5.421875 52.734375 5.421875 
Q 53.46875 5.421875 54.203125 5.515625 
Q 54.9375 5.609375 55.609375 5.765625 
L 55.609375 0.296875 
Q 53.953125 -0.09375 52.3125 -0.28125 
Q 50.6875 -0.484375 48.828125 -0.484375 
Q 46.34375 -0.484375 44.5625 0.171875 
Q 42.78125 0.828125 41.65625 2.171875 
Q 40.53125 3.515625 39.9375 5.484375 
Q 39.359375 7.46875 39.203125 10.109375 
L 38.921875 10.109375 
Q 37.5 7.5625 35.8125 5.515625 
Q 34.125 3.46875 31.875 2.03125 
Q 29.640625 0.59375 26.78125 -0.1875 
Q 23.921875 -0.984375 20.21875 -0.984375 
z
M 22.21875 5.609375 
Q 26.421875 5.609375 29.5625 7.140625 
Q 32.71875 8.6875 34.78125 11.078125 
Q 36.859375 13.484375 37.890625 16.3125 
Q 38.921875 19.140625 38.921875 21.734375 
L 38.921875 26.078125 
L 29.296875 25.875 
Q 26.078125 25.828125 23.171875 25.40625 
Q 20.265625 25 18.0625 23.78125 
Q 15.875 22.5625 14.578125 20.359375 
Q 13.28125 18.171875 13.28125 14.59375 
Q 13.28125 10.296875 15.59375 7.953125 
Q 17.921875 5.609375 22.21875 5.609375 
z
" id="LiberationSans-61"/>
      <path d="M 29.9375 0 
L 19.53125 0 
L 0.34375 52.828125 
L 9.71875 52.828125 
L 21.34375 18.453125 
Q 21.6875 17.390625 22.140625 15.84375 
Q 22.609375 14.3125 23.09375 12.640625 
Q 23.578125 10.984375 24 9.4375 
Q 24.421875 7.90625 24.703125 6.890625 
Q 25 7.90625 25.453125 9.4375 
Q 25.921875 10.984375 26.40625 12.59375 
Q 26.90625 14.203125 27.421875 15.734375 
Q 27.9375 17.28125 28.328125 18.359375 
L 40.328125 52.828125 
L 49.65625 52.828125 
z
" id="LiberationSans-76"/>
      <path d="M 13.484375 24.5625 
Q 13.484375 20.40625 14.328125 16.90625 
Q 15.1875 13.421875 16.96875 10.90625 
Q 18.75 8.40625 21.53125 7 
Q 24.3125 5.609375 28.21875 5.609375 
Q 33.9375 5.609375 37.375 7.90625 
Q 40.828125 10.203125 42.046875 13.71875 
L 49.75 11.53125 
Q 48.921875 9.328125 47.4375 7.109375 
Q 45.953125 4.890625 43.453125 3.09375 
Q 40.96875 1.3125 37.234375 0.15625 
Q 33.5 -0.984375 28.21875 -0.984375 
Q 16.5 -0.984375 10.375 6 
Q 4.25 12.984375 4.25 26.765625 
Q 4.25 34.1875 6.09375 39.328125 
Q 7.953125 44.484375 11.171875 47.703125 
Q 14.40625 50.921875 18.703125 52.359375 
Q 23 53.8125 27.875 53.8125 
Q 34.515625 53.8125 38.984375 51.65625 
Q 43.453125 49.515625 46.15625 45.71875 
Q 48.875 41.9375 50.015625 36.8125 
Q 51.171875 31.6875 51.171875 25.734375 
L 51.171875 24.5625 
z
M 42.09375 31.296875 
Q 41.359375 39.65625 37.84375 43.484375 
Q 34.328125 47.3125 27.734375 47.3125 
Q 25.53125 47.3125 23.109375 46.609375 
Q 20.703125 45.90625 18.65625 44.09375 
Q 16.609375 42.28125 15.1875 39.171875 
Q 13.765625 36.078125 13.578125 31.296875 
z
" id="LiberationSans-65"/>
      <path d="M 6.734375 0 
L 6.734375 72.46875 
L 15.53125 72.46875 
L 15.53125 0 
z
" id="LiberationSans-6c"/>
      <path d="M 40.28125 0 
L 40.28125 33.5 
Q 40.28125 37.359375 39.71875 39.9375 
Q 39.15625 42.53125 37.890625 44.109375 
Q 36.625 45.703125 34.546875 46.359375 
Q 32.46875 47.015625 29.390625 47.015625 
Q 26.265625 47.015625 23.75 45.921875 
Q 21.234375 44.828125 19.453125 42.75 
Q 17.671875 40.671875 16.6875 37.625 
Q 15.71875 34.578125 15.71875 30.609375 
L 15.71875 0 
L 6.9375 0 
L 6.9375 41.546875 
Q 6.9375 43.21875 6.90625 45.046875 
Q 6.890625 46.875 6.828125 48.5 
Q 6.78125 50.140625 6.734375 51.3125 
Q 6.6875 52.484375 6.640625 52.828125 
L 14.9375 52.828125 
Q 14.984375 52.59375 15.03125 51.515625 
Q 15.09375 50.4375 15.15625 49.046875 
Q 15.234375 47.65625 15.28125 46.21875 
Q 15.328125 44.78125 15.328125 43.796875 
L 15.484375 43.796875 
Q 16.75 46.09375 18.265625 47.953125 
Q 19.78125 49.8125 21.78125 51.09375 
Q 23.78125 52.390625 26.359375 53.09375 
Q 28.953125 53.8125 32.375 53.8125 
Q 36.765625 53.8125 39.9375 52.734375 
Q 43.109375 51.65625 45.15625 49.40625 
Q 47.21875 47.171875 48.171875 43.625 
Q 49.125 40.09375 49.125 35.203125 
L 49.125 0 
z
" id="LiberationSans-6e"/>
      <path d="M 26.765625 -20.75 
Q 22.21875 -20.75 18.703125 -19.8125 
Q 15.1875 -18.890625 12.6875 -17.15625 
Q 10.203125 -15.4375 8.640625 -13.03125 
Q 7.078125 -10.640625 6.390625 -7.71875 
L 15.234375 -6.453125 
Q 16.109375 -10.109375 19.109375 -12.078125 
Q 22.125 -14.0625 27 -14.0625 
Q 29.984375 -14.0625 32.421875 -13.234375 
Q 34.859375 -12.40625 36.5625 -10.5625 
Q 38.28125 -8.734375 39.203125 -5.796875 
Q 40.140625 -2.875 40.140625 1.3125 
L 40.140625 9.8125 
L 40.046875 9.8125 
Q 39.0625 7.8125 37.625 5.984375 
Q 36.1875 4.15625 34.109375 2.734375 
Q 32.03125 1.3125 29.296875 0.453125 
Q 26.5625 -0.390625 23.046875 -0.390625 
Q 18.015625 -0.390625 14.421875 1.296875 
Q 10.84375 2.984375 8.5625 6.34375 
Q 6.296875 9.71875 5.25 14.71875 
Q 4.203125 19.734375 4.203125 26.3125 
Q 4.203125 32.671875 5.25 37.75 
Q 6.296875 42.828125 8.65625 46.359375 
Q 11.03125 49.90625 14.8125 51.78125 
Q 18.609375 53.65625 24.03125 53.65625 
Q 29.640625 53.65625 33.765625 51.09375 
Q 37.890625 48.53125 40.140625 43.796875 
L 40.234375 43.796875 
Q 40.234375 45.015625 40.296875 46.53125 
Q 40.375 48.046875 40.453125 49.390625 
Q 40.53125 50.734375 40.625 51.703125 
Q 40.71875 52.6875 40.828125 52.828125 
L 49.171875 52.828125 
Q 49.125 52.390625 49.078125 51.34375 
Q 49.03125 50.296875 48.96875 48.828125 
Q 48.921875 47.359375 48.890625 45.578125 
Q 48.875 43.796875 48.875 41.890625 
L 48.875 1.515625 
Q 48.875 -9.578125 43.421875 -15.15625 
Q 37.984375 -20.75 26.765625 -20.75 
z
M 40.140625 26.421875 
Q 40.140625 31.9375 38.9375 35.859375 
Q 37.75 39.796875 35.796875 42.28125 
Q 33.84375 44.78125 31.328125 45.953125 
Q 28.8125 47.125 26.171875 47.125 
Q 22.796875 47.125 20.375 45.953125 
Q 17.96875 44.78125 16.375 42.265625 
Q 14.796875 39.75 14.03125 35.8125 
Q 13.28125 31.890625 13.28125 26.421875 
Q 13.28125 20.703125 14.03125 16.8125 
Q 14.796875 12.9375 16.359375 10.546875 
Q 17.921875 8.15625 20.3125 7.125 
Q 22.703125 6.109375 26.03125 6.109375 
Q 28.65625 6.109375 31.171875 7.21875 
Q 33.6875 8.34375 35.6875 10.78125 
Q 37.703125 13.234375 38.921875 17.09375 
Q 40.140625 20.953125 40.140625 26.421875 
z
" id="LiberationSans-67"/>
      <path d="M 27.046875 0.390625 
Q 25.046875 -0.140625 22.96875 -0.453125 
Q 20.90625 -0.78125 18.171875 -0.78125 
Q 7.625 -0.78125 7.625 11.1875 
L 7.625 46.4375 
L 1.515625 46.4375 
L 1.515625 52.828125 
L 7.953125 52.828125 
L 10.546875 64.65625 
L 16.40625 64.65625 
L 16.40625 52.828125 
L 26.171875 52.828125 
L 26.171875 46.4375 
L 16.40625 46.4375 
L 16.40625 13.09375 
Q 16.40625 9.28125 17.640625 7.734375 
Q 18.890625 6.203125 21.96875 6.203125 
Q 23.25 6.203125 24.4375 6.390625 
Q 25.640625 6.59375 27.046875 6.890625 
z
" id="LiberationSans-74"/>
      <path d="M 15.484375 43.796875 
Q 16.9375 46.484375 18.640625 48.359375 
Q 20.359375 50.25 22.40625 51.46875 
Q 24.46875 52.6875 26.90625 53.25 
Q 29.34375 53.8125 32.375 53.8125 
Q 37.453125 53.8125 40.703125 52.4375 
Q 43.953125 51.078125 45.828125 48.609375 
Q 47.703125 46.140625 48.40625 42.71875 
Q 49.125 39.3125 49.125 35.203125 
L 49.125 0 
L 40.28125 0 
L 40.28125 33.5 
Q 40.28125 36.859375 39.859375 39.390625 
Q 39.453125 41.9375 38.28125 43.625 
Q 37.109375 45.3125 34.953125 46.15625 
Q 32.8125 47.015625 29.390625 47.015625 
Q 26.265625 47.015625 23.75 45.890625 
Q 21.234375 44.78125 19.453125 42.71875 
Q 17.671875 40.671875 16.6875 37.734375 
Q 15.71875 34.8125 15.71875 31.15625 
L 15.71875 0 
L 6.9375 0 
L 6.9375 72.46875 
L 15.71875 72.46875 
L 15.71875 53.609375 
Q 15.71875 52 15.671875 50.390625 
Q 15.625 48.78125 15.546875 47.40625 
Q 15.484375 46.046875 15.421875 45.09375 
Q 15.375 44.140625 15.328125 43.796875 
z
" id="LiberationSans-68"/>
      <path id="LiberationSans-20"/>
      <path d="M 36.71875 67.4375 
L 48.828125 0 
L 39.3125 0 
L 31.84375 40.4375 
L 5.125 0 
L -4.390625 0 
L 29.734375 52.4375 
L 28.03125 62.109375 
Q 26.953125 68.265625 21.734375 68.265625 
L 17.046875 68.265625 
L 18.5 75.984375 
L 24.21875 75.875 
Q 35.203125 75.734375 36.71875 67.4375 
z
" id="DejaVuSans-Oblique-3bb"/>
      <path d="M 6.203125 25.984375 
Q 6.203125 32.765625 7.21875 38.96875 
Q 8.25 45.171875 10.4375 50.875 
Q 12.640625 56.59375 16.0625 61.953125 
Q 19.484375 67.328125 24.21875 72.46875 
L 32.71875 72.46875 
Q 28.125 67.328125 24.78125 61.9375 
Q 21.4375 56.546875 19.28125 50.796875 
Q 17.140625 45.0625 16.09375 38.859375 
Q 15.046875 32.671875 15.046875 25.875 
Q 15.046875 19.09375 16.09375 12.890625 
Q 17.140625 6.6875 19.28125 0.921875 
Q 21.4375 -4.828125 24.78125 -10.203125 
Q 28.125 -15.578125 32.71875 -20.703125 
L 24.21875 -20.703125 
Q 19.484375 -15.578125 16.0625 -10.203125 
Q 12.640625 -4.828125 10.4375 0.875 
Q 8.25 6.59375 7.21875 12.765625 
Q 6.203125 18.953125 6.203125 25.78125 
z
" id="LiberationSans-28"/>
      <path d="M 37.5 0 
L 37.5 33.5 
Q 37.5 37.359375 37.015625 39.9375 
Q 36.53125 42.53125 35.375 44.109375 
Q 34.234375 45.703125 32.375 46.359375 
Q 30.515625 47.015625 27.828125 47.015625 
Q 25.046875 47.015625 22.796875 45.921875 
Q 20.5625 44.828125 18.96875 42.75 
Q 17.390625 40.671875 16.53125 37.625 
Q 15.671875 34.578125 15.671875 30.609375 
L 15.671875 0 
L 6.9375 0 
L 6.9375 41.546875 
Q 6.9375 43.21875 6.90625 45.046875 
Q 6.890625 46.875 6.828125 48.5 
Q 6.78125 50.140625 6.734375 51.3125 
Q 6.6875 52.484375 6.640625 52.828125 
L 14.9375 52.828125 
Q 14.984375 52.59375 15.03125 51.515625 
Q 15.09375 50.4375 15.15625 49.046875 
Q 15.234375 47.65625 15.28125 46.21875 
Q 15.328125 44.78125 15.328125 43.796875 
L 15.484375 43.796875 
Q 16.65625 46.09375 18.015625 47.953125 
Q 19.390625 49.8125 21.21875 51.09375 
Q 23.046875 52.390625 25.40625 53.09375 
Q 27.78125 53.8125 30.90625 53.8125 
Q 36.921875 53.8125 40.40625 51.421875 
Q 43.890625 49.03125 45.265625 43.796875 
L 45.40625 43.796875 
Q 46.578125 46.09375 48.046875 47.953125 
Q 49.515625 49.8125 51.46875 51.09375 
Q 53.421875 52.390625 55.859375 53.09375 
Q 58.296875 53.8125 61.421875 53.8125 
Q 65.4375 53.8125 68.328125 52.734375 
Q 71.234375 51.65625 73.09375 49.40625 
Q 74.953125 47.171875 75.828125 43.625 
Q 76.703125 40.09375 76.703125 35.203125 
L 76.703125 0 
L 68.015625 0 
L 68.015625 33.5 
Q 68.015625 37.359375 67.53125 39.9375 
Q 67.046875 42.53125 65.890625 44.109375 
Q 64.75 45.703125 62.890625 46.359375 
Q 61.03125 47.015625 58.34375 47.015625 
Q 55.5625 47.015625 53.3125 45.96875 
Q 51.078125 44.921875 49.484375 42.875 
Q 47.90625 40.828125 47.046875 37.75 
Q 46.1875 34.671875 46.1875 30.609375 
L 46.1875 0 
z
" id="LiberationSans-6d"/>
      <path d="M 27.09375 25.78125 
Q 27.09375 18.953125 26.0625 12.765625 
Q 25.046875 6.59375 22.84375 0.875 
Q 20.65625 -4.828125 17.234375 -10.203125 
Q 13.8125 -15.578125 9.078125 -20.703125 
L 0.59375 -20.703125 
Q 5.171875 -15.578125 8.515625 -10.203125 
Q 11.859375 -4.828125 14 0.921875 
Q 16.15625 6.6875 17.203125 12.890625 
Q 18.265625 19.09375 18.265625 25.875 
Q 18.265625 32.671875 17.203125 38.859375 
Q 16.15625 45.0625 14 50.796875 
Q 11.859375 56.546875 8.515625 61.9375 
Q 5.171875 67.328125 0.59375 72.46875 
L 9.078125 72.46875 
Q 13.8125 67.328125 17.234375 61.953125 
Q 20.65625 56.59375 22.84375 50.875 
Q 25.046875 45.171875 26.0625 38.96875 
Q 27.09375 32.765625 27.09375 25.984375 
z
" id="LiberationSans-29"/>
     </defs>
     <g style="fill:#262626;" transform="translate(627.8115 743.1638)scale(0.192 -0.192)">
      <use transform="translate(0 0.015625)" xlink:href="#LiberationSans-57"/>
      <use transform="translate(94.384766 0.015625)" xlink:href="#LiberationSans-61"/>
      <use transform="translate(150 0.015625)" xlink:href="#LiberationSans-76"/>
      <use transform="translate(200 0.015625)" xlink:href="#LiberationSans-65"/>
      <use transform="translate(255.615234 0.015625)" xlink:href="#LiberationSans-6c"/>
      <use transform="translate(277.832031 0.015625)" xlink:href="#LiberationSans-65"/>
      <use transform="translate(333.447266 0.015625)" xlink:href="#LiberationSans-6e"/>
      <use transform="translate(389.0625 0.015625)" xlink:href="#LiberationSans-67"/>
      <use transform="translate(444.677734 0.015625)" xlink:href="#LiberationSans-74"/>
      <use transform="translate(472.460938 0.015625)" xlink:href="#LiberationSans-68"/>
      <use transform="translate(528.076172 0.015625)" xlink:href="#LiberationSans-20"/>
      <use transform="translate(555.859375 0.015625)" xlink:href="#DejaVuSans-Oblique-3bb"/>
      <use transform="translate(615.039062 0.015625)" xlink:href="#LiberationSans-20"/>
      <use transform="translate(642.822266 0.015625)" xlink:href="#LiberationSans-28"/>
      <use transform="translate(676.123047 0.015625)" xlink:href="#LiberationSans-6e"/>
      <use transform="translate(731.738281 0.015625)" xlink:href="#LiberationSans-6d"/>
      <use transform="translate(815.039062 0.015625)" xlink:href="#LiberationSans-29"/>
     </g>
    </g>
   </g>
   <g id="matplotlib.axis_2">
    <g id="ytick_1">
     <g id="line2d_31">
      <path clip-path="url(#p069b94ab06)" d="M 69.0405 696.4068 
L 1349.5905 696.4068 
" style="fill:none;stroke:#d5d5d5;stroke-dasharray:1.85,0.8;stroke-dashoffset:0;stroke-width:0.5;"/>
     </g>
     <g id="line2d_32">
      <defs>
       <path d="M 0 0 
L -6.25 0 
" id="m6402498493" style="stroke:#262626;"/>
      </defs>
      <g>
       <use style="fill:#262626;stroke:#262626;" x="69.0405" xlink:href="#m6402498493" y="696.4068"/>
      </g>
     </g>
     <g id="text_7">
      <!-- 0 -->
      <g style="fill:#262626;" transform="translate(46.893 702.2043)scale(0.16 -0.16)">
       <use xlink:href="#LiberationSans-30"/>
      </g>
     </g>
    </g>
    <g id="ytick_2">
     <g id="line2d_33">
      <path clip-path="url(#p069b94ab06)" d="M 69.0405 566.261534 
L 1349.5905 566.261534 
" style="fill:none;stroke:#d5d5d5;stroke-dasharray:1.85,0.8;stroke-dashoffset:0;stroke-width:0.5;"/>
     </g>
     <g id="line2d_34">
      <g>
       <use style="fill:#262626;stroke:#262626;" x="69.0405" xlink:href="#m6402498493" y="566.261534"/>
      </g>
     </g>
     <g id="text_8">
      <!-- 50 -->
      <g style="fill:#262626;" transform="translate(37.9955 572.059034)scale(0.16 -0.16)">
       <use xlink:href="#LiberationSans-35"/>
       <use x="55.615234" xlink:href="#LiberationSans-30"/>
      </g>
     </g>
    </g>
    <g id="ytick_3">
     <g id="line2d_35">
      <path clip-path="url(#p069b94ab06)" d="M 69.0405 436.116268 
L 1349.5905 436.116268 
" style="fill:none;stroke:#d5d5d5;stroke-dasharray:1.85,0.8;stroke-dashoffset:0;stroke-width:0.5;"/>
     </g>
     <g id="line2d_36">
      <g>
       <use style="fill:#262626;stroke:#262626;" x="69.0405" xlink:href="#m6402498493" y="436.116268"/>
      </g>
     </g>
     <g id="text_9">
      <!-- 100 -->
      <defs>
       <path d="M 7.625 0 
L 7.625 7.46875 
L 25.140625 7.46875 
L 25.140625 60.40625 
L 9.625 49.3125 
L 9.625 57.625 
L 25.875 68.796875 
L 33.984375 68.796875 
L 33.984375 7.46875 
L 50.734375 7.46875 
L 50.734375 0 
z
" id="LiberationSans-31"/>
      </defs>
      <g style="fill:#262626;" transform="translate(29.098 441.913768)scale(0.16 -0.16)">
       <use xlink:href="#LiberationSans-31"/>
       <use x="55.615234" xlink:href="#LiberationSans-30"/>
       <use x="111.230469" xlink:href="#LiberationSans-30"/>
      </g>
     </g>
    </g>
    <g id="ytick_4">
     <g id="line2d_37">
      <path clip-path="url(#p069b94ab06)" d="M 69.0405 305.971002 
L 1349.5905 305.971002 
" style="fill:none;stroke:#d5d5d5;stroke-dasharray:1.85,0.8;stroke-dashoffset:0;stroke-width:0.5;"/>
     </g>
     <g id="line2d_38">
      <g>
       <use style="fill:#262626;stroke:#262626;" x="69.0405" xlink:href="#m6402498493" y="305.971002"/>
      </g>
     </g>
     <g id="text_10">
      <!-- 150 -->
      <g style="fill:#262626;" transform="translate(29.098 311.768502)scale(0.16 -0.16)">
       <use xlink:href="#LiberationSans-31"/>
       <use x="55.615234" xlink:href="#LiberationSans-35"/>
       <use x="111.230469" xlink:href="#LiberationSans-30"/>
      </g>
     </g>
    </g>
    <g id="ytick_5">
     <g id="line2d_39">
      <path clip-path="url(#p069b94ab06)" d="M 69.0405 175.825736 
L 1349.5905 175.825736 
" style="fill:none;stroke:#d5d5d5;stroke-dasharray:1.85,0.8;stroke-dashoffset:0;stroke-width:0.5;"/>
     </g>
     <g id="line2d_40">
      <g>
       <use style="fill:#262626;stroke:#262626;" x="69.0405" xlink:href="#m6402498493" y="175.825736"/>
      </g>
     </g>
     <g id="text_11">
      <!-- 200 -->
      <defs>
       <path d="M 5.03125 0 
L 5.03125 6.203125 
Q 7.515625 11.921875 11.109375 16.28125 
Q 14.703125 20.65625 18.65625 24.1875 
Q 22.609375 27.734375 26.484375 30.765625 
Q 30.375 33.796875 33.5 36.8125 
Q 36.625 39.84375 38.546875 43.15625 
Q 40.484375 46.484375 40.484375 50.6875 
Q 40.484375 53.609375 39.59375 55.828125 
Q 38.71875 58.0625 37.0625 59.5625 
Q 35.40625 61.078125 33.078125 61.828125 
Q 30.765625 62.59375 27.9375 62.59375 
Q 25.296875 62.59375 22.96875 61.859375 
Q 20.65625 61.140625 18.84375 59.671875 
Q 17.046875 58.203125 15.890625 56.03125 
Q 14.75 53.859375 14.40625 50.984375 
L 5.421875 51.8125 
Q 5.859375 55.515625 7.46875 58.78125 
Q 9.078125 62.0625 11.90625 64.53125 
Q 14.75 67 18.71875 68.40625 
Q 22.703125 69.828125 27.9375 69.828125 
Q 33.0625 69.828125 37.0625 68.609375 
Q 41.0625 67.390625 43.8125 64.984375 
Q 46.578125 62.59375 48.046875 59.078125 
Q 49.515625 55.5625 49.515625 50.984375 
Q 49.515625 47.515625 48.265625 44.390625 
Q 47.015625 41.265625 44.9375 38.421875 
Q 42.875 35.59375 40.140625 32.953125 
Q 37.40625 30.328125 34.421875 27.8125 
Q 31.453125 25.296875 28.421875 22.828125 
Q 25.390625 20.359375 22.71875 17.859375 
Q 20.0625 15.375 17.96875 12.8125 
Q 15.875 10.25 14.703125 7.46875 
L 50.59375 7.46875 
L 50.59375 0 
z
" id="LiberationSans-32"/>
      </defs>
      <g style="fill:#262626;" transform="translate(29.098 181.623236)scale(0.16 -0.16)">
       <use xlink:href="#LiberationSans-32"/>
       <use x="55.615234" xlink:href="#LiberationSans-30"/>
       <use x="111.230469" xlink:href="#LiberationSans-30"/>
      </g>
     </g>
    </g>
    <g id="ytick_6">
     <g id="line2d_41">
      <path clip-path="url(#p069b94ab06)" d="M 69.0405 45.68047 
L 1349.5905 45.68047 
" style="fill:none;stroke:#d5d5d5;stroke-dasharray:1.85,0.8;stroke-dashoffset:0;stroke-width:0.5;"/>
     </g>
     <g id="line2d_42">
      <g>
       <use style="fill:#262626;stroke:#262626;" x="69.0405" xlink:href="#m6402498493" y="45.68047"/>
      </g>
     </g>
     <g id="text_12">
      <!-- 250 -->
      <g style="fill:#262626;" transform="translate(29.098 51.47797)scale(0.16 -0.16)">
       <use xlink:href="#LiberationSans-32"/>
       <use x="55.615234" xlink:href="#LiberationSans-35"/>
       <use x="111.230469" xlink:href="#LiberationSans-30"/>
      </g>
     </g>
    </g>
    <g id="ytick_7">
     <g id="line2d_43">
      <defs>
       <path d="M 0 0 
L -3.75 0 
" id="maff03e9a07" style="stroke:#262626;"/>
      </defs>
      <g>
       <use style="fill:#262626;stroke:#262626;" x="69.0405" xlink:href="#maff03e9a07" y="670.377747"/>
      </g>
     </g>
    </g>
    <g id="ytick_8">
     <g id="line2d_44">
      <g>
       <use style="fill:#262626;stroke:#262626;" x="69.0405" xlink:href="#maff03e9a07" y="644.348694"/>
      </g>
     </g>
    </g>
    <g id="ytick_9">
     <g id="line2d_45">
      <g>
       <use style="fill:#262626;stroke:#262626;" x="69.0405" xlink:href="#maff03e9a07" y="618.31964"/>
      </g>
     </g>
    </g>
    <g id="ytick_10">
     <g id="line2d_46">
      <g>
       <use style="fill:#262626;stroke:#262626;" x="69.0405" xlink:href="#maff03e9a07" y="592.290587"/>
      </g>
     </g>
    </g>
    <g id="ytick_11">
     <g id="line2d_47">
      <g>
       <use style="fill:#262626;stroke:#262626;" x="69.0405" xlink:href="#maff03e9a07" y="540.232481"/>
      </g>
     </g>
    </g>
    <g id="ytick_12">
     <g id="line2d_48">
      <g>
       <use style="fill:#262626;stroke:#262626;" x="69.0405" xlink:href="#maff03e9a07" y="514.203428"/>
      </g>
     </g>
    </g>
    <g id="ytick_13">
     <g id="line2d_49">
      <g>
       <use style="fill:#262626;stroke:#262626;" x="69.0405" xlink:href="#maff03e9a07" y="488.174375"/>
      </g>
     </g>
    </g>
    <g id="ytick_14">
     <g id="line2d_50">
      <g>
       <use style="fill:#262626;stroke:#262626;" x="69.0405" xlink:href="#maff03e9a07" y="462.145321"/>
      </g>
     </g>
    </g>
    <g id="ytick_15">
     <g id="line2d_51">
      <g>
       <use style="fill:#262626;stroke:#262626;" x="69.0405" xlink:href="#maff03e9a07" y="410.087215"/>
      </g>
     </g>
    </g>
    <g id="ytick_16">
     <g id="line2d_52">
      <g>
       <use style="fill:#262626;stroke:#262626;" x="69.0405" xlink:href="#maff03e9a07" y="384.058162"/>
      </g>
     </g>
    </g>
    <g id="ytick_17">
     <g id="line2d_53">
      <g>
       <use style="fill:#262626;stroke:#262626;" x="69.0405" xlink:href="#maff03e9a07" y="358.029109"/>
      </g>
     </g>
    </g>
    <g id="ytick_18">
     <g id="line2d_54">
      <g>
       <use style="fill:#262626;stroke:#262626;" x="69.0405" xlink:href="#maff03e9a07" y="332.000055"/>
      </g>
     </g>
    </g>
    <g id="ytick_19">
     <g id="line2d_55">
      <g>
       <use style="fill:#262626;stroke:#262626;" x="69.0405" xlink:href="#maff03e9a07" y="279.941949"/>
      </g>
     </g>
    </g>
    <g id="ytick_20">
     <g id="line2d_56">
      <g>
       <use style="fill:#262626;stroke:#262626;" x="69.0405" xlink:href="#maff03e9a07" y="253.912896"/>
      </g>
     </g>
    </g>
    <g id="ytick_21">
     <g id="line2d_57">
      <g>
       <use style="fill:#262626;stroke:#262626;" x="69.0405" xlink:href="#maff03e9a07" y="227.883843"/>
      </g>
     </g>
    </g>
    <g id="ytick_22">
     <g id="line2d_58">
      <g>
       <use style="fill:#262626;stroke:#262626;" x="69.0405" xlink:href="#maff03e9a07" y="201.854789"/>
      </g>
     </g>
    </g>
    <g id="ytick_23">
     <g id="line2d_59">
      <g>
       <use style="fill:#262626;stroke:#262626;" x="69.0405" xlink:href="#maff03e9a07" y="149.796683"/>
      </g>
     </g>
    </g>
    <g id="ytick_24">
     <g id="line2d_60">
      <g>
       <use style="fill:#262626;stroke:#262626;" x="69.0405" xlink:href="#maff03e9a07" y="123.76763"/>
      </g>
     </g>
    </g>
    <g id="ytick_25">
     <g id="line2d_61">
      <g>
       <use style="fill:#262626;stroke:#262626;" x="69.0405" xlink:href="#maff03e9a07" y="97.738577"/>
      </g>
     </g>
    </g>
    <g id="ytick_26">
     <g id="line2d_62">
      <g>
       <use style="fill:#262626;stroke:#262626;" x="69.0405" xlink:href="#maff03e9a07" y="71.709524"/>
      </g>
     </g>
    </g>
    <g id="text_13">
     <!-- Relative Power -->
     <defs>
      <path d="M 56.84375 0 
L 38.96875 28.5625 
L 17.53125 28.5625 
L 17.53125 0 
L 8.203125 0 
L 8.203125 68.796875 
L 40.578125 68.796875 
Q 46.4375 68.796875 50.953125 67.453125 
Q 55.46875 66.109375 58.546875 63.5625 
Q 61.625 61.03125 63.234375 57.375 
Q 64.84375 53.71875 64.84375 49.125 
Q 64.84375 45.84375 63.890625 42.671875 
Q 62.9375 39.5 60.890625 36.859375 
Q 58.84375 34.234375 55.65625 32.328125 
Q 52.484375 30.421875 48.046875 29.640625 
L 67.578125 0 
z
M 55.46875 49.03125 
Q 55.46875 52.15625 54.390625 54.4375 
Q 53.328125 56.734375 51.265625 58.265625 
Q 49.21875 59.8125 46.28125 60.5625 
Q 43.359375 61.328125 39.65625 61.328125 
L 17.53125 61.328125 
L 17.53125 35.9375 
L 40.046875 35.9375 
Q 44.046875 35.9375 46.96875 36.9375 
Q 49.90625 37.9375 51.78125 39.6875 
Q 53.65625 41.453125 54.5625 43.84375 
Q 55.46875 46.234375 55.46875 49.03125 
z
" id="LiberationSans-52"/>
      <path d="M 6.6875 64.0625 
L 6.6875 72.46875 
L 15.484375 72.46875 
L 15.484375 64.0625 
z
M 6.6875 0 
L 6.6875 52.828125 
L 15.484375 52.828125 
L 15.484375 0 
z
" id="LiberationSans-69"/>
      <path d="M 61.421875 48.09375 
Q 61.421875 43.609375 59.9375 39.71875 
Q 58.453125 35.84375 55.5 32.984375 
Q 52.546875 30.125 48.09375 28.46875 
Q 43.65625 26.8125 37.75 26.8125 
L 17.53125 26.8125 
L 17.53125 0 
L 8.203125 0 
L 8.203125 68.796875 
L 37.15625 68.796875 
Q 43.265625 68.796875 47.796875 67.3125 
Q 52.34375 65.828125 55.375 63.109375 
Q 58.40625 60.40625 59.90625 56.5625 
Q 61.421875 52.734375 61.421875 48.09375 
z
M 52.046875 48 
Q 52.046875 54.546875 48.046875 57.9375 
Q 44.046875 61.328125 36.03125 61.328125 
L 17.53125 61.328125 
L 17.53125 34.1875 
L 36.421875 34.1875 
Q 44.484375 34.1875 48.265625 37.75 
Q 52.046875 41.3125 52.046875 48 
z
" id="LiberationSans-50"/>
      <path d="M 51.421875 26.46875 
Q 51.421875 12.59375 45.3125 5.796875 
Q 39.203125 -0.984375 27.59375 -0.984375 
Q 22.078125 -0.984375 17.71875 0.671875 
Q 13.375 2.34375 10.375 5.765625 
Q 7.375 9.1875 5.78125 14.328125 
Q 4.203125 19.484375 4.203125 26.46875 
Q 4.203125 53.8125 27.875 53.8125 
Q 34.03125 53.8125 38.5 52.09375 
Q 42.96875 50.390625 45.828125 46.96875 
Q 48.6875 43.5625 50.046875 38.421875 
Q 51.421875 33.296875 51.421875 26.46875 
z
M 42.1875 26.46875 
Q 42.1875 32.625 41.234375 36.625 
Q 40.28125 40.625 38.453125 43.015625 
Q 36.625 45.40625 33.984375 46.359375 
Q 31.34375 47.3125 28.03125 47.3125 
Q 24.65625 47.3125 21.9375 46.3125 
Q 19.234375 45.3125 17.328125 42.890625 
Q 15.4375 40.484375 14.421875 36.46875 
Q 13.421875 32.46875 13.421875 26.46875 
Q 13.421875 20.3125 14.5 16.28125 
Q 15.578125 12.25 17.453125 9.859375 
Q 19.34375 7.46875 21.90625 6.484375 
Q 24.46875 5.515625 27.484375 5.515625 
Q 30.859375 5.515625 33.59375 6.46875 
Q 36.328125 7.421875 38.234375 9.8125 
Q 40.140625 12.203125 41.15625 16.25 
Q 42.1875 20.3125 42.1875 26.46875 
z
" id="LiberationSans-6f"/>
      <path d="M 57.328125 0 
L 47.125 0 
L 38.671875 34.078125 
Q 38.28125 35.40625 37.859375 37.359375 
Q 37.453125 39.3125 37.0625 41.15625 
Q 36.578125 43.3125 36.140625 45.609375 
Q 35.6875 43.40625 35.203125 41.265625 
Q 34.8125 39.40625 34.34375 37.40625 
Q 33.890625 35.40625 33.5 33.890625 
L 24.8125 0 
L 14.65625 0 
L -0.140625 52.828125 
L 8.546875 52.828125 
L 17.484375 16.9375 
Q 17.828125 15.828125 18.15625 14.1875 
Q 18.5 12.546875 18.84375 10.984375 
Q 19.1875 9.1875 19.578125 7.28125 
Q 19.96875 9.125 20.40625 10.890625 
Q 20.796875 12.40625 21.1875 13.96875 
Q 21.578125 15.53125 21.875 16.546875 
L 31.453125 52.828125 
L 40.875 52.828125 
L 50.09375 16.546875 
Q 50.4375 15.28125 50.828125 13.671875 
Q 51.21875 12.0625 51.5625 10.640625 
Q 51.953125 8.984375 52.34375 7.28125 
Q 52.734375 9.125 53.125 10.890625 
Q 53.46875 12.40625 53.828125 14.03125 
Q 54.203125 15.671875 54.546875 16.9375 
L 63.875 52.828125 
L 72.46875 52.828125 
z
" id="LiberationSans-77"/>
      <path d="M 6.9375 0 
L 6.9375 40.53125 
Q 6.9375 42.1875 6.90625 43.921875 
Q 6.890625 45.65625 6.828125 47.265625 
Q 6.78125 48.875 6.734375 50.28125 
Q 6.6875 51.703125 6.640625 52.828125 
L 14.9375 52.828125 
Q 14.984375 51.703125 15.0625 50.265625 
Q 15.140625 48.828125 15.203125 47.3125 
Q 15.28125 45.796875 15.296875 44.40625 
Q 15.328125 43.015625 15.328125 42.046875 
L 15.53125 42.046875 
Q 16.453125 45.0625 17.5 47.28125 
Q 18.5625 49.515625 19.96875 50.953125 
Q 21.390625 52.390625 23.34375 53.09375 
Q 25.296875 53.8125 28.078125 53.8125 
Q 29.15625 53.8125 30.125 53.640625 
Q 31.109375 53.46875 31.640625 53.328125 
L 31.640625 45.265625 
Q 30.765625 45.515625 29.59375 45.625 
Q 28.421875 45.75 26.953125 45.75 
Q 23.921875 45.75 21.796875 44.375 
Q 19.671875 43.015625 18.328125 40.59375 
Q 17 38.1875 16.359375 34.84375 
Q 15.71875 31.5 15.71875 27.546875 
L 15.71875 0 
z
" id="LiberationSans-72"/>
     </defs>
     <g style="fill:#262626;" transform="translate(21.114 430.7103)rotate(-90)scale(0.192 -0.192)">
      <use xlink:href="#LiberationSans-52"/>
      <use x="72.216797" xlink:href="#LiberationSans-65"/>
      <use x="127.832031" xlink:href="#LiberationSans-6c"/>
      <use x="150.048828" xlink:href="#LiberationSans-61"/>
      <use x="205.664062" xlink:href="#LiberationSans-74"/>
      <use x="233.447266" xlink:href="#LiberationSans-69"/>
      <use x="255.664062" xlink:href="#LiberationSans-76"/>
      <use x="305.664062" xlink:href="#LiberationSans-65"/>
      <use x="361.279297" xlink:href="#LiberationSans-20"/>
      <use x="389.0625" xlink:href="#LiberationSans-50"/>
      <use x="455.761719" xlink:href="#LiberationSans-6f"/>
      <use x="511.376953" xlink:href="#LiberationSans-77"/>
      <use x="583.59375" xlink:href="#LiberationSans-65"/>
      <use x="639.208984" xlink:href="#LiberationSans-72"/>
     </g>
    </g>
   </g>
   <g id="line2d_63">
    <path clip-path="url(#p069b94ab06)" d="M 69.0405 693.984841 
L 81.871662 693.470176 
L 94.702825 692.872861 
L 107.533987 692.184393 
L 120.365149 691.395999 
L 133.196312 690.498726 
L 146.027474 689.483566 
L 158.858636 688.341412 
L 171.689799 687.063203 
L 184.520961 685.639934 
L 197.352123 684.062834 
L 210.183286 682.32326 
L 223.014448 680.412936 
L 235.84561 678.323896 
L 248.676773 676.048566 
L 261.507935 673.579841 
L 274.339097 670.911082 
L 287.17026 668.036173 
L 300.001422 664.949908 
L 312.832584 661.646822 
L 325.663746 658.123269 
L 338.494909 654.375085 
L 351.326071 650.399668 
L 364.157233 646.194934 
L 376.988396 641.758803 
L 389.819558 637.091013 
L 402.65072 632.190783 
L 415.481883 627.058895 
L 428.313045 621.69639 
L 441.144207 616.105089 
L 453.97537 610.287335 
L 466.806532 604.246252 
L 479.637694 597.985484 
L 492.468857 591.509195 
L 505.300019 584.822071 
L 518.131181 577.929317 
L 530.962344 570.836661 
L 543.793506 563.549827 
L 556.624668 556.075845 
L 569.455831 548.421481 
L 582.286993 540.594024 
L 595.118155 532.600762 
L 607.949318 524.449764 
L 620.78048 516.149099 
L 633.611642 507.706836 
L 646.442805 499.131825 
L 659.273967 490.432135 
L 672.105129 481.616875 
L 684.936292 472.694897 
L 697.767454 463.674788 
L 710.598616 454.565661 
L 723.429779 445.376624 
L 736.260941 436.116268 
L 749.092103 426.792661 
L 761.923266 417.416996 
L 774.754428 407.997082 
L 787.58559 398.540727 
L 800.416753 389.05574 
L 813.247915 379.552533 
L 826.079077 370.038914 
L 838.910239 360.520089 
L 851.741402 351.009073 
L 864.572564 341.511071 
L 877.403726 332.03129 
L 890.234889 322.582744 
L 903.066051 313.168035 
L 915.897213 303.794973 
L 928.728376 294.471367 
L 941.559538 285.202421 
L 954.3907 275.995945 
L 967.221863 266.854541 
L 980.053025 257.791225 
L 992.884187 248.803393 
L 1005.71535 239.901457 
L 1018.546512 231.088019 
L 1031.377674 222.370889 
L 1044.208837 213.75267 
L 1057.039999 205.235963 
L 1069.871161 196.828579 
L 1082.702324 188.53312 
L 1095.533486 180.352189 
L 1108.364648 172.288388 
L 1121.195811 164.349527 
L 1134.026973 156.535605 
L 1146.858135 148.846623 
L 1159.689298 141.290389 
L 1172.52046 133.866903 
L 1185.351622 126.578768 
L 1198.182785 119.428587 
L 1211.013947 112.41636 
L 1223.845109 105.547293 
L 1236.676272 98.818782 
L 1249.507434 92.233432 
L 1262.338596 85.793844 
L 1275.169759 79.497416 
L 1288.000921 73.349354 
L 1300.832083 67.349657 
" style="fill:none;stroke:#f44336;stroke-linecap:round;"/>
   </g>
   <g id="line2d_64">
    <path clip-path="url(#p069b94ab06)" d="M 69.0405 696.318041 
L 81.871662 692.074785 
L 94.702825 687.831528 
L 107.533987 665.783098 
L 120.365149 643.734408 
L 133.196312 621.847358 
L 146.027474 599.960048 
L 158.858636 596.192082 
L 171.689799 592.423856 
L 184.520961 585.965007 
L 197.352123 579.505897 
L 210.183286 577.258809 
L 223.014448 575.011721 
L 235.84561 567.917763 
L 248.676773 560.823805 
L 261.507935 563.574555 
L 274.339097 566.325305 
L 287.17026 560.244138 
L 300.001422 554.16271 
L 312.832584 517.5833 
L 325.663746 481.003631 
L 338.494909 469.640647 
L 351.326071 458.277404 
L 364.157233 455.745037 
L 376.988396 453.212671 
L 389.819558 461.996956 
L 402.65072 470.78098 
L 415.481883 447.117187 
L 428.313045 423.453134 
L 441.144207 407.650896 
L 453.97537 391.846054 
L 466.806532 390.799687 
L 479.637694 389.753319 
L 492.468857 393.595207 
L 505.300019 397.434492 
L 518.131181 396.052349 
L 530.962344 394.670207 
L 543.793506 403.926138 
L 556.624668 413.182069 
L 569.455831 412.476682 
L 582.286993 411.768692 
L 595.118155 413.788546 
L 607.949318 415.808401 
L 620.78048 419.728376 
L 633.611642 423.648352 
L 646.442805 419.876742 
L 659.273967 416.102529 
L 672.105129 420.3765 
L 684.936292 424.65047 
L 697.767454 425.118993 
L 710.598616 425.584913 
L 723.429779 430.850591 
L 736.260941 436.116268 
L 749.092103 440.887133 
L 761.923266 445.657998 
L 774.754428 446.368852 
L 787.58559 447.079705 
L 800.416753 456.323143 
L 813.247915 465.56658 
L 826.079077 463.847882 
L 838.910239 462.129183 
L 851.741402 462.659135 
L 864.572564 463.188826 
L 877.403726 465.662107 
L 890.234889 468.135387 
L 903.066051 473.875054 
L 915.897213 479.61446 
L 928.728376 479.080084 
L 941.559538 478.545707 
L 954.3907 483.325162 
L 967.221863 488.104617 
L 980.053025 487.860204 
L 992.884187 487.615791 
L 1005.71535 484.930634 
L 1018.546512 482.245477 
L 1031.377674 487.442958 
L 1044.208837 492.640439 
L 1057.039999 503.784779 
L 1069.871161 514.928857 
L 1082.702324 512.471975 
L 1095.533486 510.015093 
L 1108.364648 506.449373 
L 1121.195811 502.883392 
L 1134.026973 519.470407 
L 1146.858135 536.057421 
L 1159.689298 525.27931 
L 1172.52046 514.5012 
L 1185.351622 507.731824 
L 1198.182785 500.962448 
L 1211.013947 515.921866 
L 1223.845109 530.881023 
L 1236.676272 553.232952 
L 1249.507434 575.58462 
L 1262.338596 549.051645 
L 1275.169759 522.518669 
L 1288.000921 526.973021 
L 1300.832083 531.427373 
" style="fill:none;stroke:#9c27b0;stroke-linecap:round;"/>
   </g>
   <g id="line2d_65">
    <path clip-path="url(#p069b94ab06)" d="M 274.339097 693.335372 
L 287.17026 692.5545 
L 300.001422 691.617454 
L 312.832584 690.810554 
L 325.663746 687.452806 
L 338.494909 655.567216 
L 351.326071 686.385615 
L 364.157233 686.671934 
L 376.988396 685.500627 
L 389.819558 684.381377 
L 402.65072 683.236099 
L 415.481883 605.357172 
L 428.313045 665.666488 
L 441.144207 680.086584 
L 453.97537 679.149538 
L 466.806532 678.368666 
L 479.637694 677.691911 
L 492.468857 677.145301 
L 505.300019 676.780894 
L 518.131181 676.572661 
L 530.962344 676.494574 
L 543.793506 676.572661 
L 556.624668 676.572661 
L 569.455831 677.015155 
L 582.286993 677.457649 
L 595.118155 677.796027 
L 607.949318 678.056318 
L 620.78048 678.082347 
L 633.611642 677.769998 
L 646.442805 676.963097 
L 659.273967 675.479441 
L 672.105129 673.293001 
L 684.936292 670.351718 
L 697.767454 631.646516 
L 710.598616 653.094455 
L 723.429779 658.430411 
L 736.260941 654.34385 
L 749.092103 650.699783 
L 761.923266 647.940703 
L 774.754428 640.522423 
L 787.58559 637.086588 
L 800.416753 646.196756 
L 813.247915 647.836587 
L 826.079077 650.257289 
L 838.910239 653.354746 
L 851.741402 656.81661 
L 864.572564 660.486707 
L 877.403726 664.23489 
L 890.234889 667.904987 
L 903.066051 671.288764 
L 915.897213 674.542395 
L 928.728376 677.353533 
L 941.559538 679.982467 
L 954.3907 682.273024 
L 967.221863 684.225203 
L 980.053025 685.943121 
L 992.884187 687.426777 
L 1005.71535 688.7022 
L 1018.546512 689.769391 
L 1031.377674 690.706437 
L 1044.208837 691.487309 
L 1057.039999 692.138035 
L 1069.871161 692.424355 
L 1082.702324 693.10111 
L 1095.533486 693.543604 
L 1108.364648 693.829924 
L 1121.195811 694.116243 
L 1134.026973 694.428592 
L 1146.858135 694.636824 
L 1159.689298 694.819028 
L 1172.52046 694.949173 
L 1185.351622 695.001231 
L 1198.182785 695.079318 
L 1211.013947 695.183435 
L 1223.845109 695.183435 
L 1236.676272 695.287551 
L 1249.507434 695.209464 
L 1262.338596 695.183435 
L 1275.169759 695.365638 
L 1288.000921 695.547841 
L 1300.832083 695.704016 
" style="fill:none;stroke:#3f51b5;stroke-linecap:round;"/>
   </g>
   <g id="line2d_66">
    <path clip-path="url(#p069b94ab06)" d="M 69.0405 693.652403 
L 71.606732 695.029601 
L 74.172965 693.996702 
L 79.30543 693.996702 
L 81.871662 694.685302 
L 84.437895 694.685302 
L 87.004127 694.341002 
L 94.702825 694.341002 
L 97.269057 694.685302 
L 99.83529 694.341002 
L 102.401522 694.685302 
L 104.967755 695.373901 
L 107.533987 694.341002 
L 110.100219 694.685302 
L 115.232684 694.685302 
L 117.798917 694.341002 
L 120.365149 694.341002 
L 122.931382 693.996702 
L 125.497614 693.308103 
L 128.063847 693.996702 
L 130.630079 696.4068 
L 133.196312 695.029601 
L 135.762544 694.685302 
L 138.328777 695.029601 
L 140.895009 694.685302 
L 143.461241 695.029601 
L 146.027474 693.996702 
L 148.593706 694.341002 
L 151.159939 693.996702 
L 156.292404 694.685302 
L 158.858636 694.685302 
L 161.424869 693.996702 
L 163.991101 694.341002 
L 166.557334 693.996702 
L 169.123566 692.963804 
L 171.689799 693.996702 
L 176.822264 695.373901 
L 179.388496 695.373901 
L 181.954728 693.996702 
L 184.520961 695.373901 
L 187.087193 693.996702 
L 194.785891 695.029601 
L 197.352123 695.029601 
L 199.918356 694.685302 
L 202.484588 695.373901 
L 205.050821 693.996702 
L 207.617053 693.996702 
L 212.749518 694.685302 
L 215.315751 693.996702 
L 217.881983 695.373901 
L 220.448215 695.029601 
L 223.014448 695.029601 
L 225.58068 693.996702 
L 228.146913 695.029601 
L 230.713145 695.373901 
L 233.279378 693.996702 
L 235.84561 694.341002 
L 238.411843 695.029601 
L 240.978075 695.373901 
L 243.544308 693.996702 
L 246.11054 694.685302 
L 251.243005 694.685302 
L 253.809237 694.341002 
L 256.37547 694.685302 
L 258.941702 694.685302 
L 261.507935 694.341002 
L 264.074167 694.341002 
L 266.6404 693.652403 
L 269.206632 693.996702 
L 271.772865 695.373901 
L 274.339097 695.718201 
L 276.90533 694.341002 
L 279.471562 693.996702 
L 282.037795 693.996702 
L 284.604027 694.685302 
L 287.17026 694.341002 
L 289.736492 694.341002 
L 294.868957 695.029601 
L 297.435189 693.996702 
L 300.001422 694.685302 
L 302.567654 694.341002 
L 305.133887 694.685302 
L 307.700119 694.685302 
L 310.266352 694.341002 
L 312.832584 695.718201 
L 315.398817 693.996702 
L 317.965049 693.996702 
L 320.531282 694.685302 
L 323.097514 694.685302 
L 328.229979 693.996702 
L 330.796211 695.029601 
L 333.362444 694.341002 
L 341.061141 695.373901 
L 343.627374 694.341002 
L 348.759839 694.341002 
L 351.326071 694.685302 
L 353.892304 694.341002 
L 356.458536 695.029601 
L 359.024769 695.029601 
L 361.591001 693.652403 
L 364.157233 695.029601 
L 366.723466 694.685302 
L 369.289698 694.685302 
L 371.855931 693.996702 
L 374.422163 694.341002 
L 376.988396 695.029601 
L 379.554628 695.029601 
L 382.120861 694.685302 
L 384.687093 694.685302 
L 387.253326 695.029601 
L 389.819558 693.996702 
L 392.385791 694.685302 
L 394.952023 694.341002 
L 400.084488 694.341002 
L 402.65072 693.996702 
L 405.216953 694.341002 
L 407.783185 695.029601 
L 410.349418 693.652403 
L 412.91565 694.685302 
L 415.481883 694.685302 
L 418.048115 695.373901 
L 420.614348 694.685302 
L 425.746813 695.373901 
L 430.879278 694.685302 
L 433.44551 693.652403 
L 436.011742 694.685302 
L 438.577975 695.029601 
L 441.144207 694.341002 
L 446.276672 691.586605 
L 448.842905 694.685302 
L 451.409137 693.308103 
L 459.107835 694.341002 
L 464.2403 693.652403 
L 466.806532 694.341002 
L 469.372765 693.996702 
L 471.938997 693.996702 
L 477.071462 695.373901 
L 479.637694 694.685302 
L 482.203927 693.308103 
L 484.770159 692.963804 
L 487.336392 694.685302 
L 489.902624 693.652403 
L 492.468857 694.341002 
L 495.035089 696.4068 
L 497.601322 695.373901 
L 500.167554 694.685302 
L 502.733787 693.652403 
L 505.300019 693.308103 
L 507.866252 693.308103 
L 510.432484 691.242305 
L 512.998716 692.619504 
L 515.564949 694.341002 
L 518.131181 695.029601 
L 520.697414 693.996702 
L 523.263646 693.996702 
L 525.829879 695.718201 
L 528.396111 693.996702 
L 530.962344 692.963804 
L 533.528576 694.341002 
L 536.094809 692.963804 
L 538.661041 692.619504 
L 541.227274 694.685302 
L 543.793506 693.308103 
L 546.359738 694.685302 
L 548.925971 695.029601 
L 551.492203 693.996702 
L 554.058436 694.341002 
L 556.624668 693.996702 
L 559.190901 693.996702 
L 561.757133 692.275204 
L 564.323366 693.652403 
L 566.889598 693.996702 
L 569.455831 692.275204 
L 574.588296 692.275204 
L 577.154528 693.996702 
L 579.720761 693.308103 
L 582.286993 694.341002 
L 584.853225 691.242305 
L 587.419458 692.963804 
L 589.98569 694.341002 
L 592.551923 692.619504 
L 595.118155 692.963804 
L 597.684388 693.996702 
L 600.25062 695.718201 
L 602.816853 695.029601 
L 605.383085 694.685302 
L 607.949318 695.029601 
L 610.51555 693.652403 
L 613.081783 692.963804 
L 615.648015 693.308103 
L 618.214247 692.275204 
L 623.346712 692.275204 
L 625.912945 692.963804 
L 628.479177 694.341002 
L 631.04541 693.996702 
L 633.611642 694.685302 
L 636.177875 693.308103 
L 638.744107 693.996702 
L 641.31034 692.275204 
L 643.876572 692.619504 
L 646.442805 693.308103 
L 649.009037 694.341002 
L 651.57527 692.619504 
L 659.273967 693.652403 
L 661.840199 692.963804 
L 666.972664 692.963804 
L 669.538897 691.930905 
L 672.105129 694.341002 
L 674.671362 693.996702 
L 677.237594 694.341002 
L 679.803827 693.996702 
L 682.370059 692.963804 
L 684.936292 694.685302 
L 687.502524 693.652403 
L 690.068757 694.685302 
L 692.634989 692.275204 
L 695.201221 692.963804 
L 697.767454 695.029601 
L 700.333686 693.996702 
L 702.899919 693.308103 
L 705.466151 692.963804 
L 708.032384 694.341002 
L 710.598616 693.996702 
L 713.164849 692.275204 
L 715.731081 694.341002 
L 718.297314 693.308103 
L 720.863546 694.341002 
L 728.562243 694.341002 
L 733.694708 695.029601 
L 736.260941 695.029601 
L 738.827173 693.652403 
L 741.393406 693.652403 
L 743.959638 696.0625 
L 746.525871 695.029601 
L 749.092103 692.963804 
L 751.658336 692.619504 
L 754.224568 692.619504 
L 756.790801 694.685302 
L 759.357033 695.373901 
L 761.923266 693.652403 
L 764.489498 693.308103 
L 767.05573 694.341002 
L 772.188195 692.963804 
L 774.754428 692.619504 
L 777.32066 695.029601 
L 779.886893 692.275204 
L 782.453125 693.308103 
L 785.019358 691.930905 
L 790.151823 694.685302 
L 792.718055 695.029601 
L 795.284288 694.341002 
L 797.85052 695.029601 
L 800.416753 692.963804 
L 802.982985 692.963804 
L 805.549217 693.308103 
L 808.11545 693.308103 
L 813.247915 695.373901 
L 815.814147 693.308103 
L 818.38038 693.996702 
L 820.946612 693.308103 
L 826.079077 695.373901 
L 828.64531 695.373901 
L 831.211542 693.308103 
L 833.777775 694.341002 
L 836.344007 692.963804 
L 838.910239 693.308103 
L 841.476472 695.029601 
L 844.042704 694.685302 
L 846.608937 692.619504 
L 849.175169 694.685302 
L 851.741402 694.341002 
L 854.307634 693.652403 
L 856.873867 693.996702 
L 859.440099 693.652403 
L 862.006332 692.619504 
L 864.572564 693.996702 
L 869.705029 692.619504 
L 874.837494 693.996702 
L 882.536191 691.930905 
L 885.102424 692.275204 
L 887.668656 693.308103 
L 890.234889 693.652403 
L 892.801121 692.963804 
L 895.367354 693.652403 
L 897.933586 693.308103 
L 900.499819 695.029601 
L 903.066051 693.996702 
L 905.632284 691.586605 
L 908.198516 690.209406 
L 910.764748 689.865107 
L 913.330981 688.487908 
L 915.897213 683.323413 
L 918.463446 681.601915 
L 921.029678 649.582048 
L 923.595911 175.825736 
L 926.162143 661.632536 
L 928.728376 670.584327 
L 931.294608 690.898006 
L 936.427073 692.275204 
L 938.993306 693.652403 
L 941.559538 693.308103 
L 944.125771 693.308103 
L 946.692003 693.996702 
L 949.258235 693.996702 
L 951.824468 695.029601 
L 954.3907 693.996702 
L 956.956933 693.652403 
L 959.523165 694.685302 
L 964.65563 693.996702 
L 967.221863 692.619504 
L 972.354328 694.685302 
L 974.92056 694.341002 
L 977.486793 694.341002 
L 980.053025 693.652403 
L 982.619258 694.341002 
L 985.18549 694.685302 
L 987.751722 694.341002 
L 990.317955 694.341002 
L 992.884187 693.996702 
L 995.45042 695.029601 
L 998.016652 695.029601 
L 1000.582885 692.963804 
L 1003.149117 692.963804 
L 1005.71535 693.996702 
L 1008.281582 692.963804 
L 1010.847815 693.996702 
L 1013.414047 694.341002 
L 1015.98028 693.308103 
L 1018.546512 694.341002 
L 1021.112744 693.996702 
L 1023.678977 692.963804 
L 1026.245209 694.341002 
L 1028.811442 693.308103 
L 1031.377674 693.652403 
L 1033.943907 695.373901 
L 1036.510139 694.685302 
L 1039.076372 694.341002 
L 1041.642604 694.685302 
L 1044.208837 694.685302 
L 1046.775069 694.341002 
L 1049.341302 694.685302 
L 1054.473767 694.685302 
L 1057.039999 695.029601 
L 1059.606231 693.996702 
L 1062.172464 693.652403 
L 1064.738696 693.652403 
L 1067.304929 693.996702 
L 1072.437394 693.996702 
L 1077.569859 693.308103 
L 1080.136091 694.341002 
L 1082.702324 693.996702 
L 1085.268556 693.308103 
L 1087.834789 694.685302 
L 1090.401021 693.996702 
L 1092.967254 695.029601 
L 1095.533486 695.029601 
L 1098.099718 693.652403 
L 1100.665951 694.685302 
L 1103.232183 693.996702 
L 1105.798416 695.718201 
L 1108.364648 695.373901 
L 1110.930881 694.341002 
L 1113.497113 693.996702 
L 1116.063346 693.996702 
L 1118.629578 695.029601 
L 1121.195811 693.308103 
L 1123.762043 695.718201 
L 1126.328276 695.373901 
L 1128.894508 694.685302 
L 1131.46074 694.341002 
L 1134.026973 693.652403 
L 1136.593205 693.996702 
L 1139.159438 693.308103 
L 1141.72567 693.308103 
L 1144.291903 693.996702 
L 1146.858135 693.308103 
L 1149.424368 693.996702 
L 1151.9906 692.963804 
L 1154.556833 693.996702 
L 1157.123065 694.341002 
L 1159.689298 693.996702 
L 1162.25553 693.996702 
L 1164.821763 695.373901 
L 1167.387995 695.029601 
L 1169.954227 693.308103 
L 1172.52046 694.685302 
L 1175.086692 692.963804 
L 1177.652925 694.685302 
L 1182.78539 693.308103 
L 1185.351622 693.996702 
L 1187.917855 694.341002 
L 1190.484087 693.652403 
L 1193.05032 694.341002 
L 1195.616552 693.652403 
L 1198.182785 694.685302 
L 1200.749017 694.685302 
L 1203.315249 693.996702 
L 1205.881482 692.963804 
L 1208.447714 693.652403 
L 1211.013947 693.996702 
L 1213.580179 693.996702 
L 1216.146412 694.341002 
L 1218.712644 693.308103 
L 1223.845109 694.685302 
L 1226.411342 693.996702 
L 1228.977574 694.685302 
L 1231.543807 693.308103 
L 1234.110039 694.685302 
L 1236.676272 694.341002 
L 1239.242504 694.685302 
L 1244.374969 693.996702 
L 1246.941201 694.685302 
L 1252.073666 693.996702 
L 1254.639899 693.996702 
L 1257.206131 694.685302 
L 1259.772364 693.996702 
L 1262.338596 693.996702 
L 1264.904829 693.652403 
L 1267.471061 693.996702 
L 1270.037294 693.996702 
L 1272.603526 692.963804 
L 1275.169759 695.029601 
L 1277.735991 693.996702 
L 1285.434688 695.029601 
L 1288.000921 694.341002 
L 1290.567153 694.685302 
L 1293.133386 693.996702 
L 1295.699618 695.029601 
L 1300.832083 695.029601 
L 1303.398316 693.996702 
L 1305.964548 694.341002 
L 1308.530781 693.996702 
L 1311.097013 695.373901 
L 1313.663245 694.685302 
L 1316.229478 694.341002 
L 1318.79571 695.029601 
L 1321.361943 694.341002 
L 1323.928175 694.685302 
L 1329.06064 694.685302 
L 1331.626873 694.341002 
L 1334.193105 694.685302 
L 1336.759338 695.373901 
L 1339.32557 693.996702 
L 1341.891803 695.373901 
L 1344.458035 694.341002 
L 1347.024268 694.685302 
L 1349.5905 693.996702 
L 1349.5905 693.996702 
" style="fill:none;stroke:#03a9f4;stroke-linecap:round;"/>
   </g>
   <g id="patch_3">
    <path d="M 69.0405 696.4068 
L 69.0405 35.8968 
" style="fill:none;stroke:#333333;stroke-linecap:square;stroke-linejoin:miter;"/>
   </g>
   <g id="patch_4">
    <path d="M 1349.5905 696.4068 
L 1349.5905 35.8968 
" style="fill:none;stroke:#333333;stroke-linecap:square;stroke-linejoin:miter;"/>
   </g>
   <g id="patch_5">
    <path d="M 69.0405 696.4068 
L 1349.5905 696.4068 
" style="fill:none;stroke:#333333;stroke-linecap:square;stroke-linejoin:miter;"/>
   </g>
   <g id="patch_6">
    <path d="M 69.0405 35.8968 
L 1349.5905 35.8968 
" style="fill:none;stroke:#333333;stroke-linecap:square;stroke-linejoin:miter;"/>
   </g>
   <g id="text_14">
    <!-- Various Illuminants and Light Sources Spectral Power Distributions -->
    <defs>
     <path d="M 38.1875 0 
L 28.515625 0 
L 0.4375 68.796875 
L 10.25 68.796875 
L 29.296875 20.359375 
Q 30.03125 18.171875 30.765625 15.984375 
Q 31.5 13.8125 32.078125 12.109375 
Q 32.765625 10.109375 33.40625 8.203125 
Q 33.984375 10.015625 34.671875 12.015625 
Q 35.25 13.71875 35.953125 15.859375 
Q 36.671875 18.015625 37.5 20.359375 
L 56.453125 68.796875 
L 66.265625 68.796875 
z
" id="LiberationSans-56"/>
     <path d="M 15.328125 52.828125 
L 15.328125 19.34375 
Q 15.328125 15.484375 15.890625 12.890625 
Q 16.453125 10.296875 17.71875 8.703125 
Q 19 7.125 21.0625 6.46875 
Q 23.140625 5.8125 26.21875 5.8125 
Q 29.34375 5.8125 31.859375 6.90625 
Q 34.375 8.015625 36.15625 10.078125 
Q 37.9375 12.15625 38.90625 15.203125 
Q 39.890625 18.265625 39.890625 22.21875 
L 39.890625 52.828125 
L 48.6875 52.828125 
L 48.6875 11.28125 
Q 48.6875 9.625 48.703125 7.78125 
Q 48.734375 5.953125 48.78125 4.3125 
Q 48.828125 2.6875 48.875 1.515625 
Q 48.921875 0.34375 48.96875 0 
L 40.671875 0 
Q 40.625 0.25 40.578125 1.3125 
Q 40.53125 2.390625 40.453125 3.78125 
Q 40.375 5.171875 40.328125 6.609375 
Q 40.28125 8.0625 40.28125 9.03125 
L 40.140625 9.03125 
Q 38.875 6.734375 37.359375 4.875 
Q 35.84375 3.03125 33.84375 1.734375 
Q 31.84375 0.4375 29.25 -0.265625 
Q 26.65625 -0.984375 23.25 -0.984375 
Q 18.84375 -0.984375 15.671875 0.09375 
Q 12.5 1.171875 10.453125 3.421875 
Q 8.40625 5.671875 7.453125 9.1875 
Q 6.5 12.703125 6.5 17.625 
L 6.5 52.828125 
z
" id="LiberationSans-75"/>
     <path d="M 46.390625 14.59375 
Q 46.390625 10.890625 44.9375 7.984375 
Q 43.5 5.078125 40.765625 3.09375 
Q 38.03125 1.125 34.046875 0.0625 
Q 30.078125 -0.984375 24.953125 -0.984375 
Q 20.359375 -0.984375 16.671875 -0.265625 
Q 12.984375 0.4375 10.203125 2 
Q 7.421875 3.5625 5.53125 6.125 
Q 3.65625 8.6875 2.78125 12.40625 
L 10.546875 13.921875 
Q 11.671875 9.671875 15.1875 7.6875 
Q 18.703125 5.71875 24.953125 5.71875 
Q 27.78125 5.71875 30.140625 6.109375 
Q 32.515625 6.5 34.21875 7.453125 
Q 35.9375 8.40625 36.890625 9.984375 
Q 37.84375 11.578125 37.84375 13.921875 
Q 37.84375 16.3125 36.71875 17.84375 
Q 35.59375 19.390625 33.59375 20.40625 
Q 31.59375 21.4375 28.734375 22.1875 
Q 25.875 22.953125 22.46875 23.875 
Q 19.28125 24.703125 16.15625 25.734375 
Q 13.03125 26.765625 10.515625 28.4375 
Q 8.015625 30.125 6.453125 32.609375 
Q 4.890625 35.109375 4.890625 38.875 
Q 4.890625 46.09375 10.03125 49.875 
Q 15.1875 53.65625 25.046875 53.65625 
Q 33.796875 53.65625 38.9375 50.578125 
Q 44.09375 47.515625 45.453125 40.71875 
L 37.546875 39.75 
Q 37.109375 41.796875 35.9375 43.1875 
Q 34.765625 44.578125 33.109375 45.4375 
Q 31.453125 46.296875 29.375 46.65625 
Q 27.296875 47.015625 25.046875 47.015625 
Q 19.09375 47.015625 16.25 45.203125 
Q 13.421875 43.40625 13.421875 39.75 
Q 13.421875 37.59375 14.46875 36.203125 
Q 15.53125 34.8125 17.40625 33.859375 
Q 19.28125 32.90625 21.921875 32.203125 
Q 24.5625 31.5 27.734375 30.71875 
Q 29.828125 30.171875 32.03125 29.5625 
Q 34.234375 28.953125 36.296875 28.09375 
Q 38.375 27.25 40.203125 26.09375 
Q 42.046875 24.953125 43.40625 23.34375 
Q 44.78125 21.734375 45.578125 19.578125 
Q 46.390625 17.4375 46.390625 14.59375 
z
" id="LiberationSans-73"/>
     <path d="M 9.234375 0 
L 9.234375 68.796875 
L 18.5625 68.796875 
L 18.5625 0 
z
" id="LiberationSans-49"/>
     <path d="M 40.09375 8.5 
Q 37.640625 3.421875 33.609375 1.21875 
Q 29.59375 -0.984375 23.640625 -0.984375 
Q 13.625 -0.984375 8.90625 5.75 
Q 4.203125 12.5 4.203125 26.171875 
Q 4.203125 53.8125 23.640625 53.8125 
Q 29.640625 53.8125 33.640625 51.609375 
Q 37.640625 49.421875 40.09375 44.625 
L 40.1875 44.625 
Q 40.1875 45.125 40.15625 46.171875 
Q 40.140625 47.21875 40.109375 48.359375 
Q 40.09375 49.515625 40.09375 50.53125 
Q 40.09375 51.5625 40.09375 52 
L 40.09375 72.46875 
L 48.875 72.46875 
L 48.875 10.890625 
Q 48.875 8.984375 48.890625 7.21875 
Q 48.921875 5.46875 48.96875 4 
Q 49.03125 2.546875 49.078125 1.484375 
Q 49.125 0.4375 49.171875 0 
L 40.765625 0 
Q 40.671875 0.484375 40.59375 1.390625 
Q 40.53125 2.296875 40.453125 3.46875 
Q 40.375 4.640625 40.328125 5.9375 
Q 40.28125 7.234375 40.28125 8.5 
z
M 13.421875 26.46875 
Q 13.421875 21 14.109375 17.09375 
Q 14.796875 13.1875 16.3125 10.671875 
Q 17.828125 8.15625 20.171875 6.984375 
Q 22.515625 5.8125 25.875 5.8125 
Q 29.34375 5.8125 32 6.9375 
Q 34.671875 8.0625 36.453125 10.578125 
Q 38.234375 13.09375 39.15625 17.140625 
Q 40.09375 21.1875 40.09375 27.046875 
Q 40.09375 32.671875 39.15625 36.546875 
Q 38.234375 40.4375 36.421875 42.828125 
Q 34.625 45.21875 32 46.265625 
Q 29.390625 47.3125 25.984375 47.3125 
Q 22.75 47.3125 20.40625 46.1875 
Q 18.0625 45.0625 16.5 42.578125 
Q 14.9375 40.09375 14.171875 36.109375 
Q 13.421875 32.125 13.421875 26.46875 
z
" id="LiberationSans-64"/>
     <path d="M 8.203125 0 
L 8.203125 68.796875 
L 17.53125 68.796875 
L 17.53125 7.625 
L 52.296875 7.625 
L 52.296875 0 
z
" id="LiberationSans-4c"/>
     <path d="M 62.109375 19 
Q 62.109375 14.65625 60.421875 10.984375 
Q 58.734375 7.328125 55.21875 4.65625 
Q 51.703125 2 46.359375 0.5 
Q 41.015625 -0.984375 33.6875 -0.984375 
Q 20.84375 -0.984375 13.671875 3.515625 
Q 6.5 8.015625 4.546875 16.5 
L 13.578125 18.3125 
Q 14.265625 15.625 15.671875 13.421875 
Q 17.09375 11.234375 19.5 9.640625 
Q 21.921875 8.0625 25.484375 7.171875 
Q 29.046875 6.296875 34.03125 6.296875 
Q 38.1875 6.296875 41.65625 7 
Q 45.125 7.71875 47.609375 9.171875 
Q 50.09375 10.640625 51.484375 12.953125 
Q 52.875 15.28125 52.875 18.5 
Q 52.875 21.875 51.34375 23.96875 
Q 49.8125 26.078125 47.015625 27.4375 
Q 44.234375 28.8125 40.375 29.734375 
Q 36.53125 30.671875 31.84375 31.734375 
Q 28.953125 32.375 26.046875 33.125 
Q 23.140625 33.890625 20.484375 34.9375 
Q 17.828125 35.984375 15.484375 37.390625 
Q 13.140625 38.8125 11.421875 40.796875 
Q 9.71875 42.78125 8.734375 45.390625 
Q 7.765625 48 7.765625 51.421875 
Q 7.765625 56.296875 9.734375 59.78125 
Q 11.71875 63.28125 15.234375 65.53125 
Q 18.75 67.78125 23.53125 68.796875 
Q 28.328125 69.828125 33.890625 69.828125 
Q 40.28125 69.828125 44.8125 68.828125 
Q 49.359375 67.828125 52.484375 65.8125 
Q 55.609375 63.8125 57.484375 60.859375 
Q 59.375 57.90625 60.5 54 
L 51.3125 52.390625 
Q 50.640625 54.890625 49.34375 56.84375 
Q 48.046875 58.796875 45.9375 60.109375 
Q 43.84375 61.421875 40.84375 62.109375 
Q 37.84375 62.796875 33.796875 62.796875 
Q 29 62.796875 25.75 61.9375 
Q 22.515625 61.078125 20.53125 59.609375 
Q 18.5625 58.15625 17.703125 56.171875 
Q 16.84375 54.203125 16.84375 51.90625 
Q 16.84375 48.828125 18.375 46.84375 
Q 19.921875 44.875 22.5625 43.546875 
Q 25.203125 42.234375 28.65625 41.359375 
Q 32.125 40.484375 36.03125 39.59375 
Q 39.203125 38.875 42.359375 38.109375 
Q 45.515625 37.359375 48.390625 36.296875 
Q 51.265625 35.25 53.78125 33.828125 
Q 56.296875 32.421875 58.15625 30.375 
Q 60.015625 28.328125 61.0625 25.53125 
Q 62.109375 22.75 62.109375 19 
z
" id="LiberationSans-53"/>
     <path d="M 13.421875 26.65625 
Q 13.421875 22.125 14.078125 18.3125 
Q 14.75 14.5 16.3125 11.734375 
Q 17.875 8.984375 20.4375 7.46875 
Q 23 5.953125 26.765625 5.953125 
Q 31.453125 5.953125 34.59375 8.484375 
Q 37.75 11.03125 38.484375 16.3125 
L 47.359375 15.71875 
Q 46.921875 12.453125 45.453125 9.421875 
Q 44 6.390625 41.484375 4.09375 
Q 38.96875 1.8125 35.34375 0.40625 
Q 31.734375 -0.984375 27 -0.984375 
Q 20.796875 -0.984375 16.453125 1.109375 
Q 12.109375 3.21875 9.390625 6.90625 
Q 6.6875 10.59375 5.46875 15.59375 
Q 4.25 20.609375 4.25 26.46875 
Q 4.25 31.78125 5.125 35.859375 
Q 6 39.9375 7.59375 42.984375 
Q 9.1875 46.046875 11.328125 48.125 
Q 13.484375 50.203125 15.984375 51.4375 
Q 18.5 52.6875 21.28125 53.25 
Q 24.078125 53.8125 26.90625 53.8125 
Q 31.34375 53.8125 34.8125 52.59375 
Q 38.28125 51.375 40.796875 49.25 
Q 43.3125 47.125 44.875 44.234375 
Q 46.4375 41.359375 47.078125 38.03125 
L 38.03125 37.359375 
Q 37.359375 41.75 34.5625 44.328125 
Q 31.78125 46.921875 26.65625 46.921875 
Q 22.90625 46.921875 20.390625 45.671875 
Q 17.875 44.4375 16.3125 41.921875 
Q 14.75 39.40625 14.078125 35.59375 
Q 13.421875 31.78125 13.421875 26.65625 
z
" id="LiberationSans-63"/>
     <path d="M 51.421875 26.65625 
Q 51.421875 20.65625 50.4375 15.578125 
Q 49.46875 10.5 47.1875 6.828125 
Q 44.921875 3.171875 41.1875 1.09375 
Q 37.453125 -0.984375 31.984375 -0.984375 
Q 26.3125 -0.984375 22.0625 1.171875 
Q 17.828125 3.328125 15.578125 8.203125 
L 15.328125 8.203125 
Q 15.375 8.109375 15.40625 7.328125 
Q 15.4375 6.546875 15.453125 5.375 
Q 15.484375 4.203125 15.5 2.75 
Q 15.53125 1.3125 15.53125 -0.09375 
L 15.53125 -20.75 
L 6.734375 -20.75 
L 6.734375 42.046875 
Q 6.734375 43.953125 6.703125 45.703125 
Q 6.6875 47.46875 6.640625 48.90625 
Q 6.59375 50.34375 6.546875 51.359375 
Q 6.5 52.390625 6.453125 52.828125 
L 14.9375 52.828125 
Q 14.984375 52.6875 15.0625 51.796875 
Q 15.140625 50.921875 15.203125 49.671875 
Q 15.28125 48.4375 15.359375 47.015625 
Q 15.4375 45.609375 15.4375 44.34375 
L 15.625 44.34375 
Q 16.84375 46.875 18.40625 48.65625 
Q 19.96875 50.4375 21.96875 51.578125 
Q 23.96875 52.734375 26.4375 53.25 
Q 28.90625 53.765625 31.984375 53.765625 
Q 37.453125 53.765625 41.1875 51.8125 
Q 44.921875 49.859375 47.1875 46.3125 
Q 49.46875 42.78125 50.4375 37.765625 
Q 51.421875 32.765625 51.421875 26.65625 
z
M 42.1875 26.46875 
Q 42.1875 31.34375 41.59375 35.15625 
Q 41.015625 38.96875 39.578125 41.59375 
Q 38.140625 44.234375 35.734375 45.59375 
Q 33.34375 46.96875 29.734375 46.96875 
Q 26.8125 46.96875 24.21875 46.140625 
Q 21.625 45.3125 19.703125 42.96875 
Q 17.78125 40.625 16.65625 36.5 
Q 15.53125 32.375 15.53125 25.78125 
Q 15.53125 20.171875 16.453125 16.28125 
Q 17.390625 12.40625 19.171875 10.015625 
Q 20.953125 7.625 23.578125 6.5625 
Q 26.21875 5.515625 29.640625 5.515625 
Q 33.296875 5.515625 35.71875 6.921875 
Q 38.140625 8.34375 39.578125 11.03125 
Q 41.015625 13.71875 41.59375 17.59375 
Q 42.1875 21.484375 42.1875 26.46875 
z
" id="LiberationSans-70"/>
     <path d="M 67.4375 35.109375 
Q 67.4375 26.515625 64.84375 19.9375 
Q 62.25 13.375 57.75 8.953125 
Q 53.265625 4.546875 47.140625 2.265625 
Q 41.015625 0 33.9375 0 
L 8.203125 0 
L 8.203125 68.796875 
L 30.953125 68.796875 
Q 38.921875 68.796875 45.625 66.8125 
Q 52.34375 64.84375 57.171875 60.71875 
Q 62.015625 56.59375 64.71875 50.234375 
Q 67.4375 43.890625 67.4375 35.109375 
z
M 58.0625 35.109375 
Q 58.0625 42.09375 56.046875 47.046875 
Q 54.046875 52 50.4375 55.171875 
Q 46.828125 58.34375 41.796875 59.828125 
Q 36.765625 61.328125 30.765625 61.328125 
L 17.53125 61.328125 
L 17.53125 7.46875 
L 32.859375 7.46875 
Q 38.28125 7.46875 42.890625 9.21875 
Q 47.515625 10.984375 50.875 14.453125 
Q 54.25 17.921875 56.15625 23.09375 
Q 58.0625 28.265625 58.0625 35.109375 
z
" id="LiberationSans-44"/>
     <path d="M 51.421875 26.65625 
Q 51.421875 -0.984375 31.984375 -0.984375 
Q 25.984375 -0.984375 22 1.1875 
Q 18.015625 3.375 15.53125 8.203125 
L 15.4375 8.203125 
Q 15.4375 6.9375 15.359375 5.5625 
Q 15.28125 4.203125 15.203125 3.03125 
Q 15.140625 1.859375 15.0625 1.03125 
Q 14.984375 0.203125 14.9375 0 
L 6.453125 0 
Q 6.5 0.4375 6.546875 1.484375 
Q 6.59375 2.546875 6.640625 4 
Q 6.6875 5.46875 6.703125 7.21875 
Q 6.734375 8.984375 6.734375 10.890625 
L 6.734375 72.46875 
L 15.53125 72.46875 
L 15.53125 51.8125 
Q 15.53125 50.34375 15.5 49 
Q 15.484375 47.65625 15.4375 46.625 
Q 15.375 45.40625 15.328125 44.34375 
L 15.53125 44.34375 
Q 17.96875 49.421875 22 51.609375 
Q 26.03125 53.8125 31.984375 53.8125 
Q 42 53.8125 46.703125 47.0625 
Q 51.421875 40.328125 51.421875 26.65625 
z
M 42.1875 26.375 
Q 42.1875 31.84375 41.5 35.75 
Q 40.828125 39.65625 39.3125 42.15625 
Q 37.796875 44.671875 35.453125 45.84375 
Q 33.109375 47.015625 29.734375 47.015625 
Q 26.265625 47.015625 23.609375 45.890625 
Q 20.953125 44.78125 19.171875 42.28125 
Q 17.390625 39.796875 16.453125 35.734375 
Q 15.53125 31.6875 15.53125 25.828125 
Q 15.53125 20.171875 16.453125 16.3125 
Q 17.390625 12.453125 19.171875 10.03125 
Q 20.953125 7.625 23.578125 6.5625 
Q 26.21875 5.515625 29.640625 5.515625 
Q 32.859375 5.515625 35.203125 6.640625 
Q 37.546875 7.765625 39.109375 10.25 
Q 40.671875 12.75 41.421875 16.71875 
Q 42.1875 20.703125 42.1875 26.375 
z
" id="LiberationSans-62"/>
    </defs>
    <g style="fill:#111111;" transform="translate(368.0607 23.8968)scale(0.2304 -0.2304)">
     <use xlink:href="#LiberationSans-56"/>
     <use x="66.589844" xlink:href="#LiberationSans-61"/>
     <use x="122.205078" xlink:href="#LiberationSans-72"/>
     <use x="155.505859" xlink:href="#LiberationSans-69"/>
     <use x="177.722656" xlink:href="#LiberationSans-6f"/>
     <use x="233.337891" xlink:href="#LiberationSans-75"/>
     <use x="288.953125" xlink:href="#LiberationSans-73"/>
     <use x="338.953125" xlink:href="#LiberationSans-20"/>
     <use x="366.736328" xlink:href="#LiberationSans-49"/>
     <use x="394.519531" xlink:href="#LiberationSans-6c"/>
     <use x="416.736328" xlink:href="#LiberationSans-6c"/>
     <use x="438.953125" xlink:href="#LiberationSans-75"/>
     <use x="494.568359" xlink:href="#LiberationSans-6d"/>
     <use x="577.869141" xlink:href="#LiberationSans-69"/>
     <use x="600.085938" xlink:href="#LiberationSans-6e"/>
     <use x="655.701172" xlink:href="#LiberationSans-61"/>
     <use x="711.316406" xlink:href="#LiberationSans-6e"/>
     <use x="766.931641" xlink:href="#LiberationSans-74"/>
     <use x="794.714844" xlink:href="#LiberationSans-73"/>
     <use x="844.714844" xlink:href="#LiberationSans-20"/>
     <use x="872.498047" xlink:href="#LiberationSans-61"/>
     <use x="928.113281" xlink:href="#LiberationSans-6e"/>
     <use x="983.728516" xlink:href="#LiberationSans-64"/>
     <use x="1039.34375" xlink:href="#LiberationSans-20"/>
     <use x="1067.126953" xlink:href="#LiberationSans-4c"/>
     <use x="1122.742188" xlink:href="#LiberationSans-69"/>
     <use x="1144.958984" xlink:href="#LiberationSans-67"/>
     <use x="1200.574219" xlink:href="#LiberationSans-68"/>
     <use x="1256.189453" xlink:href="#LiberationSans-74"/>
     <use x="1283.972656" xlink:href="#LiberationSans-20"/>
     <use x="1311.755859" xlink:href="#LiberationSans-53"/>
     <use x="1378.455078" xlink:href="#LiberationSans-6f"/>
     <use x="1434.070312" xlink:href="#LiberationSans-75"/>
     <use x="1489.685547" xlink:href="#LiberationSans-72"/>
     <use x="1522.986328" xlink:href="#LiberationSans-63"/>
     <use x="1572.986328" xlink:href="#LiberationSans-65"/>
     <use x="1628.601562" xlink:href="#LiberationSans-73"/>
     <use x="1678.601562" xlink:href="#LiberationSans-20"/>
     <use x="1706.384766" xlink:href="#LiberationSans-53"/>
     <use x="1773.083984" xlink:href="#LiberationSans-70"/>
     <use x="1828.699219" xlink:href="#LiberationSans-65"/>
     <use x="1884.314453" xlink:href="#LiberationSans-63"/>
     <use x="1934.314453" xlink:href="#LiberationSans-74"/>
     <use x="1962.097656" xlink:href="#LiberationSans-72"/>
     <use x="1995.398438" xlink:href="#LiberationSans-61"/>
     <use x="2051.013672" xlink:href="#LiberationSans-6c"/>
     <use x="2073.230469" xlink:href="#LiberationSans-20"/>
     <use x="2101.013672" xlink:href="#LiberationSans-50"/>
     <use x="2167.712891" xlink:href="#LiberationSans-6f"/>
     <use x="2223.328125" xlink:href="#LiberationSans-77"/>
     <use x="2295.544922" xlink:href="#LiberationSans-65"/>
     <use x="2351.160156" xlink:href="#LiberationSans-72"/>
     <use x="2384.460938" xlink:href="#LiberationSans-20"/>
     <use x="2412.244141" xlink:href="#LiberationSans-44"/>
     <use x="2484.460938" xlink:href="#LiberationSans-69"/>
     <use x="2506.677734" xlink:href="#LiberationSans-73"/>
     <use x="2556.677734" xlink:href="#LiberationSans-74"/>
     <use x="2584.460938" xlink:href="#LiberationSans-72"/>
     <use x="2617.761719" xlink:href="#LiberationSans-69"/>
     <use x="2639.978516" xlink:href="#LiberationSans-62"/>
     <use x="2695.59375" xlink:href="#LiberationSans-75"/>
     <use x="2751.208984" xlink:href="#LiberationSans-74"/>
     <use x="2778.992188" xlink:href="#LiberationSans-69"/>
     <use x="2801.208984" xlink:href="#LiberationSans-6f"/>
     <use x="2856.824219" xlink:href="#LiberationSans-6e"/>
     <use x="2912.439453" xlink:href="#LiberationSans-73"/>
    </g>
   </g>
   <g id="legend_1">
    <g id="patch_7">
     <path d="M 75.7045 125.57758 
L 281.143125 125.57758 
L 281.143125 42.5608 
L 75.7045 42.5608 
z
" style="fill:#f0f0f0;opacity:0.75;stroke:#cccccc;stroke-linejoin:miter;stroke-width:0.3;"/>
    </g>
    <g id="line2d_67">
     <path d="M 82.3685 54.218635 
L 109.0245 54.218635 
" style="fill:none;stroke:#f44336;stroke-linecap:round;"/>
    </g>
    <g id="line2d_68"/>
    <g id="text_15">
     <!-- A -->
     <defs>
      <path d="M 56.984375 0 
L 49.125 20.125 
L 17.78125 20.125 
L 9.859375 0 
L 0.203125 0 
L 28.265625 68.796875 
L 38.875 68.796875 
L 66.5 0 
z
M 37.5 50.09375 
Q 36.71875 52.046875 36 54.046875 
Q 35.296875 56.0625 34.765625 57.6875 
Q 34.234375 59.328125 33.859375 60.421875 
Q 33.5 61.53125 33.453125 61.765625 
Q 33.34375 61.53125 33 60.40625 
Q 32.671875 59.28125 32.109375 57.609375 
Q 31.546875 55.953125 30.828125 53.953125 
Q 30.125 51.953125 29.390625 50 
L 20.609375 27.390625 
L 46.34375 27.390625 
z
" id="LiberationSans-41"/>
     </defs>
     <g style="fill:#111111;" transform="translate(119.6869 58.883435)scale(0.13328 -0.13328)">
      <use xlink:href="#LiberationSans-41"/>
     </g>
    </g>
    <g id="line2d_69">
     <path d="M 82.3685 73.30683 
L 109.0245 73.30683 
" style="fill:none;stroke:#9c27b0;stroke-linecap:round;"/>
    </g>
    <g id="line2d_70"/>
    <g id="text_16">
     <!-- D65 -->
     <g style="fill:#111111;" transform="translate(119.6869 77.97163)scale(0.13328 -0.13328)">
      <use xlink:href="#LiberationSans-44"/>
      <use x="72.216797" xlink:href="#LiberationSans-36"/>
      <use x="127.832031" xlink:href="#LiberationSans-35"/>
     </g>
    </g>
    <g id="line2d_71">
     <path d="M 82.3685 92.395025 
L 109.0245 92.395025 
" style="fill:none;stroke:#3f51b5;stroke-linecap:round;"/>
    </g>
    <g id="line2d_72"/>
    <g id="text_17">
     <!-- F2 -->
     <defs>
      <path d="M 17.53125 61.1875 
L 17.53125 35.59375 
L 55.90625 35.59375 
L 55.90625 27.875 
L 17.53125 27.875 
L 17.53125 0 
L 8.203125 0 
L 8.203125 68.796875 
L 57.078125 68.796875 
L 57.078125 61.1875 
z
" id="LiberationSans-46"/>
     </defs>
     <g style="fill:#111111;" transform="translate(119.6869 97.059825)scale(0.13328 -0.13328)">
      <use xlink:href="#LiberationSans-46"/>
      <use x="61.083984" xlink:href="#LiberationSans-32"/>
     </g>
    </g>
    <g id="line2d_73">
     <path d="M 82.3685 111.48322 
L 109.0245 111.48322 
" style="fill:none;stroke:#03a9f4;stroke-linecap:round;"/>
    </g>
    <g id="line2d_74"/>
    <g id="text_18">
     <!--  HeNe Laser (Normalised) -->
     <defs>
      <path d="M 54.734375 0 
L 54.734375 31.890625 
L 17.53125 31.890625 
L 17.53125 0 
L 8.203125 0 
L 8.203125 68.796875 
L 17.53125 68.796875 
L 17.53125 39.703125 
L 54.734375 39.703125 
L 54.734375 68.796875 
L 64.0625 68.796875 
L 64.0625 0 
z
" id="LiberationSans-48"/>
      <path d="M 52.828125 0 
L 16.015625 58.59375 
Q 16.109375 56.203125 16.265625 53.859375 
Q 16.359375 51.859375 16.421875 49.625 
Q 16.5 47.40625 16.5 45.703125 
L 16.5 0 
L 8.203125 0 
L 8.203125 68.796875 
L 19.046875 68.796875 
L 56.25 9.8125 
Q 56.109375 12.203125 55.953125 14.59375 
Q 55.859375 16.65625 55.765625 19.0625 
Q 55.671875 21.484375 55.671875 23.6875 
L 55.671875 68.796875 
L 64.0625 68.796875 
L 64.0625 0 
z
" id="LiberationSans-4e"/>
     </defs>
     <g style="fill:#111111;" transform="translate(119.6869 116.14802)scale(0.13328 -0.13328)">
      <use xlink:href="#LiberationSans-20"/>
      <use x="27.783203" xlink:href="#LiberationSans-48"/>
      <use x="100" xlink:href="#LiberationSans-65"/>
      <use x="155.615234" xlink:href="#LiberationSans-4e"/>
      <use x="227.832031" xlink:href="#LiberationSans-65"/>
      <use x="283.447266" xlink:href="#LiberationSans-20"/>
      <use x="311.230469" xlink:href="#LiberationSans-4c"/>
      <use x="366.845703" xlink:href="#LiberationSans-61"/>
      <use x="422.460938" xlink:href="#LiberationSans-73"/>
      <use x="472.460938" xlink:href="#LiberationSans-65"/>
      <use x="528.076172" xlink:href="#LiberationSans-72"/>
      <use x="561.376953" xlink:href="#LiberationSans-20"/>
      <use x="589.160156" xlink:href="#LiberationSans-28"/>
      <use x="622.460938" xlink:href="#LiberationSans-4e"/>
      <use x="694.677734" xlink:href="#LiberationSans-6f"/>
      <use x="750.292969" xlink:href="#LiberationSans-72"/>
      <use x="783.59375" xlink:href="#LiberationSans-6d"/>
      <use x="866.894531" xlink:href="#LiberationSans-61"/>
      <use x="922.509766" xlink:href="#LiberationSans-6c"/>
      <use x="944.726562" xlink:href="#LiberationSans-69"/>
      <use x="966.943359" xlink:href="#LiberationSans-73"/>
      <use x="1016.943359" xlink:href="#LiberationSans-65"/>
      <use x="1072.558594" xlink:href="#LiberationSans-64"/>
      <use x="1128.173828" xlink:href="#LiberationSans-29"/>
     </g>
    </g>
   </g>
  </g>
 </g>
 <defs>
  <clipPath id="p069b94ab06">
   <rect height="660.51" width="1280.55" x="69.0405" y="35.8968"/>
  </clipPath>
 </defs>
</svg>
