<?xml version="1.0" encoding="utf-8" standalone="no"?>
<!DOCTYPE svg PUBLIC "-//W3C//DTD SVG 1.1//EN"
  "http://www.w3.org/Graphics/SVG/1.1/DTD/svg11.dtd">
<!-- Created with matplotlib (http://matplotlib.org/) -->
<svg height="754.3958pt" version="1.1" viewBox="0 0 1363.088 754.3958" width="1363.088pt" xmlns="http://www.w3.org/2000/svg" xmlns:xlink="http://www.w3.org/1999/xlink">
 <defs>
  <style type="text/css">
*{stroke-linecap:butt;stroke-linejoin:round;}
  </style>
 </defs>
 <g id="figure_1">
  <g id="patch_1">
   <path d="M 0 754.3958 
L 1363.088 754.3958 
L 1363.088 0 
L 0 0 
z
" style="fill:none;opacity:0;"/>
  </g>
  <g id="axes_1">
   <g id="patch_2">
    <path d="M 64.588 696.4068 
L 1349.638 696.4068 
L 1349.638 35.8968 
L 64.588 35.8968 
z
" style="fill:#f5f5f5;"/>
   </g>
   <g id="matplotlib.axis_1">
    <g id="xtick_1">
     <g id="line2d_1">
      <path clip-path="url(#p94d83a31b5)" d="M 93.793682 696.4068 
L 93.793682 35.8968 
" style="fill:none;stroke:#d5d5d5;stroke-dasharray:1.85,0.8;stroke-dashoffset:0;stroke-width:0.5;"/>
     </g>
     <g id="line2d_2">
      <defs>
       <path d="M 0 0 
L 0 6.25 
" id="m1b379d4158" style="stroke:#262626;"/>
      </defs>
      <g>
       <use style="fill:#262626;stroke:#262626;" x="93.793682" xlink:href="#m1b379d4158" y="696.4068"/>
      </g>
     </g>
     <g id="text_1">
      <!-- 400 -->
      <defs>
       <path d="M 43.015625 15.578125 
L 43.015625 0 
L 34.71875 0 
L 34.71875 15.578125 
L 2.296875 15.578125 
L 2.296875 22.40625 
L 33.796875 68.796875 
L 43.015625 68.796875 
L 43.015625 22.515625 
L 52.6875 22.515625 
L 52.6875 15.578125 
z
M 34.71875 58.890625 
Q 34.625 58.640625 34.234375 57.9375 
Q 33.84375 57.234375 33.34375 56.34375 
Q 32.859375 55.46875 32.34375 54.5625 
Q 31.84375 53.65625 31.453125 53.078125 
L 13.8125 27.09375 
Q 13.578125 26.703125 13.109375 26.0625 
Q 12.640625 25.4375 12.15625 24.78125 
Q 11.671875 24.125 11.171875 23.484375 
Q 10.6875 22.859375 10.40625 22.515625 
L 34.71875 22.515625 
z
" id="LiberationSans-34"/>
       <path d="M 51.703125 34.421875 
Q 51.703125 24.515625 49.828125 17.75 
Q 47.953125 10.984375 44.703125 6.8125 
Q 41.453125 2.640625 37.0625 0.828125 
Q 32.671875 -0.984375 27.6875 -0.984375 
Q 22.65625 -0.984375 18.3125 0.828125 
Q 13.96875 2.640625 10.765625 6.78125 
Q 7.5625 10.9375 5.734375 17.703125 
Q 3.90625 24.46875 3.90625 34.421875 
Q 3.90625 44.828125 5.734375 51.640625 
Q 7.5625 58.453125 10.78125 62.5 
Q 14.015625 66.546875 18.40625 68.1875 
Q 22.796875 69.828125 27.984375 69.828125 
Q 32.90625 69.828125 37.21875 68.1875 
Q 41.546875 66.546875 44.765625 62.5 
Q 48 58.453125 49.84375 51.640625 
Q 51.703125 44.828125 51.703125 34.421875 
z
M 42.78125 34.421875 
Q 42.78125 42.625 41.796875 48.0625 
Q 40.828125 53.515625 38.921875 56.765625 
Q 37.015625 60.015625 34.25 61.359375 
Q 31.5 62.703125 27.984375 62.703125 
Q 24.265625 62.703125 21.4375 61.328125 
Q 18.609375 59.96875 16.671875 56.71875 
Q 14.75 53.46875 13.765625 48.015625 
Q 12.796875 42.578125 12.796875 34.421875 
Q 12.796875 26.515625 13.796875 21.09375 
Q 14.796875 15.671875 16.71875 12.375 
Q 18.65625 9.078125 21.4375 7.640625 
Q 24.21875 6.203125 27.78125 6.203125 
Q 31.25 6.203125 34.03125 7.640625 
Q 36.8125 9.078125 38.734375 12.375 
Q 40.671875 15.671875 41.71875 21.09375 
Q 42.78125 26.515625 42.78125 34.421875 
z
" id="LiberationSans-30"/>
      </defs>
      <g style="fill:#262626;" transform="translate(80.447432 721.2518)scale(0.16 -0.16)">
       <use xlink:href="#LiberationSans-34"/>
       <use x="55.615234" xlink:href="#LiberationSans-30"/>
       <use x="111.230469" xlink:href="#LiberationSans-30"/>
      </g>
     </g>
    </g>
    <g id="xtick_2">
     <g id="line2d_3">
      <path clip-path="url(#p94d83a31b5)" d="M 239.822091 696.4068 
L 239.822091 35.8968 
" style="fill:none;stroke:#d5d5d5;stroke-dasharray:1.85,0.8;stroke-dashoffset:0;stroke-width:0.5;"/>
     </g>
     <g id="line2d_4">
      <g>
       <use style="fill:#262626;stroke:#262626;" x="239.822091" xlink:href="#m1b379d4158" y="696.4068"/>
      </g>
     </g>
     <g id="text_2">
      <!-- 450 -->
      <defs>
       <path d="M 51.421875 22.40625 
Q 51.421875 17.234375 49.859375 12.9375 
Q 48.296875 8.640625 45.21875 5.53125 
Q 42.140625 2.4375 37.578125 0.71875 
Q 33.015625 -0.984375 27 -0.984375 
Q 21.578125 -0.984375 17.546875 0.28125 
Q 13.53125 1.5625 10.734375 3.78125 
Q 7.953125 6 6.3125 8.984375 
Q 4.6875 11.96875 4 15.375 
L 12.890625 16.40625 
Q 13.421875 14.453125 14.390625 12.625 
Q 15.375 10.796875 17.0625 9.34375 
Q 18.75 7.90625 21.21875 7.046875 
Q 23.6875 6.203125 27.203125 6.203125 
Q 30.609375 6.203125 33.390625 7.25 
Q 36.1875 8.296875 38.15625 10.34375 
Q 40.140625 12.40625 41.203125 15.375 
Q 42.28125 18.359375 42.28125 22.21875 
Q 42.28125 25.390625 41.25 28.046875 
Q 40.234375 30.71875 38.328125 32.640625 
Q 36.421875 34.578125 33.65625 35.640625 
Q 30.90625 36.71875 27.390625 36.71875 
Q 25.203125 36.71875 23.34375 36.328125 
Q 21.484375 35.9375 19.890625 35.25 
Q 18.3125 34.578125 17.015625 33.671875 
Q 15.71875 32.765625 14.59375 31.78125 
L 6 31.78125 
L 8.296875 68.796875 
L 47.40625 68.796875 
L 47.40625 61.328125 
L 16.3125 61.328125 
L 14.984375 39.5 
Q 17.328125 41.3125 20.84375 42.59375 
Q 24.359375 43.890625 29.203125 43.890625 
Q 34.328125 43.890625 38.421875 42.328125 
Q 42.53125 40.765625 45.40625 37.90625 
Q 48.296875 35.0625 49.859375 31.109375 
Q 51.421875 27.15625 51.421875 22.40625 
z
" id="LiberationSans-35"/>
      </defs>
      <g style="fill:#262626;" transform="translate(226.475841 721.2518)scale(0.16 -0.16)">
       <use xlink:href="#LiberationSans-34"/>
       <use x="55.615234" xlink:href="#LiberationSans-35"/>
       <use x="111.230469" xlink:href="#LiberationSans-30"/>
      </g>
     </g>
    </g>
    <g id="xtick_3">
     <g id="line2d_5">
      <path clip-path="url(#p94d83a31b5)" d="M 385.8505 696.4068 
L 385.8505 35.8968 
" style="fill:none;stroke:#d5d5d5;stroke-dasharray:1.85,0.8;stroke-dashoffset:0;stroke-width:0.5;"/>
     </g>
     <g id="line2d_6">
      <g>
       <use style="fill:#262626;stroke:#262626;" x="385.8505" xlink:href="#m1b379d4158" y="696.4068"/>
      </g>
     </g>
     <g id="text_3">
      <!-- 500 -->
      <g style="fill:#262626;" transform="translate(372.50425 721.2518)scale(0.16 -0.16)">
       <use xlink:href="#LiberationSans-35"/>
       <use x="55.615234" xlink:href="#LiberationSans-30"/>
       <use x="111.230469" xlink:href="#LiberationSans-30"/>
      </g>
     </g>
    </g>
    <g id="xtick_4">
     <g id="line2d_7">
      <path clip-path="url(#p94d83a31b5)" d="M 531.878909 696.4068 
L 531.878909 35.8968 
" style="fill:none;stroke:#d5d5d5;stroke-dasharray:1.85,0.8;stroke-dashoffset:0;stroke-width:0.5;"/>
     </g>
     <g id="line2d_8">
      <g>
       <use style="fill:#262626;stroke:#262626;" x="531.878909" xlink:href="#m1b379d4158" y="696.4068"/>
      </g>
     </g>
     <g id="text_4">
      <!-- 550 -->
      <g style="fill:#262626;" transform="translate(518.532659 721.2518)scale(0.16 -0.16)">
       <use xlink:href="#LiberationSans-35"/>
       <use x="55.615234" xlink:href="#LiberationSans-35"/>
       <use x="111.230469" xlink:href="#LiberationSans-30"/>
      </g>
     </g>
    </g>
    <g id="xtick_5">
     <g id="line2d_9">
      <path clip-path="url(#p94d83a31b5)" d="M 677.907318 696.4068 
L 677.907318 35.8968 
" style="fill:none;stroke:#d5d5d5;stroke-dasharray:1.85,0.8;stroke-dashoffset:0;stroke-width:0.5;"/>
     </g>
     <g id="line2d_10">
      <g>
       <use style="fill:#262626;stroke:#262626;" x="677.907318" xlink:href="#m1b379d4158" y="696.4068"/>
      </g>
     </g>
     <g id="text_5">
      <!-- 600 -->
      <defs>
       <path d="M 51.21875 22.515625 
Q 51.21875 17.328125 49.78125 13 
Q 48.34375 8.6875 45.53125 5.578125 
Q 42.71875 2.484375 38.5625 0.75 
Q 34.421875 -0.984375 29 -0.984375 
Q 23 -0.984375 18.5 1.3125 
Q 14.015625 3.609375 11.03125 7.921875 
Q 8.0625 12.25 6.5625 18.53125 
Q 5.078125 24.8125 5.078125 32.8125 
Q 5.078125 42 6.765625 48.921875 
Q 8.453125 55.859375 11.625 60.5 
Q 14.796875 65.140625 19.359375 67.484375 
Q 23.921875 69.828125 29.6875 69.828125 
Q 33.203125 69.828125 36.28125 69.09375 
Q 39.359375 68.359375 41.875 66.71875 
Q 44.390625 65.09375 46.28125 62.40625 
Q 48.1875 59.71875 49.3125 55.8125 
L 40.921875 54.296875 
Q 39.546875 58.734375 36.546875 60.71875 
Q 33.546875 62.703125 29.59375 62.703125 
Q 25.984375 62.703125 23.046875 60.984375 
Q 20.125 59.28125 18.0625 55.875 
Q 16.015625 52.484375 14.90625 47.359375 
Q 13.8125 42.234375 13.8125 35.40625 
Q 16.21875 39.84375 20.5625 42.15625 
Q 24.90625 44.484375 30.515625 44.484375 
Q 35.203125 44.484375 39.015625 42.96875 
Q 42.828125 41.453125 45.53125 38.59375 
Q 48.25 35.75 49.734375 31.671875 
Q 51.21875 27.59375 51.21875 22.515625 
z
M 42.28125 22.125 
Q 42.28125 25.6875 41.40625 28.5625 
Q 40.53125 31.453125 38.765625 33.46875 
Q 37.015625 35.5 34.421875 36.59375 
Q 31.84375 37.703125 28.421875 37.703125 
Q 26.03125 37.703125 23.578125 36.984375 
Q 21.140625 36.28125 19.15625 34.6875 
Q 17.1875 33.109375 15.9375 30.515625 
Q 14.703125 27.9375 14.703125 24.21875 
Q 14.703125 20.40625 15.671875 17.109375 
Q 16.65625 13.8125 18.484375 11.375 
Q 20.3125 8.9375 22.890625 7.515625 
Q 25.484375 6.109375 28.71875 6.109375 
Q 31.890625 6.109375 34.40625 7.203125 
Q 36.921875 8.296875 38.671875 10.375 
Q 40.4375 12.453125 41.359375 15.421875 
Q 42.28125 18.40625 42.28125 22.125 
z
" id="LiberationSans-36"/>
      </defs>
      <g style="fill:#262626;" transform="translate(664.561068 721.2518)scale(0.16 -0.16)">
       <use xlink:href="#LiberationSans-36"/>
       <use x="55.615234" xlink:href="#LiberationSans-30"/>
       <use x="111.230469" xlink:href="#LiberationSans-30"/>
      </g>
     </g>
    </g>
    <g id="xtick_6">
     <g id="line2d_11">
      <path clip-path="url(#p94d83a31b5)" d="M 823.935727 696.4068 
L 823.935727 35.8968 
" style="fill:none;stroke:#d5d5d5;stroke-dasharray:1.85,0.8;stroke-dashoffset:0;stroke-width:0.5;"/>
     </g>
     <g id="line2d_12">
      <g>
       <use style="fill:#262626;stroke:#262626;" x="823.935727" xlink:href="#m1b379d4158" y="696.4068"/>
      </g>
     </g>
     <g id="text_6">
      <!-- 650 -->
      <g style="fill:#262626;" transform="translate(810.589477 721.2518)scale(0.16 -0.16)">
       <use xlink:href="#LiberationSans-36"/>
       <use x="55.615234" xlink:href="#LiberationSans-35"/>
       <use x="111.230469" xlink:href="#LiberationSans-30"/>
      </g>
     </g>
    </g>
    <g id="xtick_7">
     <g id="line2d_13">
      <path clip-path="url(#p94d83a31b5)" d="M 969.964136 696.4068 
L 969.964136 35.8968 
" style="fill:none;stroke:#d5d5d5;stroke-dasharray:1.85,0.8;stroke-dashoffset:0;stroke-width:0.5;"/>
     </g>
     <g id="line2d_14">
      <g>
       <use style="fill:#262626;stroke:#262626;" x="969.964136" xlink:href="#m1b379d4158" y="696.4068"/>
      </g>
     </g>
     <g id="text_7">
      <!-- 700 -->
      <defs>
       <path d="M 50.59375 61.671875 
Q 45.40625 53.765625 41.0625 46.453125 
Q 36.71875 39.15625 33.59375 31.75 
Q 30.46875 24.359375 28.734375 16.578125 
Q 27 8.796875 27 0 
L 17.828125 0 
Q 17.828125 8.25 19.78125 16.1875 
Q 21.734375 24.125 25.046875 31.765625 
Q 28.375 39.40625 32.765625 46.78125 
Q 37.15625 54.15625 42.09375 61.328125 
L 5.125 61.328125 
L 5.125 68.796875 
L 50.59375 68.796875 
z
" id="LiberationSans-37"/>
      </defs>
      <g style="fill:#262626;" transform="translate(956.617886 721.2518)scale(0.16 -0.16)">
       <use xlink:href="#LiberationSans-37"/>
       <use x="55.615234" xlink:href="#LiberationSans-30"/>
       <use x="111.230469" xlink:href="#LiberationSans-30"/>
      </g>
     </g>
    </g>
    <g id="xtick_8">
     <g id="line2d_15">
      <path clip-path="url(#p94d83a31b5)" d="M 1115.992545 696.4068 
L 1115.992545 35.8968 
" style="fill:none;stroke:#d5d5d5;stroke-dasharray:1.85,0.8;stroke-dashoffset:0;stroke-width:0.5;"/>
     </g>
     <g id="line2d_16">
      <g>
       <use style="fill:#262626;stroke:#262626;" x="1115.992545" xlink:href="#m1b379d4158" y="696.4068"/>
      </g>
     </g>
     <g id="text_8">
      <!-- 750 -->
      <g style="fill:#262626;" transform="translate(1102.646295 721.2518)scale(0.16 -0.16)">
       <use xlink:href="#LiberationSans-37"/>
       <use x="55.615234" xlink:href="#LiberationSans-35"/>
       <use x="111.230469" xlink:href="#LiberationSans-30"/>
      </g>
     </g>
    </g>
    <g id="xtick_9">
     <g id="line2d_17">
      <path clip-path="url(#p94d83a31b5)" d="M 1262.020955 696.4068 
L 1262.020955 35.8968 
" style="fill:none;stroke:#d5d5d5;stroke-dasharray:1.85,0.8;stroke-dashoffset:0;stroke-width:0.5;"/>
     </g>
     <g id="line2d_18">
      <g>
       <use style="fill:#262626;stroke:#262626;" x="1262.020955" xlink:href="#m1b379d4158" y="696.4068"/>
      </g>
     </g>
     <g id="text_9">
      <!-- 800 -->
      <defs>
       <path d="M 51.265625 19.1875 
Q 51.265625 14.796875 49.875 11.109375 
Q 48.484375 7.421875 45.625 4.734375 
Q 42.78125 2.046875 38.328125 0.53125 
Q 33.890625 -0.984375 27.828125 -0.984375 
Q 21.78125 -0.984375 17.359375 0.53125 
Q 12.9375 2.046875 10.03125 4.703125 
Q 7.125 7.375 5.734375 11.0625 
Q 4.34375 14.75 4.34375 19.09375 
Q 4.34375 22.859375 5.484375 25.78125 
Q 6.640625 28.71875 8.5625 30.828125 
Q 10.5 32.953125 12.96875 34.25 
Q 15.4375 35.546875 18.0625 35.984375 
L 18.0625 36.1875 
Q 15.1875 36.859375 12.90625 38.375 
Q 10.640625 39.890625 9.09375 42.015625 
Q 7.5625 44.140625 6.75 46.71875 
Q 5.953125 49.3125 5.953125 52.203125 
Q 5.953125 55.8125 7.34375 59 
Q 8.734375 62.203125 11.46875 64.625 
Q 14.203125 67.046875 18.25 68.4375 
Q 22.3125 69.828125 27.640625 69.828125 
Q 33.25 69.828125 37.375 68.40625 
Q 41.5 67 44.203125 64.578125 
Q 46.921875 62.15625 48.234375 58.9375 
Q 49.5625 55.71875 49.5625 52.09375 
Q 49.5625 49.265625 48.75 46.671875 
Q 47.953125 44.09375 46.40625 41.96875 
Q 44.875 39.84375 42.59375 38.34375 
Q 40.328125 36.859375 37.359375 36.28125 
L 37.359375 36.078125 
Q 40.328125 35.59375 42.859375 34.296875 
Q 45.40625 33.015625 47.265625 30.890625 
Q 49.125 28.765625 50.1875 25.828125 
Q 51.265625 22.90625 51.265625 19.1875 
z
M 40.4375 51.609375 
Q 40.4375 54.203125 39.765625 56.34375 
Q 39.109375 58.5 37.59375 60.03125 
Q 36.078125 61.578125 33.640625 62.421875 
Q 31.203125 63.28125 27.640625 63.28125 
Q 24.171875 63.28125 21.78125 62.421875 
Q 19.390625 61.578125 17.84375 60.03125 
Q 16.3125 58.5 15.625 56.34375 
Q 14.9375 54.203125 14.9375 51.609375 
Q 14.9375 49.5625 15.46875 47.40625 
Q 16.015625 45.265625 17.421875 43.5 
Q 18.84375 41.75 21.328125 40.625 
Q 23.828125 39.5 27.734375 39.5 
Q 31.890625 39.5 34.40625 40.625 
Q 36.921875 41.75 38.25 43.5 
Q 39.59375 45.265625 40.015625 47.40625 
Q 40.4375 49.5625 40.4375 51.609375 
z
M 42.140625 20.015625 
Q 42.140625 22.515625 41.453125 24.828125 
Q 40.765625 27.15625 39.109375 28.9375 
Q 37.453125 30.71875 34.640625 31.8125 
Q 31.84375 32.90625 27.640625 32.90625 
Q 23.78125 32.90625 21.0625 31.8125 
Q 18.359375 30.71875 16.671875 28.90625 
Q 14.984375 27.09375 14.203125 24.71875 
Q 13.421875 22.359375 13.421875 19.828125 
Q 13.421875 16.65625 14.203125 14.03125 
Q 14.984375 11.421875 16.6875 9.546875 
Q 18.40625 7.671875 21.1875 6.640625 
Q 23.96875 5.609375 27.9375 5.609375 
Q 31.9375 5.609375 34.671875 6.640625 
Q 37.40625 7.671875 39.0625 9.546875 
Q 40.71875 11.421875 41.421875 14.078125 
Q 42.140625 16.75 42.140625 20.015625 
z
" id="LiberationSans-38"/>
      </defs>
      <g style="fill:#262626;" transform="translate(1248.674705 721.2518)scale(0.16 -0.16)">
       <use xlink:href="#LiberationSans-38"/>
       <use x="55.615234" xlink:href="#LiberationSans-30"/>
       <use x="111.230469" xlink:href="#LiberationSans-30"/>
      </g>
     </g>
    </g>
    <g id="xtick_10">
     <g id="line2d_19">
      <defs>
       <path d="M 0 0 
L 0 3.75 
" id="mda9d7fbfab" style="stroke:#262626;"/>
      </defs>
      <g>
       <use style="fill:#262626;stroke:#262626;" x="122.999364" xlink:href="#mda9d7fbfab" y="696.4068"/>
      </g>
     </g>
    </g>
    <g id="xtick_11">
     <g id="line2d_20">
      <g>
       <use style="fill:#262626;stroke:#262626;" x="152.205045" xlink:href="#mda9d7fbfab" y="696.4068"/>
      </g>
     </g>
    </g>
    <g id="xtick_12">
     <g id="line2d_21">
      <g>
       <use style="fill:#262626;stroke:#262626;" x="181.410727" xlink:href="#mda9d7fbfab" y="696.4068"/>
      </g>
     </g>
    </g>
    <g id="xtick_13">
     <g id="line2d_22">
      <g>
       <use style="fill:#262626;stroke:#262626;" x="210.616409" xlink:href="#mda9d7fbfab" y="696.4068"/>
      </g>
     </g>
    </g>
    <g id="xtick_14">
     <g id="line2d_23">
      <g>
       <use style="fill:#262626;stroke:#262626;" x="269.027773" xlink:href="#mda9d7fbfab" y="696.4068"/>
      </g>
     </g>
    </g>
    <g id="xtick_15">
     <g id="line2d_24">
      <g>
       <use style="fill:#262626;stroke:#262626;" x="298.233455" xlink:href="#mda9d7fbfab" y="696.4068"/>
      </g>
     </g>
    </g>
    <g id="xtick_16">
     <g id="line2d_25">
      <g>
       <use style="fill:#262626;stroke:#262626;" x="327.439136" xlink:href="#mda9d7fbfab" y="696.4068"/>
      </g>
     </g>
    </g>
    <g id="xtick_17">
     <g id="line2d_26">
      <g>
       <use style="fill:#262626;stroke:#262626;" x="356.644818" xlink:href="#mda9d7fbfab" y="696.4068"/>
      </g>
     </g>
    </g>
    <g id="xtick_18">
     <g id="line2d_27">
      <g>
       <use style="fill:#262626;stroke:#262626;" x="415.056182" xlink:href="#mda9d7fbfab" y="696.4068"/>
      </g>
     </g>
    </g>
    <g id="xtick_19">
     <g id="line2d_28">
      <g>
       <use style="fill:#262626;stroke:#262626;" x="444.261864" xlink:href="#mda9d7fbfab" y="696.4068"/>
      </g>
     </g>
    </g>
    <g id="xtick_20">
     <g id="line2d_29">
      <g>
       <use style="fill:#262626;stroke:#262626;" x="473.467545" xlink:href="#mda9d7fbfab" y="696.4068"/>
      </g>
     </g>
    </g>
    <g id="xtick_21">
     <g id="line2d_30">
      <g>
       <use style="fill:#262626;stroke:#262626;" x="502.673227" xlink:href="#mda9d7fbfab" y="696.4068"/>
      </g>
     </g>
    </g>
    <g id="xtick_22">
     <g id="line2d_31">
      <g>
       <use style="fill:#262626;stroke:#262626;" x="561.084591" xlink:href="#mda9d7fbfab" y="696.4068"/>
      </g>
     </g>
    </g>
    <g id="xtick_23">
     <g id="line2d_32">
      <g>
       <use style="fill:#262626;stroke:#262626;" x="590.290273" xlink:href="#mda9d7fbfab" y="696.4068"/>
      </g>
     </g>
    </g>
    <g id="xtick_24">
     <g id="line2d_33">
      <g>
       <use style="fill:#262626;stroke:#262626;" x="619.495955" xlink:href="#mda9d7fbfab" y="696.4068"/>
      </g>
     </g>
    </g>
    <g id="xtick_25">
     <g id="line2d_34">
      <g>
       <use style="fill:#262626;stroke:#262626;" x="648.701636" xlink:href="#mda9d7fbfab" y="696.4068"/>
      </g>
     </g>
    </g>
    <g id="xtick_26">
     <g id="line2d_35">
      <g>
       <use style="fill:#262626;stroke:#262626;" x="707.113" xlink:href="#mda9d7fbfab" y="696.4068"/>
      </g>
     </g>
    </g>
    <g id="xtick_27">
     <g id="line2d_36">
      <g>
       <use style="fill:#262626;stroke:#262626;" x="736.318682" xlink:href="#mda9d7fbfab" y="696.4068"/>
      </g>
     </g>
    </g>
    <g id="xtick_28">
     <g id="line2d_37">
      <g>
       <use style="fill:#262626;stroke:#262626;" x="765.524364" xlink:href="#mda9d7fbfab" y="696.4068"/>
      </g>
     </g>
    </g>
    <g id="xtick_29">
     <g id="line2d_38">
      <g>
       <use style="fill:#262626;stroke:#262626;" x="794.730045" xlink:href="#mda9d7fbfab" y="696.4068"/>
      </g>
     </g>
    </g>
    <g id="xtick_30">
     <g id="line2d_39">
      <g>
       <use style="fill:#262626;stroke:#262626;" x="853.141409" xlink:href="#mda9d7fbfab" y="696.4068"/>
      </g>
     </g>
    </g>
    <g id="xtick_31">
     <g id="line2d_40">
      <g>
       <use style="fill:#262626;stroke:#262626;" x="882.347091" xlink:href="#mda9d7fbfab" y="696.4068"/>
      </g>
     </g>
    </g>
    <g id="xtick_32">
     <g id="line2d_41">
      <g>
       <use style="fill:#262626;stroke:#262626;" x="911.552773" xlink:href="#mda9d7fbfab" y="696.4068"/>
      </g>
     </g>
    </g>
    <g id="xtick_33">
     <g id="line2d_42">
      <g>
       <use style="fill:#262626;stroke:#262626;" x="940.758455" xlink:href="#mda9d7fbfab" y="696.4068"/>
      </g>
     </g>
    </g>
    <g id="xtick_34">
     <g id="line2d_43">
      <g>
       <use style="fill:#262626;stroke:#262626;" x="999.169818" xlink:href="#mda9d7fbfab" y="696.4068"/>
      </g>
     </g>
    </g>
    <g id="xtick_35">
     <g id="line2d_44">
      <g>
       <use style="fill:#262626;stroke:#262626;" x="1028.3755" xlink:href="#mda9d7fbfab" y="696.4068"/>
      </g>
     </g>
    </g>
    <g id="xtick_36">
     <g id="line2d_45">
      <g>
       <use style="fill:#262626;stroke:#262626;" x="1057.581182" xlink:href="#mda9d7fbfab" y="696.4068"/>
      </g>
     </g>
    </g>
    <g id="xtick_37">
     <g id="line2d_46">
      <g>
       <use style="fill:#262626;stroke:#262626;" x="1086.786864" xlink:href="#mda9d7fbfab" y="696.4068"/>
      </g>
     </g>
    </g>
    <g id="xtick_38">
     <g id="line2d_47">
      <g>
       <use style="fill:#262626;stroke:#262626;" x="1145.198227" xlink:href="#mda9d7fbfab" y="696.4068"/>
      </g>
     </g>
    </g>
    <g id="xtick_39">
     <g id="line2d_48">
      <g>
       <use style="fill:#262626;stroke:#262626;" x="1174.403909" xlink:href="#mda9d7fbfab" y="696.4068"/>
      </g>
     </g>
    </g>
    <g id="xtick_40">
     <g id="line2d_49">
      <g>
       <use style="fill:#262626;stroke:#262626;" x="1203.609591" xlink:href="#mda9d7fbfab" y="696.4068"/>
      </g>
     </g>
    </g>
    <g id="xtick_41">
     <g id="line2d_50">
      <g>
       <use style="fill:#262626;stroke:#262626;" x="1232.815273" xlink:href="#mda9d7fbfab" y="696.4068"/>
      </g>
     </g>
    </g>
    <g id="xtick_42">
     <g id="line2d_51">
      <g>
       <use style="fill:#262626;stroke:#262626;" x="1291.226636" xlink:href="#mda9d7fbfab" y="696.4068"/>
      </g>
     </g>
    </g>
    <g id="xtick_43">
     <g id="line2d_52">
      <g>
       <use style="fill:#262626;stroke:#262626;" x="1320.432318" xlink:href="#mda9d7fbfab" y="696.4068"/>
      </g>
     </g>
    </g>
    <g id="xtick_44">
     <g id="line2d_53">
      <g>
       <use style="fill:#262626;stroke:#262626;" x="1349.638" xlink:href="#mda9d7fbfab" y="696.4068"/>
      </g>
     </g>
    </g>
    <g id="text_10">
     <!-- Wavelength $\lambda$ (nm) -->
     <defs>
      <path d="M 73.78125 0 
L 62.640625 0 
L 50.734375 43.703125 
Q 50.203125 45.5625 49.578125 48.09375 
Q 48.96875 50.640625 48.484375 52.9375 
Q 47.90625 55.609375 47.3125 58.40625 
Q 46.6875 55.5625 46.09375 52.875 
Q 45.5625 50.53125 44.96875 48.046875 
Q 44.390625 45.5625 43.84375 43.703125 
L 31.84375 0 
L 20.703125 0 
L 0.4375 68.796875 
L 10.15625 68.796875 
L 22.515625 25.09375 
Q 23.34375 22.015625 24.09375 18.984375 
Q 24.859375 15.96875 25.390625 13.578125 
Q 26.03125 10.75 26.5625 8.203125 
Q 27.296875 11.578125 28.078125 14.84375 
Q 28.421875 16.21875 28.765625 17.71875 
Q 29.109375 19.234375 29.46875 20.703125 
Q 29.828125 22.171875 30.1875 23.515625 
Q 30.5625 24.859375 30.859375 25.984375 
L 42.828125 68.796875 
L 51.765625 68.796875 
L 63.71875 25.984375 
Q 64.015625 24.859375 64.375 23.515625 
Q 64.75 22.171875 65.109375 20.71875 
Q 65.484375 19.28125 65.8125 17.765625 
Q 66.15625 16.265625 66.5 14.890625 
Q 67.28125 11.625 68.015625 8.203125 
Q 68.0625 8.203125 68.453125 9.890625 
Q 68.84375 11.578125 69.421875 14.109375 
Q 70.015625 16.65625 70.71875 19.609375 
Q 71.4375 22.5625 72.171875 25.09375 
L 84.328125 68.796875 
L 94.046875 68.796875 
z
" id="LiberationSans-57"/>
      <path d="M 20.21875 -0.984375 
Q 12.25 -0.984375 8.25 3.21875 
Q 4.25 7.421875 4.25 14.75 
Q 4.25 19.96875 6.21875 23.3125 
Q 8.203125 26.65625 11.390625 28.5625 
Q 14.59375 30.46875 18.6875 31.203125 
Q 22.796875 31.9375 27.046875 32.03125 
L 38.921875 32.234375 
L 38.921875 35.109375 
Q 38.921875 38.375 38.234375 40.671875 
Q 37.546875 42.96875 36.125 44.375 
Q 34.71875 45.796875 32.59375 46.453125 
Q 30.46875 47.125 27.59375 47.125 
Q 25.046875 47.125 23 46.75 
Q 20.953125 46.390625 19.4375 45.4375 
Q 17.921875 44.484375 16.984375 42.84375 
Q 16.0625 41.21875 15.765625 38.71875 
L 6.59375 39.546875 
Q 7.078125 42.671875 8.4375 45.28125 
Q 9.8125 47.90625 12.328125 49.796875 
Q 14.84375 51.703125 18.625 52.75 
Q 22.40625 53.8125 27.78125 53.8125 
Q 37.75 53.8125 42.765625 49.234375 
Q 47.796875 44.671875 47.796875 36.03125 
L 47.796875 13.28125 
Q 47.796875 9.375 48.828125 7.390625 
Q 49.859375 5.421875 52.734375 5.421875 
Q 53.46875 5.421875 54.203125 5.515625 
Q 54.9375 5.609375 55.609375 5.765625 
L 55.609375 0.296875 
Q 53.953125 -0.09375 52.3125 -0.28125 
Q 50.6875 -0.484375 48.828125 -0.484375 
Q 46.34375 -0.484375 44.5625 0.171875 
Q 42.78125 0.828125 41.65625 2.171875 
Q 40.53125 3.515625 39.9375 5.484375 
Q 39.359375 7.46875 39.203125 10.109375 
L 38.921875 10.109375 
Q 37.5 7.5625 35.8125 5.515625 
Q 34.125 3.46875 31.875 2.03125 
Q 29.640625 0.59375 26.78125 -0.1875 
Q 23.921875 -0.984375 20.21875 -0.984375 
z
M 22.21875 5.609375 
Q 26.421875 5.609375 29.5625 7.140625 
Q 32.71875 8.6875 34.78125 11.078125 
Q 36.859375 13.484375 37.890625 16.3125 
Q 38.921875 19.140625 38.921875 21.734375 
L 38.921875 26.078125 
L 29.296875 25.875 
Q 26.078125 25.828125 23.171875 25.40625 
Q 20.265625 25 18.0625 23.78125 
Q 15.875 22.5625 14.578125 20.359375 
Q 13.28125 18.171875 13.28125 14.59375 
Q 13.28125 10.296875 15.59375 7.953125 
Q 17.921875 5.609375 22.21875 5.609375 
z
" id="LiberationSans-61"/>
      <path d="M 29.9375 0 
L 19.53125 0 
L 0.34375 52.828125 
L 9.71875 52.828125 
L 21.34375 18.453125 
Q 21.6875 17.390625 22.140625 15.84375 
Q 22.609375 14.3125 23.09375 12.640625 
Q 23.578125 10.984375 24 9.4375 
Q 24.421875 7.90625 24.703125 6.890625 
Q 25 7.90625 25.453125 9.4375 
Q 25.921875 10.984375 26.40625 12.59375 
Q 26.90625 14.203125 27.421875 15.734375 
Q 27.9375 17.28125 28.328125 18.359375 
L 40.328125 52.828125 
L 49.65625 52.828125 
z
" id="LiberationSans-76"/>
      <path d="M 13.484375 24.5625 
Q 13.484375 20.40625 14.328125 16.90625 
Q 15.1875 13.421875 16.96875 10.90625 
Q 18.75 8.40625 21.53125 7 
Q 24.3125 5.609375 28.21875 5.609375 
Q 33.9375 5.609375 37.375 7.90625 
Q 40.828125 10.203125 42.046875 13.71875 
L 49.75 11.53125 
Q 48.921875 9.328125 47.4375 7.109375 
Q 45.953125 4.890625 43.453125 3.09375 
Q 40.96875 1.3125 37.234375 0.15625 
Q 33.5 -0.984375 28.21875 -0.984375 
Q 16.5 -0.984375 10.375 6 
Q 4.25 12.984375 4.25 26.765625 
Q 4.25 34.1875 6.09375 39.328125 
Q 7.953125 44.484375 11.171875 47.703125 
Q 14.40625 50.921875 18.703125 52.359375 
Q 23 53.8125 27.875 53.8125 
Q 34.515625 53.8125 38.984375 51.65625 
Q 43.453125 49.515625 46.15625 45.71875 
Q 48.875 41.9375 50.015625 36.8125 
Q 51.171875 31.6875 51.171875 25.734375 
L 51.171875 24.5625 
z
M 42.09375 31.296875 
Q 41.359375 39.65625 37.84375 43.484375 
Q 34.328125 47.3125 27.734375 47.3125 
Q 25.53125 47.3125 23.109375 46.609375 
Q 20.703125 45.90625 18.65625 44.09375 
Q 16.609375 42.28125 15.1875 39.171875 
Q 13.765625 36.078125 13.578125 31.296875 
z
" id="LiberationSans-65"/>
      <path d="M 6.734375 0 
L 6.734375 72.46875 
L 15.53125 72.46875 
L 15.53125 0 
z
" id="LiberationSans-6c"/>
      <path d="M 40.28125 0 
L 40.28125 33.5 
Q 40.28125 37.359375 39.71875 39.9375 
Q 39.15625 42.53125 37.890625 44.109375 
Q 36.625 45.703125 34.546875 46.359375 
Q 32.46875 47.015625 29.390625 47.015625 
Q 26.265625 47.015625 23.75 45.921875 
Q 21.234375 44.828125 19.453125 42.75 
Q 17.671875 40.671875 16.6875 37.625 
Q 15.71875 34.578125 15.71875 30.609375 
L 15.71875 0 
L 6.9375 0 
L 6.9375 41.546875 
Q 6.9375 43.21875 6.90625 45.046875 
Q 6.890625 46.875 6.828125 48.5 
Q 6.78125 50.140625 6.734375 51.3125 
Q 6.6875 52.484375 6.640625 52.828125 
L 14.9375 52.828125 
Q 14.984375 52.59375 15.03125 51.515625 
Q 15.09375 50.4375 15.15625 49.046875 
Q 15.234375 47.65625 15.28125 46.21875 
Q 15.328125 44.78125 15.328125 43.796875 
L 15.484375 43.796875 
Q 16.75 46.09375 18.265625 47.953125 
Q 19.78125 49.8125 21.78125 51.09375 
Q 23.78125 52.390625 26.359375 53.09375 
Q 28.953125 53.8125 32.375 53.8125 
Q 36.765625 53.8125 39.9375 52.734375 
Q 43.109375 51.65625 45.15625 49.40625 
Q 47.21875 47.171875 48.171875 43.625 
Q 49.125 40.09375 49.125 35.203125 
L 49.125 0 
z
" id="LiberationSans-6e"/>
      <path d="M 26.765625 -20.75 
Q 22.21875 -20.75 18.703125 -19.8125 
Q 15.1875 -18.890625 12.6875 -17.15625 
Q 10.203125 -15.4375 8.640625 -13.03125 
Q 7.078125 -10.640625 6.390625 -7.71875 
L 15.234375 -6.453125 
Q 16.109375 -10.109375 19.109375 -12.078125 
Q 22.125 -14.0625 27 -14.0625 
Q 29.984375 -14.0625 32.421875 -13.234375 
Q 34.859375 -12.40625 36.5625 -10.5625 
Q 38.28125 -8.734375 39.203125 -5.796875 
Q 40.140625 -2.875 40.140625 1.3125 
L 40.140625 9.8125 
L 40.046875 9.8125 
Q 39.0625 7.8125 37.625 5.984375 
Q 36.1875 4.15625 34.109375 2.734375 
Q 32.03125 1.3125 29.296875 0.453125 
Q 26.5625 -0.390625 23.046875 -0.390625 
Q 18.015625 -0.390625 14.421875 1.296875 
Q 10.84375 2.984375 8.5625 6.34375 
Q 6.296875 9.71875 5.25 14.71875 
Q 4.203125 19.734375 4.203125 26.3125 
Q 4.203125 32.671875 5.25 37.75 
Q 6.296875 42.828125 8.65625 46.359375 
Q 11.03125 49.90625 14.8125 51.78125 
Q 18.609375 53.65625 24.03125 53.65625 
Q 29.640625 53.65625 33.765625 51.09375 
Q 37.890625 48.53125 40.140625 43.796875 
L 40.234375 43.796875 
Q 40.234375 45.015625 40.296875 46.53125 
Q 40.375 48.046875 40.453125 49.390625 
Q 40.53125 50.734375 40.625 51.703125 
Q 40.71875 52.6875 40.828125 52.828125 
L 49.171875 52.828125 
Q 49.125 52.390625 49.078125 51.34375 
Q 49.03125 50.296875 48.96875 48.828125 
Q 48.921875 47.359375 48.890625 45.578125 
Q 48.875 43.796875 48.875 41.890625 
L 48.875 1.515625 
Q 48.875 -9.578125 43.421875 -15.15625 
Q 37.984375 -20.75 26.765625 -20.75 
z
M 40.140625 26.421875 
Q 40.140625 31.9375 38.9375 35.859375 
Q 37.75 39.796875 35.796875 42.28125 
Q 33.84375 44.78125 31.328125 45.953125 
Q 28.8125 47.125 26.171875 47.125 
Q 22.796875 47.125 20.375 45.953125 
Q 17.96875 44.78125 16.375 42.265625 
Q 14.796875 39.75 14.03125 35.8125 
Q 13.28125 31.890625 13.28125 26.421875 
Q 13.28125 20.703125 14.03125 16.8125 
Q 14.796875 12.9375 16.359375 10.546875 
Q 17.921875 8.15625 20.3125 7.125 
Q 22.703125 6.109375 26.03125 6.109375 
Q 28.65625 6.109375 31.171875 7.21875 
Q 33.6875 8.34375 35.6875 10.78125 
Q 37.703125 13.234375 38.921875 17.09375 
Q 40.140625 20.953125 40.140625 26.421875 
z
" id="LiberationSans-67"/>
      <path d="M 27.046875 0.390625 
Q 25.046875 -0.140625 22.96875 -0.453125 
Q 20.90625 -0.78125 18.171875 -0.78125 
Q 7.625 -0.78125 7.625 11.1875 
L 7.625 46.4375 
L 1.515625 46.4375 
L 1.515625 52.828125 
L 7.953125 52.828125 
L 10.546875 64.65625 
L 16.40625 64.65625 
L 16.40625 52.828125 
L 26.171875 52.828125 
L 26.171875 46.4375 
L 16.40625 46.4375 
L 16.40625 13.09375 
Q 16.40625 9.28125 17.640625 7.734375 
Q 18.890625 6.203125 21.96875 6.203125 
Q 23.25 6.203125 24.4375 6.390625 
Q 25.640625 6.59375 27.046875 6.890625 
z
" id="LiberationSans-74"/>
      <path d="M 15.484375 43.796875 
Q 16.9375 46.484375 18.640625 48.359375 
Q 20.359375 50.25 22.40625 51.46875 
Q 24.46875 52.6875 26.90625 53.25 
Q 29.34375 53.8125 32.375 53.8125 
Q 37.453125 53.8125 40.703125 52.4375 
Q 43.953125 51.078125 45.828125 48.609375 
Q 47.703125 46.140625 48.40625 42.71875 
Q 49.125 39.3125 49.125 35.203125 
L 49.125 0 
L 40.28125 0 
L 40.28125 33.5 
Q 40.28125 36.859375 39.859375 39.390625 
Q 39.453125 41.9375 38.28125 43.625 
Q 37.109375 45.3125 34.953125 46.15625 
Q 32.8125 47.015625 29.390625 47.015625 
Q 26.265625 47.015625 23.75 45.890625 
Q 21.234375 44.78125 19.453125 42.71875 
Q 17.671875 40.671875 16.6875 37.734375 
Q 15.71875 34.8125 15.71875 31.15625 
L 15.71875 0 
L 6.9375 0 
L 6.9375 72.46875 
L 15.71875 72.46875 
L 15.71875 53.609375 
Q 15.71875 52 15.671875 50.390625 
Q 15.625 48.78125 15.546875 47.40625 
Q 15.484375 46.046875 15.421875 45.09375 
Q 15.375 44.140625 15.328125 43.796875 
z
" id="LiberationSans-68"/>
      <path id="LiberationSans-20"/>
      <path d="M 36.71875 67.4375 
L 48.828125 0 
L 39.3125 0 
L 31.84375 40.4375 
L 5.125 0 
L -4.390625 0 
L 29.734375 52.4375 
L 28.03125 62.109375 
Q 26.953125 68.265625 21.734375 68.265625 
L 17.046875 68.265625 
L 18.5 75.984375 
L 24.21875 75.875 
Q 35.203125 75.734375 36.71875 67.4375 
z
" id="DejaVuSans-Oblique-3bb"/>
      <path d="M 6.203125 25.984375 
Q 6.203125 32.765625 7.21875 38.96875 
Q 8.25 45.171875 10.4375 50.875 
Q 12.640625 56.59375 16.0625 61.953125 
Q 19.484375 67.328125 24.21875 72.46875 
L 32.71875 72.46875 
Q 28.125 67.328125 24.78125 61.9375 
Q 21.4375 56.546875 19.28125 50.796875 
Q 17.140625 45.0625 16.09375 38.859375 
Q 15.046875 32.671875 15.046875 25.875 
Q 15.046875 19.09375 16.09375 12.890625 
Q 17.140625 6.6875 19.28125 0.921875 
Q 21.4375 -4.828125 24.78125 -10.203125 
Q 28.125 -15.578125 32.71875 -20.703125 
L 24.21875 -20.703125 
Q 19.484375 -15.578125 16.0625 -10.203125 
Q 12.640625 -4.828125 10.4375 0.875 
Q 8.25 6.59375 7.21875 12.765625 
Q 6.203125 18.953125 6.203125 25.78125 
z
" id="LiberationSans-28"/>
      <path d="M 37.5 0 
L 37.5 33.5 
Q 37.5 37.359375 37.015625 39.9375 
Q 36.53125 42.53125 35.375 44.109375 
Q 34.234375 45.703125 32.375 46.359375 
Q 30.515625 47.015625 27.828125 47.015625 
Q 25.046875 47.015625 22.796875 45.921875 
Q 20.5625 44.828125 18.96875 42.75 
Q 17.390625 40.671875 16.53125 37.625 
Q 15.671875 34.578125 15.671875 30.609375 
L 15.671875 0 
L 6.9375 0 
L 6.9375 41.546875 
Q 6.9375 43.21875 6.90625 45.046875 
Q 6.890625 46.875 6.828125 48.5 
Q 6.78125 50.140625 6.734375 51.3125 
Q 6.6875 52.484375 6.640625 52.828125 
L 14.9375 52.828125 
Q 14.984375 52.59375 15.03125 51.515625 
Q 15.09375 50.4375 15.15625 49.046875 
Q 15.234375 47.65625 15.28125 46.21875 
Q 15.328125 44.78125 15.328125 43.796875 
L 15.484375 43.796875 
Q 16.65625 46.09375 18.015625 47.953125 
Q 19.390625 49.8125 21.21875 51.09375 
Q 23.046875 52.390625 25.40625 53.09375 
Q 27.78125 53.8125 30.90625 53.8125 
Q 36.921875 53.8125 40.40625 51.421875 
Q 43.890625 49.03125 45.265625 43.796875 
L 45.40625 43.796875 
Q 46.578125 46.09375 48.046875 47.953125 
Q 49.515625 49.8125 51.46875 51.09375 
Q 53.421875 52.390625 55.859375 53.09375 
Q 58.296875 53.8125 61.421875 53.8125 
Q 65.4375 53.8125 68.328125 52.734375 
Q 71.234375 51.65625 73.09375 49.40625 
Q 74.953125 47.171875 75.828125 43.625 
Q 76.703125 40.09375 76.703125 35.203125 
L 76.703125 0 
L 68.015625 0 
L 68.015625 33.5 
Q 68.015625 37.359375 67.53125 39.9375 
Q 67.046875 42.53125 65.890625 44.109375 
Q 64.75 45.703125 62.890625 46.359375 
Q 61.03125 47.015625 58.34375 47.015625 
Q 55.5625 47.015625 53.3125 45.96875 
Q 51.078125 44.921875 49.484375 42.875 
Q 47.90625 40.828125 47.046875 37.75 
Q 46.1875 34.671875 46.1875 30.609375 
L 46.1875 0 
z
" id="LiberationSans-6d"/>
      <path d="M 27.09375 25.78125 
Q 27.09375 18.953125 26.0625 12.765625 
Q 25.046875 6.59375 22.84375 0.875 
Q 20.65625 -4.828125 17.234375 -10.203125 
Q 13.8125 -15.578125 9.078125 -20.703125 
L 0.59375 -20.703125 
Q 5.171875 -15.578125 8.515625 -10.203125 
Q 11.859375 -4.828125 14 0.921875 
Q 16.15625 6.6875 17.203125 12.890625 
Q 18.265625 19.09375 18.265625 25.875 
Q 18.265625 32.671875 17.203125 38.859375 
Q 16.15625 45.0625 14 50.796875 
Q 11.859375 56.546875 8.515625 61.9375 
Q 5.171875 67.328125 0.59375 72.46875 
L 9.078125 72.46875 
Q 13.8125 67.328125 17.234375 61.953125 
Q 20.65625 56.59375 22.84375 50.875 
Q 25.046875 45.171875 26.0625 38.96875 
Q 27.09375 32.765625 27.09375 25.984375 
z
" id="LiberationSans-29"/>
     </defs>
     <g style="fill:#262626;" transform="translate(625.609 743.1638)scale(0.192 -0.192)">
      <use transform="translate(0 0.015625)" xlink:href="#LiberationSans-57"/>
      <use transform="translate(94.384766 0.015625)" xlink:href="#LiberationSans-61"/>
      <use transform="translate(150 0.015625)" xlink:href="#LiberationSans-76"/>
      <use transform="translate(200 0.015625)" xlink:href="#LiberationSans-65"/>
      <use transform="translate(255.615234 0.015625)" xlink:href="#LiberationSans-6c"/>
      <use transform="translate(277.832031 0.015625)" xlink:href="#LiberationSans-65"/>
      <use transform="translate(333.447266 0.015625)" xlink:href="#LiberationSans-6e"/>
      <use transform="translate(389.0625 0.015625)" xlink:href="#LiberationSans-67"/>
      <use transform="translate(444.677734 0.015625)" xlink:href="#LiberationSans-74"/>
      <use transform="translate(472.460938 0.015625)" xlink:href="#LiberationSans-68"/>
      <use transform="translate(528.076172 0.015625)" xlink:href="#LiberationSans-20"/>
      <use transform="translate(555.859375 0.015625)" xlink:href="#DejaVuSans-Oblique-3bb"/>
      <use transform="translate(615.039062 0.015625)" xlink:href="#LiberationSans-20"/>
      <use transform="translate(642.822266 0.015625)" xlink:href="#LiberationSans-28"/>
      <use transform="translate(676.123047 0.015625)" xlink:href="#LiberationSans-6e"/>
      <use transform="translate(731.738281 0.015625)" xlink:href="#LiberationSans-6d"/>
      <use transform="translate(815.039062 0.015625)" xlink:href="#LiberationSans-29"/>
     </g>
    </g>
   </g>
   <g id="matplotlib.axis_2">
    <g id="ytick_1">
     <g id="line2d_54">
      <path clip-path="url(#p94d83a31b5)" d="M 64.588 696.4068 
L 1349.638 696.4068 
" style="fill:none;stroke:#d5d5d5;stroke-dasharray:1.85,0.8;stroke-dashoffset:0;stroke-width:0.5;"/>
     </g>
     <g id="line2d_55">
      <defs>
       <path d="M 0 0 
L -6.25 0 
" id="m0a100933ba" style="stroke:#262626;"/>
      </defs>
      <g>
       <use style="fill:#262626;stroke:#262626;" x="64.588" xlink:href="#m0a100933ba" y="696.4068"/>
      </g>
     </g>
     <g id="text_11">
      <!-- 0.0 -->
      <defs>
       <path d="M 9.125 0 
L 9.125 10.6875 
L 18.65625 10.6875 
L 18.65625 0 
z
" id="LiberationSans-2e"/>
      </defs>
      <g style="fill:#262626;" transform="translate(29.098 702.2043)scale(0.16 -0.16)">
       <use xlink:href="#LiberationSans-30"/>
       <use x="55.615234" xlink:href="#LiberationSans-2e"/>
       <use x="83.398438" xlink:href="#LiberationSans-30"/>
      </g>
     </g>
    </g>
    <g id="ytick_2">
     <g id="line2d_56">
      <path clip-path="url(#p94d83a31b5)" d="M 64.588 570.594491 
L 1349.638 570.594491 
" style="fill:none;stroke:#d5d5d5;stroke-dasharray:1.85,0.8;stroke-dashoffset:0;stroke-width:0.5;"/>
     </g>
     <g id="line2d_57">
      <g>
       <use style="fill:#262626;stroke:#262626;" x="64.588" xlink:href="#m0a100933ba" y="570.594491"/>
      </g>
     </g>
     <g id="text_12">
      <!-- 0.2 -->
      <defs>
       <path d="M 5.03125 0 
L 5.03125 6.203125 
Q 7.515625 11.921875 11.109375 16.28125 
Q 14.703125 20.65625 18.65625 24.1875 
Q 22.609375 27.734375 26.484375 30.765625 
Q 30.375 33.796875 33.5 36.8125 
Q 36.625 39.84375 38.546875 43.15625 
Q 40.484375 46.484375 40.484375 50.6875 
Q 40.484375 53.609375 39.59375 55.828125 
Q 38.71875 58.0625 37.0625 59.5625 
Q 35.40625 61.078125 33.078125 61.828125 
Q 30.765625 62.59375 27.9375 62.59375 
Q 25.296875 62.59375 22.96875 61.859375 
Q 20.65625 61.140625 18.84375 59.671875 
Q 17.046875 58.203125 15.890625 56.03125 
Q 14.75 53.859375 14.40625 50.984375 
L 5.421875 51.8125 
Q 5.859375 55.515625 7.46875 58.78125 
Q 9.078125 62.0625 11.90625 64.53125 
Q 14.75 67 18.71875 68.40625 
Q 22.703125 69.828125 27.9375 69.828125 
Q 33.0625 69.828125 37.0625 68.609375 
Q 41.0625 67.390625 43.8125 64.984375 
Q 46.578125 62.59375 48.046875 59.078125 
Q 49.515625 55.5625 49.515625 50.984375 
Q 49.515625 47.515625 48.265625 44.390625 
Q 47.015625 41.265625 44.9375 38.421875 
Q 42.875 35.59375 40.140625 32.953125 
Q 37.40625 30.328125 34.421875 27.8125 
Q 31.453125 25.296875 28.421875 22.828125 
Q 25.390625 20.359375 22.71875 17.859375 
Q 20.0625 15.375 17.96875 12.8125 
Q 15.875 10.25 14.703125 7.46875 
L 50.59375 7.46875 
L 50.59375 0 
z
" id="LiberationSans-32"/>
      </defs>
      <g style="fill:#262626;" transform="translate(29.098 576.391991)scale(0.16 -0.16)">
       <use xlink:href="#LiberationSans-30"/>
       <use x="55.615234" xlink:href="#LiberationSans-2e"/>
       <use x="83.398438" xlink:href="#LiberationSans-32"/>
      </g>
     </g>
    </g>
    <g id="ytick_3">
     <g id="line2d_58">
      <path clip-path="url(#p94d83a31b5)" d="M 64.588 444.782181 
L 1349.638 444.782181 
" style="fill:none;stroke:#d5d5d5;stroke-dasharray:1.85,0.8;stroke-dashoffset:0;stroke-width:0.5;"/>
     </g>
     <g id="line2d_59">
      <g>
       <use style="fill:#262626;stroke:#262626;" x="64.588" xlink:href="#m0a100933ba" y="444.782181"/>
      </g>
     </g>
     <g id="text_13">
      <!-- 0.4 -->
      <g style="fill:#262626;" transform="translate(29.098 450.579681)scale(0.16 -0.16)">
       <use xlink:href="#LiberationSans-30"/>
       <use x="55.615234" xlink:href="#LiberationSans-2e"/>
       <use x="83.398438" xlink:href="#LiberationSans-34"/>
      </g>
     </g>
    </g>
    <g id="ytick_4">
     <g id="line2d_60">
      <path clip-path="url(#p94d83a31b5)" d="M 64.588 318.969872 
L 1349.638 318.969872 
" style="fill:none;stroke:#d5d5d5;stroke-dasharray:1.85,0.8;stroke-dashoffset:0;stroke-width:0.5;"/>
     </g>
     <g id="line2d_61">
      <g>
       <use style="fill:#262626;stroke:#262626;" x="64.588" xlink:href="#m0a100933ba" y="318.969872"/>
      </g>
     </g>
     <g id="text_14">
      <!-- 0.6 -->
      <g style="fill:#262626;" transform="translate(29.098 324.767372)scale(0.16 -0.16)">
       <use xlink:href="#LiberationSans-30"/>
       <use x="55.615234" xlink:href="#LiberationSans-2e"/>
       <use x="83.398438" xlink:href="#LiberationSans-36"/>
      </g>
     </g>
    </g>
    <g id="ytick_5">
     <g id="line2d_62">
      <path clip-path="url(#p94d83a31b5)" d="M 64.588 193.157563 
L 1349.638 193.157563 
" style="fill:none;stroke:#d5d5d5;stroke-dasharray:1.85,0.8;stroke-dashoffset:0;stroke-width:0.5;"/>
     </g>
     <g id="line2d_63">
      <g>
       <use style="fill:#262626;stroke:#262626;" x="64.588" xlink:href="#m0a100933ba" y="193.157563"/>
      </g>
     </g>
     <g id="text_15">
      <!-- 0.8 -->
      <g style="fill:#262626;" transform="translate(29.098 198.955063)scale(0.16 -0.16)">
       <use xlink:href="#LiberationSans-30"/>
       <use x="55.615234" xlink:href="#LiberationSans-2e"/>
       <use x="83.398438" xlink:href="#LiberationSans-38"/>
      </g>
     </g>
    </g>
    <g id="ytick_6">
     <g id="line2d_64">
      <path clip-path="url(#p94d83a31b5)" d="M 64.588 67.345254 
L 1349.638 67.345254 
" style="fill:none;stroke:#d5d5d5;stroke-dasharray:1.85,0.8;stroke-dashoffset:0;stroke-width:0.5;"/>
     </g>
     <g id="line2d_65">
      <g>
       <use style="fill:#262626;stroke:#262626;" x="64.588" xlink:href="#m0a100933ba" y="67.345254"/>
      </g>
     </g>
     <g id="text_16">
      <!-- 1.0 -->
      <defs>
       <path d="M 7.625 0 
L 7.625 7.46875 
L 25.140625 7.46875 
L 25.140625 60.40625 
L 9.625 49.3125 
L 9.625 57.625 
L 25.875 68.796875 
L 33.984375 68.796875 
L 33.984375 7.46875 
L 50.734375 7.46875 
L 50.734375 0 
z
" id="LiberationSans-31"/>
      </defs>
      <g style="fill:#262626;" transform="translate(29.098 73.142754)scale(0.16 -0.16)">
       <use xlink:href="#LiberationSans-31"/>
       <use x="55.615234" xlink:href="#LiberationSans-2e"/>
       <use x="83.398438" xlink:href="#LiberationSans-30"/>
      </g>
     </g>
    </g>
    <g id="ytick_7">
     <g id="line2d_66">
      <defs>
       <path d="M 0 0 
L -3.75 0 
" id="m93de1d49c0" style="stroke:#262626;"/>
      </defs>
      <g>
       <use style="fill:#262626;stroke:#262626;" x="64.588" xlink:href="#m93de1d49c0" y="664.953723"/>
      </g>
     </g>
    </g>
    <g id="ytick_8">
     <g id="line2d_67">
      <g>
       <use style="fill:#262626;stroke:#262626;" x="64.588" xlink:href="#m93de1d49c0" y="633.500645"/>
      </g>
     </g>
    </g>
    <g id="ytick_9">
     <g id="line2d_68">
      <g>
       <use style="fill:#262626;stroke:#262626;" x="64.588" xlink:href="#m93de1d49c0" y="602.047568"/>
      </g>
     </g>
    </g>
    <g id="ytick_10">
     <g id="line2d_69">
      <g>
       <use style="fill:#262626;stroke:#262626;" x="64.588" xlink:href="#m93de1d49c0" y="539.141413"/>
      </g>
     </g>
    </g>
    <g id="ytick_11">
     <g id="line2d_70">
      <g>
       <use style="fill:#262626;stroke:#262626;" x="64.588" xlink:href="#m93de1d49c0" y="507.688336"/>
      </g>
     </g>
    </g>
    <g id="ytick_12">
     <g id="line2d_71">
      <g>
       <use style="fill:#262626;stroke:#262626;" x="64.588" xlink:href="#m93de1d49c0" y="476.235259"/>
      </g>
     </g>
    </g>
    <g id="ytick_13">
     <g id="line2d_72">
      <g>
       <use style="fill:#262626;stroke:#262626;" x="64.588" xlink:href="#m93de1d49c0" y="413.329104"/>
      </g>
     </g>
    </g>
    <g id="ytick_14">
     <g id="line2d_73">
      <g>
       <use style="fill:#262626;stroke:#262626;" x="64.588" xlink:href="#m93de1d49c0" y="381.876027"/>
      </g>
     </g>
    </g>
    <g id="ytick_15">
     <g id="line2d_74">
      <g>
       <use style="fill:#262626;stroke:#262626;" x="64.588" xlink:href="#m93de1d49c0" y="350.42295"/>
      </g>
     </g>
    </g>
    <g id="ytick_16">
     <g id="line2d_75">
      <g>
       <use style="fill:#262626;stroke:#262626;" x="64.588" xlink:href="#m93de1d49c0" y="287.516795"/>
      </g>
     </g>
    </g>
    <g id="ytick_17">
     <g id="line2d_76">
      <g>
       <use style="fill:#262626;stroke:#262626;" x="64.588" xlink:href="#m93de1d49c0" y="256.063718"/>
      </g>
     </g>
    </g>
    <g id="ytick_18">
     <g id="line2d_77">
      <g>
       <use style="fill:#262626;stroke:#262626;" x="64.588" xlink:href="#m93de1d49c0" y="224.61064"/>
      </g>
     </g>
    </g>
    <g id="ytick_19">
     <g id="line2d_78">
      <g>
       <use style="fill:#262626;stroke:#262626;" x="64.588" xlink:href="#m93de1d49c0" y="161.704486"/>
      </g>
     </g>
    </g>
    <g id="ytick_20">
     <g id="line2d_79">
      <g>
       <use style="fill:#262626;stroke:#262626;" x="64.588" xlink:href="#m93de1d49c0" y="130.251408"/>
      </g>
     </g>
    </g>
    <g id="ytick_21">
     <g id="line2d_80">
      <g>
       <use style="fill:#262626;stroke:#262626;" x="64.588" xlink:href="#m93de1d49c0" y="98.798331"/>
      </g>
     </g>
    </g>
    <g id="ytick_22">
     <g id="line2d_81">
      <g>
       <use style="fill:#262626;stroke:#262626;" x="64.588" xlink:href="#m93de1d49c0" y="67.345254"/>
      </g>
     </g>
    </g>
    <g id="text_17">
     <!-- Tristimulus Values -->
     <defs>
      <path d="M 35.15625 61.1875 
L 35.15625 0 
L 25.875 0 
L 25.875 61.1875 
L 2.25 61.1875 
L 2.25 68.796875 
L 58.796875 68.796875 
L 58.796875 61.1875 
z
" id="LiberationSans-54"/>
      <path d="M 6.9375 0 
L 6.9375 40.53125 
Q 6.9375 42.1875 6.90625 43.921875 
Q 6.890625 45.65625 6.828125 47.265625 
Q 6.78125 48.875 6.734375 50.28125 
Q 6.6875 51.703125 6.640625 52.828125 
L 14.9375 52.828125 
Q 14.984375 51.703125 15.0625 50.265625 
Q 15.140625 48.828125 15.203125 47.3125 
Q 15.28125 45.796875 15.296875 44.40625 
Q 15.328125 43.015625 15.328125 42.046875 
L 15.53125 42.046875 
Q 16.453125 45.0625 17.5 47.28125 
Q 18.5625 49.515625 19.96875 50.953125 
Q 21.390625 52.390625 23.34375 53.09375 
Q 25.296875 53.8125 28.078125 53.8125 
Q 29.15625 53.8125 30.125 53.640625 
Q 31.109375 53.46875 31.640625 53.328125 
L 31.640625 45.265625 
Q 30.765625 45.515625 29.59375 45.625 
Q 28.421875 45.75 26.953125 45.75 
Q 23.921875 45.75 21.796875 44.375 
Q 19.671875 43.015625 18.328125 40.59375 
Q 17 38.1875 16.359375 34.84375 
Q 15.71875 31.5 15.71875 27.546875 
L 15.71875 0 
z
" id="LiberationSans-72"/>
      <path d="M 6.6875 64.0625 
L 6.6875 72.46875 
L 15.484375 72.46875 
L 15.484375 64.0625 
z
M 6.6875 0 
L 6.6875 52.828125 
L 15.484375 52.828125 
L 15.484375 0 
z
" id="LiberationSans-69"/>
      <path d="M 46.390625 14.59375 
Q 46.390625 10.890625 44.9375 7.984375 
Q 43.5 5.078125 40.765625 3.09375 
Q 38.03125 1.125 34.046875 0.0625 
Q 30.078125 -0.984375 24.953125 -0.984375 
Q 20.359375 -0.984375 16.671875 -0.265625 
Q 12.984375 0.4375 10.203125 2 
Q 7.421875 3.5625 5.53125 6.125 
Q 3.65625 8.6875 2.78125 12.40625 
L 10.546875 13.921875 
Q 11.671875 9.671875 15.1875 7.6875 
Q 18.703125 5.71875 24.953125 5.71875 
Q 27.78125 5.71875 30.140625 6.109375 
Q 32.515625 6.5 34.21875 7.453125 
Q 35.9375 8.40625 36.890625 9.984375 
Q 37.84375 11.578125 37.84375 13.921875 
Q 37.84375 16.3125 36.71875 17.84375 
Q 35.59375 19.390625 33.59375 20.40625 
Q 31.59375 21.4375 28.734375 22.1875 
Q 25.875 22.953125 22.46875 23.875 
Q 19.28125 24.703125 16.15625 25.734375 
Q 13.03125 26.765625 10.515625 28.4375 
Q 8.015625 30.125 6.453125 32.609375 
Q 4.890625 35.109375 4.890625 38.875 
Q 4.890625 46.09375 10.03125 49.875 
Q 15.1875 53.65625 25.046875 53.65625 
Q 33.796875 53.65625 38.9375 50.578125 
Q 44.09375 47.515625 45.453125 40.71875 
L 37.546875 39.75 
Q 37.109375 41.796875 35.9375 43.1875 
Q 34.765625 44.578125 33.109375 45.4375 
Q 31.453125 46.296875 29.375 46.65625 
Q 27.296875 47.015625 25.046875 47.015625 
Q 19.09375 47.015625 16.25 45.203125 
Q 13.421875 43.40625 13.421875 39.75 
Q 13.421875 37.59375 14.46875 36.203125 
Q 15.53125 34.8125 17.40625 33.859375 
Q 19.28125 32.90625 21.921875 32.203125 
Q 24.5625 31.5 27.734375 30.71875 
Q 29.828125 30.171875 32.03125 29.5625 
Q 34.234375 28.953125 36.296875 28.09375 
Q 38.375 27.25 40.203125 26.09375 
Q 42.046875 24.953125 43.40625 23.34375 
Q 44.78125 21.734375 45.578125 19.578125 
Q 46.390625 17.4375 46.390625 14.59375 
z
" id="LiberationSans-73"/>
      <path d="M 15.328125 52.828125 
L 15.328125 19.34375 
Q 15.328125 15.484375 15.890625 12.890625 
Q 16.453125 10.296875 17.71875 8.703125 
Q 19 7.125 21.0625 6.46875 
Q 23.140625 5.8125 26.21875 5.8125 
Q 29.34375 5.8125 31.859375 6.90625 
Q 34.375 8.015625 36.15625 10.078125 
Q 37.9375 12.15625 38.90625 15.203125 
Q 39.890625 18.265625 39.890625 22.21875 
L 39.890625 52.828125 
L 48.6875 52.828125 
L 48.6875 11.28125 
Q 48.6875 9.625 48.703125 7.78125 
Q 48.734375 5.953125 48.78125 4.3125 
Q 48.828125 2.6875 48.875 1.515625 
Q 48.921875 0.34375 48.96875 0 
L 40.671875 0 
Q 40.625 0.25 40.578125 1.3125 
Q 40.53125 2.390625 40.453125 3.78125 
Q 40.375 5.171875 40.328125 6.609375 
Q 40.28125 8.0625 40.28125 9.03125 
L 40.140625 9.03125 
Q 38.875 6.734375 37.359375 4.875 
Q 35.84375 3.03125 33.84375 1.734375 
Q 31.84375 0.4375 29.25 -0.265625 
Q 26.65625 -0.984375 23.25 -0.984375 
Q 18.84375 -0.984375 15.671875 0.09375 
Q 12.5 1.171875 10.453125 3.421875 
Q 8.40625 5.671875 7.453125 9.1875 
Q 6.5 12.703125 6.5 17.625 
L 6.5 52.828125 
z
" id="LiberationSans-75"/>
      <path d="M 38.1875 0 
L 28.515625 0 
L 0.4375 68.796875 
L 10.25 68.796875 
L 29.296875 20.359375 
Q 30.03125 18.171875 30.765625 15.984375 
Q 31.5 13.8125 32.078125 12.109375 
Q 32.765625 10.109375 33.40625 8.203125 
Q 33.984375 10.015625 34.671875 12.015625 
Q 35.25 13.71875 35.953125 15.859375 
Q 36.671875 18.015625 37.5 20.359375 
L 56.453125 68.796875 
L 66.265625 68.796875 
z
" id="LiberationSans-56"/>
     </defs>
     <g style="fill:#262626;" transform="translate(21.114 444.5553)rotate(-90)scale(0.192 -0.192)">
      <use xlink:href="#LiberationSans-54"/>
      <use x="61.037109" xlink:href="#LiberationSans-72"/>
      <use x="94.337891" xlink:href="#LiberationSans-69"/>
      <use x="116.554688" xlink:href="#LiberationSans-73"/>
      <use x="166.554688" xlink:href="#LiberationSans-74"/>
      <use x="194.337891" xlink:href="#LiberationSans-69"/>
      <use x="216.554688" xlink:href="#LiberationSans-6d"/>
      <use x="299.855469" xlink:href="#LiberationSans-75"/>
      <use x="355.470703" xlink:href="#LiberationSans-6c"/>
      <use x="377.6875" xlink:href="#LiberationSans-75"/>
      <use x="433.302734" xlink:href="#LiberationSans-73"/>
      <use x="483.302734" xlink:href="#LiberationSans-20"/>
      <use x="511.085938" xlink:href="#LiberationSans-56"/>
      <use x="577.675781" xlink:href="#LiberationSans-61"/>
      <use x="633.291016" xlink:href="#LiberationSans-6c"/>
      <use x="655.507812" xlink:href="#LiberationSans-75"/>
      <use x="711.123047" xlink:href="#LiberationSans-65"/>
      <use x="766.738281" xlink:href="#LiberationSans-73"/>
     </g>
    </g>
   </g>
   <g id="line2d_82">
    <path clip-path="url(#p94d83a31b5)" d="M 64.588 696.4068 
L 1349.638 696.4068 
" style="fill:none;stroke:#333333;stroke-dasharray:3.7,1.6;stroke-dashoffset:0;"/>
   </g>
   <g id="line2d_83">
    <path clip-path="url(#p94d83a31b5)" d="M 64.588 696.145738 
L 76.270273 695.853847 
L 85.031977 695.471033 
L 93.793682 694.891793 
L 102.555386 694.075391 
L 108.396523 693.3663 
L 114.237659 692.494459 
L 122.999364 690.920584 
L 137.602205 687.987629 
L 158.046182 683.64874 
L 169.728455 681.378771 
L 178.490159 679.383199 
L 190.172432 676.484798 
L 201.854705 673.357985 
L 210.616409 671.08311 
L 216.457545 669.823791 
L 233.980955 666.309602 
L 251.504364 662.390549 
L 257.3455 660.692837 
L 260.266068 659.671304 
L 263.186636 658.511566 
L 266.107205 657.19406 
L 269.027773 655.696201 
L 271.948341 653.999811 
L 274.868909 652.118351 
L 280.710045 647.907539 
L 289.47175 640.992517 
L 306.995159 626.614309 
L 312.836295 621.67303 
L 318.677432 616.499628 
L 324.518568 611.064536 
L 330.359705 605.362093 
L 336.200841 599.412429 
L 344.962545 590.138175 
L 350.803682 583.517302 
L 353.72425 579.87881 
L 356.644818 575.906286 
L 359.565386 571.517953 
L 362.485955 566.705632 
L 365.406523 561.482534 
L 368.327091 555.867531 
L 371.247659 549.88201 
L 374.168227 543.549877 
L 377.088795 536.866727 
L 380.009364 529.825012 
L 382.929932 522.416554 
L 385.8505 514.633805 
L 388.771068 506.471731 
L 391.691636 497.93285 
L 394.612205 489.022193 
L 400.453341 470.123297 
L 406.294477 449.880725 
L 412.135614 428.427839 
L 417.97675 405.949583 
L 426.738455 370.842916 
L 438.420727 323.376448 
L 444.261864 301.003245 
L 447.182432 290.574663 
L 450.103 280.655621 
L 455.944136 262.013382 
L 461.785273 244.324171 
L 467.626409 227.374737 
L 470.546977 219.320233 
L 473.467545 211.633101 
L 476.388114 204.349826 
L 482.22925 190.588476 
L 488.070386 176.983762 
L 499.752659 148.71059 
L 502.673227 142.196658 
L 505.593795 136.230009 
L 508.514364 130.847759 
L 511.434932 126.056197 
L 514.3555 121.859098 
L 517.276068 118.257092 
L 520.196636 115.218096 
L 523.117205 112.575408 
L 528.958341 107.658034 
L 531.878909 104.964392 
L 534.799477 101.89583 
L 543.561182 91.878654 
L 546.48175 88.901306 
L 549.402318 86.37814 
L 552.322886 84.24625 
L 555.243455 82.388632 
L 572.766864 72.239353 
L 575.687432 70.813899 
L 578.608 69.618682 
L 581.528568 68.669428 
L 584.449136 67.971799 
L 587.369705 67.530198 
L 590.290273 67.349657 
L 593.210841 67.447791 
L 596.131409 67.896941 
L 599.051977 68.780143 
L 601.972545 70.181692 
L 604.893114 72.182737 
L 607.813682 74.802149 
L 616.575386 83.975125 
L 619.495955 86.576294 
L 622.416523 88.600614 
L 625.337091 90.224222 
L 631.178227 93.305366 
L 634.098795 95.274328 
L 637.019364 97.811333 
L 639.939932 100.903171 
L 642.8605 104.483789 
L 645.781068 108.485879 
L 648.701636 112.843388 
L 651.622205 117.504105 
L 654.542773 122.456707 
L 657.463341 127.703709 
L 660.383909 133.243854 
L 663.304477 139.077771 
L 669.145614 151.565901 
L 674.98675 164.896344 
L 680.827886 178.777845 
L 686.669023 193.28715 
L 692.510159 208.819308 
L 698.351295 225.601412 
L 704.192432 243.351642 
L 712.954136 271.027834 
L 721.715841 299.611761 
L 736.318682 347.765794 
L 750.921523 394.494372 
L 759.683227 424.445251 
L 765.524364 444.334919 
L 771.3655 463.416872 
L 777.206636 481.508053 
L 783.047773 498.541152 
L 788.888909 514.457667 
L 794.730045 529.212306 
L 800.571182 542.881813 
L 806.412318 555.87508 
L 815.174023 574.765169 
L 821.015159 586.784648 
L 826.856295 598.050511 
L 832.697432 608.442608 
L 835.618 613.30085 
L 838.538568 617.932001 
L 841.459136 622.338577 
L 844.379705 626.530014 
L 847.300273 630.51449 
L 850.220841 634.301 
L 853.141409 637.898729 
L 856.061977 641.31554 
L 858.982545 644.558352 
L 864.823682 650.548905 
L 870.664818 655.923293 
L 876.505955 660.735425 
L 882.347091 665.037954 
L 888.188227 668.879193 
L 894.029364 672.303363 
L 899.8705 675.350537 
L 905.711636 678.053866 
L 911.552773 680.441847 
L 917.393909 682.54631 
L 923.235045 684.408395 
L 929.076182 686.06182 
L 934.917318 687.511618 
L 940.758455 688.751058 
L 946.599591 689.793413 
L 955.361295 691.077579 
L 964.123 692.117053 
L 972.884705 692.95675 
L 984.566977 693.833127 
L 996.24925 694.503058 
L 1010.852091 695.104492 
L 1028.3755 695.572117 
L 1051.740045 695.94236 
L 1083.866295 696.196781 
L 1136.436523 696.346673 
L 1259.100386 696.402886 
L 1349.638 696.406187 
L 1349.638 696.406187 
" style="fill:none;stroke:#ff0000;stroke-linecap:round;"/>
   </g>
   <g id="line2d_84">
    <path clip-path="url(#p94d83a31b5)" d="M 64.588 696.175086 
L 76.270273 695.905991 
L 85.031977 695.542677 
L 93.793682 694.978887 
L 102.555386 694.16636 
L 108.396523 693.450148 
L 114.237659 692.558472 
L 120.078795 691.480342 
L 125.919932 690.230265 
L 131.761068 688.826042 
L 137.602205 687.267983 
L 146.363909 684.651024 
L 158.046182 680.860236 
L 166.807886 677.804569 
L 172.649023 675.512458 
L 178.490159 672.962746 
L 184.331295 670.140587 
L 190.172432 667.065356 
L 198.934136 662.145277 
L 207.695841 657.213875 
L 213.536977 654.176074 
L 222.298682 650.034647 
L 231.060386 645.859314 
L 239.822091 641.645483 
L 251.504364 636.219764 
L 254.424932 634.637108 
L 257.3455 632.852083 
L 260.266068 630.840344 
L 263.186636 628.585158 
L 266.107205 626.067025 
L 269.027773 623.264556 
L 271.948341 620.162024 
L 274.868909 616.784593 
L 277.789477 613.175038 
L 283.630614 605.481615 
L 298.233455 585.759277 
L 304.074591 578.223749 
L 318.677432 559.72242 
L 327.439136 548.103024 
L 336.200841 535.97283 
L 347.883114 519.527274 
L 350.803682 515.176056 
L 353.72425 510.514081 
L 356.644818 505.404843 
L 359.565386 499.731337 
L 362.485955 493.493562 
L 365.406523 486.728634 
L 368.327091 479.4787 
L 371.247659 471.793455 
L 374.168227 463.720079 
L 377.088795 455.252911 
L 380.009364 446.375594 
L 382.929932 437.069887 
L 385.8505 427.316917 
L 388.771068 417.102844 
L 391.691636 406.442767 
L 397.532773 383.892169 
L 403.373909 359.941909 
L 409.215045 334.922873 
L 417.97675 296.221749 
L 435.500159 218.172195 
L 438.420727 205.71426 
L 441.341295 193.823739 
L 444.261864 182.708851 
L 447.182432 172.535038 
L 450.103 163.245686 
L 453.023568 154.713725 
L 455.944136 146.796985 
L 458.864705 139.341348 
L 461.785273 132.218484 
L 464.705841 125.446636 
L 467.626409 119.081162 
L 470.546977 113.180565 
L 473.467545 107.802089 
L 476.388114 102.974042 
L 479.308682 98.603951 
L 482.22925 94.56286 
L 490.990955 83.122746 
L 493.911523 79.391782 
L 496.832091 75.908039 
L 499.752659 72.838848 
L 502.673227 70.354055 
L 505.593795 68.598973 
L 508.514364 67.600024 
L 511.434932 67.356577 
L 514.3555 67.862971 
L 517.276068 69.111029 
L 520.196636 71.055459 
L 523.117205 73.507541 
L 531.878909 81.69226 
L 540.640614 88.649681 
L 543.561182 91.360936 
L 546.48175 94.657219 
L 549.402318 98.693278 
L 552.322886 103.344559 
L 555.243455 108.417311 
L 569.846295 135.159976 
L 572.766864 140.923437 
L 575.687432 147.107112 
L 578.608 153.800327 
L 581.528568 160.966596 
L 584.449136 168.541127 
L 590.290273 184.659571 
L 596.131409 201.86 
L 599.051977 211.000894 
L 601.972545 220.599744 
L 604.893114 230.718199 
L 610.73425 252.358545 
L 619.495955 285.457247 
L 625.337091 306.252135 
L 637.019364 346.156025 
L 645.781068 376.329591 
L 666.225045 447.678381 
L 672.066182 467.170482 
L 677.907318 486.030376 
L 683.748455 504.188238 
L 689.589591 521.49435 
L 695.430727 537.821013 
L 701.271864 553.09274 
L 707.113 567.277449 
L 712.954136 580.377656 
L 718.795273 592.450605 
L 724.636409 603.556058 
L 730.477545 613.738048 
L 733.398114 618.493753 
L 736.318682 623.032432 
L 739.23925 627.35723 
L 742.159818 631.471293 
L 745.080386 635.374934 
L 748.000955 639.072243 
L 750.921523 642.567184 
L 753.842091 645.866234 
L 756.762659 648.981032 
L 759.683227 651.923593 
L 765.524364 657.334529 
L 771.3655 662.16849 
L 777.206636 666.464037 
L 783.047773 670.259291 
L 788.888909 673.623386 
L 794.730045 676.636528 
L 800.571182 679.333881 
L 806.412318 681.668769 
L 812.253455 683.618922 
L 818.094591 685.2553 
L 826.856295 687.353095 
L 835.618 689.141894 
L 844.379705 690.619075 
L 853.141409 691.813047 
L 861.903114 692.764251 
L 870.664818 693.504939 
L 882.347091 694.244923 
L 896.949932 694.912043 
L 914.473341 695.451155 
L 934.917318 695.848224 
L 961.202432 696.121032 
L 1005.010955 696.312249 
L 1086.786864 696.393661 
L 1349.638 696.40674 
L 1349.638 696.40674 
" style="fill:none;stroke:#00ff00;stroke-linecap:round;"/>
   </g>
   <g id="line2d_85">
    <path clip-path="url(#p94d83a31b5)" d="M 64.588 690.400967 
L 67.508568 689.185551 
L 70.429136 687.726631 
L 73.349705 685.980356 
L 76.270273 683.896716 
L 79.190841 681.419409 
L 82.111409 678.486283 
L 85.031977 675.029276 
L 87.952545 670.975477 
L 90.873114 666.24852 
L 93.793682 660.770589 
L 96.71425 654.463681 
L 99.634818 647.246961 
L 102.555386 639.041105 
L 105.475955 629.772827 
L 108.396523 619.377585 
L 111.317091 607.807256 
L 114.237659 595.039822 
L 117.158227 581.084092 
L 120.078795 565.985357 
L 122.999364 549.830427 
L 125.919932 532.73568 
L 128.8405 514.782263 
L 134.681636 476.593195 
L 140.522773 435.886622 
L 149.284477 373.844798 
L 152.205045 354.43762 
L 155.125614 336.3326 
L 158.046182 319.42028 
L 163.887318 287.783517 
L 169.728455 255.946712 
L 178.490159 206.787439 
L 181.410727 191.550311 
L 184.331295 177.545514 
L 187.251864 164.584329 
L 198.934136 115.252065 
L 201.854705 102.538102 
L 204.775273 90.670856 
L 207.695841 80.51969 
L 210.616409 72.994226 
L 213.536977 68.751206 
L 216.457545 67.356577 
L 219.378114 68.061755 
L 222.298682 70.095511 
L 228.139818 75.285898 
L 231.060386 78.278972 
L 233.980955 82.253383 
L 236.901523 87.781576 
L 239.822091 95.405802 
L 242.742659 105.404106 
L 245.663227 117.162525 
L 254.424932 155.262895 
L 257.3455 166.717477 
L 260.266068 177.071201 
L 263.186636 186.325955 
L 266.107205 194.477334 
L 269.027773 201.521565 
L 271.948341 207.55112 
L 277.789477 218.610651 
L 280.710045 224.750921 
L 283.630614 231.99079 
L 286.551182 240.721536 
L 289.47175 250.960141 
L 292.392318 262.623571 
L 295.312886 275.610547 
L 298.233455 289.807208 
L 301.154023 305.060063 
L 306.995159 337.705841 
L 318.677432 404.895905 
L 321.598 420.89986 
L 324.518568 436.259027 
L 327.439136 450.863319 
L 330.359705 464.664301 
L 333.280273 477.75633 
L 336.200841 490.248234 
L 342.041977 513.776394 
L 344.962545 524.908267 
L 347.883114 535.51047 
L 350.803682 545.466627 
L 353.72425 554.691815 
L 356.644818 563.129417 
L 359.565386 570.771257 
L 362.485955 577.719242 
L 365.406523 584.083457 
L 368.327091 589.958892 
L 371.247659 595.426066 
L 374.168227 600.55795 
L 380.009364 610.116541 
L 385.8505 619.133509 
L 394.612205 632.168293 
L 400.453341 640.48543 
L 406.294477 648.307936 
L 409.215045 651.883774 
L 412.135614 655.172382 
L 415.056182 658.146648 
L 417.97675 660.807012 
L 420.897318 663.213801 
L 423.817886 665.429293 
L 429.659023 669.475228 
L 435.500159 673.180149 
L 441.341295 676.518516 
L 447.182432 679.451327 
L 453.023568 681.998334 
L 458.864705 684.208542 
L 464.705841 686.120763 
L 470.546977 687.757392 
L 476.388114 689.143278 
L 482.22925 690.315798 
L 488.070386 691.314842 
L 496.832091 692.544696 
L 505.593795 693.49349 
L 514.3555 694.214149 
L 526.037773 694.911514 
L 537.720045 695.39264 
L 552.322886 695.783944 
L 572.766864 696.090827 
L 601.972545 696.285746 
L 657.463341 696.385641 
L 873.585386 696.4068 
L 1349.638 696.4068 
L 1349.638 696.4068 
" style="fill:none;stroke:#0000ff;stroke-linecap:round;"/>
   </g>
   <g id="patch_3">
    <path d="M 64.588 696.4068 
L 64.588 35.8968 
" style="fill:none;stroke:#333333;stroke-linecap:square;stroke-linejoin:miter;"/>
   </g>
   <g id="patch_4">
    <path d="M 1349.638 696.4068 
L 1349.638 35.8968 
" style="fill:none;stroke:#333333;stroke-linecap:square;stroke-linejoin:miter;"/>
   </g>
   <g id="patch_5">
    <path d="M 64.588 696.4068 
L 1349.638 696.4068 
" style="fill:none;stroke:#333333;stroke-linecap:square;stroke-linejoin:miter;"/>
   </g>
   <g id="patch_6">
    <path d="M 64.588 35.8968 
L 1349.638 35.8968 
" style="fill:none;stroke:#333333;stroke-linecap:square;stroke-linejoin:miter;"/>
   </g>
   <g id="text_18">
    <!-- Stockman &amp; Sharpe 2 Degree Cone Fundamentals -->
    <defs>
     <path d="M 62.109375 19 
Q 62.109375 14.65625 60.421875 10.984375 
Q 58.734375 7.328125 55.21875 4.65625 
Q 51.703125 2 46.359375 0.5 
Q 41.015625 -0.984375 33.6875 -0.984375 
Q 20.84375 -0.984375 13.671875 3.515625 
Q 6.5 8.015625 4.546875 16.5 
L 13.578125 18.3125 
Q 14.265625 15.625 15.671875 13.421875 
Q 17.09375 11.234375 19.5 9.640625 
Q 21.921875 8.0625 25.484375 7.171875 
Q 29.046875 6.296875 34.03125 6.296875 
Q 38.1875 6.296875 41.65625 7 
Q 45.125 7.71875 47.609375 9.171875 
Q 50.09375 10.640625 51.484375 12.953125 
Q 52.875 15.28125 52.875 18.5 
Q 52.875 21.875 51.34375 23.96875 
Q 49.8125 26.078125 47.015625 27.4375 
Q 44.234375 28.8125 40.375 29.734375 
Q 36.53125 30.671875 31.84375 31.734375 
Q 28.953125 32.375 26.046875 33.125 
Q 23.140625 33.890625 20.484375 34.9375 
Q 17.828125 35.984375 15.484375 37.390625 
Q 13.140625 38.8125 11.421875 40.796875 
Q 9.71875 42.78125 8.734375 45.390625 
Q 7.765625 48 7.765625 51.421875 
Q 7.765625 56.296875 9.734375 59.78125 
Q 11.71875 63.28125 15.234375 65.53125 
Q 18.75 67.78125 23.53125 68.796875 
Q 28.328125 69.828125 33.890625 69.828125 
Q 40.28125 69.828125 44.8125 68.828125 
Q 49.359375 67.828125 52.484375 65.8125 
Q 55.609375 63.8125 57.484375 60.859375 
Q 59.375 57.90625 60.5 54 
L 51.3125 52.390625 
Q 50.640625 54.890625 49.34375 56.84375 
Q 48.046875 58.796875 45.9375 60.109375 
Q 43.84375 61.421875 40.84375 62.109375 
Q 37.84375 62.796875 33.796875 62.796875 
Q 29 62.796875 25.75 61.9375 
Q 22.515625 61.078125 20.53125 59.609375 
Q 18.5625 58.15625 17.703125 56.171875 
Q 16.84375 54.203125 16.84375 51.90625 
Q 16.84375 48.828125 18.375 46.84375 
Q 19.921875 44.875 22.5625 43.546875 
Q 25.203125 42.234375 28.65625 41.359375 
Q 32.125 40.484375 36.03125 39.59375 
Q 39.203125 38.875 42.359375 38.109375 
Q 45.515625 37.359375 48.390625 36.296875 
Q 51.265625 35.25 53.78125 33.828125 
Q 56.296875 32.421875 58.15625 30.375 
Q 60.015625 28.328125 61.0625 25.53125 
Q 62.109375 22.75 62.109375 19 
z
" id="LiberationSans-53"/>
     <path d="M 51.421875 26.46875 
Q 51.421875 12.59375 45.3125 5.796875 
Q 39.203125 -0.984375 27.59375 -0.984375 
Q 22.078125 -0.984375 17.71875 0.671875 
Q 13.375 2.34375 10.375 5.765625 
Q 7.375 9.1875 5.78125 14.328125 
Q 4.203125 19.484375 4.203125 26.46875 
Q 4.203125 53.8125 27.875 53.8125 
Q 34.03125 53.8125 38.5 52.09375 
Q 42.96875 50.390625 45.828125 46.96875 
Q 48.6875 43.5625 50.046875 38.421875 
Q 51.421875 33.296875 51.421875 26.46875 
z
M 42.1875 26.46875 
Q 42.1875 32.625 41.234375 36.625 
Q 40.28125 40.625 38.453125 43.015625 
Q 36.625 45.40625 33.984375 46.359375 
Q 31.34375 47.3125 28.03125 47.3125 
Q 24.65625 47.3125 21.9375 46.3125 
Q 19.234375 45.3125 17.328125 42.890625 
Q 15.4375 40.484375 14.421875 36.46875 
Q 13.421875 32.46875 13.421875 26.46875 
Q 13.421875 20.3125 14.5 16.28125 
Q 15.578125 12.25 17.453125 9.859375 
Q 19.34375 7.46875 21.90625 6.484375 
Q 24.46875 5.515625 27.484375 5.515625 
Q 30.859375 5.515625 33.59375 6.46875 
Q 36.328125 7.421875 38.234375 9.8125 
Q 40.140625 12.203125 41.15625 16.25 
Q 42.1875 20.3125 42.1875 26.46875 
z
" id="LiberationSans-6f"/>
     <path d="M 13.421875 26.65625 
Q 13.421875 22.125 14.078125 18.3125 
Q 14.75 14.5 16.3125 11.734375 
Q 17.875 8.984375 20.4375 7.46875 
Q 23 5.953125 26.765625 5.953125 
Q 31.453125 5.953125 34.59375 8.484375 
Q 37.75 11.03125 38.484375 16.3125 
L 47.359375 15.71875 
Q 46.921875 12.453125 45.453125 9.421875 
Q 44 6.390625 41.484375 4.09375 
Q 38.96875 1.8125 35.34375 0.40625 
Q 31.734375 -0.984375 27 -0.984375 
Q 20.796875 -0.984375 16.453125 1.109375 
Q 12.109375 3.21875 9.390625 6.90625 
Q 6.6875 10.59375 5.46875 15.59375 
Q 4.25 20.609375 4.25 26.46875 
Q 4.25 31.78125 5.125 35.859375 
Q 6 39.9375 7.59375 42.984375 
Q 9.1875 46.046875 11.328125 48.125 
Q 13.484375 50.203125 15.984375 51.4375 
Q 18.5 52.6875 21.28125 53.25 
Q 24.078125 53.8125 26.90625 53.8125 
Q 31.34375 53.8125 34.8125 52.59375 
Q 38.28125 51.375 40.796875 49.25 
Q 43.3125 47.125 44.875 44.234375 
Q 46.4375 41.359375 47.078125 38.03125 
L 38.03125 37.359375 
Q 37.359375 41.75 34.5625 44.328125 
Q 31.78125 46.921875 26.65625 46.921875 
Q 22.90625 46.921875 20.390625 45.671875 
Q 17.875 44.4375 16.3125 41.921875 
Q 14.75 39.40625 14.078125 35.59375 
Q 13.421875 31.78125 13.421875 26.65625 
z
" id="LiberationSans-63"/>
     <path d="M 39.84375 0 
L 21.96875 24.125 
L 15.53125 18.796875 
L 15.53125 0 
L 6.734375 0 
L 6.734375 72.46875 
L 15.53125 72.46875 
L 15.53125 27.203125 
L 38.71875 52.828125 
L 49.03125 52.828125 
L 27.59375 30.125 
L 50.140625 0 
z
" id="LiberationSans-6b"/>
     <path d="M 58.25 -0.59375 
Q 53.5625 -0.59375 50.046875 1.015625 
Q 46.53125 2.640625 43.703125 5.609375 
Q 42.234375 4.34375 40.375 3.171875 
Q 38.53125 2 36.25 1.0625 
Q 33.984375 0.140625 31.3125 -0.421875 
Q 28.65625 -0.984375 25.53125 -0.984375 
Q 19.828125 -0.984375 15.640625 0.484375 
Q 11.46875 1.953125 8.78125 4.515625 
Q 6.109375 7.078125 4.8125 10.5625 
Q 3.515625 14.0625 3.515625 18.109375 
Q 3.515625 21.96875 4.75 25.109375 
Q 6 28.265625 8.21875 30.828125 
Q 10.453125 33.40625 13.53125 35.421875 
Q 16.609375 37.453125 20.265625 39.0625 
Q 19.390625 40.71875 18.671875 42.59375 
Q 17.96875 44.484375 17.421875 46.390625 
Q 16.890625 48.296875 16.59375 50.1875 
Q 16.3125 52.09375 16.3125 53.8125 
Q 16.3125 57.03125 17.28125 59.828125 
Q 18.265625 62.640625 20.328125 64.71875 
Q 22.40625 66.796875 25.65625 67.984375 
Q 28.90625 69.1875 33.453125 69.1875 
Q 37.015625 69.1875 40.015625 68.25 
Q 43.015625 67.328125 45.203125 65.5625 
Q 47.40625 63.8125 48.625 61.21875 
Q 49.859375 58.640625 49.859375 55.328125 
Q 49.859375 51.65625 48.234375 48.796875 
Q 46.625 45.953125 43.890625 43.703125 
Q 41.15625 41.453125 37.546875 39.625 
Q 33.9375 37.796875 29.890625 36.1875 
Q 32.90625 30.609375 36.46875 25.703125 
Q 40.046875 20.796875 44.1875 16.0625 
Q 47.171875 20.453125 49.140625 25.3125 
Q 51.125 30.171875 52.546875 36.078125 
L 59.625 33.984375 
Q 57.90625 27.203125 55.296875 21.65625 
Q 52.6875 16.109375 49.265625 11.078125 
Q 51.859375 8.453125 54.4375 7.375 
Q 57.03125 6.296875 59.421875 6.296875 
Q 60.984375 6.296875 62.421875 6.46875 
Q 63.875 6.640625 65.140625 7.078125 
L 65.140625 0.484375 
Q 63.765625 -0.046875 61.9375 -0.3125 
Q 60.109375 -0.59375 58.25 -0.59375 
z
M 42.4375 55.328125 
Q 42.4375 57.125 41.765625 58.59375 
Q 41.109375 60.0625 39.9375 61.109375 
Q 38.765625 62.15625 37.078125 62.71875 
Q 35.40625 63.28125 33.34375 63.28125 
Q 28.65625 63.28125 26.21875 60.765625 
Q 23.78125 58.25 23.78125 53.8125 
Q 23.78125 50.921875 24.6875 47.765625 
Q 25.59375 44.625 26.953125 41.890625 
Q 30.125 43.171875 32.953125 44.5 
Q 35.796875 45.84375 37.890625 47.4375 
Q 39.984375 49.03125 41.203125 50.953125 
Q 42.4375 52.875 42.4375 55.328125 
z
M 38.8125 10.59375 
Q 34.46875 15.71875 30.46875 21.328125 
Q 26.46875 26.953125 23.25 32.90625 
Q 17.71875 30.5625 14.71875 26.953125 
Q 11.71875 23.34375 11.71875 18.21875 
Q 11.71875 15.53125 12.5625 13.203125 
Q 13.421875 10.890625 15.171875 9.15625 
Q 16.9375 7.421875 19.59375 6.421875 
Q 22.265625 5.421875 25.828125 5.421875 
Q 27.984375 5.421875 29.90625 5.875 
Q 31.84375 6.34375 33.5 7.078125 
Q 35.15625 7.8125 36.5 8.734375 
Q 37.84375 9.671875 38.8125 10.59375 
z
" id="LiberationSans-26"/>
     <path d="M 51.421875 26.65625 
Q 51.421875 20.65625 50.4375 15.578125 
Q 49.46875 10.5 47.1875 6.828125 
Q 44.921875 3.171875 41.1875 1.09375 
Q 37.453125 -0.984375 31.984375 -0.984375 
Q 26.3125 -0.984375 22.0625 1.171875 
Q 17.828125 3.328125 15.578125 8.203125 
L 15.328125 8.203125 
Q 15.375 8.109375 15.40625 7.328125 
Q 15.4375 6.546875 15.453125 5.375 
Q 15.484375 4.203125 15.5 2.75 
Q 15.53125 1.3125 15.53125 -0.09375 
L 15.53125 -20.75 
L 6.734375 -20.75 
L 6.734375 42.046875 
Q 6.734375 43.953125 6.703125 45.703125 
Q 6.6875 47.46875 6.640625 48.90625 
Q 6.59375 50.34375 6.546875 51.359375 
Q 6.5 52.390625 6.453125 52.828125 
L 14.9375 52.828125 
Q 14.984375 52.6875 15.0625 51.796875 
Q 15.140625 50.921875 15.203125 49.671875 
Q 15.28125 48.4375 15.359375 47.015625 
Q 15.4375 45.609375 15.4375 44.34375 
L 15.625 44.34375 
Q 16.84375 46.875 18.40625 48.65625 
Q 19.96875 50.4375 21.96875 51.578125 
Q 23.96875 52.734375 26.4375 53.25 
Q 28.90625 53.765625 31.984375 53.765625 
Q 37.453125 53.765625 41.1875 51.8125 
Q 44.921875 49.859375 47.1875 46.3125 
Q 49.46875 42.78125 50.4375 37.765625 
Q 51.421875 32.765625 51.421875 26.65625 
z
M 42.1875 26.46875 
Q 42.1875 31.34375 41.59375 35.15625 
Q 41.015625 38.96875 39.578125 41.59375 
Q 38.140625 44.234375 35.734375 45.59375 
Q 33.34375 46.96875 29.734375 46.96875 
Q 26.8125 46.96875 24.21875 46.140625 
Q 21.625 45.3125 19.703125 42.96875 
Q 17.78125 40.625 16.65625 36.5 
Q 15.53125 32.375 15.53125 25.78125 
Q 15.53125 20.171875 16.453125 16.28125 
Q 17.390625 12.40625 19.171875 10.015625 
Q 20.953125 7.625 23.578125 6.5625 
Q 26.21875 5.515625 29.640625 5.515625 
Q 33.296875 5.515625 35.71875 6.921875 
Q 38.140625 8.34375 39.578125 11.03125 
Q 41.015625 13.71875 41.59375 17.59375 
Q 42.1875 21.484375 42.1875 26.46875 
z
" id="LiberationSans-70"/>
     <path d="M 67.4375 35.109375 
Q 67.4375 26.515625 64.84375 19.9375 
Q 62.25 13.375 57.75 8.953125 
Q 53.265625 4.546875 47.140625 2.265625 
Q 41.015625 0 33.9375 0 
L 8.203125 0 
L 8.203125 68.796875 
L 30.953125 68.796875 
Q 38.921875 68.796875 45.625 66.8125 
Q 52.34375 64.84375 57.171875 60.71875 
Q 62.015625 56.59375 64.71875 50.234375 
Q 67.4375 43.890625 67.4375 35.109375 
z
M 58.0625 35.109375 
Q 58.0625 42.09375 56.046875 47.046875 
Q 54.046875 52 50.4375 55.171875 
Q 46.828125 58.34375 41.796875 59.828125 
Q 36.765625 61.328125 30.765625 61.328125 
L 17.53125 61.328125 
L 17.53125 7.46875 
L 32.859375 7.46875 
Q 38.28125 7.46875 42.890625 9.21875 
Q 47.515625 10.984375 50.875 14.453125 
Q 54.25 17.921875 56.15625 23.09375 
Q 58.0625 28.265625 58.0625 35.109375 
z
" id="LiberationSans-44"/>
     <path d="M 38.671875 62.203125 
Q 32.8125 62.203125 28.296875 60.25 
Q 23.78125 58.296875 20.71875 54.6875 
Q 17.671875 51.078125 16.109375 46 
Q 14.546875 40.921875 14.546875 34.71875 
Q 14.546875 28.515625 16.234375 23.359375 
Q 17.921875 18.21875 21.0625 14.5 
Q 24.21875 10.796875 28.78125 8.734375 
Q 33.34375 6.6875 39.0625 6.6875 
Q 43.0625 6.6875 46.359375 7.734375 
Q 49.65625 8.796875 52.3125 10.6875 
Q 54.984375 12.59375 57.078125 15.203125 
Q 59.1875 17.828125 60.796875 21 
L 68.40625 17.1875 
Q 66.546875 13.328125 63.8125 10 
Q 61.078125 6.6875 57.390625 4.25 
Q 53.71875 1.8125 49.046875 0.40625 
Q 44.390625 -0.984375 38.625 -0.984375 
Q 30.28125 -0.984375 24 1.671875 
Q 17.71875 4.34375 13.5 9.109375 
Q 9.28125 13.875 7.171875 20.40625 
Q 5.078125 26.953125 5.078125 34.71875 
Q 5.078125 42.78125 7.296875 49.265625 
Q 9.515625 55.765625 13.78125 60.328125 
Q 18.0625 64.890625 24.3125 67.359375 
Q 30.5625 69.828125 38.578125 69.828125 
Q 49.5625 69.828125 56.9375 65.53125 
Q 64.3125 61.234375 67.78125 52.78125 
L 58.9375 49.859375 
Q 57.953125 52.296875 56.296875 54.515625 
Q 54.640625 56.734375 52.140625 58.4375 
Q 49.65625 60.15625 46.3125 61.171875 
Q 42.96875 62.203125 38.671875 62.203125 
z
" id="LiberationSans-43"/>
     <path d="M 17.53125 61.1875 
L 17.53125 35.59375 
L 55.90625 35.59375 
L 55.90625 27.875 
L 17.53125 27.875 
L 17.53125 0 
L 8.203125 0 
L 8.203125 68.796875 
L 57.078125 68.796875 
L 57.078125 61.1875 
z
" id="LiberationSans-46"/>
     <path d="M 40.09375 8.5 
Q 37.640625 3.421875 33.609375 1.21875 
Q 29.59375 -0.984375 23.640625 -0.984375 
Q 13.625 -0.984375 8.90625 5.75 
Q 4.203125 12.5 4.203125 26.171875 
Q 4.203125 53.8125 23.640625 53.8125 
Q 29.640625 53.8125 33.640625 51.609375 
Q 37.640625 49.421875 40.09375 44.625 
L 40.1875 44.625 
Q 40.1875 45.125 40.15625 46.171875 
Q 40.140625 47.21875 40.109375 48.359375 
Q 40.09375 49.515625 40.09375 50.53125 
Q 40.09375 51.5625 40.09375 52 
L 40.09375 72.46875 
L 48.875 72.46875 
L 48.875 10.890625 
Q 48.875 8.984375 48.890625 7.21875 
Q 48.921875 5.46875 48.96875 4 
Q 49.03125 2.546875 49.078125 1.484375 
Q 49.125 0.4375 49.171875 0 
L 40.765625 0 
Q 40.671875 0.484375 40.59375 1.390625 
Q 40.53125 2.296875 40.453125 3.46875 
Q 40.375 4.640625 40.328125 5.9375 
Q 40.28125 7.234375 40.28125 8.5 
z
M 13.421875 26.46875 
Q 13.421875 21 14.109375 17.09375 
Q 14.796875 13.1875 16.3125 10.671875 
Q 17.828125 8.15625 20.171875 6.984375 
Q 22.515625 5.8125 25.875 5.8125 
Q 29.34375 5.8125 32 6.9375 
Q 34.671875 8.0625 36.453125 10.578125 
Q 38.234375 13.09375 39.15625 17.140625 
Q 40.09375 21.1875 40.09375 27.046875 
Q 40.09375 32.671875 39.15625 36.546875 
Q 38.234375 40.4375 36.421875 42.828125 
Q 34.625 45.21875 32 46.265625 
Q 29.390625 47.3125 25.984375 47.3125 
Q 22.75 47.3125 20.40625 46.1875 
Q 18.0625 45.0625 16.5 42.578125 
Q 14.9375 40.09375 14.171875 36.109375 
Q 13.421875 32.125 13.421875 26.46875 
z
" id="LiberationSans-64"/>
    </defs>
    <g style="fill:#111111;" transform="translate(447.1426 23.8968)scale(0.2304 -0.2304)">
     <use xlink:href="#LiberationSans-53"/>
     <use x="66.699219" xlink:href="#LiberationSans-74"/>
     <use x="94.482422" xlink:href="#LiberationSans-6f"/>
     <use x="150.097656" xlink:href="#LiberationSans-63"/>
     <use x="200.097656" xlink:href="#LiberationSans-6b"/>
     <use x="250.097656" xlink:href="#LiberationSans-6d"/>
     <use x="333.398438" xlink:href="#LiberationSans-61"/>
     <use x="389.013672" xlink:href="#LiberationSans-6e"/>
     <use x="444.628906" xlink:href="#LiberationSans-20"/>
     <use x="472.412109" xlink:href="#LiberationSans-26"/>
     <use x="539.111328" xlink:href="#LiberationSans-20"/>
     <use x="566.894531" xlink:href="#LiberationSans-53"/>
     <use x="633.59375" xlink:href="#LiberationSans-68"/>
     <use x="689.208984" xlink:href="#LiberationSans-61"/>
     <use x="744.824219" xlink:href="#LiberationSans-72"/>
     <use x="778.125" xlink:href="#LiberationSans-70"/>
     <use x="833.740234" xlink:href="#LiberationSans-65"/>
     <use x="889.355469" xlink:href="#LiberationSans-20"/>
     <use x="917.138672" xlink:href="#LiberationSans-32"/>
     <use x="972.753906" xlink:href="#LiberationSans-20"/>
     <use x="1000.537109" xlink:href="#LiberationSans-44"/>
     <use x="1072.753906" xlink:href="#LiberationSans-65"/>
     <use x="1128.369141" xlink:href="#LiberationSans-67"/>
     <use x="1183.984375" xlink:href="#LiberationSans-72"/>
     <use x="1217.285156" xlink:href="#LiberationSans-65"/>
     <use x="1272.900391" xlink:href="#LiberationSans-65"/>
     <use x="1328.515625" xlink:href="#LiberationSans-20"/>
     <use x="1356.298828" xlink:href="#LiberationSans-43"/>
     <use x="1428.515625" xlink:href="#LiberationSans-6f"/>
     <use x="1484.130859" xlink:href="#LiberationSans-6e"/>
     <use x="1539.746094" xlink:href="#LiberationSans-65"/>
     <use x="1595.361328" xlink:href="#LiberationSans-20"/>
     <use x="1623.144531" xlink:href="#LiberationSans-46"/>
     <use x="1684.228516" xlink:href="#LiberationSans-75"/>
     <use x="1739.84375" xlink:href="#LiberationSans-6e"/>
     <use x="1795.458984" xlink:href="#LiberationSans-64"/>
     <use x="1851.074219" xlink:href="#LiberationSans-61"/>
     <use x="1906.689453" xlink:href="#LiberationSans-6d"/>
     <use x="1989.990234" xlink:href="#LiberationSans-65"/>
     <use x="2045.605469" xlink:href="#LiberationSans-6e"/>
     <use x="2101.220703" xlink:href="#LiberationSans-74"/>
     <use x="2129.003906" xlink:href="#LiberationSans-61"/>
     <use x="2184.619141" xlink:href="#LiberationSans-6c"/>
     <use x="2206.835938" xlink:href="#LiberationSans-73"/>
    </g>
   </g>
   <g id="legend_1">
    <g id="patch_7">
     <path d="M 1004.04296 110.66688 
L 1342.974 110.66688 
L 1342.974 42.5608 
L 1004.04296 42.5608 
z
" style="fill:#f0f0f0;opacity:0.75;stroke:#cccccc;stroke-linejoin:miter;stroke-width:0.3;"/>
    </g>
    <g id="line2d_86">
     <path d="M 1010.70696 57.35488 
L 1037.36296 57.35488 
" style="fill:none;stroke:#ff0000;stroke-linecap:round;"/>
    </g>
    <g id="line2d_87"/>
    <g id="text_19">
     <!-- $\bar{l}$ - Stockman &amp; Sharpe 2$^\circ$ Cone Fundamentals -->
     <defs>
      <path d="M -39.34375 74.515625 
L -10.15625 74.515625 
L -10.15625 67.28125 
L -39.34375 67.28125 
z
" id="DejaVuSans-304"/>
      <path d="M 18.3125 75.984375 
L 27.296875 75.984375 
L 12.5 0 
L 3.515625 0 
z
" id="DejaVuSans-Oblique-6c"/>
      <path d="M 4.4375 22.65625 
L 4.4375 30.46875 
L 28.859375 30.46875 
L 28.859375 22.65625 
z
" id="LiberationSans-2d"/>
      <path d="M 31.25 40.921875 
Q 27.34375 40.921875 24.65625 38.203125 
Q 21.96875 35.5 21.96875 31.59375 
Q 21.96875 27.734375 24.65625 25.078125 
Q 27.34375 22.421875 31.25 22.421875 
Q 35.15625 22.421875 37.84375 25.078125 
Q 40.53125 27.734375 40.53125 31.59375 
Q 40.53125 35.453125 37.8125 38.1875 
Q 35.109375 40.921875 31.25 40.921875 
z
M 31.25 47.21875 
Q 34.375 47.21875 37.25 46.015625 
Q 40.140625 44.828125 42.234375 42.578125 
Q 44.484375 40.390625 45.609375 37.59375 
Q 46.734375 34.8125 46.734375 31.59375 
Q 46.734375 25.15625 42.21875 20.6875 
Q 37.703125 16.21875 31.15625 16.21875 
Q 24.5625 16.21875 20.15625 20.609375 
Q 15.765625 25 15.765625 31.59375 
Q 15.765625 38.140625 20.25 42.671875 
Q 24.75 47.21875 31.25 47.21875 
z
" id="DejaVuSans-2218"/>
     </defs>
     <g style="fill:#111111;" transform="translate(1048.02536 62.01968)scale(0.13328 -0.13328)">
      <use transform="translate(42.289551 21.484375)" xlink:href="#DejaVuSans-304"/>
      <use transform="translate(0 0.28125)" xlink:href="#DejaVuSans-Oblique-6c"/>
      <use transform="translate(27.783203 0.28125)" xlink:href="#LiberationSans-20"/>
      <use transform="translate(55.566406 0.28125)" xlink:href="#LiberationSans-2d"/>
      <use transform="translate(88.867188 0.28125)" xlink:href="#LiberationSans-20"/>
      <use transform="translate(116.650391 0.28125)" xlink:href="#LiberationSans-53"/>
      <use transform="translate(183.349609 0.28125)" xlink:href="#LiberationSans-74"/>
      <use transform="translate(211.132812 0.28125)" xlink:href="#LiberationSans-6f"/>
      <use transform="translate(266.748047 0.28125)" xlink:href="#LiberationSans-63"/>
      <use transform="translate(316.748047 0.28125)" xlink:href="#LiberationSans-6b"/>
      <use transform="translate(366.748047 0.28125)" xlink:href="#LiberationSans-6d"/>
      <use transform="translate(450.048828 0.28125)" xlink:href="#LiberationSans-61"/>
      <use transform="translate(505.664062 0.28125)" xlink:href="#LiberationSans-6e"/>
      <use transform="translate(561.279297 0.28125)" xlink:href="#LiberationSans-20"/>
      <use transform="translate(589.0625 0.28125)" xlink:href="#LiberationSans-26"/>
      <use transform="translate(655.761719 0.28125)" xlink:href="#LiberationSans-20"/>
      <use transform="translate(683.544922 0.28125)" xlink:href="#LiberationSans-53"/>
      <use transform="translate(750.244141 0.28125)" xlink:href="#LiberationSans-68"/>
      <use transform="translate(805.859375 0.28125)" xlink:href="#LiberationSans-61"/>
      <use transform="translate(861.474609 0.28125)" xlink:href="#LiberationSans-72"/>
      <use transform="translate(894.775391 0.28125)" xlink:href="#LiberationSans-70"/>
      <use transform="translate(950.390625 0.28125)" xlink:href="#LiberationSans-65"/>
      <use transform="translate(1006.005859 0.28125)" xlink:href="#LiberationSans-20"/>
      <use transform="translate(1033.789062 0.28125)" xlink:href="#LiberationSans-32"/>
      <use transform="translate(1103.999023 38.5625)scale(0.7)" xlink:href="#DejaVuSans-2218"/>
      <use transform="translate(1164.189453 0.28125)" xlink:href="#LiberationSans-20"/>
      <use transform="translate(1191.972656 0.28125)" xlink:href="#LiberationSans-43"/>
      <use transform="translate(1264.189453 0.28125)" xlink:href="#LiberationSans-6f"/>
      <use transform="translate(1319.804688 0.28125)" xlink:href="#LiberationSans-6e"/>
      <use transform="translate(1375.419922 0.28125)" xlink:href="#LiberationSans-65"/>
      <use transform="translate(1431.035156 0.28125)" xlink:href="#LiberationSans-20"/>
      <use transform="translate(1458.818359 0.28125)" xlink:href="#LiberationSans-46"/>
      <use transform="translate(1519.902344 0.28125)" xlink:href="#LiberationSans-75"/>
      <use transform="translate(1575.517578 0.28125)" xlink:href="#LiberationSans-6e"/>
      <use transform="translate(1631.132812 0.28125)" xlink:href="#LiberationSans-64"/>
      <use transform="translate(1686.748047 0.28125)" xlink:href="#LiberationSans-61"/>
      <use transform="translate(1742.363281 0.28125)" xlink:href="#LiberationSans-6d"/>
      <use transform="translate(1825.664062 0.28125)" xlink:href="#LiberationSans-65"/>
      <use transform="translate(1881.279297 0.28125)" xlink:href="#LiberationSans-6e"/>
      <use transform="translate(1936.894531 0.28125)" xlink:href="#LiberationSans-74"/>
      <use transform="translate(1964.677734 0.28125)" xlink:href="#LiberationSans-61"/>
      <use transform="translate(2020.292969 0.28125)" xlink:href="#LiberationSans-6c"/>
      <use transform="translate(2042.509766 0.28125)" xlink:href="#LiberationSans-73"/>
     </g>
    </g>
    <g id="line2d_88">
     <path d="M 1010.70696 76.94704 
L 1037.36296 76.94704 
" style="fill:none;stroke:#00ff00;stroke-linecap:round;"/>
    </g>
    <g id="line2d_89"/>
    <g id="text_20">
     <!-- $\bar{m}$ - Stockman &amp; Sharpe 2$^\circ$ Cone Fundamentals -->
     <defs>
      <path d="M 89.796875 33.015625 
L 83.40625 0 
L 74.421875 0 
L 80.71875 32.71875 
Q 81.109375 34.8125 81.296875 36.328125 
Q 81.5 37.84375 81.5 38.921875 
Q 81.5 43.3125 79.046875 45.75 
Q 76.609375 48.1875 72.21875 48.1875 
Q 65.671875 48.1875 60.546875 43.28125 
Q 55.421875 38.375 53.90625 30.515625 
L 47.90625 0 
L 38.921875 0 
L 45.3125 32.71875 
Q 45.703125 34.515625 45.890625 36.046875 
Q 46.09375 37.59375 46.09375 38.8125 
Q 46.09375 43.265625 43.65625 45.71875 
Q 41.21875 48.1875 36.921875 48.1875 
Q 30.28125 48.1875 25.140625 43.28125 
Q 20.015625 38.375 18.5 30.515625 
L 12.5 0 
L 3.515625 0 
L 14.203125 54.6875 
L 23.1875 54.6875 
L 21.484375 46.1875 
Q 25.140625 50.984375 30.046875 53.484375 
Q 34.96875 56 40.578125 56 
Q 46.53125 56 50.359375 52.875 
Q 54.203125 49.75 54.984375 44.1875 
Q 59.078125 49.953125 64.46875 52.96875 
Q 69.875 56 75.875 56 
Q 82.90625 56 86.734375 51.953125 
Q 90.578125 47.90625 90.578125 40.484375 
Q 90.578125 38.875 90.375 36.9375 
Q 90.1875 35.015625 89.796875 33.015625 
z
" id="DejaVuSans-Oblique-6d"/>
     </defs>
     <g style="fill:#111111;" transform="translate(1048.02536 81.61184)scale(0.13328 -0.13328)">
      <use transform="translate(85.696777 1.484375)" xlink:href="#DejaVuSans-304"/>
      <use transform="translate(0 0.265625)" xlink:href="#DejaVuSans-Oblique-6d"/>
      <use transform="translate(97.412109 0.265625)" xlink:href="#LiberationSans-20"/>
      <use transform="translate(125.195312 0.265625)" xlink:href="#LiberationSans-2d"/>
      <use transform="translate(158.496094 0.265625)" xlink:href="#LiberationSans-20"/>
      <use transform="translate(186.279297 0.265625)" xlink:href="#LiberationSans-53"/>
      <use transform="translate(252.978516 0.265625)" xlink:href="#LiberationSans-74"/>
      <use transform="translate(280.761719 0.265625)" xlink:href="#LiberationSans-6f"/>
      <use transform="translate(336.376953 0.265625)" xlink:href="#LiberationSans-63"/>
      <use transform="translate(386.376953 0.265625)" xlink:href="#LiberationSans-6b"/>
      <use transform="translate(436.376953 0.265625)" xlink:href="#LiberationSans-6d"/>
      <use transform="translate(519.677734 0.265625)" xlink:href="#LiberationSans-61"/>
      <use transform="translate(575.292969 0.265625)" xlink:href="#LiberationSans-6e"/>
      <use transform="translate(630.908203 0.265625)" xlink:href="#LiberationSans-20"/>
      <use transform="translate(658.691406 0.265625)" xlink:href="#LiberationSans-26"/>
      <use transform="translate(725.390625 0.265625)" xlink:href="#LiberationSans-20"/>
      <use transform="translate(753.173828 0.265625)" xlink:href="#LiberationSans-53"/>
      <use transform="translate(819.873047 0.265625)" xlink:href="#LiberationSans-68"/>
      <use transform="translate(875.488281 0.265625)" xlink:href="#LiberationSans-61"/>
      <use transform="translate(931.103516 0.265625)" xlink:href="#LiberationSans-72"/>
      <use transform="translate(964.404297 0.265625)" xlink:href="#LiberationSans-70"/>
      <use transform="translate(1020.019531 0.265625)" xlink:href="#LiberationSans-65"/>
      <use transform="translate(1075.634766 0.265625)" xlink:href="#LiberationSans-20"/>
      <use transform="translate(1103.417969 0.265625)" xlink:href="#LiberationSans-32"/>
      <use transform="translate(1173.62793 38.546875)scale(0.7)" xlink:href="#DejaVuSans-2218"/>
      <use transform="translate(1233.818359 0.265625)" xlink:href="#LiberationSans-20"/>
      <use transform="translate(1261.601562 0.265625)" xlink:href="#LiberationSans-43"/>
      <use transform="translate(1333.818359 0.265625)" xlink:href="#LiberationSans-6f"/>
      <use transform="translate(1389.433594 0.265625)" xlink:href="#LiberationSans-6e"/>
      <use transform="translate(1445.048828 0.265625)" xlink:href="#LiberationSans-65"/>
      <use transform="translate(1500.664062 0.265625)" xlink:href="#LiberationSans-20"/>
      <use transform="translate(1528.447266 0.265625)" xlink:href="#LiberationSans-46"/>
      <use transform="translate(1589.53125 0.265625)" xlink:href="#LiberationSans-75"/>
      <use transform="translate(1645.146484 0.265625)" xlink:href="#LiberationSans-6e"/>
      <use transform="translate(1700.761719 0.265625)" xlink:href="#LiberationSans-64"/>
      <use transform="translate(1756.376953 0.265625)" xlink:href="#LiberationSans-61"/>
      <use transform="translate(1811.992188 0.265625)" xlink:href="#LiberationSans-6d"/>
      <use transform="translate(1895.292969 0.265625)" xlink:href="#LiberationSans-65"/>
      <use transform="translate(1950.908203 0.265625)" xlink:href="#LiberationSans-6e"/>
      <use transform="translate(2006.523438 0.265625)" xlink:href="#LiberationSans-74"/>
      <use transform="translate(2034.306641 0.265625)" xlink:href="#LiberationSans-61"/>
      <use transform="translate(2089.921875 0.265625)" xlink:href="#LiberationSans-6c"/>
      <use transform="translate(2112.138672 0.265625)" xlink:href="#LiberationSans-73"/>
     </g>
    </g>
    <g id="line2d_90">
     <path d="M 1010.70696 96.5392 
L 1037.36296 96.5392 
" style="fill:none;stroke:#0000ff;stroke-linecap:round;"/>
    </g>
    <g id="line2d_91"/>
    <g id="text_21">
     <!-- $\bar{s}$ - Stockman &amp; Sharpe 2$^\circ$ Cone Fundamentals -->
     <defs>
      <path d="M 50 53.078125 
L 48.296875 44.578125 
Q 44.734375 46.53125 40.765625 47.5 
Q 36.8125 48.484375 32.625 48.484375 
Q 25.53125 48.484375 21.453125 46.0625 
Q 17.390625 43.65625 17.390625 39.5 
Q 17.390625 34.671875 26.859375 32.078125 
Q 27.59375 31.890625 27.9375 31.78125 
L 30.8125 30.90625 
Q 39.796875 28.421875 42.796875 25.6875 
Q 45.796875 22.953125 45.796875 18.21875 
Q 45.796875 9.515625 38.890625 4.046875 
Q 31.984375 -1.421875 20.796875 -1.421875 
Q 16.453125 -1.421875 11.671875 -0.578125 
Q 6.890625 0.25 1.125 2 
L 2.875 11.28125 
Q 7.8125 8.734375 12.59375 7.421875 
Q 17.390625 6.109375 21.78125 6.109375 
Q 28.375 6.109375 32.5 8.9375 
Q 36.625 11.765625 36.625 16.109375 
Q 36.625 20.796875 25.78125 23.6875 
L 24.859375 23.921875 
L 21.78125 24.703125 
Q 14.9375 26.515625 11.765625 29.46875 
Q 8.59375 32.421875 8.59375 37.015625 
Q 8.59375 45.75 15.15625 50.875 
Q 21.734375 56 33.015625 56 
Q 37.453125 56 41.671875 55.265625 
Q 45.90625 54.546875 50 53.078125 
z
" id="DejaVuSans-Oblique-73"/>
     </defs>
     <g style="fill:#111111;" transform="translate(1048.02536 101.204)scale(0.13328 -0.13328)">
      <use transform="translate(57.368652 1.484375)" xlink:href="#DejaVuSans-304"/>
      <use transform="translate(0 0.265625)" xlink:href="#DejaVuSans-Oblique-73"/>
      <use transform="translate(52.099609 0.265625)" xlink:href="#LiberationSans-20"/>
      <use transform="translate(79.882812 0.265625)" xlink:href="#LiberationSans-2d"/>
      <use transform="translate(113.183594 0.265625)" xlink:href="#LiberationSans-20"/>
      <use transform="translate(140.966797 0.265625)" xlink:href="#LiberationSans-53"/>
      <use transform="translate(207.666016 0.265625)" xlink:href="#LiberationSans-74"/>
      <use transform="translate(235.449219 0.265625)" xlink:href="#LiberationSans-6f"/>
      <use transform="translate(291.064453 0.265625)" xlink:href="#LiberationSans-63"/>
      <use transform="translate(341.064453 0.265625)" xlink:href="#LiberationSans-6b"/>
      <use transform="translate(391.064453 0.265625)" xlink:href="#LiberationSans-6d"/>
      <use transform="translate(474.365234 0.265625)" xlink:href="#LiberationSans-61"/>
      <use transform="translate(529.980469 0.265625)" xlink:href="#LiberationSans-6e"/>
      <use transform="translate(585.595703 0.265625)" xlink:href="#LiberationSans-20"/>
      <use transform="translate(613.378906 0.265625)" xlink:href="#LiberationSans-26"/>
      <use transform="translate(680.078125 0.265625)" xlink:href="#LiberationSans-20"/>
      <use transform="translate(707.861328 0.265625)" xlink:href="#LiberationSans-53"/>
      <use transform="translate(774.560547 0.265625)" xlink:href="#LiberationSans-68"/>
      <use transform="translate(830.175781 0.265625)" xlink:href="#LiberationSans-61"/>
      <use transform="translate(885.791016 0.265625)" xlink:href="#LiberationSans-72"/>
      <use transform="translate(919.091797 0.265625)" xlink:href="#LiberationSans-70"/>
      <use transform="translate(974.707031 0.265625)" xlink:href="#LiberationSans-65"/>
      <use transform="translate(1030.322266 0.265625)" xlink:href="#LiberationSans-20"/>
      <use transform="translate(1058.105469 0.265625)" xlink:href="#LiberationSans-32"/>
      <use transform="translate(1128.31543 38.546875)scale(0.7)" xlink:href="#DejaVuSans-2218"/>
      <use transform="translate(1188.505859 0.265625)" xlink:href="#LiberationSans-20"/>
      <use transform="translate(1216.289062 0.265625)" xlink:href="#LiberationSans-43"/>
      <use transform="translate(1288.505859 0.265625)" xlink:href="#LiberationSans-6f"/>
      <use transform="translate(1344.121094 0.265625)" xlink:href="#LiberationSans-6e"/>
      <use transform="translate(1399.736328 0.265625)" xlink:href="#LiberationSans-65"/>
      <use transform="translate(1455.351562 0.265625)" xlink:href="#LiberationSans-20"/>
      <use transform="translate(1483.134766 0.265625)" xlink:href="#LiberationSans-46"/>
      <use transform="translate(1544.21875 0.265625)" xlink:href="#LiberationSans-75"/>
      <use transform="translate(1599.833984 0.265625)" xlink:href="#LiberationSans-6e"/>
      <use transform="translate(1655.449219 0.265625)" xlink:href="#LiberationSans-64"/>
      <use transform="translate(1711.064453 0.265625)" xlink:href="#LiberationSans-61"/>
      <use transform="translate(1766.679688 0.265625)" xlink:href="#LiberationSans-6d"/>
      <use transform="translate(1849.980469 0.265625)" xlink:href="#LiberationSans-65"/>
      <use transform="translate(1905.595703 0.265625)" xlink:href="#LiberationSans-6e"/>
      <use transform="translate(1961.210938 0.265625)" xlink:href="#LiberationSans-74"/>
      <use transform="translate(1988.994141 0.265625)" xlink:href="#LiberationSans-61"/>
      <use transform="translate(2044.609375 0.265625)" xlink:href="#LiberationSans-6c"/>
      <use transform="translate(2066.826172 0.265625)" xlink:href="#LiberationSans-73"/>
     </g>
    </g>
   </g>
  </g>
 </g>
 <defs>
  <clipPath id="p94d83a31b5">
   <rect height="660.51" width="1285.05" x="64.588" y="35.8968"/>
  </clipPath>
 </defs>
</svg>
