<?xml version="1.0" encoding="utf-8" standalone="no"?>
<!DOCTYPE svg PUBLIC "-//W3C//DTD SVG 1.1//EN"
  "http://www.w3.org/Graphics/SVG/1.1/DTD/svg11.dtd">
<!-- Created with matplotlib (http://matplotlib.org/) -->
<svg height="269.7268pt" version="1.1" viewBox="0 0 271.34 269.7268" width="271.34pt" xmlns="http://www.w3.org/2000/svg" xmlns:xlink="http://www.w3.org/1999/xlink">
 <defs>
  <style type="text/css">
*{stroke-linecap:butt;stroke-linejoin:round;}
  </style>
 </defs>
 <g id="figure_1">
  <g id="patch_1">
   <path d="M 0 269.7268 
L 271.34 269.7268 
L 271.34 0 
L 0 0 
z
" style="fill:none;opacity:0;"/>
  </g>
  <g id="axes_1">
   <g id="patch_2">
    <path d="M 13.45 256.2768 
L 257.89 256.2768 
L 257.89 35.8968 
L 13.45 35.8968 
z
" style="fill:#f5f5f5;"/>
   </g>
   <g id="line2d_1">
    <path clip-path="url(#pc01d978045)" d="M 13.45 256.2768 
L 18.438571 251.779249 
L 23.427143 247.281698 
L 28.415714 242.784147 
L 33.404286 238.286596 
L 38.392857 233.789045 
L 43.381429 229.291494 
L 48.37 224.793943 
L 53.358571 220.296392 
L 58.347143 215.798841 
L 63.335714 211.30129 
L 68.324286 206.803739 
L 73.312857 202.306188 
L 78.301429 197.808637 
L 83.29 193.311086 
L 88.278571 188.813535 
L 93.267143 184.315984 
L 98.255714 179.818433 
L 103.244286 175.320882 
L 108.232857 170.823331 
L 113.221429 166.32578 
L 118.21 161.828229 
L 123.198571 157.330678 
L 128.187143 152.833127 
L 133.175714 148.335576 
L 138.164286 143.838024 
L 143.152857 139.340473 
L 148.141429 134.842922 
L 153.13 130.345371 
L 158.118571 125.84782 
L 163.107143 121.350269 
L 168.095714 116.852718 
L 173.084286 112.355167 
L 178.072857 107.857616 
L 183.061429 103.360065 
L 188.05 98.862514 
L 193.038571 94.364963 
L 198.027143 89.867412 
L 203.015714 85.369861 
L 208.004286 80.87231 
L 212.992857 76.374759 
L 217.981429 71.877208 
L 222.97 67.379657 
L 227.958571 62.882106 
L 232.947143 58.384555 
L 237.935714 53.887004 
L 242.924286 49.389453 
L 247.912857 44.891902 
L 252.901429 40.394351 
L 257.89 35.8968 
" style="fill:none;stroke:#000000;stroke-dasharray:3.7,1.6;stroke-dashoffset:0;"/>
   </g>
   <g id="line2d_2">
    <path clip-path="url(#pc01d978045)" d="M 13.45 256.2768 
L 18.438571 254.028024 
L 23.427143 251.779249 
L 28.415714 249.530473 
L 33.404286 247.281698 
L 38.392857 245.032922 
L 43.381429 242.784147 
L 48.37 240.535371 
L 53.358571 238.286596 
L 58.347143 236.03782 
L 63.335714 233.789045 
L 68.324286 231.540269 
L 73.312857 229.291494 
L 78.301429 227.042718 
L 83.29 224.793943 
L 88.278571 222.545167 
L 93.267143 220.296392 
L 98.255714 218.047616 
L 103.244286 215.798841 
L 108.232857 213.550065 
L 113.221429 211.30129 
L 118.21 209.052514 
L 123.198571 206.803739 
L 128.187143 204.554963 
L 133.175714 202.306188 
L 138.164286 200.057412 
L 143.152857 197.808637 
L 148.141429 195.559861 
L 153.13 193.311086 
L 158.118571 191.06231 
L 163.107143 188.813535 
L 168.095714 186.564759 
L 173.084286 184.315984 
L 178.072857 182.067208 
L 183.061429 179.818433 
L 188.05 177.569657 
L 193.038571 175.320882 
L 198.027143 173.072106 
L 203.015714 170.823331 
L 208.004286 168.574555 
L 212.992857 166.32578 
L 217.981429 164.077004 
L 222.97 161.828229 
L 227.958571 159.579453 
L 232.947143 157.330678 
L 237.935714 155.081902 
L 242.924286 152.833127 
L 247.912857 150.584351 
L 252.901429 148.335576 
L 257.89 146.0868 
" style="fill:none;stroke:#ff0000;stroke-linecap:round;"/>
   </g>
   <g id="line2d_3">
    <path clip-path="url(#pc01d978045)" d="M 13.45 256.2768 
L 18.438571 254.028024 
L 23.427143 251.779249 
L 28.415714 249.530473 
L 33.404286 247.281698 
L 38.392857 245.032922 
L 43.381429 242.784147 
L 48.37 240.535371 
L 53.358571 238.286596 
L 58.347143 236.03782 
L 63.335714 233.789045 
L 68.324286 231.540269 
L 73.312857 229.291494 
L 78.301429 227.042718 
L 83.29 224.793943 
L 88.278571 222.545167 
L 93.267143 220.296392 
L 98.255714 218.047616 
L 103.244286 215.798841 
L 108.232857 213.550065 
L 113.221429 211.30129 
L 118.21 209.052514 
L 123.198571 206.803739 
L 128.187143 204.554963 
L 133.175714 202.306188 
L 138.164286 200.057412 
L 143.152857 197.808637 
L 148.141429 195.559861 
L 153.13 193.311086 
L 158.118571 191.06231 
L 163.107143 188.813535 
L 168.095714 186.564759 
L 173.084286 184.315984 
L 178.072857 182.067208 
L 183.061429 179.818433 
L 188.05 177.569657 
L 193.038571 175.320882 
L 198.027143 173.072106 
L 203.015714 170.823331 
L 208.004286 168.574555 
L 212.992857 166.32578 
L 217.981429 164.077004 
L 222.97 161.828229 
L 227.958571 159.579453 
L 232.947143 157.330678 
L 237.935714 155.081902 
L 242.924286 152.833127 
L 247.912857 150.584351 
L 252.901429 148.335576 
L 257.89 146.0868 
" style="fill:none;stroke:#008000;stroke-linecap:round;"/>
   </g>
   <g id="line2d_4">
    <path clip-path="url(#pc01d978045)" d="M 13.45 256.2768 
L 18.438571 254.028024 
L 23.427143 251.779249 
L 28.415714 249.530473 
L 33.404286 247.281698 
L 38.392857 245.032922 
L 43.381429 242.784147 
L 48.37 240.535371 
L 53.358571 238.286596 
L 58.347143 236.03782 
L 63.335714 233.789045 
L 68.324286 231.540269 
L 73.312857 229.291494 
L 78.301429 227.042718 
L 83.29 224.793943 
L 88.278571 222.545167 
L 93.267143 220.296392 
L 98.255714 218.047616 
L 103.244286 215.798841 
L 108.232857 213.550065 
L 113.221429 211.30129 
L 118.21 209.052514 
L 123.198571 206.803739 
L 128.187143 204.554963 
L 133.175714 202.306188 
L 138.164286 200.057412 
L 143.152857 197.808637 
L 148.141429 195.559861 
L 153.13 193.311086 
L 158.118571 191.06231 
L 163.107143 188.813535 
L 168.095714 186.564759 
L 173.084286 184.315984 
L 178.072857 182.067208 
L 183.061429 179.818433 
L 188.05 177.569657 
L 193.038571 175.320882 
L 198.027143 173.072106 
L 203.015714 170.823331 
L 208.004286 168.574555 
L 212.992857 166.32578 
L 217.981429 164.077004 
L 222.97 161.828229 
L 227.958571 159.579453 
L 232.947143 157.330678 
L 237.935714 155.081902 
L 242.924286 152.833127 
L 247.912857 150.584351 
L 252.901429 148.335576 
L 257.89 146.0868 
" style="fill:none;stroke:#0000ff;stroke-linecap:round;"/>
   </g>
   <g id="patch_3">
    <path d="M 13.45 256.2768 
L 13.45 35.8968 
" style="fill:none;stroke:#333333;stroke-linecap:square;stroke-linejoin:miter;"/>
   </g>
   <g id="patch_4">
    <path d="M 257.89 256.2768 
L 257.89 35.8968 
" style="fill:none;stroke:#333333;stroke-linecap:square;stroke-linejoin:miter;"/>
   </g>
   <g id="patch_5">
    <path d="M 13.45 256.2768 
L 257.89 256.2768 
" style="fill:none;stroke:#333333;stroke-linecap:square;stroke-linejoin:miter;"/>
   </g>
   <g id="patch_6">
    <path d="M 13.45 35.8968 
L 257.89 35.8968 
" style="fill:none;stroke:#333333;stroke-linecap:square;stroke-linejoin:miter;"/>
   </g>
   <g id="text_1">
    <!-- Brightness -->
    <defs>
     <path d="M 61.421875 19.390625 
Q 61.421875 14.15625 59.375 10.46875 
Q 57.328125 6.78125 53.859375 4.46875 
Q 50.390625 2.15625 45.796875 1.078125 
Q 41.21875 0 36.140625 0 
L 8.203125 0 
L 8.203125 68.796875 
L 33.203125 68.796875 
Q 38.921875 68.796875 43.40625 67.84375 
Q 47.90625 66.890625 51.03125 64.84375 
Q 54.15625 62.796875 55.78125 59.640625 
Q 57.421875 56.5 57.421875 52.09375 
Q 57.421875 49.21875 56.609375 46.671875 
Q 55.8125 44.140625 54.171875 42.0625 
Q 52.546875 39.984375 50.078125 38.5 
Q 47.609375 37.015625 44.34375 36.28125 
Q 48.484375 35.796875 51.6875 34.375 
Q 54.890625 32.953125 57.03125 30.75 
Q 59.1875 28.5625 60.296875 25.65625 
Q 61.421875 22.75 61.421875 19.390625 
z
M 48.046875 50.984375 
Q 48.046875 56.546875 44.234375 58.9375 
Q 40.4375 61.328125 33.203125 61.328125 
L 17.53125 61.328125 
L 17.53125 39.546875 
L 33.203125 39.546875 
Q 37.3125 39.546875 40.140625 40.34375 
Q 42.96875 41.15625 44.71875 42.640625 
Q 46.484375 44.140625 47.265625 46.234375 
Q 48.046875 48.34375 48.046875 50.984375 
z
M 52 20.125 
Q 52 23.390625 50.796875 25.6875 
Q 49.609375 27.984375 47.359375 29.4375 
Q 45.125 30.90625 41.96875 31.59375 
Q 38.8125 32.28125 34.90625 32.28125 
L 17.53125 32.28125 
L 17.53125 7.46875 
L 35.640625 7.46875 
Q 39.203125 7.46875 42.203125 8.046875 
Q 45.21875 8.640625 47.390625 10.109375 
Q 49.5625 11.578125 50.78125 14.015625 
Q 52 16.453125 52 20.125 
z
" id="LiberationSans-42"/>
     <path d="M 6.9375 0 
L 6.9375 40.53125 
Q 6.9375 42.1875 6.90625 43.921875 
Q 6.890625 45.65625 6.828125 47.265625 
Q 6.78125 48.875 6.734375 50.28125 
Q 6.6875 51.703125 6.640625 52.828125 
L 14.9375 52.828125 
Q 14.984375 51.703125 15.0625 50.265625 
Q 15.140625 48.828125 15.203125 47.3125 
Q 15.28125 45.796875 15.296875 44.40625 
Q 15.328125 43.015625 15.328125 42.046875 
L 15.53125 42.046875 
Q 16.453125 45.0625 17.5 47.28125 
Q 18.5625 49.515625 19.96875 50.953125 
Q 21.390625 52.390625 23.34375 53.09375 
Q 25.296875 53.8125 28.078125 53.8125 
Q 29.15625 53.8125 30.125 53.640625 
Q 31.109375 53.46875 31.640625 53.328125 
L 31.640625 45.265625 
Q 30.765625 45.515625 29.59375 45.625 
Q 28.421875 45.75 26.953125 45.75 
Q 23.921875 45.75 21.796875 44.375 
Q 19.671875 43.015625 18.328125 40.59375 
Q 17 38.1875 16.359375 34.84375 
Q 15.71875 31.5 15.71875 27.546875 
L 15.71875 0 
z
" id="LiberationSans-72"/>
     <path d="M 6.6875 64.0625 
L 6.6875 72.46875 
L 15.484375 72.46875 
L 15.484375 64.0625 
z
M 6.6875 0 
L 6.6875 52.828125 
L 15.484375 52.828125 
L 15.484375 0 
z
" id="LiberationSans-69"/>
     <path d="M 26.765625 -20.75 
Q 22.21875 -20.75 18.703125 -19.8125 
Q 15.1875 -18.890625 12.6875 -17.15625 
Q 10.203125 -15.4375 8.640625 -13.03125 
Q 7.078125 -10.640625 6.390625 -7.71875 
L 15.234375 -6.453125 
Q 16.109375 -10.109375 19.109375 -12.078125 
Q 22.125 -14.0625 27 -14.0625 
Q 29.984375 -14.0625 32.421875 -13.234375 
Q 34.859375 -12.40625 36.5625 -10.5625 
Q 38.28125 -8.734375 39.203125 -5.796875 
Q 40.140625 -2.875 40.140625 1.3125 
L 40.140625 9.8125 
L 40.046875 9.8125 
Q 39.0625 7.8125 37.625 5.984375 
Q 36.1875 4.15625 34.109375 2.734375 
Q 32.03125 1.3125 29.296875 0.453125 
Q 26.5625 -0.390625 23.046875 -0.390625 
Q 18.015625 -0.390625 14.421875 1.296875 
Q 10.84375 2.984375 8.5625 6.34375 
Q 6.296875 9.71875 5.25 14.71875 
Q 4.203125 19.734375 4.203125 26.3125 
Q 4.203125 32.671875 5.25 37.75 
Q 6.296875 42.828125 8.65625 46.359375 
Q 11.03125 49.90625 14.8125 51.78125 
Q 18.609375 53.65625 24.03125 53.65625 
Q 29.640625 53.65625 33.765625 51.09375 
Q 37.890625 48.53125 40.140625 43.796875 
L 40.234375 43.796875 
Q 40.234375 45.015625 40.296875 46.53125 
Q 40.375 48.046875 40.453125 49.390625 
Q 40.53125 50.734375 40.625 51.703125 
Q 40.71875 52.6875 40.828125 52.828125 
L 49.171875 52.828125 
Q 49.125 52.390625 49.078125 51.34375 
Q 49.03125 50.296875 48.96875 48.828125 
Q 48.921875 47.359375 48.890625 45.578125 
Q 48.875 43.796875 48.875 41.890625 
L 48.875 1.515625 
Q 48.875 -9.578125 43.421875 -15.15625 
Q 37.984375 -20.75 26.765625 -20.75 
z
M 40.140625 26.421875 
Q 40.140625 31.9375 38.9375 35.859375 
Q 37.75 39.796875 35.796875 42.28125 
Q 33.84375 44.78125 31.328125 45.953125 
Q 28.8125 47.125 26.171875 47.125 
Q 22.796875 47.125 20.375 45.953125 
Q 17.96875 44.78125 16.375 42.265625 
Q 14.796875 39.75 14.03125 35.8125 
Q 13.28125 31.890625 13.28125 26.421875 
Q 13.28125 20.703125 14.03125 16.8125 
Q 14.796875 12.9375 16.359375 10.546875 
Q 17.921875 8.15625 20.3125 7.125 
Q 22.703125 6.109375 26.03125 6.109375 
Q 28.65625 6.109375 31.171875 7.21875 
Q 33.6875 8.34375 35.6875 10.78125 
Q 37.703125 13.234375 38.921875 17.09375 
Q 40.140625 20.953125 40.140625 26.421875 
z
" id="LiberationSans-67"/>
     <path d="M 15.484375 43.796875 
Q 16.9375 46.484375 18.640625 48.359375 
Q 20.359375 50.25 22.40625 51.46875 
Q 24.46875 52.6875 26.90625 53.25 
Q 29.34375 53.8125 32.375 53.8125 
Q 37.453125 53.8125 40.703125 52.4375 
Q 43.953125 51.078125 45.828125 48.609375 
Q 47.703125 46.140625 48.40625 42.71875 
Q 49.125 39.3125 49.125 35.203125 
L 49.125 0 
L 40.28125 0 
L 40.28125 33.5 
Q 40.28125 36.859375 39.859375 39.390625 
Q 39.453125 41.9375 38.28125 43.625 
Q 37.109375 45.3125 34.953125 46.15625 
Q 32.8125 47.015625 29.390625 47.015625 
Q 26.265625 47.015625 23.75 45.890625 
Q 21.234375 44.78125 19.453125 42.71875 
Q 17.671875 40.671875 16.6875 37.734375 
Q 15.71875 34.8125 15.71875 31.15625 
L 15.71875 0 
L 6.9375 0 
L 6.9375 72.46875 
L 15.71875 72.46875 
L 15.71875 53.609375 
Q 15.71875 52 15.671875 50.390625 
Q 15.625 48.78125 15.546875 47.40625 
Q 15.484375 46.046875 15.421875 45.09375 
Q 15.375 44.140625 15.328125 43.796875 
z
" id="LiberationSans-68"/>
     <path d="M 27.046875 0.390625 
Q 25.046875 -0.140625 22.96875 -0.453125 
Q 20.90625 -0.78125 18.171875 -0.78125 
Q 7.625 -0.78125 7.625 11.1875 
L 7.625 46.4375 
L 1.515625 46.4375 
L 1.515625 52.828125 
L 7.953125 52.828125 
L 10.546875 64.65625 
L 16.40625 64.65625 
L 16.40625 52.828125 
L 26.171875 52.828125 
L 26.171875 46.4375 
L 16.40625 46.4375 
L 16.40625 13.09375 
Q 16.40625 9.28125 17.640625 7.734375 
Q 18.890625 6.203125 21.96875 6.203125 
Q 23.25 6.203125 24.4375 6.390625 
Q 25.640625 6.59375 27.046875 6.890625 
z
" id="LiberationSans-74"/>
     <path d="M 40.28125 0 
L 40.28125 33.5 
Q 40.28125 37.359375 39.71875 39.9375 
Q 39.15625 42.53125 37.890625 44.109375 
Q 36.625 45.703125 34.546875 46.359375 
Q 32.46875 47.015625 29.390625 47.015625 
Q 26.265625 47.015625 23.75 45.921875 
Q 21.234375 44.828125 19.453125 42.75 
Q 17.671875 40.671875 16.6875 37.625 
Q 15.71875 34.578125 15.71875 30.609375 
L 15.71875 0 
L 6.9375 0 
L 6.9375 41.546875 
Q 6.9375 43.21875 6.90625 45.046875 
Q 6.890625 46.875 6.828125 48.5 
Q 6.78125 50.140625 6.734375 51.3125 
Q 6.6875 52.484375 6.640625 52.828125 
L 14.9375 52.828125 
Q 14.984375 52.59375 15.03125 51.515625 
Q 15.09375 50.4375 15.15625 49.046875 
Q 15.234375 47.65625 15.28125 46.21875 
Q 15.328125 44.78125 15.328125 43.796875 
L 15.484375 43.796875 
Q 16.75 46.09375 18.265625 47.953125 
Q 19.78125 49.8125 21.78125 51.09375 
Q 23.78125 52.390625 26.359375 53.09375 
Q 28.953125 53.8125 32.375 53.8125 
Q 36.765625 53.8125 39.9375 52.734375 
Q 43.109375 51.65625 45.15625 49.40625 
Q 47.21875 47.171875 48.171875 43.625 
Q 49.125 40.09375 49.125 35.203125 
L 49.125 0 
z
" id="LiberationSans-6e"/>
     <path d="M 13.484375 24.5625 
Q 13.484375 20.40625 14.328125 16.90625 
Q 15.1875 13.421875 16.96875 10.90625 
Q 18.75 8.40625 21.53125 7 
Q 24.3125 5.609375 28.21875 5.609375 
Q 33.9375 5.609375 37.375 7.90625 
Q 40.828125 10.203125 42.046875 13.71875 
L 49.75 11.53125 
Q 48.921875 9.328125 47.4375 7.109375 
Q 45.953125 4.890625 43.453125 3.09375 
Q 40.96875 1.3125 37.234375 0.15625 
Q 33.5 -0.984375 28.21875 -0.984375 
Q 16.5 -0.984375 10.375 6 
Q 4.25 12.984375 4.25 26.765625 
Q 4.25 34.1875 6.09375 39.328125 
Q 7.953125 44.484375 11.171875 47.703125 
Q 14.40625 50.921875 18.703125 52.359375 
Q 23 53.8125 27.875 53.8125 
Q 34.515625 53.8125 38.984375 51.65625 
Q 43.453125 49.515625 46.15625 45.71875 
Q 48.875 41.9375 50.015625 36.8125 
Q 51.171875 31.6875 51.171875 25.734375 
L 51.171875 24.5625 
z
M 42.09375 31.296875 
Q 41.359375 39.65625 37.84375 43.484375 
Q 34.328125 47.3125 27.734375 47.3125 
Q 25.53125 47.3125 23.109375 46.609375 
Q 20.703125 45.90625 18.65625 44.09375 
Q 16.609375 42.28125 15.1875 39.171875 
Q 13.765625 36.078125 13.578125 31.296875 
z
" id="LiberationSans-65"/>
     <path d="M 46.390625 14.59375 
Q 46.390625 10.890625 44.9375 7.984375 
Q 43.5 5.078125 40.765625 3.09375 
Q 38.03125 1.125 34.046875 0.0625 
Q 30.078125 -0.984375 24.953125 -0.984375 
Q 20.359375 -0.984375 16.671875 -0.265625 
Q 12.984375 0.4375 10.203125 2 
Q 7.421875 3.5625 5.53125 6.125 
Q 3.65625 8.6875 2.78125 12.40625 
L 10.546875 13.921875 
Q 11.671875 9.671875 15.1875 7.6875 
Q 18.703125 5.71875 24.953125 5.71875 
Q 27.78125 5.71875 30.140625 6.109375 
Q 32.515625 6.5 34.21875 7.453125 
Q 35.9375 8.40625 36.890625 9.984375 
Q 37.84375 11.578125 37.84375 13.921875 
Q 37.84375 16.3125 36.71875 17.84375 
Q 35.59375 19.390625 33.59375 20.40625 
Q 31.59375 21.4375 28.734375 22.1875 
Q 25.875 22.953125 22.46875 23.875 
Q 19.28125 24.703125 16.15625 25.734375 
Q 13.03125 26.765625 10.515625 28.4375 
Q 8.015625 30.125 6.453125 32.609375 
Q 4.890625 35.109375 4.890625 38.875 
Q 4.890625 46.09375 10.03125 49.875 
Q 15.1875 53.65625 25.046875 53.65625 
Q 33.796875 53.65625 38.9375 50.578125 
Q 44.09375 47.515625 45.453125 40.71875 
L 37.546875 39.75 
Q 37.109375 41.796875 35.9375 43.1875 
Q 34.765625 44.578125 33.109375 45.4375 
Q 31.453125 46.296875 29.375 46.65625 
Q 27.296875 47.015625 25.046875 47.015625 
Q 19.09375 47.015625 16.25 45.203125 
Q 13.421875 43.40625 13.421875 39.75 
Q 13.421875 37.59375 14.46875 36.203125 
Q 15.53125 34.8125 17.40625 33.859375 
Q 19.28125 32.90625 21.921875 32.203125 
Q 24.5625 31.5 27.734375 30.71875 
Q 29.828125 30.171875 32.03125 29.5625 
Q 34.234375 28.953125 36.296875 28.09375 
Q 38.375 27.25 40.203125 26.09375 
Q 42.046875 24.953125 43.40625 23.34375 
Q 44.78125 21.734375 45.578125 19.578125 
Q 46.390625 17.4375 46.390625 14.59375 
z
" id="LiberationSans-73"/>
    </defs>
    <g style="fill:#111111;" transform="translate(81.2452 23.8968)scale(0.2304 -0.2304)">
     <use xlink:href="#LiberationSans-42"/>
     <use x="66.699219" xlink:href="#LiberationSans-72"/>
     <use x="100" xlink:href="#LiberationSans-69"/>
     <use x="122.216797" xlink:href="#LiberationSans-67"/>
     <use x="177.832031" xlink:href="#LiberationSans-68"/>
     <use x="233.447266" xlink:href="#LiberationSans-74"/>
     <use x="261.230469" xlink:href="#LiberationSans-6e"/>
     <use x="316.845703" xlink:href="#LiberationSans-65"/>
     <use x="372.460938" xlink:href="#LiberationSans-73"/>
     <use x="422.460938" xlink:href="#LiberationSans-73"/>
    </g>
   </g>
  </g>
 </g>
 <defs>
  <clipPath id="pc01d978045">
   <rect height="220.38" width="244.44" x="13.45" y="35.8968"/>
  </clipPath>
 </defs>
</svg>
