<?xml version="1.0" encoding="utf-8" standalone="no"?>
<!DOCTYPE svg PUBLIC "-//W3C//DTD SVG 1.1//EN"
  "http://www.w3.org/Graphics/SVG/1.1/DTD/svg11.dtd">
<!-- Created with matplotlib (http://matplotlib.org/) -->
<svg height="269.7268pt" version="1.1" viewBox="0 0 271.34 269.7268" width="271.34pt" xmlns="http://www.w3.org/2000/svg" xmlns:xlink="http://www.w3.org/1999/xlink">
 <defs>
  <style type="text/css">
*{stroke-linecap:butt;stroke-linejoin:round;}
  </style>
 </defs>
 <g id="figure_1">
  <g id="patch_1">
   <path d="M 0 269.7268 
L 271.34 269.7268 
L 271.34 0 
L 0 0 
z
" style="fill:none;opacity:0;"/>
  </g>
  <g id="axes_1">
   <g id="patch_2">
    <path d="M 13.45 256.2768 
L 257.89 256.2768 
L 257.89 35.8968 
L 13.45 35.8968 
z
" style="fill:#f5f5f5;"/>
   </g>
   <g id="line2d_1">
    <path clip-path="url(#p938daa1def)" d="M 13.45 256.2768 
L 18.438571 251.779249 
L 23.427143 247.281698 
L 28.415714 242.784147 
L 33.404286 238.286596 
L 38.392857 233.789045 
L 43.381429 229.291494 
L 48.37 224.793943 
L 53.358571 220.296392 
L 58.347143 215.798841 
L 63.335714 211.30129 
L 68.324286 206.803739 
L 73.312857 202.306188 
L 78.301429 197.808637 
L 83.29 193.311086 
L 88.278571 188.813535 
L 93.267143 184.315984 
L 98.255714 179.818433 
L 103.244286 175.320882 
L 108.232857 170.823331 
L 113.221429 166.32578 
L 118.21 161.828229 
L 123.198571 157.330678 
L 128.187143 152.833127 
L 133.175714 148.335576 
L 138.164286 143.838024 
L 143.152857 139.340473 
L 148.141429 134.842922 
L 153.13 130.345371 
L 158.118571 125.84782 
L 163.107143 121.350269 
L 168.095714 116.852718 
L 173.084286 112.355167 
L 178.072857 107.857616 
L 183.061429 103.360065 
L 188.05 98.862514 
L 193.038571 94.364963 
L 198.027143 89.867412 
L 203.015714 85.369861 
L 208.004286 80.87231 
L 212.992857 76.374759 
L 217.981429 71.877208 
L 222.97 67.379657 
L 227.958571 62.882106 
L 232.947143 58.384555 
L 237.935714 53.887004 
L 242.924286 49.389453 
L 247.912857 44.891902 
L 252.901429 40.394351 
L 257.89 35.8968 
" style="fill:none;stroke:#000000;stroke-dasharray:3.7,1.6;stroke-dashoffset:0;"/>
   </g>
   <g id="line2d_2">
    <path clip-path="url(#p938daa1def)" d="M 13.45 256.2768 
L 18.438571 255.42235 
L 23.427143 254.434705 
L 28.415714 253.294599 
L 33.404286 251.980492 
L 38.392857 250.46847 
L 43.381429 248.73222 
L 48.37 246.743082 
L 53.358571 244.470239 
L 58.347143 241.881055 
L 63.335714 238.941628 
L 68.324286 235.617577 
L 73.312857 231.875126 
L 78.301429 227.682486 
L 83.29 223.011556 
L 88.278571 217.839911 
L 93.267143 212.153004 
L 98.255714 205.946458 
L 103.244286 199.228263 
L 108.232857 192.020663 
L 113.221429 184.361451 
L 118.21 176.304429 
L 123.198571 167.918822 
L 128.187143 159.287525 
L 133.175714 150.504198 
L 138.164286 141.669402 
L 143.152857 132.886075 
L 148.141429 124.254778 
L 153.13 115.869171 
L 158.118571 107.812149 
L 163.107143 100.152937 
L 168.095714 92.945337 
L 173.084286 86.227142 
L 178.072857 80.020596 
L 183.061429 74.333689 
L 188.05 69.162044 
L 193.038571 64.491114 
L 198.027143 60.298474 
L 203.015714 56.556023 
L 208.004286 53.231972 
L 212.992857 50.292545 
L 217.981429 47.703361 
L 222.97 45.430518 
L 227.958571 43.44138 
L 232.947143 41.70513 
L 237.935714 40.193108 
L 242.924286 38.879001 
L 247.912857 37.738895 
L 252.901429 36.75125 
L 257.89 35.8968 
" style="fill:none;stroke:#ff0000;stroke-linecap:round;"/>
   </g>
   <g id="line2d_3">
    <path clip-path="url(#p938daa1def)" d="M 13.45 256.2768 
L 18.438571 255.42235 
L 23.427143 254.434705 
L 28.415714 253.294599 
L 33.404286 251.980492 
L 38.392857 250.46847 
L 43.381429 248.73222 
L 48.37 246.743082 
L 53.358571 244.470239 
L 58.347143 241.881055 
L 63.335714 238.941628 
L 68.324286 235.617577 
L 73.312857 231.875126 
L 78.301429 227.682486 
L 83.29 223.011556 
L 88.278571 217.839911 
L 93.267143 212.153004 
L 98.255714 205.946458 
L 103.244286 199.228263 
L 108.232857 192.020663 
L 113.221429 184.361451 
L 118.21 176.304429 
L 123.198571 167.918822 
L 128.187143 159.287525 
L 133.175714 150.504198 
L 138.164286 141.669402 
L 143.152857 132.886075 
L 148.141429 124.254778 
L 153.13 115.869171 
L 158.118571 107.812149 
L 163.107143 100.152937 
L 168.095714 92.945337 
L 173.084286 86.227142 
L 178.072857 80.020596 
L 183.061429 74.333689 
L 188.05 69.162044 
L 193.038571 64.491114 
L 198.027143 60.298474 
L 203.015714 56.556023 
L 208.004286 53.231972 
L 212.992857 50.292545 
L 217.981429 47.703361 
L 222.97 45.430518 
L 227.958571 43.44138 
L 232.947143 41.70513 
L 237.935714 40.193108 
L 242.924286 38.879001 
L 247.912857 37.738895 
L 252.901429 36.75125 
L 257.89 35.8968 
" style="fill:none;stroke:#008000;stroke-linecap:round;"/>
   </g>
   <g id="line2d_4">
    <path clip-path="url(#p938daa1def)" d="M 13.45 256.2768 
L 18.438571 255.42235 
L 23.427143 254.434705 
L 28.415714 253.294599 
L 33.404286 251.980492 
L 38.392857 250.46847 
L 43.381429 248.73222 
L 48.37 246.743082 
L 53.358571 244.470239 
L 58.347143 241.881055 
L 63.335714 238.941628 
L 68.324286 235.617577 
L 73.312857 231.875126 
L 78.301429 227.682486 
L 83.29 223.011556 
L 88.278571 217.839911 
L 93.267143 212.153004 
L 98.255714 205.946458 
L 103.244286 199.228263 
L 108.232857 192.020663 
L 113.221429 184.361451 
L 118.21 176.304429 
L 123.198571 167.918822 
L 128.187143 159.287525 
L 133.175714 150.504198 
L 138.164286 141.669402 
L 143.152857 132.886075 
L 148.141429 124.254778 
L 153.13 115.869171 
L 158.118571 107.812149 
L 163.107143 100.152937 
L 168.095714 92.945337 
L 173.084286 86.227142 
L 178.072857 80.020596 
L 183.061429 74.333689 
L 188.05 69.162044 
L 193.038571 64.491114 
L 198.027143 60.298474 
L 203.015714 56.556023 
L 208.004286 53.231972 
L 212.992857 50.292545 
L 217.981429 47.703361 
L 222.97 45.430518 
L 227.958571 43.44138 
L 232.947143 41.70513 
L 237.935714 40.193108 
L 242.924286 38.879001 
L 247.912857 37.738895 
L 252.901429 36.75125 
L 257.89 35.8968 
" style="fill:none;stroke:#0000ff;stroke-linecap:round;"/>
   </g>
   <g id="patch_3">
    <path d="M 13.45 256.2768 
L 13.45 35.8968 
" style="fill:none;stroke:#333333;stroke-linecap:square;stroke-linejoin:miter;"/>
   </g>
   <g id="patch_4">
    <path d="M 257.89 256.2768 
L 257.89 35.8968 
" style="fill:none;stroke:#333333;stroke-linecap:square;stroke-linejoin:miter;"/>
   </g>
   <g id="patch_5">
    <path d="M 13.45 256.2768 
L 257.89 256.2768 
" style="fill:none;stroke:#333333;stroke-linecap:square;stroke-linejoin:miter;"/>
   </g>
   <g id="patch_6">
    <path d="M 13.45 35.8968 
L 257.89 35.8968 
" style="fill:none;stroke:#333333;stroke-linecap:square;stroke-linejoin:miter;"/>
   </g>
   <g id="text_1">
    <!-- Contrast -->
    <defs>
     <path d="M 38.671875 62.203125 
Q 32.8125 62.203125 28.296875 60.25 
Q 23.78125 58.296875 20.71875 54.6875 
Q 17.671875 51.078125 16.109375 46 
Q 14.546875 40.921875 14.546875 34.71875 
Q 14.546875 28.515625 16.234375 23.359375 
Q 17.921875 18.21875 21.0625 14.5 
Q 24.21875 10.796875 28.78125 8.734375 
Q 33.34375 6.6875 39.0625 6.6875 
Q 43.0625 6.6875 46.359375 7.734375 
Q 49.65625 8.796875 52.3125 10.6875 
Q 54.984375 12.59375 57.078125 15.203125 
Q 59.1875 17.828125 60.796875 21 
L 68.40625 17.1875 
Q 66.546875 13.328125 63.8125 10 
Q 61.078125 6.6875 57.390625 4.25 
Q 53.71875 1.8125 49.046875 0.40625 
Q 44.390625 -0.984375 38.625 -0.984375 
Q 30.28125 -0.984375 24 1.671875 
Q 17.71875 4.34375 13.5 9.109375 
Q 9.28125 13.875 7.171875 20.40625 
Q 5.078125 26.953125 5.078125 34.71875 
Q 5.078125 42.78125 7.296875 49.265625 
Q 9.515625 55.765625 13.78125 60.328125 
Q 18.0625 64.890625 24.3125 67.359375 
Q 30.5625 69.828125 38.578125 69.828125 
Q 49.5625 69.828125 56.9375 65.53125 
Q 64.3125 61.234375 67.78125 52.78125 
L 58.9375 49.859375 
Q 57.953125 52.296875 56.296875 54.515625 
Q 54.640625 56.734375 52.140625 58.4375 
Q 49.65625 60.15625 46.3125 61.171875 
Q 42.96875 62.203125 38.671875 62.203125 
z
" id="LiberationSans-43"/>
     <path d="M 51.421875 26.46875 
Q 51.421875 12.59375 45.3125 5.796875 
Q 39.203125 -0.984375 27.59375 -0.984375 
Q 22.078125 -0.984375 17.71875 0.671875 
Q 13.375 2.34375 10.375 5.765625 
Q 7.375 9.1875 5.78125 14.328125 
Q 4.203125 19.484375 4.203125 26.46875 
Q 4.203125 53.8125 27.875 53.8125 
Q 34.03125 53.8125 38.5 52.09375 
Q 42.96875 50.390625 45.828125 46.96875 
Q 48.6875 43.5625 50.046875 38.421875 
Q 51.421875 33.296875 51.421875 26.46875 
z
M 42.1875 26.46875 
Q 42.1875 32.625 41.234375 36.625 
Q 40.28125 40.625 38.453125 43.015625 
Q 36.625 45.40625 33.984375 46.359375 
Q 31.34375 47.3125 28.03125 47.3125 
Q 24.65625 47.3125 21.9375 46.3125 
Q 19.234375 45.3125 17.328125 42.890625 
Q 15.4375 40.484375 14.421875 36.46875 
Q 13.421875 32.46875 13.421875 26.46875 
Q 13.421875 20.3125 14.5 16.28125 
Q 15.578125 12.25 17.453125 9.859375 
Q 19.34375 7.46875 21.90625 6.484375 
Q 24.46875 5.515625 27.484375 5.515625 
Q 30.859375 5.515625 33.59375 6.46875 
Q 36.328125 7.421875 38.234375 9.8125 
Q 40.140625 12.203125 41.15625 16.25 
Q 42.1875 20.3125 42.1875 26.46875 
z
" id="LiberationSans-6f"/>
     <path d="M 40.28125 0 
L 40.28125 33.5 
Q 40.28125 37.359375 39.71875 39.9375 
Q 39.15625 42.53125 37.890625 44.109375 
Q 36.625 45.703125 34.546875 46.359375 
Q 32.46875 47.015625 29.390625 47.015625 
Q 26.265625 47.015625 23.75 45.921875 
Q 21.234375 44.828125 19.453125 42.75 
Q 17.671875 40.671875 16.6875 37.625 
Q 15.71875 34.578125 15.71875 30.609375 
L 15.71875 0 
L 6.9375 0 
L 6.9375 41.546875 
Q 6.9375 43.21875 6.90625 45.046875 
Q 6.890625 46.875 6.828125 48.5 
Q 6.78125 50.140625 6.734375 51.3125 
Q 6.6875 52.484375 6.640625 52.828125 
L 14.9375 52.828125 
Q 14.984375 52.59375 15.03125 51.515625 
Q 15.09375 50.4375 15.15625 49.046875 
Q 15.234375 47.65625 15.28125 46.21875 
Q 15.328125 44.78125 15.328125 43.796875 
L 15.484375 43.796875 
Q 16.75 46.09375 18.265625 47.953125 
Q 19.78125 49.8125 21.78125 51.09375 
Q 23.78125 52.390625 26.359375 53.09375 
Q 28.953125 53.8125 32.375 53.8125 
Q 36.765625 53.8125 39.9375 52.734375 
Q 43.109375 51.65625 45.15625 49.40625 
Q 47.21875 47.171875 48.171875 43.625 
Q 49.125 40.09375 49.125 35.203125 
L 49.125 0 
z
" id="LiberationSans-6e"/>
     <path d="M 27.046875 0.390625 
Q 25.046875 -0.140625 22.96875 -0.453125 
Q 20.90625 -0.78125 18.171875 -0.78125 
Q 7.625 -0.78125 7.625 11.1875 
L 7.625 46.4375 
L 1.515625 46.4375 
L 1.515625 52.828125 
L 7.953125 52.828125 
L 10.546875 64.65625 
L 16.40625 64.65625 
L 16.40625 52.828125 
L 26.171875 52.828125 
L 26.171875 46.4375 
L 16.40625 46.4375 
L 16.40625 13.09375 
Q 16.40625 9.28125 17.640625 7.734375 
Q 18.890625 6.203125 21.96875 6.203125 
Q 23.25 6.203125 24.4375 6.390625 
Q 25.640625 6.59375 27.046875 6.890625 
z
" id="LiberationSans-74"/>
     <path d="M 6.9375 0 
L 6.9375 40.53125 
Q 6.9375 42.1875 6.90625 43.921875 
Q 6.890625 45.65625 6.828125 47.265625 
Q 6.78125 48.875 6.734375 50.28125 
Q 6.6875 51.703125 6.640625 52.828125 
L 14.9375 52.828125 
Q 14.984375 51.703125 15.0625 50.265625 
Q 15.140625 48.828125 15.203125 47.3125 
Q 15.28125 45.796875 15.296875 44.40625 
Q 15.328125 43.015625 15.328125 42.046875 
L 15.53125 42.046875 
Q 16.453125 45.0625 17.5 47.28125 
Q 18.5625 49.515625 19.96875 50.953125 
Q 21.390625 52.390625 23.34375 53.09375 
Q 25.296875 53.8125 28.078125 53.8125 
Q 29.15625 53.8125 30.125 53.640625 
Q 31.109375 53.46875 31.640625 53.328125 
L 31.640625 45.265625 
Q 30.765625 45.515625 29.59375 45.625 
Q 28.421875 45.75 26.953125 45.75 
Q 23.921875 45.75 21.796875 44.375 
Q 19.671875 43.015625 18.328125 40.59375 
Q 17 38.1875 16.359375 34.84375 
Q 15.71875 31.5 15.71875 27.546875 
L 15.71875 0 
z
" id="LiberationSans-72"/>
     <path d="M 20.21875 -0.984375 
Q 12.25 -0.984375 8.25 3.21875 
Q 4.25 7.421875 4.25 14.75 
Q 4.25 19.96875 6.21875 23.3125 
Q 8.203125 26.65625 11.390625 28.5625 
Q 14.59375 30.46875 18.6875 31.203125 
Q 22.796875 31.9375 27.046875 32.03125 
L 38.921875 32.234375 
L 38.921875 35.109375 
Q 38.921875 38.375 38.234375 40.671875 
Q 37.546875 42.96875 36.125 44.375 
Q 34.71875 45.796875 32.59375 46.453125 
Q 30.46875 47.125 27.59375 47.125 
Q 25.046875 47.125 23 46.75 
Q 20.953125 46.390625 19.4375 45.4375 
Q 17.921875 44.484375 16.984375 42.84375 
Q 16.0625 41.21875 15.765625 38.71875 
L 6.59375 39.546875 
Q 7.078125 42.671875 8.4375 45.28125 
Q 9.8125 47.90625 12.328125 49.796875 
Q 14.84375 51.703125 18.625 52.75 
Q 22.40625 53.8125 27.78125 53.8125 
Q 37.75 53.8125 42.765625 49.234375 
Q 47.796875 44.671875 47.796875 36.03125 
L 47.796875 13.28125 
Q 47.796875 9.375 48.828125 7.390625 
Q 49.859375 5.421875 52.734375 5.421875 
Q 53.46875 5.421875 54.203125 5.515625 
Q 54.9375 5.609375 55.609375 5.765625 
L 55.609375 0.296875 
Q 53.953125 -0.09375 52.3125 -0.28125 
Q 50.6875 -0.484375 48.828125 -0.484375 
Q 46.34375 -0.484375 44.5625 0.171875 
Q 42.78125 0.828125 41.65625 2.171875 
Q 40.53125 3.515625 39.9375 5.484375 
Q 39.359375 7.46875 39.203125 10.109375 
L 38.921875 10.109375 
Q 37.5 7.5625 35.8125 5.515625 
Q 34.125 3.46875 31.875 2.03125 
Q 29.640625 0.59375 26.78125 -0.1875 
Q 23.921875 -0.984375 20.21875 -0.984375 
z
M 22.21875 5.609375 
Q 26.421875 5.609375 29.5625 7.140625 
Q 32.71875 8.6875 34.78125 11.078125 
Q 36.859375 13.484375 37.890625 16.3125 
Q 38.921875 19.140625 38.921875 21.734375 
L 38.921875 26.078125 
L 29.296875 25.875 
Q 26.078125 25.828125 23.171875 25.40625 
Q 20.265625 25 18.0625 23.78125 
Q 15.875 22.5625 14.578125 20.359375 
Q 13.28125 18.171875 13.28125 14.59375 
Q 13.28125 10.296875 15.59375 7.953125 
Q 17.921875 5.609375 22.21875 5.609375 
z
" id="LiberationSans-61"/>
     <path d="M 46.390625 14.59375 
Q 46.390625 10.890625 44.9375 7.984375 
Q 43.5 5.078125 40.765625 3.09375 
Q 38.03125 1.125 34.046875 0.0625 
Q 30.078125 -0.984375 24.953125 -0.984375 
Q 20.359375 -0.984375 16.671875 -0.265625 
Q 12.984375 0.4375 10.203125 2 
Q 7.421875 3.5625 5.53125 6.125 
Q 3.65625 8.6875 2.78125 12.40625 
L 10.546875 13.921875 
Q 11.671875 9.671875 15.1875 7.6875 
Q 18.703125 5.71875 24.953125 5.71875 
Q 27.78125 5.71875 30.140625 6.109375 
Q 32.515625 6.5 34.21875 7.453125 
Q 35.9375 8.40625 36.890625 9.984375 
Q 37.84375 11.578125 37.84375 13.921875 
Q 37.84375 16.3125 36.71875 17.84375 
Q 35.59375 19.390625 33.59375 20.40625 
Q 31.59375 21.4375 28.734375 22.1875 
Q 25.875 22.953125 22.46875 23.875 
Q 19.28125 24.703125 16.15625 25.734375 
Q 13.03125 26.765625 10.515625 28.4375 
Q 8.015625 30.125 6.453125 32.609375 
Q 4.890625 35.109375 4.890625 38.875 
Q 4.890625 46.09375 10.03125 49.875 
Q 15.1875 53.65625 25.046875 53.65625 
Q 33.796875 53.65625 38.9375 50.578125 
Q 44.09375 47.515625 45.453125 40.71875 
L 37.546875 39.75 
Q 37.109375 41.796875 35.9375 43.1875 
Q 34.765625 44.578125 33.109375 45.4375 
Q 31.453125 46.296875 29.375 46.65625 
Q 27.296875 47.015625 25.046875 47.015625 
Q 19.09375 47.015625 16.25 45.203125 
Q 13.421875 43.40625 13.421875 39.75 
Q 13.421875 37.59375 14.46875 36.203125 
Q 15.53125 34.8125 17.40625 33.859375 
Q 19.28125 32.90625 21.921875 32.203125 
Q 24.5625 31.5 27.734375 30.71875 
Q 29.828125 30.171875 32.03125 29.5625 
Q 34.234375 28.953125 36.296875 28.09375 
Q 38.375 27.25 40.203125 26.09375 
Q 42.046875 24.953125 43.40625 23.34375 
Q 44.78125 21.734375 45.578125 19.578125 
Q 46.390625 17.4375 46.390625 14.59375 
z
" id="LiberationSans-73"/>
    </defs>
    <g style="fill:#111111;" transform="translate(92.1352 23.8968)scale(0.2304 -0.2304)">
     <use xlink:href="#LiberationSans-43"/>
     <use x="72.216797" xlink:href="#LiberationSans-6f"/>
     <use x="127.832031" xlink:href="#LiberationSans-6e"/>
     <use x="183.447266" xlink:href="#LiberationSans-74"/>
     <use x="211.230469" xlink:href="#LiberationSans-72"/>
     <use x="244.53125" xlink:href="#LiberationSans-61"/>
     <use x="300.146484" xlink:href="#LiberationSans-73"/>
     <use x="350.146484" xlink:href="#LiberationSans-74"/>
    </g>
   </g>
  </g>
 </g>
 <defs>
  <clipPath id="p938daa1def">
   <rect height="220.38" width="244.44" x="13.45" y="35.8968"/>
  </clipPath>
 </defs>
</svg>
