<?xml version="1.0" encoding="utf-8" standalone="no"?>
<!DOCTYPE svg PUBLIC "-//W3C//DTD SVG 1.1//EN"
  "http://www.w3.org/Graphics/SVG/1.1/DTD/svg11.dtd">
<!-- Created with matplotlib (http://matplotlib.org/) -->
<svg height="269.7268pt" version="1.1" viewBox="0 0 271.34 269.7268" width="271.34pt" xmlns="http://www.w3.org/2000/svg" xmlns:xlink="http://www.w3.org/1999/xlink">
 <defs>
  <style type="text/css">
*{stroke-linecap:butt;stroke-linejoin:round;}
  </style>
 </defs>
 <g id="figure_1">
  <g id="patch_1">
   <path d="M 0 269.7268 
L 271.34 269.7268 
L 271.34 0 
L 0 0 
z
" style="fill:none;opacity:0;"/>
  </g>
  <g id="axes_1">
   <g id="patch_2">
    <path d="M 13.45 256.2768 
L 257.89 256.2768 
L 257.89 35.8968 
L 13.45 35.8968 
z
" style="fill:#f5f5f5;"/>
   </g>
   <g id="line2d_1">
    <path clip-path="url(#p536d121e82)" d="M 13.45 256.2768 
L 18.438571 251.779249 
L 23.427143 247.281698 
L 28.415714 242.784147 
L 33.404286 238.286596 
L 38.392857 233.789045 
L 43.381429 229.291494 
L 48.37 224.793943 
L 53.358571 220.296392 
L 58.347143 215.798841 
L 63.335714 211.30129 
L 68.324286 206.803739 
L 73.312857 202.306188 
L 78.301429 197.808637 
L 83.29 193.311086 
L 88.278571 188.813535 
L 93.267143 184.315984 
L 98.255714 179.818433 
L 103.244286 175.320882 
L 108.232857 170.823331 
L 113.221429 166.32578 
L 118.21 161.828229 
L 123.198571 157.330678 
L 128.187143 152.833127 
L 133.175714 148.335576 
L 138.164286 143.838024 
L 143.152857 139.340473 
L 148.141429 134.842922 
L 153.13 130.345371 
L 158.118571 125.84782 
L 163.107143 121.350269 
L 168.095714 116.852718 
L 173.084286 112.355167 
L 178.072857 107.857616 
L 183.061429 103.360065 
L 188.05 98.862514 
L 193.038571 94.364963 
L 198.027143 89.867412 
L 203.015714 85.369861 
L 208.004286 80.87231 
L 212.992857 76.374759 
L 217.981429 71.877208 
L 222.97 67.379657 
L 227.958571 62.882106 
L 232.947143 58.384555 
L 237.935714 53.887004 
L 242.924286 49.389453 
L 247.912857 44.891902 
L 252.901429 40.394351 
L 257.89 35.8968 
" style="fill:none;stroke:#000000;stroke-dasharray:3.7,1.6;stroke-dashoffset:0;"/>
   </g>
   <g id="line2d_2">
    <path clip-path="url(#p536d121e82)" d="M 13.45 256.2768 
L 18.438571 234.943672 
L 23.427143 223.941825 
L 28.415714 215.035981 
L 33.404286 207.266143 
L 38.392857 200.244747 
L 43.381429 193.767407 
L 48.37 187.710083 
L 53.358571 181.990535 
L 58.347143 176.550789 
L 63.335714 171.348089 
L 68.324286 166.349792 
L 73.312857 161.530278 
L 78.301429 156.868982 
L 83.29 152.349091 
L 88.278571 147.956642 
L 93.267143 143.679878 
L 98.255714 139.508789 
L 103.244286 135.434764 
L 108.232857 131.450329 
L 113.221429 127.548946 
L 118.21 123.724854 
L 123.198571 119.972945 
L 128.187143 116.288663 
L 133.175714 112.667926 
L 138.164286 109.107055 
L 143.152857 105.602723 
L 148.141429 102.151907 
L 153.13 98.75185 
L 158.118571 95.400033 
L 163.107143 92.094142 
L 168.095714 88.832046 
L 173.084286 85.611779 
L 178.072857 82.431524 
L 183.061429 79.289591 
L 188.05 76.184412 
L 193.038571 73.114524 
L 198.027143 70.078563 
L 203.015714 67.075251 
L 208.004286 64.103391 
L 212.992857 61.16186 
L 217.981429 58.249601 
L 222.97 55.36562 
L 227.958571 52.508978 
L 232.947143 49.678789 
L 237.935714 46.874215 
L 242.924286 44.094462 
L 247.912857 41.338779 
L 252.901429 38.606451 
L 257.89 35.8968 
" style="fill:none;stroke:#ff0000;stroke-linecap:round;"/>
   </g>
   <g id="line2d_3">
    <path clip-path="url(#p536d121e82)" d="M 13.45 256.2768 
L 18.438571 234.943672 
L 23.427143 223.941825 
L 28.415714 215.035981 
L 33.404286 207.266143 
L 38.392857 200.244747 
L 43.381429 193.767407 
L 48.37 187.710083 
L 53.358571 181.990535 
L 58.347143 176.550789 
L 63.335714 171.348089 
L 68.324286 166.349792 
L 73.312857 161.530278 
L 78.301429 156.868982 
L 83.29 152.349091 
L 88.278571 147.956642 
L 93.267143 143.679878 
L 98.255714 139.508789 
L 103.244286 135.434764 
L 108.232857 131.450329 
L 113.221429 127.548946 
L 118.21 123.724854 
L 123.198571 119.972945 
L 128.187143 116.288663 
L 133.175714 112.667926 
L 138.164286 109.107055 
L 143.152857 105.602723 
L 148.141429 102.151907 
L 153.13 98.75185 
L 158.118571 95.400033 
L 163.107143 92.094142 
L 168.095714 88.832046 
L 173.084286 85.611779 
L 178.072857 82.431524 
L 183.061429 79.289591 
L 188.05 76.184412 
L 193.038571 73.114524 
L 198.027143 70.078563 
L 203.015714 67.075251 
L 208.004286 64.103391 
L 212.992857 61.16186 
L 217.981429 58.249601 
L 222.97 55.36562 
L 227.958571 52.508978 
L 232.947143 49.678789 
L 237.935714 46.874215 
L 242.924286 44.094462 
L 247.912857 41.338779 
L 252.901429 38.606451 
L 257.89 35.8968 
" style="fill:none;stroke:#008000;stroke-linecap:round;"/>
   </g>
   <g id="line2d_4">
    <path clip-path="url(#p536d121e82)" d="M 13.45 256.2768 
L 18.438571 234.943672 
L 23.427143 223.941825 
L 28.415714 215.035981 
L 33.404286 207.266143 
L 38.392857 200.244747 
L 43.381429 193.767407 
L 48.37 187.710083 
L 53.358571 181.990535 
L 58.347143 176.550789 
L 63.335714 171.348089 
L 68.324286 166.349792 
L 73.312857 161.530278 
L 78.301429 156.868982 
L 83.29 152.349091 
L 88.278571 147.956642 
L 93.267143 143.679878 
L 98.255714 139.508789 
L 103.244286 135.434764 
L 108.232857 131.450329 
L 113.221429 127.548946 
L 118.21 123.724854 
L 123.198571 119.972945 
L 128.187143 116.288663 
L 133.175714 112.667926 
L 138.164286 109.107055 
L 143.152857 105.602723 
L 148.141429 102.151907 
L 153.13 98.75185 
L 158.118571 95.400033 
L 163.107143 92.094142 
L 168.095714 88.832046 
L 173.084286 85.611779 
L 178.072857 82.431524 
L 183.061429 79.289591 
L 188.05 76.184412 
L 193.038571 73.114524 
L 198.027143 70.078563 
L 203.015714 67.075251 
L 208.004286 64.103391 
L 212.992857 61.16186 
L 217.981429 58.249601 
L 222.97 55.36562 
L 227.958571 52.508978 
L 232.947143 49.678789 
L 237.935714 46.874215 
L 242.924286 44.094462 
L 247.912857 41.338779 
L 252.901429 38.606451 
L 257.89 35.8968 
" style="fill:none;stroke:#0000ff;stroke-linecap:round;"/>
   </g>
   <g id="patch_3">
    <path d="M 13.45 256.2768 
L 13.45 35.8968 
" style="fill:none;stroke:#333333;stroke-linecap:square;stroke-linejoin:miter;"/>
   </g>
   <g id="patch_4">
    <path d="M 257.89 256.2768 
L 257.89 35.8968 
" style="fill:none;stroke:#333333;stroke-linecap:square;stroke-linejoin:miter;"/>
   </g>
   <g id="patch_5">
    <path d="M 13.45 256.2768 
L 257.89 256.2768 
" style="fill:none;stroke:#333333;stroke-linecap:square;stroke-linejoin:miter;"/>
   </g>
   <g id="patch_6">
    <path d="M 13.45 35.8968 
L 257.89 35.8968 
" style="fill:none;stroke:#333333;stroke-linecap:square;stroke-linejoin:miter;"/>
   </g>
   <g id="text_1">
    <!-- Gamma -->
    <defs>
     <path d="M 5.03125 34.71875 
Q 5.03125 42.78125 7.203125 49.265625 
Q 9.375 55.765625 13.6875 60.328125 
Q 18.015625 64.890625 24.40625 67.359375 
Q 30.8125 69.828125 39.265625 69.828125 
Q 45.609375 69.828125 50.390625 68.703125 
Q 55.171875 67.578125 58.6875 65.46875 
Q 62.203125 63.375 64.640625 60.375 
Q 67.09375 57.375 68.796875 53.609375 
L 59.90625 50.984375 
Q 58.640625 53.515625 56.859375 55.59375 
Q 55.078125 57.671875 52.53125 59.125 
Q 50 60.59375 46.65625 61.390625 
Q 43.3125 62.203125 39.015625 62.203125 
Q 32.765625 62.203125 28.140625 60.25 
Q 23.53125 58.296875 20.5 54.6875 
Q 17.484375 51.078125 15.984375 46 
Q 14.5 40.921875 14.5 34.71875 
Q 14.5 28.515625 16.109375 23.359375 
Q 17.71875 18.21875 20.890625 14.484375 
Q 24.078125 10.75 28.78125 8.671875 
Q 33.5 6.59375 39.703125 6.59375 
Q 43.75 6.59375 47.171875 7.265625 
Q 50.59375 7.953125 53.34375 9.046875 
Q 56.109375 10.15625 58.203125 11.5 
Q 60.296875 12.84375 61.71875 14.203125 
L 61.71875 26.609375 
L 41.15625 26.609375 
L 41.15625 34.421875 
L 70.3125 34.421875 
L 70.3125 10.6875 
Q 68.015625 8.34375 64.90625 6.21875 
Q 61.8125 4.109375 57.953125 2.484375 
Q 54.109375 0.875 49.515625 -0.046875 
Q 44.921875 -0.984375 39.703125 -0.984375 
Q 31 -0.984375 24.5 1.671875 
Q 18.015625 4.34375 13.6875 9.109375 
Q 9.375 13.875 7.203125 20.40625 
Q 5.03125 26.953125 5.03125 34.71875 
z
" id="LiberationSans-47"/>
     <path d="M 20.21875 -0.984375 
Q 12.25 -0.984375 8.25 3.21875 
Q 4.25 7.421875 4.25 14.75 
Q 4.25 19.96875 6.21875 23.3125 
Q 8.203125 26.65625 11.390625 28.5625 
Q 14.59375 30.46875 18.6875 31.203125 
Q 22.796875 31.9375 27.046875 32.03125 
L 38.921875 32.234375 
L 38.921875 35.109375 
Q 38.921875 38.375 38.234375 40.671875 
Q 37.546875 42.96875 36.125 44.375 
Q 34.71875 45.796875 32.59375 46.453125 
Q 30.46875 47.125 27.59375 47.125 
Q 25.046875 47.125 23 46.75 
Q 20.953125 46.390625 19.4375 45.4375 
Q 17.921875 44.484375 16.984375 42.84375 
Q 16.0625 41.21875 15.765625 38.71875 
L 6.59375 39.546875 
Q 7.078125 42.671875 8.4375 45.28125 
Q 9.8125 47.90625 12.328125 49.796875 
Q 14.84375 51.703125 18.625 52.75 
Q 22.40625 53.8125 27.78125 53.8125 
Q 37.75 53.8125 42.765625 49.234375 
Q 47.796875 44.671875 47.796875 36.03125 
L 47.796875 13.28125 
Q 47.796875 9.375 48.828125 7.390625 
Q 49.859375 5.421875 52.734375 5.421875 
Q 53.46875 5.421875 54.203125 5.515625 
Q 54.9375 5.609375 55.609375 5.765625 
L 55.609375 0.296875 
Q 53.953125 -0.09375 52.3125 -0.28125 
Q 50.6875 -0.484375 48.828125 -0.484375 
Q 46.34375 -0.484375 44.5625 0.171875 
Q 42.78125 0.828125 41.65625 2.171875 
Q 40.53125 3.515625 39.9375 5.484375 
Q 39.359375 7.46875 39.203125 10.109375 
L 38.921875 10.109375 
Q 37.5 7.5625 35.8125 5.515625 
Q 34.125 3.46875 31.875 2.03125 
Q 29.640625 0.59375 26.78125 -0.1875 
Q 23.921875 -0.984375 20.21875 -0.984375 
z
M 22.21875 5.609375 
Q 26.421875 5.609375 29.5625 7.140625 
Q 32.71875 8.6875 34.78125 11.078125 
Q 36.859375 13.484375 37.890625 16.3125 
Q 38.921875 19.140625 38.921875 21.734375 
L 38.921875 26.078125 
L 29.296875 25.875 
Q 26.078125 25.828125 23.171875 25.40625 
Q 20.265625 25 18.0625 23.78125 
Q 15.875 22.5625 14.578125 20.359375 
Q 13.28125 18.171875 13.28125 14.59375 
Q 13.28125 10.296875 15.59375 7.953125 
Q 17.921875 5.609375 22.21875 5.609375 
z
" id="LiberationSans-61"/>
     <path d="M 37.5 0 
L 37.5 33.5 
Q 37.5 37.359375 37.015625 39.9375 
Q 36.53125 42.53125 35.375 44.109375 
Q 34.234375 45.703125 32.375 46.359375 
Q 30.515625 47.015625 27.828125 47.015625 
Q 25.046875 47.015625 22.796875 45.921875 
Q 20.5625 44.828125 18.96875 42.75 
Q 17.390625 40.671875 16.53125 37.625 
Q 15.671875 34.578125 15.671875 30.609375 
L 15.671875 0 
L 6.9375 0 
L 6.9375 41.546875 
Q 6.9375 43.21875 6.90625 45.046875 
Q 6.890625 46.875 6.828125 48.5 
Q 6.78125 50.140625 6.734375 51.3125 
Q 6.6875 52.484375 6.640625 52.828125 
L 14.9375 52.828125 
Q 14.984375 52.59375 15.03125 51.515625 
Q 15.09375 50.4375 15.15625 49.046875 
Q 15.234375 47.65625 15.28125 46.21875 
Q 15.328125 44.78125 15.328125 43.796875 
L 15.484375 43.796875 
Q 16.65625 46.09375 18.015625 47.953125 
Q 19.390625 49.8125 21.21875 51.09375 
Q 23.046875 52.390625 25.40625 53.09375 
Q 27.78125 53.8125 30.90625 53.8125 
Q 36.921875 53.8125 40.40625 51.421875 
Q 43.890625 49.03125 45.265625 43.796875 
L 45.40625 43.796875 
Q 46.578125 46.09375 48.046875 47.953125 
Q 49.515625 49.8125 51.46875 51.09375 
Q 53.421875 52.390625 55.859375 53.09375 
Q 58.296875 53.8125 61.421875 53.8125 
Q 65.4375 53.8125 68.328125 52.734375 
Q 71.234375 51.65625 73.09375 49.40625 
Q 74.953125 47.171875 75.828125 43.625 
Q 76.703125 40.09375 76.703125 35.203125 
L 76.703125 0 
L 68.015625 0 
L 68.015625 33.5 
Q 68.015625 37.359375 67.53125 39.9375 
Q 67.046875 42.53125 65.890625 44.109375 
Q 64.75 45.703125 62.890625 46.359375 
Q 61.03125 47.015625 58.34375 47.015625 
Q 55.5625 47.015625 53.3125 45.96875 
Q 51.078125 44.921875 49.484375 42.875 
Q 47.90625 40.828125 47.046875 37.75 
Q 46.1875 34.671875 46.1875 30.609375 
L 46.1875 0 
z
" id="LiberationSans-6d"/>
    </defs>
    <g style="fill:#111111;" transform="translate(94.7056 23.8968)scale(0.2304 -0.2304)">
     <use xlink:href="#LiberationSans-47"/>
     <use x="77.783203" xlink:href="#LiberationSans-61"/>
     <use x="133.398438" xlink:href="#LiberationSans-6d"/>
     <use x="216.699219" xlink:href="#LiberationSans-6d"/>
     <use x="300" xlink:href="#LiberationSans-61"/>
    </g>
   </g>
  </g>
 </g>
 <defs>
  <clipPath id="p536d121e82">
   <rect height="220.38" width="244.44" x="13.45" y="35.8968"/>
  </clipPath>
 </defs>
</svg>
