<?xml version="1.0" encoding="utf-8" standalone="no"?>
<!DOCTYPE svg PUBLIC "-//W3C//DTD SVG 1.1//EN"
  "http://www.w3.org/Graphics/SVG/1.1/DTD/svg11.dtd">
<!-- Created with matplotlib (http://matplotlib.org/) -->
<svg height="754.3958pt" version="1.1" viewBox="0 0 1363.088 754.3958" width="1363.088pt" xmlns="http://www.w3.org/2000/svg" xmlns:xlink="http://www.w3.org/1999/xlink">
 <defs>
  <style type="text/css">
*{stroke-linecap:butt;stroke-linejoin:round;}
  </style>
 </defs>
 <g id="figure_1">
  <g id="patch_1">
   <path d="M 0 754.3958 
L 1363.088 754.3958 
L 1363.088 0 
L 0 0 
z
" style="fill:none;opacity:0;"/>
  </g>
  <g id="axes_1">
   <g id="patch_2">
    <path d="M 64.588 696.4068 
L 1349.638 696.4068 
L 1349.638 35.8968 
L 64.588 35.8968 
z
" style="fill:#f5f5f5;"/>
   </g>
   <g id="matplotlib.axis_1">
    <g id="xtick_1">
     <g id="line2d_1">
      <path clip-path="url(#p9fbed45585)" d="M 173.953957 696.4068 
L 173.953957 35.8968 
" style="fill:none;stroke:#d5d5d5;stroke-dasharray:1.85,0.8;stroke-dashoffset:0;stroke-width:0.5;"/>
     </g>
     <g id="line2d_2">
      <defs>
       <path d="M 0 0 
L 0 6.25 
" id="m8183f190ed" style="stroke:#262626;"/>
      </defs>
      <g>
       <use style="fill:#262626;stroke:#262626;" x="173.953957" xlink:href="#m8183f190ed" y="696.4068"/>
      </g>
     </g>
     <g id="text_1">
      <!-- 400 -->
      <defs>
       <path d="M 43.015625 15.578125 
L 43.015625 0 
L 34.71875 0 
L 34.71875 15.578125 
L 2.296875 15.578125 
L 2.296875 22.40625 
L 33.796875 68.796875 
L 43.015625 68.796875 
L 43.015625 22.515625 
L 52.6875 22.515625 
L 52.6875 15.578125 
z
M 34.71875 58.890625 
Q 34.625 58.640625 34.234375 57.9375 
Q 33.84375 57.234375 33.34375 56.34375 
Q 32.859375 55.46875 32.34375 54.5625 
Q 31.84375 53.65625 31.453125 53.078125 
L 13.8125 27.09375 
Q 13.578125 26.703125 13.109375 26.0625 
Q 12.640625 25.4375 12.15625 24.78125 
Q 11.671875 24.125 11.171875 23.484375 
Q 10.6875 22.859375 10.40625 22.515625 
L 34.71875 22.515625 
z
" id="LiberationSans-34"/>
       <path d="M 51.703125 34.421875 
Q 51.703125 24.515625 49.828125 17.75 
Q 47.953125 10.984375 44.703125 6.8125 
Q 41.453125 2.640625 37.0625 0.828125 
Q 32.671875 -0.984375 27.6875 -0.984375 
Q 22.65625 -0.984375 18.3125 0.828125 
Q 13.96875 2.640625 10.765625 6.78125 
Q 7.5625 10.9375 5.734375 17.703125 
Q 3.90625 24.46875 3.90625 34.421875 
Q 3.90625 44.828125 5.734375 51.640625 
Q 7.5625 58.453125 10.78125 62.5 
Q 14.015625 66.546875 18.40625 68.1875 
Q 22.796875 69.828125 27.984375 69.828125 
Q 32.90625 69.828125 37.21875 68.1875 
Q 41.546875 66.546875 44.765625 62.5 
Q 48 58.453125 49.84375 51.640625 
Q 51.703125 44.828125 51.703125 34.421875 
z
M 42.78125 34.421875 
Q 42.78125 42.625 41.796875 48.0625 
Q 40.828125 53.515625 38.921875 56.765625 
Q 37.015625 60.015625 34.25 61.359375 
Q 31.5 62.703125 27.984375 62.703125 
Q 24.265625 62.703125 21.4375 61.328125 
Q 18.609375 59.96875 16.671875 56.71875 
Q 14.75 53.46875 13.765625 48.015625 
Q 12.796875 42.578125 12.796875 34.421875 
Q 12.796875 26.515625 13.796875 21.09375 
Q 14.796875 15.671875 16.71875 12.375 
Q 18.65625 9.078125 21.4375 7.640625 
Q 24.21875 6.203125 27.78125 6.203125 
Q 31.25 6.203125 34.03125 7.640625 
Q 36.8125 9.078125 38.734375 12.375 
Q 40.671875 15.671875 41.71875 21.09375 
Q 42.78125 26.515625 42.78125 34.421875 
z
" id="LiberationSans-30"/>
      </defs>
      <g style="fill:#262626;" transform="translate(160.607707 721.2518)scale(0.16 -0.16)">
       <use xlink:href="#LiberationSans-34"/>
       <use x="55.615234" xlink:href="#LiberationSans-30"/>
       <use x="111.230469" xlink:href="#LiberationSans-30"/>
      </g>
     </g>
    </g>
    <g id="xtick_2">
     <g id="line2d_3">
      <path clip-path="url(#p9fbed45585)" d="M 447.368851 696.4068 
L 447.368851 35.8968 
" style="fill:none;stroke:#d5d5d5;stroke-dasharray:1.85,0.8;stroke-dashoffset:0;stroke-width:0.5;"/>
     </g>
     <g id="line2d_4">
      <g>
       <use style="fill:#262626;stroke:#262626;" x="447.368851" xlink:href="#m8183f190ed" y="696.4068"/>
      </g>
     </g>
     <g id="text_2">
      <!-- 500 -->
      <defs>
       <path d="M 51.421875 22.40625 
Q 51.421875 17.234375 49.859375 12.9375 
Q 48.296875 8.640625 45.21875 5.53125 
Q 42.140625 2.4375 37.578125 0.71875 
Q 33.015625 -0.984375 27 -0.984375 
Q 21.578125 -0.984375 17.546875 0.28125 
Q 13.53125 1.5625 10.734375 3.78125 
Q 7.953125 6 6.3125 8.984375 
Q 4.6875 11.96875 4 15.375 
L 12.890625 16.40625 
Q 13.421875 14.453125 14.390625 12.625 
Q 15.375 10.796875 17.0625 9.34375 
Q 18.75 7.90625 21.21875 7.046875 
Q 23.6875 6.203125 27.203125 6.203125 
Q 30.609375 6.203125 33.390625 7.25 
Q 36.1875 8.296875 38.15625 10.34375 
Q 40.140625 12.40625 41.203125 15.375 
Q 42.28125 18.359375 42.28125 22.21875 
Q 42.28125 25.390625 41.25 28.046875 
Q 40.234375 30.71875 38.328125 32.640625 
Q 36.421875 34.578125 33.65625 35.640625 
Q 30.90625 36.71875 27.390625 36.71875 
Q 25.203125 36.71875 23.34375 36.328125 
Q 21.484375 35.9375 19.890625 35.25 
Q 18.3125 34.578125 17.015625 33.671875 
Q 15.71875 32.765625 14.59375 31.78125 
L 6 31.78125 
L 8.296875 68.796875 
L 47.40625 68.796875 
L 47.40625 61.328125 
L 16.3125 61.328125 
L 14.984375 39.5 
Q 17.328125 41.3125 20.84375 42.59375 
Q 24.359375 43.890625 29.203125 43.890625 
Q 34.328125 43.890625 38.421875 42.328125 
Q 42.53125 40.765625 45.40625 37.90625 
Q 48.296875 35.0625 49.859375 31.109375 
Q 51.421875 27.15625 51.421875 22.40625 
z
" id="LiberationSans-35"/>
      </defs>
      <g style="fill:#262626;" transform="translate(434.022601 721.2518)scale(0.16 -0.16)">
       <use xlink:href="#LiberationSans-35"/>
       <use x="55.615234" xlink:href="#LiberationSans-30"/>
       <use x="111.230469" xlink:href="#LiberationSans-30"/>
      </g>
     </g>
    </g>
    <g id="xtick_3">
     <g id="line2d_5">
      <path clip-path="url(#p9fbed45585)" d="M 720.783745 696.4068 
L 720.783745 35.8968 
" style="fill:none;stroke:#d5d5d5;stroke-dasharray:1.85,0.8;stroke-dashoffset:0;stroke-width:0.5;"/>
     </g>
     <g id="line2d_6">
      <g>
       <use style="fill:#262626;stroke:#262626;" x="720.783745" xlink:href="#m8183f190ed" y="696.4068"/>
      </g>
     </g>
     <g id="text_3">
      <!-- 600 -->
      <defs>
       <path d="M 51.21875 22.515625 
Q 51.21875 17.328125 49.78125 13 
Q 48.34375 8.6875 45.53125 5.578125 
Q 42.71875 2.484375 38.5625 0.75 
Q 34.421875 -0.984375 29 -0.984375 
Q 23 -0.984375 18.5 1.3125 
Q 14.015625 3.609375 11.03125 7.921875 
Q 8.0625 12.25 6.5625 18.53125 
Q 5.078125 24.8125 5.078125 32.8125 
Q 5.078125 42 6.765625 48.921875 
Q 8.453125 55.859375 11.625 60.5 
Q 14.796875 65.140625 19.359375 67.484375 
Q 23.921875 69.828125 29.6875 69.828125 
Q 33.203125 69.828125 36.28125 69.09375 
Q 39.359375 68.359375 41.875 66.71875 
Q 44.390625 65.09375 46.28125 62.40625 
Q 48.1875 59.71875 49.3125 55.8125 
L 40.921875 54.296875 
Q 39.546875 58.734375 36.546875 60.71875 
Q 33.546875 62.703125 29.59375 62.703125 
Q 25.984375 62.703125 23.046875 60.984375 
Q 20.125 59.28125 18.0625 55.875 
Q 16.015625 52.484375 14.90625 47.359375 
Q 13.8125 42.234375 13.8125 35.40625 
Q 16.21875 39.84375 20.5625 42.15625 
Q 24.90625 44.484375 30.515625 44.484375 
Q 35.203125 44.484375 39.015625 42.96875 
Q 42.828125 41.453125 45.53125 38.59375 
Q 48.25 35.75 49.734375 31.671875 
Q 51.21875 27.59375 51.21875 22.515625 
z
M 42.28125 22.125 
Q 42.28125 25.6875 41.40625 28.5625 
Q 40.53125 31.453125 38.765625 33.46875 
Q 37.015625 35.5 34.421875 36.59375 
Q 31.84375 37.703125 28.421875 37.703125 
Q 26.03125 37.703125 23.578125 36.984375 
Q 21.140625 36.28125 19.15625 34.6875 
Q 17.1875 33.109375 15.9375 30.515625 
Q 14.703125 27.9375 14.703125 24.21875 
Q 14.703125 20.40625 15.671875 17.109375 
Q 16.65625 13.8125 18.484375 11.375 
Q 20.3125 8.9375 22.890625 7.515625 
Q 25.484375 6.109375 28.71875 6.109375 
Q 31.890625 6.109375 34.40625 7.203125 
Q 36.921875 8.296875 38.671875 10.375 
Q 40.4375 12.453125 41.359375 15.421875 
Q 42.28125 18.40625 42.28125 22.125 
z
" id="LiberationSans-36"/>
      </defs>
      <g style="fill:#262626;" transform="translate(707.437495 721.2518)scale(0.16 -0.16)">
       <use xlink:href="#LiberationSans-36"/>
       <use x="55.615234" xlink:href="#LiberationSans-30"/>
       <use x="111.230469" xlink:href="#LiberationSans-30"/>
      </g>
     </g>
    </g>
    <g id="xtick_4">
     <g id="line2d_7">
      <path clip-path="url(#p9fbed45585)" d="M 994.198638 696.4068 
L 994.198638 35.8968 
" style="fill:none;stroke:#d5d5d5;stroke-dasharray:1.85,0.8;stroke-dashoffset:0;stroke-width:0.5;"/>
     </g>
     <g id="line2d_8">
      <g>
       <use style="fill:#262626;stroke:#262626;" x="994.198638" xlink:href="#m8183f190ed" y="696.4068"/>
      </g>
     </g>
     <g id="text_4">
      <!-- 700 -->
      <defs>
       <path d="M 50.59375 61.671875 
Q 45.40625 53.765625 41.0625 46.453125 
Q 36.71875 39.15625 33.59375 31.75 
Q 30.46875 24.359375 28.734375 16.578125 
Q 27 8.796875 27 0 
L 17.828125 0 
Q 17.828125 8.25 19.78125 16.1875 
Q 21.734375 24.125 25.046875 31.765625 
Q 28.375 39.40625 32.765625 46.78125 
Q 37.15625 54.15625 42.09375 61.328125 
L 5.125 61.328125 
L 5.125 68.796875 
L 50.59375 68.796875 
z
" id="LiberationSans-37"/>
      </defs>
      <g style="fill:#262626;" transform="translate(980.852388 721.2518)scale(0.16 -0.16)">
       <use xlink:href="#LiberationSans-37"/>
       <use x="55.615234" xlink:href="#LiberationSans-30"/>
       <use x="111.230469" xlink:href="#LiberationSans-30"/>
      </g>
     </g>
    </g>
    <g id="xtick_5">
     <g id="line2d_9">
      <path clip-path="url(#p9fbed45585)" d="M 1267.613532 696.4068 
L 1267.613532 35.8968 
" style="fill:none;stroke:#d5d5d5;stroke-dasharray:1.85,0.8;stroke-dashoffset:0;stroke-width:0.5;"/>
     </g>
     <g id="line2d_10">
      <g>
       <use style="fill:#262626;stroke:#262626;" x="1267.613532" xlink:href="#m8183f190ed" y="696.4068"/>
      </g>
     </g>
     <g id="text_5">
      <!-- 800 -->
      <defs>
       <path d="M 51.265625 19.1875 
Q 51.265625 14.796875 49.875 11.109375 
Q 48.484375 7.421875 45.625 4.734375 
Q 42.78125 2.046875 38.328125 0.53125 
Q 33.890625 -0.984375 27.828125 -0.984375 
Q 21.78125 -0.984375 17.359375 0.53125 
Q 12.9375 2.046875 10.03125 4.703125 
Q 7.125 7.375 5.734375 11.0625 
Q 4.34375 14.75 4.34375 19.09375 
Q 4.34375 22.859375 5.484375 25.78125 
Q 6.640625 28.71875 8.5625 30.828125 
Q 10.5 32.953125 12.96875 34.25 
Q 15.4375 35.546875 18.0625 35.984375 
L 18.0625 36.1875 
Q 15.1875 36.859375 12.90625 38.375 
Q 10.640625 39.890625 9.09375 42.015625 
Q 7.5625 44.140625 6.75 46.71875 
Q 5.953125 49.3125 5.953125 52.203125 
Q 5.953125 55.8125 7.34375 59 
Q 8.734375 62.203125 11.46875 64.625 
Q 14.203125 67.046875 18.25 68.4375 
Q 22.3125 69.828125 27.640625 69.828125 
Q 33.25 69.828125 37.375 68.40625 
Q 41.5 67 44.203125 64.578125 
Q 46.921875 62.15625 48.234375 58.9375 
Q 49.5625 55.71875 49.5625 52.09375 
Q 49.5625 49.265625 48.75 46.671875 
Q 47.953125 44.09375 46.40625 41.96875 
Q 44.875 39.84375 42.59375 38.34375 
Q 40.328125 36.859375 37.359375 36.28125 
L 37.359375 36.078125 
Q 40.328125 35.59375 42.859375 34.296875 
Q 45.40625 33.015625 47.265625 30.890625 
Q 49.125 28.765625 50.1875 25.828125 
Q 51.265625 22.90625 51.265625 19.1875 
z
M 40.4375 51.609375 
Q 40.4375 54.203125 39.765625 56.34375 
Q 39.109375 58.5 37.59375 60.03125 
Q 36.078125 61.578125 33.640625 62.421875 
Q 31.203125 63.28125 27.640625 63.28125 
Q 24.171875 63.28125 21.78125 62.421875 
Q 19.390625 61.578125 17.84375 60.03125 
Q 16.3125 58.5 15.625 56.34375 
Q 14.9375 54.203125 14.9375 51.609375 
Q 14.9375 49.5625 15.46875 47.40625 
Q 16.015625 45.265625 17.421875 43.5 
Q 18.84375 41.75 21.328125 40.625 
Q 23.828125 39.5 27.734375 39.5 
Q 31.890625 39.5 34.40625 40.625 
Q 36.921875 41.75 38.25 43.5 
Q 39.59375 45.265625 40.015625 47.40625 
Q 40.4375 49.5625 40.4375 51.609375 
z
M 42.140625 20.015625 
Q 42.140625 22.515625 41.453125 24.828125 
Q 40.765625 27.15625 39.109375 28.9375 
Q 37.453125 30.71875 34.640625 31.8125 
Q 31.84375 32.90625 27.640625 32.90625 
Q 23.78125 32.90625 21.0625 31.8125 
Q 18.359375 30.71875 16.671875 28.90625 
Q 14.984375 27.09375 14.203125 24.71875 
Q 13.421875 22.359375 13.421875 19.828125 
Q 13.421875 16.65625 14.203125 14.03125 
Q 14.984375 11.421875 16.6875 9.546875 
Q 18.40625 7.671875 21.1875 6.640625 
Q 23.96875 5.609375 27.9375 5.609375 
Q 31.9375 5.609375 34.671875 6.640625 
Q 37.40625 7.671875 39.0625 9.546875 
Q 40.71875 11.421875 41.421875 14.078125 
Q 42.140625 16.75 42.140625 20.015625 
z
" id="LiberationSans-38"/>
      </defs>
      <g style="fill:#262626;" transform="translate(1254.267282 721.2518)scale(0.16 -0.16)">
       <use xlink:href="#LiberationSans-38"/>
       <use x="55.615234" xlink:href="#LiberationSans-30"/>
       <use x="111.230469" xlink:href="#LiberationSans-30"/>
      </g>
     </g>
    </g>
    <g id="xtick_6">
     <g id="line2d_11">
      <defs>
       <path d="M 0 0 
L 0 3.75 
" id="md077b959e3" style="stroke:#262626;"/>
      </defs>
      <g>
       <use style="fill:#262626;stroke:#262626;" x="119.270979" xlink:href="#md077b959e3" y="696.4068"/>
      </g>
     </g>
    </g>
    <g id="xtick_7">
     <g id="line2d_12">
      <g>
       <use style="fill:#262626;stroke:#262626;" x="228.636936" xlink:href="#md077b959e3" y="696.4068"/>
      </g>
     </g>
    </g>
    <g id="xtick_8">
     <g id="line2d_13">
      <g>
       <use style="fill:#262626;stroke:#262626;" x="283.319915" xlink:href="#md077b959e3" y="696.4068"/>
      </g>
     </g>
    </g>
    <g id="xtick_9">
     <g id="line2d_14">
      <g>
       <use style="fill:#262626;stroke:#262626;" x="338.002894" xlink:href="#md077b959e3" y="696.4068"/>
      </g>
     </g>
    </g>
    <g id="xtick_10">
     <g id="line2d_15">
      <g>
       <use style="fill:#262626;stroke:#262626;" x="392.685872" xlink:href="#md077b959e3" y="696.4068"/>
      </g>
     </g>
    </g>
    <g id="xtick_11">
     <g id="line2d_16">
      <g>
       <use style="fill:#262626;stroke:#262626;" x="502.05183" xlink:href="#md077b959e3" y="696.4068"/>
      </g>
     </g>
    </g>
    <g id="xtick_12">
     <g id="line2d_17">
      <g>
       <use style="fill:#262626;stroke:#262626;" x="556.734809" xlink:href="#md077b959e3" y="696.4068"/>
      </g>
     </g>
    </g>
    <g id="xtick_13">
     <g id="line2d_18">
      <g>
       <use style="fill:#262626;stroke:#262626;" x="611.417787" xlink:href="#md077b959e3" y="696.4068"/>
      </g>
     </g>
    </g>
    <g id="xtick_14">
     <g id="line2d_19">
      <g>
       <use style="fill:#262626;stroke:#262626;" x="666.100766" xlink:href="#md077b959e3" y="696.4068"/>
      </g>
     </g>
    </g>
    <g id="xtick_15">
     <g id="line2d_20">
      <g>
       <use style="fill:#262626;stroke:#262626;" x="775.466723" xlink:href="#md077b959e3" y="696.4068"/>
      </g>
     </g>
    </g>
    <g id="xtick_16">
     <g id="line2d_21">
      <g>
       <use style="fill:#262626;stroke:#262626;" x="830.149702" xlink:href="#md077b959e3" y="696.4068"/>
      </g>
     </g>
    </g>
    <g id="xtick_17">
     <g id="line2d_22">
      <g>
       <use style="fill:#262626;stroke:#262626;" x="884.832681" xlink:href="#md077b959e3" y="696.4068"/>
      </g>
     </g>
    </g>
    <g id="xtick_18">
     <g id="line2d_23">
      <g>
       <use style="fill:#262626;stroke:#262626;" x="939.51566" xlink:href="#md077b959e3" y="696.4068"/>
      </g>
     </g>
    </g>
    <g id="xtick_19">
     <g id="line2d_24">
      <g>
       <use style="fill:#262626;stroke:#262626;" x="1048.881617" xlink:href="#md077b959e3" y="696.4068"/>
      </g>
     </g>
    </g>
    <g id="xtick_20">
     <g id="line2d_25">
      <g>
       <use style="fill:#262626;stroke:#262626;" x="1103.564596" xlink:href="#md077b959e3" y="696.4068"/>
      </g>
     </g>
    </g>
    <g id="xtick_21">
     <g id="line2d_26">
      <g>
       <use style="fill:#262626;stroke:#262626;" x="1158.247574" xlink:href="#md077b959e3" y="696.4068"/>
      </g>
     </g>
    </g>
    <g id="xtick_22">
     <g id="line2d_27">
      <g>
       <use style="fill:#262626;stroke:#262626;" x="1212.930553" xlink:href="#md077b959e3" y="696.4068"/>
      </g>
     </g>
    </g>
    <g id="xtick_23">
     <g id="line2d_28">
      <g>
       <use style="fill:#262626;stroke:#262626;" x="1322.296511" xlink:href="#md077b959e3" y="696.4068"/>
      </g>
     </g>
    </g>
    <g id="text_6">
     <!-- Wavelength $\lambda$ (nm) -->
     <defs>
      <path d="M 73.78125 0 
L 62.640625 0 
L 50.734375 43.703125 
Q 50.203125 45.5625 49.578125 48.09375 
Q 48.96875 50.640625 48.484375 52.9375 
Q 47.90625 55.609375 47.3125 58.40625 
Q 46.6875 55.5625 46.09375 52.875 
Q 45.5625 50.53125 44.96875 48.046875 
Q 44.390625 45.5625 43.84375 43.703125 
L 31.84375 0 
L 20.703125 0 
L 0.4375 68.796875 
L 10.15625 68.796875 
L 22.515625 25.09375 
Q 23.34375 22.015625 24.09375 18.984375 
Q 24.859375 15.96875 25.390625 13.578125 
Q 26.03125 10.75 26.5625 8.203125 
Q 27.296875 11.578125 28.078125 14.84375 
Q 28.421875 16.21875 28.765625 17.71875 
Q 29.109375 19.234375 29.46875 20.703125 
Q 29.828125 22.171875 30.1875 23.515625 
Q 30.5625 24.859375 30.859375 25.984375 
L 42.828125 68.796875 
L 51.765625 68.796875 
L 63.71875 25.984375 
Q 64.015625 24.859375 64.375 23.515625 
Q 64.75 22.171875 65.109375 20.71875 
Q 65.484375 19.28125 65.8125 17.765625 
Q 66.15625 16.265625 66.5 14.890625 
Q 67.28125 11.625 68.015625 8.203125 
Q 68.0625 8.203125 68.453125 9.890625 
Q 68.84375 11.578125 69.421875 14.109375 
Q 70.015625 16.65625 70.71875 19.609375 
Q 71.4375 22.5625 72.171875 25.09375 
L 84.328125 68.796875 
L 94.046875 68.796875 
z
" id="LiberationSans-57"/>
      <path d="M 20.21875 -0.984375 
Q 12.25 -0.984375 8.25 3.21875 
Q 4.25 7.421875 4.25 14.75 
Q 4.25 19.96875 6.21875 23.3125 
Q 8.203125 26.65625 11.390625 28.5625 
Q 14.59375 30.46875 18.6875 31.203125 
Q 22.796875 31.9375 27.046875 32.03125 
L 38.921875 32.234375 
L 38.921875 35.109375 
Q 38.921875 38.375 38.234375 40.671875 
Q 37.546875 42.96875 36.125 44.375 
Q 34.71875 45.796875 32.59375 46.453125 
Q 30.46875 47.125 27.59375 47.125 
Q 25.046875 47.125 23 46.75 
Q 20.953125 46.390625 19.4375 45.4375 
Q 17.921875 44.484375 16.984375 42.84375 
Q 16.0625 41.21875 15.765625 38.71875 
L 6.59375 39.546875 
Q 7.078125 42.671875 8.4375 45.28125 
Q 9.8125 47.90625 12.328125 49.796875 
Q 14.84375 51.703125 18.625 52.75 
Q 22.40625 53.8125 27.78125 53.8125 
Q 37.75 53.8125 42.765625 49.234375 
Q 47.796875 44.671875 47.796875 36.03125 
L 47.796875 13.28125 
Q 47.796875 9.375 48.828125 7.390625 
Q 49.859375 5.421875 52.734375 5.421875 
Q 53.46875 5.421875 54.203125 5.515625 
Q 54.9375 5.609375 55.609375 5.765625 
L 55.609375 0.296875 
Q 53.953125 -0.09375 52.3125 -0.28125 
Q 50.6875 -0.484375 48.828125 -0.484375 
Q 46.34375 -0.484375 44.5625 0.171875 
Q 42.78125 0.828125 41.65625 2.171875 
Q 40.53125 3.515625 39.9375 5.484375 
Q 39.359375 7.46875 39.203125 10.109375 
L 38.921875 10.109375 
Q 37.5 7.5625 35.8125 5.515625 
Q 34.125 3.46875 31.875 2.03125 
Q 29.640625 0.59375 26.78125 -0.1875 
Q 23.921875 -0.984375 20.21875 -0.984375 
z
M 22.21875 5.609375 
Q 26.421875 5.609375 29.5625 7.140625 
Q 32.71875 8.6875 34.78125 11.078125 
Q 36.859375 13.484375 37.890625 16.3125 
Q 38.921875 19.140625 38.921875 21.734375 
L 38.921875 26.078125 
L 29.296875 25.875 
Q 26.078125 25.828125 23.171875 25.40625 
Q 20.265625 25 18.0625 23.78125 
Q 15.875 22.5625 14.578125 20.359375 
Q 13.28125 18.171875 13.28125 14.59375 
Q 13.28125 10.296875 15.59375 7.953125 
Q 17.921875 5.609375 22.21875 5.609375 
z
" id="LiberationSans-61"/>
      <path d="M 29.9375 0 
L 19.53125 0 
L 0.34375 52.828125 
L 9.71875 52.828125 
L 21.34375 18.453125 
Q 21.6875 17.390625 22.140625 15.84375 
Q 22.609375 14.3125 23.09375 12.640625 
Q 23.578125 10.984375 24 9.4375 
Q 24.421875 7.90625 24.703125 6.890625 
Q 25 7.90625 25.453125 9.4375 
Q 25.921875 10.984375 26.40625 12.59375 
Q 26.90625 14.203125 27.421875 15.734375 
Q 27.9375 17.28125 28.328125 18.359375 
L 40.328125 52.828125 
L 49.65625 52.828125 
z
" id="LiberationSans-76"/>
      <path d="M 13.484375 24.5625 
Q 13.484375 20.40625 14.328125 16.90625 
Q 15.1875 13.421875 16.96875 10.90625 
Q 18.75 8.40625 21.53125 7 
Q 24.3125 5.609375 28.21875 5.609375 
Q 33.9375 5.609375 37.375 7.90625 
Q 40.828125 10.203125 42.046875 13.71875 
L 49.75 11.53125 
Q 48.921875 9.328125 47.4375 7.109375 
Q 45.953125 4.890625 43.453125 3.09375 
Q 40.96875 1.3125 37.234375 0.15625 
Q 33.5 -0.984375 28.21875 -0.984375 
Q 16.5 -0.984375 10.375 6 
Q 4.25 12.984375 4.25 26.765625 
Q 4.25 34.1875 6.09375 39.328125 
Q 7.953125 44.484375 11.171875 47.703125 
Q 14.40625 50.921875 18.703125 52.359375 
Q 23 53.8125 27.875 53.8125 
Q 34.515625 53.8125 38.984375 51.65625 
Q 43.453125 49.515625 46.15625 45.71875 
Q 48.875 41.9375 50.015625 36.8125 
Q 51.171875 31.6875 51.171875 25.734375 
L 51.171875 24.5625 
z
M 42.09375 31.296875 
Q 41.359375 39.65625 37.84375 43.484375 
Q 34.328125 47.3125 27.734375 47.3125 
Q 25.53125 47.3125 23.109375 46.609375 
Q 20.703125 45.90625 18.65625 44.09375 
Q 16.609375 42.28125 15.1875 39.171875 
Q 13.765625 36.078125 13.578125 31.296875 
z
" id="LiberationSans-65"/>
      <path d="M 6.734375 0 
L 6.734375 72.46875 
L 15.53125 72.46875 
L 15.53125 0 
z
" id="LiberationSans-6c"/>
      <path d="M 40.28125 0 
L 40.28125 33.5 
Q 40.28125 37.359375 39.71875 39.9375 
Q 39.15625 42.53125 37.890625 44.109375 
Q 36.625 45.703125 34.546875 46.359375 
Q 32.46875 47.015625 29.390625 47.015625 
Q 26.265625 47.015625 23.75 45.921875 
Q 21.234375 44.828125 19.453125 42.75 
Q 17.671875 40.671875 16.6875 37.625 
Q 15.71875 34.578125 15.71875 30.609375 
L 15.71875 0 
L 6.9375 0 
L 6.9375 41.546875 
Q 6.9375 43.21875 6.90625 45.046875 
Q 6.890625 46.875 6.828125 48.5 
Q 6.78125 50.140625 6.734375 51.3125 
Q 6.6875 52.484375 6.640625 52.828125 
L 14.9375 52.828125 
Q 14.984375 52.59375 15.03125 51.515625 
Q 15.09375 50.4375 15.15625 49.046875 
Q 15.234375 47.65625 15.28125 46.21875 
Q 15.328125 44.78125 15.328125 43.796875 
L 15.484375 43.796875 
Q 16.75 46.09375 18.265625 47.953125 
Q 19.78125 49.8125 21.78125 51.09375 
Q 23.78125 52.390625 26.359375 53.09375 
Q 28.953125 53.8125 32.375 53.8125 
Q 36.765625 53.8125 39.9375 52.734375 
Q 43.109375 51.65625 45.15625 49.40625 
Q 47.21875 47.171875 48.171875 43.625 
Q 49.125 40.09375 49.125 35.203125 
L 49.125 0 
z
" id="LiberationSans-6e"/>
      <path d="M 26.765625 -20.75 
Q 22.21875 -20.75 18.703125 -19.8125 
Q 15.1875 -18.890625 12.6875 -17.15625 
Q 10.203125 -15.4375 8.640625 -13.03125 
Q 7.078125 -10.640625 6.390625 -7.71875 
L 15.234375 -6.453125 
Q 16.109375 -10.109375 19.109375 -12.078125 
Q 22.125 -14.0625 27 -14.0625 
Q 29.984375 -14.0625 32.421875 -13.234375 
Q 34.859375 -12.40625 36.5625 -10.5625 
Q 38.28125 -8.734375 39.203125 -5.796875 
Q 40.140625 -2.875 40.140625 1.3125 
L 40.140625 9.8125 
L 40.046875 9.8125 
Q 39.0625 7.8125 37.625 5.984375 
Q 36.1875 4.15625 34.109375 2.734375 
Q 32.03125 1.3125 29.296875 0.453125 
Q 26.5625 -0.390625 23.046875 -0.390625 
Q 18.015625 -0.390625 14.421875 1.296875 
Q 10.84375 2.984375 8.5625 6.34375 
Q 6.296875 9.71875 5.25 14.71875 
Q 4.203125 19.734375 4.203125 26.3125 
Q 4.203125 32.671875 5.25 37.75 
Q 6.296875 42.828125 8.65625 46.359375 
Q 11.03125 49.90625 14.8125 51.78125 
Q 18.609375 53.65625 24.03125 53.65625 
Q 29.640625 53.65625 33.765625 51.09375 
Q 37.890625 48.53125 40.140625 43.796875 
L 40.234375 43.796875 
Q 40.234375 45.015625 40.296875 46.53125 
Q 40.375 48.046875 40.453125 49.390625 
Q 40.53125 50.734375 40.625 51.703125 
Q 40.71875 52.6875 40.828125 52.828125 
L 49.171875 52.828125 
Q 49.125 52.390625 49.078125 51.34375 
Q 49.03125 50.296875 48.96875 48.828125 
Q 48.921875 47.359375 48.890625 45.578125 
Q 48.875 43.796875 48.875 41.890625 
L 48.875 1.515625 
Q 48.875 -9.578125 43.421875 -15.15625 
Q 37.984375 -20.75 26.765625 -20.75 
z
M 40.140625 26.421875 
Q 40.140625 31.9375 38.9375 35.859375 
Q 37.75 39.796875 35.796875 42.28125 
Q 33.84375 44.78125 31.328125 45.953125 
Q 28.8125 47.125 26.171875 47.125 
Q 22.796875 47.125 20.375 45.953125 
Q 17.96875 44.78125 16.375 42.265625 
Q 14.796875 39.75 14.03125 35.8125 
Q 13.28125 31.890625 13.28125 26.421875 
Q 13.28125 20.703125 14.03125 16.8125 
Q 14.796875 12.9375 16.359375 10.546875 
Q 17.921875 8.15625 20.3125 7.125 
Q 22.703125 6.109375 26.03125 6.109375 
Q 28.65625 6.109375 31.171875 7.21875 
Q 33.6875 8.34375 35.6875 10.78125 
Q 37.703125 13.234375 38.921875 17.09375 
Q 40.140625 20.953125 40.140625 26.421875 
z
" id="LiberationSans-67"/>
      <path d="M 27.046875 0.390625 
Q 25.046875 -0.140625 22.96875 -0.453125 
Q 20.90625 -0.78125 18.171875 -0.78125 
Q 7.625 -0.78125 7.625 11.1875 
L 7.625 46.4375 
L 1.515625 46.4375 
L 1.515625 52.828125 
L 7.953125 52.828125 
L 10.546875 64.65625 
L 16.40625 64.65625 
L 16.40625 52.828125 
L 26.171875 52.828125 
L 26.171875 46.4375 
L 16.40625 46.4375 
L 16.40625 13.09375 
Q 16.40625 9.28125 17.640625 7.734375 
Q 18.890625 6.203125 21.96875 6.203125 
Q 23.25 6.203125 24.4375 6.390625 
Q 25.640625 6.59375 27.046875 6.890625 
z
" id="LiberationSans-74"/>
      <path d="M 15.484375 43.796875 
Q 16.9375 46.484375 18.640625 48.359375 
Q 20.359375 50.25 22.40625 51.46875 
Q 24.46875 52.6875 26.90625 53.25 
Q 29.34375 53.8125 32.375 53.8125 
Q 37.453125 53.8125 40.703125 52.4375 
Q 43.953125 51.078125 45.828125 48.609375 
Q 47.703125 46.140625 48.40625 42.71875 
Q 49.125 39.3125 49.125 35.203125 
L 49.125 0 
L 40.28125 0 
L 40.28125 33.5 
Q 40.28125 36.859375 39.859375 39.390625 
Q 39.453125 41.9375 38.28125 43.625 
Q 37.109375 45.3125 34.953125 46.15625 
Q 32.8125 47.015625 29.390625 47.015625 
Q 26.265625 47.015625 23.75 45.890625 
Q 21.234375 44.78125 19.453125 42.71875 
Q 17.671875 40.671875 16.6875 37.734375 
Q 15.71875 34.8125 15.71875 31.15625 
L 15.71875 0 
L 6.9375 0 
L 6.9375 72.46875 
L 15.71875 72.46875 
L 15.71875 53.609375 
Q 15.71875 52 15.671875 50.390625 
Q 15.625 48.78125 15.546875 47.40625 
Q 15.484375 46.046875 15.421875 45.09375 
Q 15.375 44.140625 15.328125 43.796875 
z
" id="LiberationSans-68"/>
      <path id="LiberationSans-20"/>
      <path d="M 36.71875 67.4375 
L 48.828125 0 
L 39.3125 0 
L 31.84375 40.4375 
L 5.125 0 
L -4.390625 0 
L 29.734375 52.4375 
L 28.03125 62.109375 
Q 26.953125 68.265625 21.734375 68.265625 
L 17.046875 68.265625 
L 18.5 75.984375 
L 24.21875 75.875 
Q 35.203125 75.734375 36.71875 67.4375 
z
" id="DejaVuSans-Oblique-3bb"/>
      <path d="M 6.203125 25.984375 
Q 6.203125 32.765625 7.21875 38.96875 
Q 8.25 45.171875 10.4375 50.875 
Q 12.640625 56.59375 16.0625 61.953125 
Q 19.484375 67.328125 24.21875 72.46875 
L 32.71875 72.46875 
Q 28.125 67.328125 24.78125 61.9375 
Q 21.4375 56.546875 19.28125 50.796875 
Q 17.140625 45.0625 16.09375 38.859375 
Q 15.046875 32.671875 15.046875 25.875 
Q 15.046875 19.09375 16.09375 12.890625 
Q 17.140625 6.6875 19.28125 0.921875 
Q 21.4375 -4.828125 24.78125 -10.203125 
Q 28.125 -15.578125 32.71875 -20.703125 
L 24.21875 -20.703125 
Q 19.484375 -15.578125 16.0625 -10.203125 
Q 12.640625 -4.828125 10.4375 0.875 
Q 8.25 6.59375 7.21875 12.765625 
Q 6.203125 18.953125 6.203125 25.78125 
z
" id="LiberationSans-28"/>
      <path d="M 37.5 0 
L 37.5 33.5 
Q 37.5 37.359375 37.015625 39.9375 
Q 36.53125 42.53125 35.375 44.109375 
Q 34.234375 45.703125 32.375 46.359375 
Q 30.515625 47.015625 27.828125 47.015625 
Q 25.046875 47.015625 22.796875 45.921875 
Q 20.5625 44.828125 18.96875 42.75 
Q 17.390625 40.671875 16.53125 37.625 
Q 15.671875 34.578125 15.671875 30.609375 
L 15.671875 0 
L 6.9375 0 
L 6.9375 41.546875 
Q 6.9375 43.21875 6.90625 45.046875 
Q 6.890625 46.875 6.828125 48.5 
Q 6.78125 50.140625 6.734375 51.3125 
Q 6.6875 52.484375 6.640625 52.828125 
L 14.9375 52.828125 
Q 14.984375 52.59375 15.03125 51.515625 
Q 15.09375 50.4375 15.15625 49.046875 
Q 15.234375 47.65625 15.28125 46.21875 
Q 15.328125 44.78125 15.328125 43.796875 
L 15.484375 43.796875 
Q 16.65625 46.09375 18.015625 47.953125 
Q 19.390625 49.8125 21.21875 51.09375 
Q 23.046875 52.390625 25.40625 53.09375 
Q 27.78125 53.8125 30.90625 53.8125 
Q 36.921875 53.8125 40.40625 51.421875 
Q 43.890625 49.03125 45.265625 43.796875 
L 45.40625 43.796875 
Q 46.578125 46.09375 48.046875 47.953125 
Q 49.515625 49.8125 51.46875 51.09375 
Q 53.421875 52.390625 55.859375 53.09375 
Q 58.296875 53.8125 61.421875 53.8125 
Q 65.4375 53.8125 68.328125 52.734375 
Q 71.234375 51.65625 73.09375 49.40625 
Q 74.953125 47.171875 75.828125 43.625 
Q 76.703125 40.09375 76.703125 35.203125 
L 76.703125 0 
L 68.015625 0 
L 68.015625 33.5 
Q 68.015625 37.359375 67.53125 39.9375 
Q 67.046875 42.53125 65.890625 44.109375 
Q 64.75 45.703125 62.890625 46.359375 
Q 61.03125 47.015625 58.34375 47.015625 
Q 55.5625 47.015625 53.3125 45.96875 
Q 51.078125 44.921875 49.484375 42.875 
Q 47.90625 40.828125 47.046875 37.75 
Q 46.1875 34.671875 46.1875 30.609375 
L 46.1875 0 
z
" id="LiberationSans-6d"/>
      <path d="M 27.09375 25.78125 
Q 27.09375 18.953125 26.0625 12.765625 
Q 25.046875 6.59375 22.84375 0.875 
Q 20.65625 -4.828125 17.234375 -10.203125 
Q 13.8125 -15.578125 9.078125 -20.703125 
L 0.59375 -20.703125 
Q 5.171875 -15.578125 8.515625 -10.203125 
Q 11.859375 -4.828125 14 0.921875 
Q 16.15625 6.6875 17.203125 12.890625 
Q 18.265625 19.09375 18.265625 25.875 
Q 18.265625 32.671875 17.203125 38.859375 
Q 16.15625 45.0625 14 50.796875 
Q 11.859375 56.546875 8.515625 61.9375 
Q 5.171875 67.328125 0.59375 72.46875 
L 9.078125 72.46875 
Q 13.8125 67.328125 17.234375 61.953125 
Q 20.65625 56.59375 22.84375 50.875 
Q 25.046875 45.171875 26.0625 38.96875 
Q 27.09375 32.765625 27.09375 25.984375 
z
" id="LiberationSans-29"/>
     </defs>
     <g style="fill:#262626;" transform="translate(625.609 743.1638)scale(0.192 -0.192)">
      <use transform="translate(0 0.015625)" xlink:href="#LiberationSans-57"/>
      <use transform="translate(94.384766 0.015625)" xlink:href="#LiberationSans-61"/>
      <use transform="translate(150 0.015625)" xlink:href="#LiberationSans-76"/>
      <use transform="translate(200 0.015625)" xlink:href="#LiberationSans-65"/>
      <use transform="translate(255.615234 0.015625)" xlink:href="#LiberationSans-6c"/>
      <use transform="translate(277.832031 0.015625)" xlink:href="#LiberationSans-65"/>
      <use transform="translate(333.447266 0.015625)" xlink:href="#LiberationSans-6e"/>
      <use transform="translate(389.0625 0.015625)" xlink:href="#LiberationSans-67"/>
      <use transform="translate(444.677734 0.015625)" xlink:href="#LiberationSans-74"/>
      <use transform="translate(472.460938 0.015625)" xlink:href="#LiberationSans-68"/>
      <use transform="translate(528.076172 0.015625)" xlink:href="#LiberationSans-20"/>
      <use transform="translate(555.859375 0.015625)" xlink:href="#DejaVuSans-Oblique-3bb"/>
      <use transform="translate(615.039062 0.015625)" xlink:href="#LiberationSans-20"/>
      <use transform="translate(642.822266 0.015625)" xlink:href="#LiberationSans-28"/>
      <use transform="translate(676.123047 0.015625)" xlink:href="#LiberationSans-6e"/>
      <use transform="translate(731.738281 0.015625)" xlink:href="#LiberationSans-6d"/>
      <use transform="translate(815.039062 0.015625)" xlink:href="#LiberationSans-29"/>
     </g>
    </g>
   </g>
   <g id="matplotlib.axis_2">
    <g id="ytick_1">
     <g id="line2d_29">
      <path clip-path="url(#p9fbed45585)" d="M 64.588 696.406887 
L 1349.638 696.406887 
" style="fill:none;stroke:#d5d5d5;stroke-dasharray:1.85,0.8;stroke-dashoffset:0;stroke-width:0.5;"/>
     </g>
     <g id="line2d_30">
      <defs>
       <path d="M 0 0 
L -6.25 0 
" id="m7350a88a4b" style="stroke:#262626;"/>
      </defs>
      <g>
       <use style="fill:#262626;stroke:#262626;" x="64.588" xlink:href="#m7350a88a4b" y="696.406887"/>
      </g>
     </g>
     <g id="text_7">
      <!-- 0.0 -->
      <defs>
       <path d="M 9.125 0 
L 9.125 10.6875 
L 18.65625 10.6875 
L 18.65625 0 
z
" id="LiberationSans-2e"/>
      </defs>
      <g style="fill:#262626;" transform="translate(29.098 702.204387)scale(0.16 -0.16)">
       <use xlink:href="#LiberationSans-30"/>
       <use x="55.615234" xlink:href="#LiberationSans-2e"/>
       <use x="83.398438" xlink:href="#LiberationSans-30"/>
      </g>
     </g>
    </g>
    <g id="ytick_2">
     <g id="line2d_31">
      <path clip-path="url(#p9fbed45585)" d="M 64.588 570.595442 
L 1349.638 570.595442 
" style="fill:none;stroke:#d5d5d5;stroke-dasharray:1.85,0.8;stroke-dashoffset:0;stroke-width:0.5;"/>
     </g>
     <g id="line2d_32">
      <g>
       <use style="fill:#262626;stroke:#262626;" x="64.588" xlink:href="#m7350a88a4b" y="570.595442"/>
      </g>
     </g>
     <g id="text_8">
      <!-- 0.2 -->
      <defs>
       <path d="M 5.03125 0 
L 5.03125 6.203125 
Q 7.515625 11.921875 11.109375 16.28125 
Q 14.703125 20.65625 18.65625 24.1875 
Q 22.609375 27.734375 26.484375 30.765625 
Q 30.375 33.796875 33.5 36.8125 
Q 36.625 39.84375 38.546875 43.15625 
Q 40.484375 46.484375 40.484375 50.6875 
Q 40.484375 53.609375 39.59375 55.828125 
Q 38.71875 58.0625 37.0625 59.5625 
Q 35.40625 61.078125 33.078125 61.828125 
Q 30.765625 62.59375 27.9375 62.59375 
Q 25.296875 62.59375 22.96875 61.859375 
Q 20.65625 61.140625 18.84375 59.671875 
Q 17.046875 58.203125 15.890625 56.03125 
Q 14.75 53.859375 14.40625 50.984375 
L 5.421875 51.8125 
Q 5.859375 55.515625 7.46875 58.78125 
Q 9.078125 62.0625 11.90625 64.53125 
Q 14.75 67 18.71875 68.40625 
Q 22.703125 69.828125 27.9375 69.828125 
Q 33.0625 69.828125 37.0625 68.609375 
Q 41.0625 67.390625 43.8125 64.984375 
Q 46.578125 62.59375 48.046875 59.078125 
Q 49.515625 55.5625 49.515625 50.984375 
Q 49.515625 47.515625 48.265625 44.390625 
Q 47.015625 41.265625 44.9375 38.421875 
Q 42.875 35.59375 40.140625 32.953125 
Q 37.40625 30.328125 34.421875 27.8125 
Q 31.453125 25.296875 28.421875 22.828125 
Q 25.390625 20.359375 22.71875 17.859375 
Q 20.0625 15.375 17.96875 12.8125 
Q 15.875 10.25 14.703125 7.46875 
L 50.59375 7.46875 
L 50.59375 0 
z
" id="LiberationSans-32"/>
      </defs>
      <g style="fill:#262626;" transform="translate(29.098 576.392942)scale(0.16 -0.16)">
       <use xlink:href="#LiberationSans-30"/>
       <use x="55.615234" xlink:href="#LiberationSans-2e"/>
       <use x="83.398438" xlink:href="#LiberationSans-32"/>
      </g>
     </g>
    </g>
    <g id="ytick_3">
     <g id="line2d_33">
      <path clip-path="url(#p9fbed45585)" d="M 64.588 444.783997 
L 1349.638 444.783997 
" style="fill:none;stroke:#d5d5d5;stroke-dasharray:1.85,0.8;stroke-dashoffset:0;stroke-width:0.5;"/>
     </g>
     <g id="line2d_34">
      <g>
       <use style="fill:#262626;stroke:#262626;" x="64.588" xlink:href="#m7350a88a4b" y="444.783997"/>
      </g>
     </g>
     <g id="text_9">
      <!-- 0.4 -->
      <g style="fill:#262626;" transform="translate(29.098 450.581497)scale(0.16 -0.16)">
       <use xlink:href="#LiberationSans-30"/>
       <use x="55.615234" xlink:href="#LiberationSans-2e"/>
       <use x="83.398438" xlink:href="#LiberationSans-34"/>
      </g>
     </g>
    </g>
    <g id="ytick_4">
     <g id="line2d_35">
      <path clip-path="url(#p9fbed45585)" d="M 64.588 318.972552 
L 1349.638 318.972552 
" style="fill:none;stroke:#d5d5d5;stroke-dasharray:1.85,0.8;stroke-dashoffset:0;stroke-width:0.5;"/>
     </g>
     <g id="line2d_36">
      <g>
       <use style="fill:#262626;stroke:#262626;" x="64.588" xlink:href="#m7350a88a4b" y="318.972552"/>
      </g>
     </g>
     <g id="text_10">
      <!-- 0.6 -->
      <g style="fill:#262626;" transform="translate(29.098 324.770052)scale(0.16 -0.16)">
       <use xlink:href="#LiberationSans-30"/>
       <use x="55.615234" xlink:href="#LiberationSans-2e"/>
       <use x="83.398438" xlink:href="#LiberationSans-36"/>
      </g>
     </g>
    </g>
    <g id="ytick_5">
     <g id="line2d_37">
      <path clip-path="url(#p9fbed45585)" d="M 64.588 193.161107 
L 1349.638 193.161107 
" style="fill:none;stroke:#d5d5d5;stroke-dasharray:1.85,0.8;stroke-dashoffset:0;stroke-width:0.5;"/>
     </g>
     <g id="line2d_38">
      <g>
       <use style="fill:#262626;stroke:#262626;" x="64.588" xlink:href="#m7350a88a4b" y="193.161107"/>
      </g>
     </g>
     <g id="text_11">
      <!-- 0.8 -->
      <g style="fill:#262626;" transform="translate(29.098 198.958607)scale(0.16 -0.16)">
       <use xlink:href="#LiberationSans-30"/>
       <use x="55.615234" xlink:href="#LiberationSans-2e"/>
       <use x="83.398438" xlink:href="#LiberationSans-38"/>
      </g>
     </g>
    </g>
    <g id="ytick_6">
     <g id="line2d_39">
      <path clip-path="url(#p9fbed45585)" d="M 64.588 67.349661 
L 1349.638 67.349661 
" style="fill:none;stroke:#d5d5d5;stroke-dasharray:1.85,0.8;stroke-dashoffset:0;stroke-width:0.5;"/>
     </g>
     <g id="line2d_40">
      <g>
       <use style="fill:#262626;stroke:#262626;" x="64.588" xlink:href="#m7350a88a4b" y="67.349661"/>
      </g>
     </g>
     <g id="text_12">
      <!-- 1.0 -->
      <defs>
       <path d="M 7.625 0 
L 7.625 7.46875 
L 25.140625 7.46875 
L 25.140625 60.40625 
L 9.625 49.3125 
L 9.625 57.625 
L 25.875 68.796875 
L 33.984375 68.796875 
L 33.984375 7.46875 
L 50.734375 7.46875 
L 50.734375 0 
z
" id="LiberationSans-31"/>
      </defs>
      <g style="fill:#262626;" transform="translate(29.098 73.147161)scale(0.16 -0.16)">
       <use xlink:href="#LiberationSans-31"/>
       <use x="55.615234" xlink:href="#LiberationSans-2e"/>
       <use x="83.398438" xlink:href="#LiberationSans-30"/>
      </g>
     </g>
    </g>
    <g id="ytick_7">
     <g id="line2d_41">
      <defs>
       <path d="M 0 0 
L -3.75 0 
" id="mc7afb69be7" style="stroke:#262626;"/>
      </defs>
      <g>
       <use style="fill:#262626;stroke:#262626;" x="64.588" xlink:href="#mc7afb69be7" y="664.954026"/>
      </g>
     </g>
    </g>
    <g id="ytick_8">
     <g id="line2d_42">
      <g>
       <use style="fill:#262626;stroke:#262626;" x="64.588" xlink:href="#mc7afb69be7" y="633.501165"/>
      </g>
     </g>
    </g>
    <g id="ytick_9">
     <g id="line2d_43">
      <g>
       <use style="fill:#262626;stroke:#262626;" x="64.588" xlink:href="#mc7afb69be7" y="602.048304"/>
      </g>
     </g>
    </g>
    <g id="ytick_10">
     <g id="line2d_44">
      <g>
       <use style="fill:#262626;stroke:#262626;" x="64.588" xlink:href="#mc7afb69be7" y="539.142581"/>
      </g>
     </g>
    </g>
    <g id="ytick_11">
     <g id="line2d_45">
      <g>
       <use style="fill:#262626;stroke:#262626;" x="64.588" xlink:href="#mc7afb69be7" y="507.68972"/>
      </g>
     </g>
    </g>
    <g id="ytick_12">
     <g id="line2d_46">
      <g>
       <use style="fill:#262626;stroke:#262626;" x="64.588" xlink:href="#mc7afb69be7" y="476.236858"/>
      </g>
     </g>
    </g>
    <g id="ytick_13">
     <g id="line2d_47">
      <g>
       <use style="fill:#262626;stroke:#262626;" x="64.588" xlink:href="#mc7afb69be7" y="413.331136"/>
      </g>
     </g>
    </g>
    <g id="ytick_14">
     <g id="line2d_48">
      <g>
       <use style="fill:#262626;stroke:#262626;" x="64.588" xlink:href="#mc7afb69be7" y="381.878274"/>
      </g>
     </g>
    </g>
    <g id="ytick_15">
     <g id="line2d_49">
      <g>
       <use style="fill:#262626;stroke:#262626;" x="64.588" xlink:href="#mc7afb69be7" y="350.425413"/>
      </g>
     </g>
    </g>
    <g id="ytick_16">
     <g id="line2d_50">
      <g>
       <use style="fill:#262626;stroke:#262626;" x="64.588" xlink:href="#mc7afb69be7" y="287.51969"/>
      </g>
     </g>
    </g>
    <g id="ytick_17">
     <g id="line2d_51">
      <g>
       <use style="fill:#262626;stroke:#262626;" x="64.588" xlink:href="#mc7afb69be7" y="256.066829"/>
      </g>
     </g>
    </g>
    <g id="ytick_18">
     <g id="line2d_52">
      <g>
       <use style="fill:#262626;stroke:#262626;" x="64.588" xlink:href="#mc7afb69be7" y="224.613968"/>
      </g>
     </g>
    </g>
    <g id="ytick_19">
     <g id="line2d_53">
      <g>
       <use style="fill:#262626;stroke:#262626;" x="64.588" xlink:href="#mc7afb69be7" y="161.708245"/>
      </g>
     </g>
    </g>
    <g id="ytick_20">
     <g id="line2d_54">
      <g>
       <use style="fill:#262626;stroke:#262626;" x="64.588" xlink:href="#mc7afb69be7" y="130.255384"/>
      </g>
     </g>
    </g>
    <g id="ytick_21">
     <g id="line2d_55">
      <g>
       <use style="fill:#262626;stroke:#262626;" x="64.588" xlink:href="#mc7afb69be7" y="98.802523"/>
      </g>
     </g>
    </g>
    <g id="ytick_22">
     <g id="line2d_56">
      <g>
       <use style="fill:#262626;stroke:#262626;" x="64.588" xlink:href="#mc7afb69be7" y="67.349661"/>
      </g>
     </g>
    </g>
    <g id="text_13">
     <!-- Luminous Efficiency -->
     <defs>
      <path d="M 8.203125 0 
L 8.203125 68.796875 
L 17.53125 68.796875 
L 17.53125 7.625 
L 52.296875 7.625 
L 52.296875 0 
z
" id="LiberationSans-4c"/>
      <path d="M 15.328125 52.828125 
L 15.328125 19.34375 
Q 15.328125 15.484375 15.890625 12.890625 
Q 16.453125 10.296875 17.71875 8.703125 
Q 19 7.125 21.0625 6.46875 
Q 23.140625 5.8125 26.21875 5.8125 
Q 29.34375 5.8125 31.859375 6.90625 
Q 34.375 8.015625 36.15625 10.078125 
Q 37.9375 12.15625 38.90625 15.203125 
Q 39.890625 18.265625 39.890625 22.21875 
L 39.890625 52.828125 
L 48.6875 52.828125 
L 48.6875 11.28125 
Q 48.6875 9.625 48.703125 7.78125 
Q 48.734375 5.953125 48.78125 4.3125 
Q 48.828125 2.6875 48.875 1.515625 
Q 48.921875 0.34375 48.96875 0 
L 40.671875 0 
Q 40.625 0.25 40.578125 1.3125 
Q 40.53125 2.390625 40.453125 3.78125 
Q 40.375 5.171875 40.328125 6.609375 
Q 40.28125 8.0625 40.28125 9.03125 
L 40.140625 9.03125 
Q 38.875 6.734375 37.359375 4.875 
Q 35.84375 3.03125 33.84375 1.734375 
Q 31.84375 0.4375 29.25 -0.265625 
Q 26.65625 -0.984375 23.25 -0.984375 
Q 18.84375 -0.984375 15.671875 0.09375 
Q 12.5 1.171875 10.453125 3.421875 
Q 8.40625 5.671875 7.453125 9.1875 
Q 6.5 12.703125 6.5 17.625 
L 6.5 52.828125 
z
" id="LiberationSans-75"/>
      <path d="M 6.6875 64.0625 
L 6.6875 72.46875 
L 15.484375 72.46875 
L 15.484375 64.0625 
z
M 6.6875 0 
L 6.6875 52.828125 
L 15.484375 52.828125 
L 15.484375 0 
z
" id="LiberationSans-69"/>
      <path d="M 51.421875 26.46875 
Q 51.421875 12.59375 45.3125 5.796875 
Q 39.203125 -0.984375 27.59375 -0.984375 
Q 22.078125 -0.984375 17.71875 0.671875 
Q 13.375 2.34375 10.375 5.765625 
Q 7.375 9.1875 5.78125 14.328125 
Q 4.203125 19.484375 4.203125 26.46875 
Q 4.203125 53.8125 27.875 53.8125 
Q 34.03125 53.8125 38.5 52.09375 
Q 42.96875 50.390625 45.828125 46.96875 
Q 48.6875 43.5625 50.046875 38.421875 
Q 51.421875 33.296875 51.421875 26.46875 
z
M 42.1875 26.46875 
Q 42.1875 32.625 41.234375 36.625 
Q 40.28125 40.625 38.453125 43.015625 
Q 36.625 45.40625 33.984375 46.359375 
Q 31.34375 47.3125 28.03125 47.3125 
Q 24.65625 47.3125 21.9375 46.3125 
Q 19.234375 45.3125 17.328125 42.890625 
Q 15.4375 40.484375 14.421875 36.46875 
Q 13.421875 32.46875 13.421875 26.46875 
Q 13.421875 20.3125 14.5 16.28125 
Q 15.578125 12.25 17.453125 9.859375 
Q 19.34375 7.46875 21.90625 6.484375 
Q 24.46875 5.515625 27.484375 5.515625 
Q 30.859375 5.515625 33.59375 6.46875 
Q 36.328125 7.421875 38.234375 9.8125 
Q 40.140625 12.203125 41.15625 16.25 
Q 42.1875 20.3125 42.1875 26.46875 
z
" id="LiberationSans-6f"/>
      <path d="M 46.390625 14.59375 
Q 46.390625 10.890625 44.9375 7.984375 
Q 43.5 5.078125 40.765625 3.09375 
Q 38.03125 1.125 34.046875 0.0625 
Q 30.078125 -0.984375 24.953125 -0.984375 
Q 20.359375 -0.984375 16.671875 -0.265625 
Q 12.984375 0.4375 10.203125 2 
Q 7.421875 3.5625 5.53125 6.125 
Q 3.65625 8.6875 2.78125 12.40625 
L 10.546875 13.921875 
Q 11.671875 9.671875 15.1875 7.6875 
Q 18.703125 5.71875 24.953125 5.71875 
Q 27.78125 5.71875 30.140625 6.109375 
Q 32.515625 6.5 34.21875 7.453125 
Q 35.9375 8.40625 36.890625 9.984375 
Q 37.84375 11.578125 37.84375 13.921875 
Q 37.84375 16.3125 36.71875 17.84375 
Q 35.59375 19.390625 33.59375 20.40625 
Q 31.59375 21.4375 28.734375 22.1875 
Q 25.875 22.953125 22.46875 23.875 
Q 19.28125 24.703125 16.15625 25.734375 
Q 13.03125 26.765625 10.515625 28.4375 
Q 8.015625 30.125 6.453125 32.609375 
Q 4.890625 35.109375 4.890625 38.875 
Q 4.890625 46.09375 10.03125 49.875 
Q 15.1875 53.65625 25.046875 53.65625 
Q 33.796875 53.65625 38.9375 50.578125 
Q 44.09375 47.515625 45.453125 40.71875 
L 37.546875 39.75 
Q 37.109375 41.796875 35.9375 43.1875 
Q 34.765625 44.578125 33.109375 45.4375 
Q 31.453125 46.296875 29.375 46.65625 
Q 27.296875 47.015625 25.046875 47.015625 
Q 19.09375 47.015625 16.25 45.203125 
Q 13.421875 43.40625 13.421875 39.75 
Q 13.421875 37.59375 14.46875 36.203125 
Q 15.53125 34.8125 17.40625 33.859375 
Q 19.28125 32.90625 21.921875 32.203125 
Q 24.5625 31.5 27.734375 30.71875 
Q 29.828125 30.171875 32.03125 29.5625 
Q 34.234375 28.953125 36.296875 28.09375 
Q 38.375 27.25 40.203125 26.09375 
Q 42.046875 24.953125 43.40625 23.34375 
Q 44.78125 21.734375 45.578125 19.578125 
Q 46.390625 17.4375 46.390625 14.59375 
z
" id="LiberationSans-73"/>
      <path d="M 8.203125 0 
L 8.203125 68.796875 
L 60.40625 68.796875 
L 60.40625 61.1875 
L 17.53125 61.1875 
L 17.53125 39.109375 
L 57.46875 39.109375 
L 57.46875 31.59375 
L 17.53125 31.59375 
L 17.53125 7.625 
L 62.40625 7.625 
L 62.40625 0 
z
" id="LiberationSans-45"/>
      <path d="M 17.625 46.4375 
L 17.625 0 
L 8.84375 0 
L 8.84375 46.4375 
L 1.421875 46.4375 
L 1.421875 52.828125 
L 8.84375 52.828125 
L 8.84375 58.796875 
Q 8.84375 61.671875 9.375 64.140625 
Q 9.90625 66.609375 11.34375 68.4375 
Q 12.796875 70.265625 15.28125 71.3125 
Q 17.78125 72.359375 21.734375 72.359375 
Q 23.296875 72.359375 24.96875 72.21875 
Q 26.65625 72.078125 27.9375 71.78125 
L 27.9375 65.09375 
Q 27.09375 65.234375 26 65.359375 
Q 24.90625 65.484375 24.03125 65.484375 
Q 22.078125 65.484375 20.828125 64.9375 
Q 19.578125 64.40625 18.875 63.40625 
Q 18.171875 62.40625 17.890625 60.9375 
Q 17.625 59.46875 17.625 57.5625 
L 17.625 52.828125 
L 27.9375 52.828125 
L 27.9375 46.4375 
z
" id="LiberationSans-66"/>
      <path d="M 13.421875 26.65625 
Q 13.421875 22.125 14.078125 18.3125 
Q 14.75 14.5 16.3125 11.734375 
Q 17.875 8.984375 20.4375 7.46875 
Q 23 5.953125 26.765625 5.953125 
Q 31.453125 5.953125 34.59375 8.484375 
Q 37.75 11.03125 38.484375 16.3125 
L 47.359375 15.71875 
Q 46.921875 12.453125 45.453125 9.421875 
Q 44 6.390625 41.484375 4.09375 
Q 38.96875 1.8125 35.34375 0.40625 
Q 31.734375 -0.984375 27 -0.984375 
Q 20.796875 -0.984375 16.453125 1.109375 
Q 12.109375 3.21875 9.390625 6.90625 
Q 6.6875 10.59375 5.46875 15.59375 
Q 4.25 20.609375 4.25 26.46875 
Q 4.25 31.78125 5.125 35.859375 
Q 6 39.9375 7.59375 42.984375 
Q 9.1875 46.046875 11.328125 48.125 
Q 13.484375 50.203125 15.984375 51.4375 
Q 18.5 52.6875 21.28125 53.25 
Q 24.078125 53.8125 26.90625 53.8125 
Q 31.34375 53.8125 34.8125 52.59375 
Q 38.28125 51.375 40.796875 49.25 
Q 43.3125 47.125 44.875 44.234375 
Q 46.4375 41.359375 47.078125 38.03125 
L 38.03125 37.359375 
Q 37.359375 41.75 34.5625 44.328125 
Q 31.78125 46.921875 26.65625 46.921875 
Q 22.90625 46.921875 20.390625 45.671875 
Q 17.875 44.4375 16.3125 41.921875 
Q 14.75 39.40625 14.078125 35.59375 
Q 13.421875 31.78125 13.421875 26.65625 
z
" id="LiberationSans-63"/>
      <path d="M 29.5 0 
Q 27.640625 -4.78125 25.703125 -8.609375 
Q 23.78125 -12.453125 21.390625 -15.15625 
Q 19 -17.875 16.0625 -19.3125 
Q 13.140625 -20.75 9.328125 -20.75 
Q 7.671875 -20.75 6.25 -20.65625 
Q 4.828125 -20.5625 3.265625 -20.21875 
L 3.265625 -13.625 
Q 4.203125 -13.765625 5.375 -13.84375 
Q 6.546875 -13.921875 7.375 -13.921875 
Q 11.234375 -13.921875 14.546875 -11.03125 
Q 17.875 -8.15625 20.359375 -1.859375 
L 21.1875 0.25 
L 0.25 52.828125 
L 9.625 52.828125 
L 20.75 23.640625 
Q 21.234375 22.3125 21.984375 20.109375 
Q 22.75 17.921875 23.5 15.71875 
Q 24.265625 13.53125 24.84375 11.765625 
Q 25.4375 10.015625 25.53125 9.578125 
Q 25.6875 10.109375 26.25 11.6875 
Q 26.8125 13.28125 27.515625 15.234375 
Q 28.21875 17.1875 28.953125 19.1875 
Q 29.6875 21.1875 30.171875 22.65625 
L 40.53125 52.828125 
L 49.8125 52.828125 
z
" id="LiberationSans-79"/>
     </defs>
     <g style="fill:#262626;" transform="translate(21.114 451.5198)rotate(-90)scale(0.192 -0.192)">
      <use xlink:href="#LiberationSans-4c"/>
      <use x="55.615234" xlink:href="#LiberationSans-75"/>
      <use x="111.230469" xlink:href="#LiberationSans-6d"/>
      <use x="194.53125" xlink:href="#LiberationSans-69"/>
      <use x="216.748047" xlink:href="#LiberationSans-6e"/>
      <use x="272.363281" xlink:href="#LiberationSans-6f"/>
      <use x="327.978516" xlink:href="#LiberationSans-75"/>
      <use x="383.59375" xlink:href="#LiberationSans-73"/>
      <use x="433.59375" xlink:href="#LiberationSans-20"/>
      <use x="461.376953" xlink:href="#LiberationSans-45"/>
      <use x="528.076172" xlink:href="#LiberationSans-66"/>
      <use x="555.84375" xlink:href="#LiberationSans-66"/>
      <use x="583.626953" xlink:href="#LiberationSans-69"/>
      <use x="605.84375" xlink:href="#LiberationSans-63"/>
      <use x="655.84375" xlink:href="#LiberationSans-69"/>
      <use x="678.060547" xlink:href="#LiberationSans-65"/>
      <use x="733.675781" xlink:href="#LiberationSans-6e"/>
      <use x="789.291016" xlink:href="#LiberationSans-63"/>
      <use x="839.291016" xlink:href="#LiberationSans-79"/>
     </g>
    </g>
   </g>
   <g id="line2d_57">
    <path clip-path="url(#p9fbed45585)" d="M 119.270979 696.14017 
L 135.675872 695.836331 
L 146.612468 695.414801 
L 154.814915 694.887037 
L 160.283213 694.381515 
L 165.751511 693.704603 
L 171.219809 692.812266 
L 176.688106 691.647567 
L 182.156404 690.139086 
L 184.890553 689.231929 
L 187.624702 688.203897 
L 190.358851 687.049623 
L 193.093 685.756269 
L 195.827149 684.315711 
L 198.561298 682.724148 
L 201.295447 680.973458 
L 204.029596 679.05914 
L 206.763745 676.95815 
L 209.497894 674.695042 
L 212.232043 672.251161 
L 214.966191 669.625134 
L 217.70034 666.773624 
L 220.434489 663.738506 
L 223.168638 660.516587 
L 225.902787 657.061463 
L 228.636936 653.413156 
L 234.105234 645.488421 
L 236.839383 641.216924 
L 242.307681 632.071255 
L 245.04183 627.287966 
L 250.510128 617.125796 
L 255.978426 606.441007 
L 261.446723 595.233833 
L 269.64917 577.707892 
L 280.585766 553.538736 
L 294.256511 523.20303 
L 305.193106 499.364303 
L 321.598 465.141678 
L 332.534596 443.269385 
L 335.268745 437.740705 
L 338.002894 432.624388 
L 340.737043 427.056966 
L 343.471191 421.898634 
L 348.939489 410.629357 
L 351.673638 405.372972 
L 359.876085 388.057128 
L 362.610234 382.188053 
L 365.344383 375.830166 
L 368.078532 369.84483 
L 370.812681 363.367696 
L 373.54683 357.2622 
L 387.217574 324.06203 
L 411.824915 261.735405 
L 417.293213 247.698327 
L 439.166404 191.517797 
L 444.634702 178.107905 
L 447.368851 171.002452 
L 452.837149 157.630769 
L 458.305447 143.778788 
L 461.039596 137.710397 
L 463.773745 131.110576 
L 469.242043 119.293715 
L 471.976191 114.042098 
L 474.71034 108.197094 
L 477.444489 103.057108 
L 482.912787 93.334054 
L 485.646936 88.83738 
L 488.381085 84.785522 
L 493.849383 77.659494 
L 496.583532 74.680353 
L 499.317681 72.321447 
L 502.05183 70.215871 
L 504.785979 68.846682 
L 507.520128 67.761238 
L 510.254277 67.349661 
L 512.988426 67.569958 
L 515.722574 67.948024 
L 518.456723 68.899888 
L 521.190872 70.015904 
L 523.925021 71.744019 
L 526.65917 73.667952 
L 529.393319 76.235649 
L 532.127468 79.021632 
L 534.861617 82.013885 
L 540.329915 89.432862 
L 545.798213 97.53686 
L 554.00066 111.792136 
L 559.468957 122.406481 
L 564.937255 133.654905 
L 567.671404 139.942893 
L 570.405553 145.950341 
L 573.139702 151.677468 
L 578.608 164.422882 
L 581.342149 170.986901 
L 586.810447 183.594415 
L 589.544596 190.50617 
L 592.278745 196.670666 
L 595.012894 203.385397 
L 597.747043 209.788298 
L 603.21534 223.185335 
L 636.025128 302.310604 
L 646.961723 328.034935 
L 655.16417 347.044684 
L 668.834915 377.95784 
L 679.771511 402.132126 
L 687.973957 419.772281 
L 696.176404 436.877925 
L 704.378851 453.332625 
L 712.581298 469.249617 
L 720.783745 484.636611 
L 728.986191 499.461095 
L 737.188638 513.789872 
L 745.391085 527.637072 
L 753.593532 540.911128 
L 761.795979 553.649938 
L 769.998426 565.943815 
L 783.66917 586.00814 
L 791.871617 597.628736 
L 797.339915 605.038241 
L 802.808213 612.044839 
L 808.276511 618.550601 
L 813.744809 624.62673 
L 819.213106 630.38018 
L 824.681404 635.833435 
L 830.149702 641.000895 
L 835.618 645.900676 
L 841.086298 650.525512 
L 846.554596 654.858226 
L 852.022894 658.897543 
L 857.491191 662.633057 
L 862.959489 666.058379 
L 868.427787 669.19949 
L 873.896085 672.091478 
L 879.364383 674.749363 
L 884.832681 677.184215 
L 890.300979 679.407661 
L 895.769277 681.428214 
L 901.237574 683.254164 
L 906.705872 684.891573 
L 912.17417 686.329839 
L 917.642468 687.566266 
L 923.110766 688.627805 
L 931.313213 689.953526 
L 942.249809 691.401666 
L 953.186404 692.65536 
L 964.123 693.62247 
L 975.059596 694.331952 
L 988.73034 694.934791 
L 1007.869383 695.484875 
L 1029.742574 695.870576 
L 1059.818213 696.157073 
L 1106.298745 696.33395 
L 1196.52566 696.399693 
L 1212.930553 696.402137 
L 1212.930553 696.402137 
" style="fill:none;stroke:#f44336;stroke-linecap:round;"/>
   </g>
   <g id="line2d_58">
    <path clip-path="url(#p9fbed45585)" d="M 64.588 696.404423 
L 157.549064 696.286224 
L 187.624702 696.004291 
L 201.295447 695.645728 
L 212.232043 695.189459 
L 220.434489 694.668173 
L 228.636936 693.890659 
L 234.105234 693.16138 
L 242.307681 691.81477 
L 250.510128 690.262458 
L 258.712574 688.497644 
L 266.915021 686.521197 
L 275.117468 684.31988 
L 286.054064 681.124187 
L 294.256511 678.572329 
L 302.458957 675.721171 
L 307.927255 673.618843 
L 313.395553 671.341052 
L 318.863851 668.875569 
L 324.332149 666.212141 
L 329.800447 663.335437 
L 335.268745 660.262064 
L 343.471191 655.343592 
L 348.939489 651.799754 
L 354.407787 647.959416 
L 359.876085 643.775682 
L 365.344383 639.175261 
L 370.812681 634.101386 
L 376.280979 628.5413 
L 381.749277 622.472534 
L 387.217574 615.892092 
L 392.685872 608.955352 
L 398.15417 601.753087 
L 403.622468 594.048142 
L 406.356617 589.907499 
L 409.090766 585.539892 
L 411.824915 580.938338 
L 414.559064 576.08491 
L 417.293213 570.961554 
L 420.027362 565.550403 
L 422.761511 559.826045 
L 425.49566 553.777912 
L 428.229809 547.410217 
L 430.963957 540.72705 
L 436.432255 526.445124 
L 439.166404 518.82787 
L 441.900553 510.803238 
L 444.634702 502.293667 
L 447.368851 493.221403 
L 450.103 483.532601 
L 452.837149 473.289222 
L 458.305447 451.522773 
L 463.773745 428.661323 
L 469.242043 404.905292 
L 474.71034 379.991103 
L 480.178638 353.877679 
L 496.583532 274.387995 
L 502.05183 249.776257 
L 504.785979 238.336725 
L 507.520128 227.467623 
L 512.988426 207.103028 
L 518.456723 188.059201 
L 523.925021 170.322052 
L 526.65917 162.028058 
L 529.393319 154.159559 
L 532.127468 146.729889 
L 534.861617 139.714895 
L 537.595766 133.090167 
L 540.329915 126.8313 
L 543.064064 120.913821 
L 545.798213 115.324836 
L 548.532362 110.067428 
L 551.266511 105.141784 
L 554.00066 100.548031 
L 556.734809 96.286294 
L 559.468957 92.350849 
L 562.203106 88.732952 
L 564.937255 85.428389 
L 567.671404 82.432881 
L 570.405553 79.742089 
L 573.139702 77.356452 
L 575.873851 75.264334 
L 578.608 73.443464 
L 581.342149 71.871576 
L 584.076298 70.526337 
L 586.810447 69.418756 
L 589.544596 68.545939 
L 592.278745 67.908264 
L 595.012894 67.508058 
L 597.747043 67.349661 
L 600.481191 67.439805 
L 603.21534 67.787108 
L 605.949489 68.403018 
L 608.683638 69.300556 
L 611.417787 70.494947 
L 614.151936 72.00437 
L 616.886085 73.802153 
L 619.620234 75.876909 
L 622.354383 78.217191 
L 625.088532 80.811486 
L 627.822681 83.652497 
L 630.55683 86.742741 
L 633.290979 90.085802 
L 636.025128 93.685205 
L 638.759277 97.544408 
L 641.493426 101.664481 
L 644.227574 106.037184 
L 646.961723 110.652199 
L 652.430021 120.567903 
L 657.898319 131.339124 
L 663.366617 142.973915 
L 668.834915 155.504923 
L 674.303213 168.865658 
L 679.771511 182.907474 
L 685.239809 197.512924 
L 693.442255 220.210567 
L 704.378851 251.351102 
L 715.315447 283.321111 
L 748.125234 379.991103 
L 759.06183 411.190328 
L 769.998426 441.618581 
L 791.871617 501.81552 
L 797.339915 516.123112 
L 802.808213 529.706723 
L 808.276511 542.357315 
L 813.744809 554.20674 
L 819.213106 565.461329 
L 824.681404 576.159328 
L 830.149702 586.321873 
L 835.618 595.980166 
L 841.086298 605.114391 
L 846.554596 613.685673 
L 852.022894 621.687973 
L 857.491191 629.097764 
L 862.959489 635.898728 
L 868.427787 642.14136 
L 873.896085 647.893592 
L 879.364383 653.184315 
L 884.832681 658.034397 
L 890.300979 662.46608 
L 895.769277 666.495437 
L 901.237574 670.138263 
L 906.705872 673.40614 
L 912.17417 676.277056 
L 917.642468 678.745074 
L 923.110766 680.86411 
L 928.579064 682.692956 
L 934.047362 684.277985 
L 942.249809 686.402493 
L 950.452255 688.333076 
L 955.920553 689.444287 
L 964.123 690.842148 
L 972.325447 691.94975 
L 980.527894 692.806793 
L 991.464489 693.65157 
L 1005.135234 694.435364 
L 1018.805979 694.999513 
L 1037.945021 695.53596 
L 1059.818213 695.907895 
L 1089.893851 696.179735 
L 1133.640234 696.336521 
L 1234.803745 696.401482 
L 1349.638 696.406603 
L 1349.638 696.406603 
" style="fill:none;stroke:#9c27b0;stroke-linecap:round;"/>
   </g>
   <g id="line2d_59">
    <path clip-path="url(#p9fbed45585)" d="M 119.270979 696.036373 
L 132.941723 695.709892 
L 143.878319 695.200356 
L 152.080766 694.558088 
L 157.549064 693.940354 
L 163.017362 693.110628 
L 168.48566 692.016068 
L 173.953957 690.562946 
L 176.688106 689.675975 
L 179.422255 688.663193 
L 182.156404 687.518309 
L 184.890553 686.222451 
L 187.624702 684.756748 
L 190.358851 683.114908 
L 193.093 681.278061 
L 195.827149 679.233625 
L 198.561298 676.97531 
L 201.295447 674.490534 
L 204.029596 671.773006 
L 206.763745 668.791275 
L 209.497894 665.583083 
L 212.232043 662.123269 
L 214.966191 658.411831 
L 217.70034 654.385865 
L 220.434489 650.108276 
L 223.168638 645.579064 
L 225.902787 640.735323 
L 228.636936 635.639959 
L 234.105234 624.631458 
L 236.839383 618.71832 
L 242.307681 606.07427 
L 245.04183 599.469169 
L 250.510128 585.441193 
L 255.978426 570.721254 
L 261.446723 555.309352 
L 269.64917 531.279366 
L 280.585766 498.316767 
L 291.522362 465.354168 
L 299.724809 441.009654 
L 302.458957 433.460967 
L 305.193106 425.283223 
L 316.129702 395.088476 
L 318.863851 388.168847 
L 321.598 380.62016 
L 335.268745 346.022012 
L 338.002894 339.73144 
L 340.737043 332.811811 
L 343.471191 326.521238 
L 348.939489 312.681979 
L 351.673638 306.391407 
L 362.610234 278.712889 
L 365.344383 271.164203 
L 368.078532 264.244573 
L 370.812681 256.695886 
L 373.54683 249.776257 
L 379.015128 234.678883 
L 381.749277 227.759254 
L 398.15417 182.467134 
L 400.888319 175.547504 
L 403.622468 167.998817 
L 414.559064 140.3203 
L 422.761511 121.448583 
L 430.963957 104.464038 
L 436.432255 94.399122 
L 439.166404 89.995721 
L 447.368851 78.672691 
L 455.571298 71.124005 
L 458.305447 69.236833 
L 461.039596 68.607776 
L 463.773745 67.349661 
L 469.242043 67.349661 
L 471.976191 68.607776 
L 474.71034 69.236833 
L 477.444489 71.124005 
L 482.912787 76.156462 
L 485.646936 79.301749 
L 488.381085 83.076092 
L 493.849383 91.882893 
L 496.583532 96.915351 
L 502.05183 108.238381 
L 507.520128 120.819526 
L 510.254277 127.739155 
L 515.722574 142.836528 
L 521.190872 159.192016 
L 526.65917 176.805619 
L 534.861617 205.113194 
L 545.798213 245.372856 
L 551.266511 266.760802 
L 554.00066 276.825718 
L 564.937255 319.601609 
L 567.671404 330.924639 
L 570.405553 341.618612 
L 573.139702 351.683528 
L 581.342149 383.765446 
L 586.810447 403.895277 
L 589.544596 414.58925 
L 592.278745 424.025109 
L 595.012894 434.090024 
L 605.949489 471.896363 
L 611.417787 489.572871 
L 616.886085 506.557417 
L 622.354383 522.661282 
L 627.822681 537.947372 
L 633.290979 552.289877 
L 638.759277 565.814607 
L 644.227574 578.395752 
L 649.695872 590.096216 
L 655.16417 600.978906 
L 660.632468 610.980916 
L 666.100766 620.165152 
L 668.834915 624.505646 
L 674.303213 632.557579 
L 679.771511 639.854643 
L 685.239809 646.522649 
L 690.708106 652.435787 
L 696.176404 657.845679 
L 701.644702 662.626514 
L 707.113 666.904104 
L 712.581298 670.678447 
L 718.049596 674.025031 
L 723.517894 676.987891 
L 728.986191 679.585897 
L 734.454489 681.863084 
L 739.922787 683.863486 
L 745.391085 685.599684 
L 750.859383 687.115712 
L 756.327681 688.424151 
L 761.795979 689.562745 
L 769.998426 690.984414 
L 778.200872 692.116717 
L 786.403319 693.02256 
L 797.339915 693.945387 
L 808.276511 694.619107 
L 821.947255 695.209792 
L 838.352149 695.665858 
L 860.22534 696.013098 
L 890.300979 696.237734 
L 942.249809 696.364992 
L 1084.425553 696.405557 
L 1212.930553 696.4068 
L 1212.930553 696.4068 
" style="fill:none;stroke:#3f51b5;stroke-linecap:round;"/>
   </g>
   <g id="patch_3">
    <path d="M 64.588 696.4068 
L 64.588 35.8968 
" style="fill:none;stroke:#333333;stroke-linecap:square;stroke-linejoin:miter;"/>
   </g>
   <g id="patch_4">
    <path d="M 1349.638 696.4068 
L 1349.638 35.8968 
" style="fill:none;stroke:#333333;stroke-linecap:square;stroke-linejoin:miter;"/>
   </g>
   <g id="patch_5">
    <path d="M 64.588 696.4068 
L 1349.638 696.4068 
" style="fill:none;stroke:#333333;stroke-linecap:square;stroke-linejoin:miter;"/>
   </g>
   <g id="patch_6">
    <path d="M 64.588 35.8968 
L 1349.638 35.8968 
" style="fill:none;stroke:#333333;stroke-linecap:square;stroke-linejoin:miter;"/>
   </g>
   <g id="text_14">
    <!-- Scotopic, Mesopic and Photopic Luminous Efficiency Functions -->
    <defs>
     <path d="M 62.109375 19 
Q 62.109375 14.65625 60.421875 10.984375 
Q 58.734375 7.328125 55.21875 4.65625 
Q 51.703125 2 46.359375 0.5 
Q 41.015625 -0.984375 33.6875 -0.984375 
Q 20.84375 -0.984375 13.671875 3.515625 
Q 6.5 8.015625 4.546875 16.5 
L 13.578125 18.3125 
Q 14.265625 15.625 15.671875 13.421875 
Q 17.09375 11.234375 19.5 9.640625 
Q 21.921875 8.0625 25.484375 7.171875 
Q 29.046875 6.296875 34.03125 6.296875 
Q 38.1875 6.296875 41.65625 7 
Q 45.125 7.71875 47.609375 9.171875 
Q 50.09375 10.640625 51.484375 12.953125 
Q 52.875 15.28125 52.875 18.5 
Q 52.875 21.875 51.34375 23.96875 
Q 49.8125 26.078125 47.015625 27.4375 
Q 44.234375 28.8125 40.375 29.734375 
Q 36.53125 30.671875 31.84375 31.734375 
Q 28.953125 32.375 26.046875 33.125 
Q 23.140625 33.890625 20.484375 34.9375 
Q 17.828125 35.984375 15.484375 37.390625 
Q 13.140625 38.8125 11.421875 40.796875 
Q 9.71875 42.78125 8.734375 45.390625 
Q 7.765625 48 7.765625 51.421875 
Q 7.765625 56.296875 9.734375 59.78125 
Q 11.71875 63.28125 15.234375 65.53125 
Q 18.75 67.78125 23.53125 68.796875 
Q 28.328125 69.828125 33.890625 69.828125 
Q 40.28125 69.828125 44.8125 68.828125 
Q 49.359375 67.828125 52.484375 65.8125 
Q 55.609375 63.8125 57.484375 60.859375 
Q 59.375 57.90625 60.5 54 
L 51.3125 52.390625 
Q 50.640625 54.890625 49.34375 56.84375 
Q 48.046875 58.796875 45.9375 60.109375 
Q 43.84375 61.421875 40.84375 62.109375 
Q 37.84375 62.796875 33.796875 62.796875 
Q 29 62.796875 25.75 61.9375 
Q 22.515625 61.078125 20.53125 59.609375 
Q 18.5625 58.15625 17.703125 56.171875 
Q 16.84375 54.203125 16.84375 51.90625 
Q 16.84375 48.828125 18.375 46.84375 
Q 19.921875 44.875 22.5625 43.546875 
Q 25.203125 42.234375 28.65625 41.359375 
Q 32.125 40.484375 36.03125 39.59375 
Q 39.203125 38.875 42.359375 38.109375 
Q 45.515625 37.359375 48.390625 36.296875 
Q 51.265625 35.25 53.78125 33.828125 
Q 56.296875 32.421875 58.15625 30.375 
Q 60.015625 28.328125 61.0625 25.53125 
Q 62.109375 22.75 62.109375 19 
z
" id="LiberationSans-53"/>
     <path d="M 51.421875 26.65625 
Q 51.421875 20.65625 50.4375 15.578125 
Q 49.46875 10.5 47.1875 6.828125 
Q 44.921875 3.171875 41.1875 1.09375 
Q 37.453125 -0.984375 31.984375 -0.984375 
Q 26.3125 -0.984375 22.0625 1.171875 
Q 17.828125 3.328125 15.578125 8.203125 
L 15.328125 8.203125 
Q 15.375 8.109375 15.40625 7.328125 
Q 15.4375 6.546875 15.453125 5.375 
Q 15.484375 4.203125 15.5 2.75 
Q 15.53125 1.3125 15.53125 -0.09375 
L 15.53125 -20.75 
L 6.734375 -20.75 
L 6.734375 42.046875 
Q 6.734375 43.953125 6.703125 45.703125 
Q 6.6875 47.46875 6.640625 48.90625 
Q 6.59375 50.34375 6.546875 51.359375 
Q 6.5 52.390625 6.453125 52.828125 
L 14.9375 52.828125 
Q 14.984375 52.6875 15.0625 51.796875 
Q 15.140625 50.921875 15.203125 49.671875 
Q 15.28125 48.4375 15.359375 47.015625 
Q 15.4375 45.609375 15.4375 44.34375 
L 15.625 44.34375 
Q 16.84375 46.875 18.40625 48.65625 
Q 19.96875 50.4375 21.96875 51.578125 
Q 23.96875 52.734375 26.4375 53.25 
Q 28.90625 53.765625 31.984375 53.765625 
Q 37.453125 53.765625 41.1875 51.8125 
Q 44.921875 49.859375 47.1875 46.3125 
Q 49.46875 42.78125 50.4375 37.765625 
Q 51.421875 32.765625 51.421875 26.65625 
z
M 42.1875 26.46875 
Q 42.1875 31.34375 41.59375 35.15625 
Q 41.015625 38.96875 39.578125 41.59375 
Q 38.140625 44.234375 35.734375 45.59375 
Q 33.34375 46.96875 29.734375 46.96875 
Q 26.8125 46.96875 24.21875 46.140625 
Q 21.625 45.3125 19.703125 42.96875 
Q 17.78125 40.625 16.65625 36.5 
Q 15.53125 32.375 15.53125 25.78125 
Q 15.53125 20.171875 16.453125 16.28125 
Q 17.390625 12.40625 19.171875 10.015625 
Q 20.953125 7.625 23.578125 6.5625 
Q 26.21875 5.515625 29.640625 5.515625 
Q 33.296875 5.515625 35.71875 6.921875 
Q 38.140625 8.34375 39.578125 11.03125 
Q 41.015625 13.71875 41.59375 17.59375 
Q 42.1875 21.484375 42.1875 26.46875 
z
" id="LiberationSans-70"/>
     <path d="M 18.796875 10.6875 
L 18.796875 2.484375 
Q 18.796875 -0.09375 18.578125 -2.21875 
Q 18.359375 -4.34375 17.875 -6.171875 
Q 17.390625 -8.015625 16.671875 -9.625 
Q 15.96875 -11.234375 14.984375 -12.796875 
L 8.984375 -12.796875 
Q 11.1875 -9.625 12.375 -6.390625 
Q 13.578125 -3.171875 13.578125 0 
L 9.28125 0 
L 9.28125 10.6875 
z
" id="LiberationSans-2c"/>
     <path d="M 66.703125 0 
L 66.703125 45.90625 
Q 66.703125 48.390625 66.75 50.96875 
Q 66.796875 53.5625 66.890625 55.71875 
Q 67 58.203125 67.140625 60.546875 
Q 66.453125 58.0625 65.71875 55.609375 
Q 65.09375 53.515625 64.328125 51.140625 
Q 63.578125 48.78125 62.84375 46.875 
L 45.0625 0 
L 38.53125 0 
L 20.515625 46.875 
Q 20.21875 47.609375 19.890625 48.578125 
Q 19.578125 49.5625 19.203125 50.65625 
Q 18.84375 51.765625 18.46875 52.90625 
Q 18.109375 54.046875 17.78125 55.171875 
Q 16.9375 57.765625 16.15625 60.546875 
Q 16.21875 57.8125 16.3125 55.125 
Q 16.40625 52.828125 16.453125 50.3125 
Q 16.5 47.796875 16.5 45.90625 
L 16.5 0 
L 8.203125 0 
L 8.203125 68.796875 
L 20.453125 68.796875 
L 38.765625 21.09375 
Q 39.109375 20.125 39.59375 18.578125 
Q 40.09375 17.046875 40.53125 15.421875 
Q 40.96875 13.8125 41.328125 12.375 
Q 41.703125 10.9375 41.84375 10.15625 
Q 42 10.9375 42.390625 12.40625 
Q 42.78125 13.875 43.28125 15.484375 
Q 43.796875 17.09375 44.28125 18.609375 
Q 44.78125 20.125 45.171875 21.09375 
L 63.140625 68.796875 
L 75.09375 68.796875 
L 75.09375 0 
z
" id="LiberationSans-4d"/>
     <path d="M 40.09375 8.5 
Q 37.640625 3.421875 33.609375 1.21875 
Q 29.59375 -0.984375 23.640625 -0.984375 
Q 13.625 -0.984375 8.90625 5.75 
Q 4.203125 12.5 4.203125 26.171875 
Q 4.203125 53.8125 23.640625 53.8125 
Q 29.640625 53.8125 33.640625 51.609375 
Q 37.640625 49.421875 40.09375 44.625 
L 40.1875 44.625 
Q 40.1875 45.125 40.15625 46.171875 
Q 40.140625 47.21875 40.109375 48.359375 
Q 40.09375 49.515625 40.09375 50.53125 
Q 40.09375 51.5625 40.09375 52 
L 40.09375 72.46875 
L 48.875 72.46875 
L 48.875 10.890625 
Q 48.875 8.984375 48.890625 7.21875 
Q 48.921875 5.46875 48.96875 4 
Q 49.03125 2.546875 49.078125 1.484375 
Q 49.125 0.4375 49.171875 0 
L 40.765625 0 
Q 40.671875 0.484375 40.59375 1.390625 
Q 40.53125 2.296875 40.453125 3.46875 
Q 40.375 4.640625 40.328125 5.9375 
Q 40.28125 7.234375 40.28125 8.5 
z
M 13.421875 26.46875 
Q 13.421875 21 14.109375 17.09375 
Q 14.796875 13.1875 16.3125 10.671875 
Q 17.828125 8.15625 20.171875 6.984375 
Q 22.515625 5.8125 25.875 5.8125 
Q 29.34375 5.8125 32 6.9375 
Q 34.671875 8.0625 36.453125 10.578125 
Q 38.234375 13.09375 39.15625 17.140625 
Q 40.09375 21.1875 40.09375 27.046875 
Q 40.09375 32.671875 39.15625 36.546875 
Q 38.234375 40.4375 36.421875 42.828125 
Q 34.625 45.21875 32 46.265625 
Q 29.390625 47.3125 25.984375 47.3125 
Q 22.75 47.3125 20.40625 46.1875 
Q 18.0625 45.0625 16.5 42.578125 
Q 14.9375 40.09375 14.171875 36.109375 
Q 13.421875 32.125 13.421875 26.46875 
z
" id="LiberationSans-64"/>
     <path d="M 61.421875 48.09375 
Q 61.421875 43.609375 59.9375 39.71875 
Q 58.453125 35.84375 55.5 32.984375 
Q 52.546875 30.125 48.09375 28.46875 
Q 43.65625 26.8125 37.75 26.8125 
L 17.53125 26.8125 
L 17.53125 0 
L 8.203125 0 
L 8.203125 68.796875 
L 37.15625 68.796875 
Q 43.265625 68.796875 47.796875 67.3125 
Q 52.34375 65.828125 55.375 63.109375 
Q 58.40625 60.40625 59.90625 56.5625 
Q 61.421875 52.734375 61.421875 48.09375 
z
M 52.046875 48 
Q 52.046875 54.546875 48.046875 57.9375 
Q 44.046875 61.328125 36.03125 61.328125 
L 17.53125 61.328125 
L 17.53125 34.1875 
L 36.421875 34.1875 
Q 44.484375 34.1875 48.265625 37.75 
Q 52.046875 41.3125 52.046875 48 
z
" id="LiberationSans-50"/>
     <path d="M 17.53125 61.1875 
L 17.53125 35.59375 
L 55.90625 35.59375 
L 55.90625 27.875 
L 17.53125 27.875 
L 17.53125 0 
L 8.203125 0 
L 8.203125 68.796875 
L 57.078125 68.796875 
L 57.078125 61.1875 
z
" id="LiberationSans-46"/>
    </defs>
    <g style="fill:#111111;" transform="translate(384.4036 23.8968)scale(0.2304 -0.2304)">
     <use xlink:href="#LiberationSans-53"/>
     <use x="66.699219" xlink:href="#LiberationSans-63"/>
     <use x="116.699219" xlink:href="#LiberationSans-6f"/>
     <use x="172.314453" xlink:href="#LiberationSans-74"/>
     <use x="200.097656" xlink:href="#LiberationSans-6f"/>
     <use x="255.712891" xlink:href="#LiberationSans-70"/>
     <use x="311.328125" xlink:href="#LiberationSans-69"/>
     <use x="333.544922" xlink:href="#LiberationSans-63"/>
     <use x="383.544922" xlink:href="#LiberationSans-2c"/>
     <use x="411.328125" xlink:href="#LiberationSans-20"/>
     <use x="439.111328" xlink:href="#LiberationSans-4d"/>
     <use x="522.412109" xlink:href="#LiberationSans-65"/>
     <use x="578.027344" xlink:href="#LiberationSans-73"/>
     <use x="628.027344" xlink:href="#LiberationSans-6f"/>
     <use x="683.642578" xlink:href="#LiberationSans-70"/>
     <use x="739.257812" xlink:href="#LiberationSans-69"/>
     <use x="761.474609" xlink:href="#LiberationSans-63"/>
     <use x="811.474609" xlink:href="#LiberationSans-20"/>
     <use x="839.257812" xlink:href="#LiberationSans-61"/>
     <use x="894.873047" xlink:href="#LiberationSans-6e"/>
     <use x="950.488281" xlink:href="#LiberationSans-64"/>
     <use x="1006.103516" xlink:href="#LiberationSans-20"/>
     <use x="1033.886719" xlink:href="#LiberationSans-50"/>
     <use x="1100.585938" xlink:href="#LiberationSans-68"/>
     <use x="1156.201172" xlink:href="#LiberationSans-6f"/>
     <use x="1211.816406" xlink:href="#LiberationSans-74"/>
     <use x="1239.599609" xlink:href="#LiberationSans-6f"/>
     <use x="1295.214844" xlink:href="#LiberationSans-70"/>
     <use x="1350.830078" xlink:href="#LiberationSans-69"/>
     <use x="1373.046875" xlink:href="#LiberationSans-63"/>
     <use x="1423.046875" xlink:href="#LiberationSans-20"/>
     <use x="1450.830078" xlink:href="#LiberationSans-4c"/>
     <use x="1506.445312" xlink:href="#LiberationSans-75"/>
     <use x="1562.060547" xlink:href="#LiberationSans-6d"/>
     <use x="1645.361328" xlink:href="#LiberationSans-69"/>
     <use x="1667.578125" xlink:href="#LiberationSans-6e"/>
     <use x="1723.193359" xlink:href="#LiberationSans-6f"/>
     <use x="1778.808594" xlink:href="#LiberationSans-75"/>
     <use x="1834.423828" xlink:href="#LiberationSans-73"/>
     <use x="1884.423828" xlink:href="#LiberationSans-20"/>
     <use x="1912.207031" xlink:href="#LiberationSans-45"/>
     <use x="1978.90625" xlink:href="#LiberationSans-66"/>
     <use x="2006.673828" xlink:href="#LiberationSans-66"/>
     <use x="2034.457031" xlink:href="#LiberationSans-69"/>
     <use x="2056.673828" xlink:href="#LiberationSans-63"/>
     <use x="2106.673828" xlink:href="#LiberationSans-69"/>
     <use x="2128.890625" xlink:href="#LiberationSans-65"/>
     <use x="2184.505859" xlink:href="#LiberationSans-6e"/>
     <use x="2240.121094" xlink:href="#LiberationSans-63"/>
     <use x="2290.121094" xlink:href="#LiberationSans-79"/>
     <use x="2340.121094" xlink:href="#LiberationSans-20"/>
     <use x="2367.904297" xlink:href="#LiberationSans-46"/>
     <use x="2428.988281" xlink:href="#LiberationSans-75"/>
     <use x="2484.603516" xlink:href="#LiberationSans-6e"/>
     <use x="2540.21875" xlink:href="#LiberationSans-63"/>
     <use x="2590.21875" xlink:href="#LiberationSans-74"/>
     <use x="2618.001953" xlink:href="#LiberationSans-69"/>
     <use x="2640.21875" xlink:href="#LiberationSans-6f"/>
     <use x="2695.833984" xlink:href="#LiberationSans-6e"/>
     <use x="2751.449219" xlink:href="#LiberationSans-73"/>
    </g>
   </g>
   <g id="legend_1">
    <g id="patch_7">
     <path d="M 1024.907528 106.489385 
L 1342.974 106.489385 
L 1342.974 42.5608 
L 1024.907528 42.5608 
z
" style="fill:#f0f0f0;opacity:0.75;stroke:#cccccc;stroke-linejoin:miter;stroke-width:0.3;"/>
    </g>
    <g id="line2d_60">
     <path d="M 1031.571528 54.218635 
L 1058.227528 54.218635 
" style="fill:none;stroke:#f44336;stroke-linecap:round;"/>
    </g>
    <g id="line2d_61"/>
    <g id="text_15">
     <!-- 0.2 Lp Mesopic Luminous Efficiency Function -->
     <g style="fill:#111111;" transform="translate(1068.889928 58.883435)scale(0.13328 -0.13328)">
      <use xlink:href="#LiberationSans-30"/>
      <use x="55.615234" xlink:href="#LiberationSans-2e"/>
      <use x="83.398438" xlink:href="#LiberationSans-32"/>
      <use x="139.013672" xlink:href="#LiberationSans-20"/>
      <use x="166.796875" xlink:href="#LiberationSans-4c"/>
      <use x="222.412109" xlink:href="#LiberationSans-70"/>
      <use x="278.027344" xlink:href="#LiberationSans-20"/>
      <use x="305.810547" xlink:href="#LiberationSans-4d"/>
      <use x="389.111328" xlink:href="#LiberationSans-65"/>
      <use x="444.726562" xlink:href="#LiberationSans-73"/>
      <use x="494.726562" xlink:href="#LiberationSans-6f"/>
      <use x="550.341797" xlink:href="#LiberationSans-70"/>
      <use x="605.957031" xlink:href="#LiberationSans-69"/>
      <use x="628.173828" xlink:href="#LiberationSans-63"/>
      <use x="678.173828" xlink:href="#LiberationSans-20"/>
      <use x="705.957031" xlink:href="#LiberationSans-4c"/>
      <use x="761.572266" xlink:href="#LiberationSans-75"/>
      <use x="817.1875" xlink:href="#LiberationSans-6d"/>
      <use x="900.488281" xlink:href="#LiberationSans-69"/>
      <use x="922.705078" xlink:href="#LiberationSans-6e"/>
      <use x="978.320312" xlink:href="#LiberationSans-6f"/>
      <use x="1033.935547" xlink:href="#LiberationSans-75"/>
      <use x="1089.550781" xlink:href="#LiberationSans-73"/>
      <use x="1139.550781" xlink:href="#LiberationSans-20"/>
      <use x="1167.333984" xlink:href="#LiberationSans-45"/>
      <use x="1234.033203" xlink:href="#LiberationSans-66"/>
      <use x="1261.800781" xlink:href="#LiberationSans-66"/>
      <use x="1289.583984" xlink:href="#LiberationSans-69"/>
      <use x="1311.800781" xlink:href="#LiberationSans-63"/>
      <use x="1361.800781" xlink:href="#LiberationSans-69"/>
      <use x="1384.017578" xlink:href="#LiberationSans-65"/>
      <use x="1439.632812" xlink:href="#LiberationSans-6e"/>
      <use x="1495.248047" xlink:href="#LiberationSans-63"/>
      <use x="1545.248047" xlink:href="#LiberationSans-79"/>
      <use x="1595.248047" xlink:href="#LiberationSans-20"/>
      <use x="1623.03125" xlink:href="#LiberationSans-46"/>
      <use x="1684.115234" xlink:href="#LiberationSans-75"/>
      <use x="1739.730469" xlink:href="#LiberationSans-6e"/>
      <use x="1795.345703" xlink:href="#LiberationSans-63"/>
      <use x="1845.345703" xlink:href="#LiberationSans-74"/>
      <use x="1873.128906" xlink:href="#LiberationSans-69"/>
      <use x="1895.345703" xlink:href="#LiberationSans-6f"/>
      <use x="1950.960938" xlink:href="#LiberationSans-6e"/>
     </g>
    </g>
    <g id="line2d_62">
     <path d="M 1031.571528 73.30683 
L 1058.227528 73.30683 
" style="fill:none;stroke:#9c27b0;stroke-linecap:round;"/>
    </g>
    <g id="line2d_63"/>
    <g id="text_16">
     <!-- CIE 1924 Photopic Standard Observer -->
     <defs>
      <path d="M 38.671875 62.203125 
Q 32.8125 62.203125 28.296875 60.25 
Q 23.78125 58.296875 20.71875 54.6875 
Q 17.671875 51.078125 16.109375 46 
Q 14.546875 40.921875 14.546875 34.71875 
Q 14.546875 28.515625 16.234375 23.359375 
Q 17.921875 18.21875 21.0625 14.5 
Q 24.21875 10.796875 28.78125 8.734375 
Q 33.34375 6.6875 39.0625 6.6875 
Q 43.0625 6.6875 46.359375 7.734375 
Q 49.65625 8.796875 52.3125 10.6875 
Q 54.984375 12.59375 57.078125 15.203125 
Q 59.1875 17.828125 60.796875 21 
L 68.40625 17.1875 
Q 66.546875 13.328125 63.8125 10 
Q 61.078125 6.6875 57.390625 4.25 
Q 53.71875 1.8125 49.046875 0.40625 
Q 44.390625 -0.984375 38.625 -0.984375 
Q 30.28125 -0.984375 24 1.671875 
Q 17.71875 4.34375 13.5 9.109375 
Q 9.28125 13.875 7.171875 20.40625 
Q 5.078125 26.953125 5.078125 34.71875 
Q 5.078125 42.78125 7.296875 49.265625 
Q 9.515625 55.765625 13.78125 60.328125 
Q 18.0625 64.890625 24.3125 67.359375 
Q 30.5625 69.828125 38.578125 69.828125 
Q 49.5625 69.828125 56.9375 65.53125 
Q 64.3125 61.234375 67.78125 52.78125 
L 58.9375 49.859375 
Q 57.953125 52.296875 56.296875 54.515625 
Q 54.640625 56.734375 52.140625 58.4375 
Q 49.65625 60.15625 46.3125 61.171875 
Q 42.96875 62.203125 38.671875 62.203125 
z
" id="LiberationSans-43"/>
      <path d="M 9.234375 0 
L 9.234375 68.796875 
L 18.5625 68.796875 
L 18.5625 0 
z
" id="LiberationSans-49"/>
      <path d="M 50.875 35.796875 
Q 50.875 26.609375 49.140625 19.703125 
Q 47.40625 12.796875 44.1875 8.203125 
Q 40.96875 3.609375 36.34375 1.3125 
Q 31.734375 -0.984375 25.984375 -0.984375 
Q 22.015625 -0.984375 18.84375 -0.171875 
Q 15.671875 0.640625 13.171875 2.34375 
Q 10.6875 4.046875 8.921875 6.78125 
Q 7.171875 9.515625 6.109375 13.375 
L 14.5 14.703125 
Q 15.875 10.25 18.78125 8.171875 
Q 21.6875 6.109375 26.125 6.109375 
Q 29.6875 6.109375 32.640625 7.78125 
Q 35.59375 9.46875 37.671875 12.84375 
Q 39.75 16.21875 40.921875 21.296875 
Q 42.09375 26.375 42.1875 33.203125 
Q 41.15625 30.90625 39.375 29.09375 
Q 37.59375 27.296875 35.328125 26.046875 
Q 33.0625 24.8125 30.421875 24.140625 
Q 27.78125 23.484375 25.09375 23.484375 
Q 20.40625 23.484375 16.625 25.171875 
Q 12.84375 26.859375 10.203125 29.875 
Q 7.5625 32.90625 6.125 37.171875 
Q 4.6875 41.453125 4.6875 46.6875 
Q 4.6875 52 6.21875 56.296875 
Q 7.765625 60.59375 10.6875 63.59375 
Q 13.625 66.609375 17.890625 68.21875 
Q 22.171875 69.828125 27.59375 69.828125 
Q 39.0625 69.828125 44.96875 61.328125 
Q 50.875 52.828125 50.875 35.796875 
z
M 41.3125 44.28125 
Q 41.3125 48.09375 40.40625 51.453125 
Q 39.5 54.828125 37.71875 57.3125 
Q 35.9375 59.8125 33.328125 61.25 
Q 30.71875 62.703125 27.296875 62.703125 
Q 24.125 62.703125 21.578125 61.578125 
Q 19.046875 60.453125 17.28125 58.375 
Q 15.53125 56.296875 14.578125 53.3125 
Q 13.625 50.34375 13.625 46.6875 
Q 13.625 43.21875 14.46875 40.234375 
Q 15.328125 37.25 17.03125 35.078125 
Q 18.75 32.90625 21.28125 31.65625 
Q 23.828125 30.421875 27.203125 30.421875 
Q 29.640625 30.421875 32.15625 31.25 
Q 34.671875 32.078125 36.6875 33.78125 
Q 38.71875 35.5 40.015625 38.109375 
Q 41.3125 40.71875 41.3125 44.28125 
z
" id="LiberationSans-39"/>
      <path d="M 6.9375 0 
L 6.9375 40.53125 
Q 6.9375 42.1875 6.90625 43.921875 
Q 6.890625 45.65625 6.828125 47.265625 
Q 6.78125 48.875 6.734375 50.28125 
Q 6.6875 51.703125 6.640625 52.828125 
L 14.9375 52.828125 
Q 14.984375 51.703125 15.0625 50.265625 
Q 15.140625 48.828125 15.203125 47.3125 
Q 15.28125 45.796875 15.296875 44.40625 
Q 15.328125 43.015625 15.328125 42.046875 
L 15.53125 42.046875 
Q 16.453125 45.0625 17.5 47.28125 
Q 18.5625 49.515625 19.96875 50.953125 
Q 21.390625 52.390625 23.34375 53.09375 
Q 25.296875 53.8125 28.078125 53.8125 
Q 29.15625 53.8125 30.125 53.640625 
Q 31.109375 53.46875 31.640625 53.328125 
L 31.640625 45.265625 
Q 30.765625 45.515625 29.59375 45.625 
Q 28.421875 45.75 26.953125 45.75 
Q 23.921875 45.75 21.796875 44.375 
Q 19.671875 43.015625 18.328125 40.59375 
Q 17 38.1875 16.359375 34.84375 
Q 15.71875 31.5 15.71875 27.546875 
L 15.71875 0 
z
" id="LiberationSans-72"/>
      <path d="M 73 34.71875 
Q 73 26.65625 70.671875 20.0625 
Q 68.359375 13.484375 63.96875 8.796875 
Q 59.578125 4.109375 53.21875 1.5625 
Q 46.875 -0.984375 38.8125 -0.984375 
Q 30.328125 -0.984375 23.921875 1.671875 
Q 17.53125 4.34375 13.28125 9.109375 
Q 9.03125 13.875 6.875 20.40625 
Q 4.734375 26.953125 4.734375 34.71875 
Q 4.734375 42.78125 6.984375 49.265625 
Q 9.234375 55.765625 13.578125 60.328125 
Q 17.921875 64.890625 24.296875 67.359375 
Q 30.671875 69.828125 38.921875 69.828125 
Q 47.125 69.828125 53.484375 67.328125 
Q 59.859375 64.84375 64.171875 60.25 
Q 68.5 55.671875 70.75 49.171875 
Q 73 42.671875 73 34.71875 
z
M 63.484375 34.71875 
Q 63.484375 40.921875 61.890625 46 
Q 60.296875 51.078125 57.203125 54.6875 
Q 54.109375 58.296875 49.515625 60.25 
Q 44.921875 62.203125 38.921875 62.203125 
Q 32.765625 62.203125 28.125 60.25 
Q 23.484375 58.296875 20.375 54.6875 
Q 17.28125 51.078125 15.734375 46 
Q 14.203125 40.921875 14.203125 34.71875 
Q 14.203125 28.515625 15.796875 23.359375 
Q 17.390625 18.21875 20.484375 14.484375 
Q 23.578125 10.75 28.1875 8.671875 
Q 32.8125 6.59375 38.8125 6.59375 
Q 45.265625 6.59375 49.921875 8.6875 
Q 54.59375 10.796875 57.59375 14.53125 
Q 60.59375 18.265625 62.03125 23.4375 
Q 63.484375 28.609375 63.484375 34.71875 
z
" id="LiberationSans-4f"/>
      <path d="M 51.421875 26.65625 
Q 51.421875 -0.984375 31.984375 -0.984375 
Q 25.984375 -0.984375 22 1.1875 
Q 18.015625 3.375 15.53125 8.203125 
L 15.4375 8.203125 
Q 15.4375 6.9375 15.359375 5.5625 
Q 15.28125 4.203125 15.203125 3.03125 
Q 15.140625 1.859375 15.0625 1.03125 
Q 14.984375 0.203125 14.9375 0 
L 6.453125 0 
Q 6.5 0.4375 6.546875 1.484375 
Q 6.59375 2.546875 6.640625 4 
Q 6.6875 5.46875 6.703125 7.21875 
Q 6.734375 8.984375 6.734375 10.890625 
L 6.734375 72.46875 
L 15.53125 72.46875 
L 15.53125 51.8125 
Q 15.53125 50.34375 15.5 49 
Q 15.484375 47.65625 15.4375 46.625 
Q 15.375 45.40625 15.328125 44.34375 
L 15.53125 44.34375 
Q 17.96875 49.421875 22 51.609375 
Q 26.03125 53.8125 31.984375 53.8125 
Q 42 53.8125 46.703125 47.0625 
Q 51.421875 40.328125 51.421875 26.65625 
z
M 42.1875 26.375 
Q 42.1875 31.84375 41.5 35.75 
Q 40.828125 39.65625 39.3125 42.15625 
Q 37.796875 44.671875 35.453125 45.84375 
Q 33.109375 47.015625 29.734375 47.015625 
Q 26.265625 47.015625 23.609375 45.890625 
Q 20.953125 44.78125 19.171875 42.28125 
Q 17.390625 39.796875 16.453125 35.734375 
Q 15.53125 31.6875 15.53125 25.828125 
Q 15.53125 20.171875 16.453125 16.3125 
Q 17.390625 12.453125 19.171875 10.03125 
Q 20.953125 7.625 23.578125 6.5625 
Q 26.21875 5.515625 29.640625 5.515625 
Q 32.859375 5.515625 35.203125 6.640625 
Q 37.546875 7.765625 39.109375 10.25 
Q 40.671875 12.75 41.421875 16.71875 
Q 42.1875 20.703125 42.1875 26.375 
z
" id="LiberationSans-62"/>
     </defs>
     <g style="fill:#111111;" transform="translate(1068.889928 77.97163)scale(0.13328 -0.13328)">
      <use xlink:href="#LiberationSans-43"/>
      <use x="72.216797" xlink:href="#LiberationSans-49"/>
      <use x="100" xlink:href="#LiberationSans-45"/>
      <use x="166.699219" xlink:href="#LiberationSans-20"/>
      <use x="194.482422" xlink:href="#LiberationSans-31"/>
      <use x="250.097656" xlink:href="#LiberationSans-39"/>
      <use x="305.712891" xlink:href="#LiberationSans-32"/>
      <use x="361.328125" xlink:href="#LiberationSans-34"/>
      <use x="416.943359" xlink:href="#LiberationSans-20"/>
      <use x="444.726562" xlink:href="#LiberationSans-50"/>
      <use x="511.425781" xlink:href="#LiberationSans-68"/>
      <use x="567.041016" xlink:href="#LiberationSans-6f"/>
      <use x="622.65625" xlink:href="#LiberationSans-74"/>
      <use x="650.439453" xlink:href="#LiberationSans-6f"/>
      <use x="706.054688" xlink:href="#LiberationSans-70"/>
      <use x="761.669922" xlink:href="#LiberationSans-69"/>
      <use x="783.886719" xlink:href="#LiberationSans-63"/>
      <use x="833.886719" xlink:href="#LiberationSans-20"/>
      <use x="861.669922" xlink:href="#LiberationSans-53"/>
      <use x="928.369141" xlink:href="#LiberationSans-74"/>
      <use x="956.152344" xlink:href="#LiberationSans-61"/>
      <use x="1011.767578" xlink:href="#LiberationSans-6e"/>
      <use x="1067.382812" xlink:href="#LiberationSans-64"/>
      <use x="1122.998047" xlink:href="#LiberationSans-61"/>
      <use x="1178.613281" xlink:href="#LiberationSans-72"/>
      <use x="1211.914062" xlink:href="#LiberationSans-64"/>
      <use x="1267.529297" xlink:href="#LiberationSans-20"/>
      <use x="1295.3125" xlink:href="#LiberationSans-4f"/>
      <use x="1373.095703" xlink:href="#LiberationSans-62"/>
      <use x="1428.710938" xlink:href="#LiberationSans-73"/>
      <use x="1478.710938" xlink:href="#LiberationSans-65"/>
      <use x="1534.326172" xlink:href="#LiberationSans-72"/>
      <use x="1567.626953" xlink:href="#LiberationSans-76"/>
      <use x="1617.626953" xlink:href="#LiberationSans-65"/>
      <use x="1673.242188" xlink:href="#LiberationSans-72"/>
     </g>
    </g>
    <g id="line2d_64">
     <path d="M 1031.571528 92.395025 
L 1058.227528 92.395025 
" style="fill:none;stroke:#3f51b5;stroke-linecap:round;"/>
    </g>
    <g id="line2d_65"/>
    <g id="text_17">
     <!-- CIE 1951 Scotopic Standard Observer -->
     <g style="fill:#111111;" transform="translate(1068.889928 97.059825)scale(0.13328 -0.13328)">
      <use xlink:href="#LiberationSans-43"/>
      <use x="72.216797" xlink:href="#LiberationSans-49"/>
      <use x="100" xlink:href="#LiberationSans-45"/>
      <use x="166.699219" xlink:href="#LiberationSans-20"/>
      <use x="194.482422" xlink:href="#LiberationSans-31"/>
      <use x="250.097656" xlink:href="#LiberationSans-39"/>
      <use x="305.712891" xlink:href="#LiberationSans-35"/>
      <use x="361.328125" xlink:href="#LiberationSans-31"/>
      <use x="416.943359" xlink:href="#LiberationSans-20"/>
      <use x="444.726562" xlink:href="#LiberationSans-53"/>
      <use x="511.425781" xlink:href="#LiberationSans-63"/>
      <use x="561.425781" xlink:href="#LiberationSans-6f"/>
      <use x="617.041016" xlink:href="#LiberationSans-74"/>
      <use x="644.824219" xlink:href="#LiberationSans-6f"/>
      <use x="700.439453" xlink:href="#LiberationSans-70"/>
      <use x="756.054688" xlink:href="#LiberationSans-69"/>
      <use x="778.271484" xlink:href="#LiberationSans-63"/>
      <use x="828.271484" xlink:href="#LiberationSans-20"/>
      <use x="856.054688" xlink:href="#LiberationSans-53"/>
      <use x="922.753906" xlink:href="#LiberationSans-74"/>
      <use x="950.537109" xlink:href="#LiberationSans-61"/>
      <use x="1006.152344" xlink:href="#LiberationSans-6e"/>
      <use x="1061.767578" xlink:href="#LiberationSans-64"/>
      <use x="1117.382812" xlink:href="#LiberationSans-61"/>
      <use x="1172.998047" xlink:href="#LiberationSans-72"/>
      <use x="1206.298828" xlink:href="#LiberationSans-64"/>
      <use x="1261.914062" xlink:href="#LiberationSans-20"/>
      <use x="1289.697266" xlink:href="#LiberationSans-4f"/>
      <use x="1367.480469" xlink:href="#LiberationSans-62"/>
      <use x="1423.095703" xlink:href="#LiberationSans-73"/>
      <use x="1473.095703" xlink:href="#LiberationSans-65"/>
      <use x="1528.710938" xlink:href="#LiberationSans-72"/>
      <use x="1562.011719" xlink:href="#LiberationSans-76"/>
      <use x="1612.011719" xlink:href="#LiberationSans-65"/>
      <use x="1667.626953" xlink:href="#LiberationSans-72"/>
     </g>
    </g>
   </g>
  </g>
 </g>
 <defs>
  <clipPath id="p9fbed45585">
   <rect height="660.51" width="1285.05" x="64.588" y="35.8968"/>
  </clipPath>
 </defs>
</svg>
