<?xml version="1.0" encoding="utf-8" standalone="no"?>
<!DOCTYPE svg PUBLIC "-//W3C//DTD SVG 1.1//EN"
  "http://www.w3.org/Graphics/SVG/1.1/DTD/svg11.dtd">
<!-- Created with matplotlib (http://matplotlib.org/) -->
<svg height="752.5022pt" version="1.1" viewBox="0 0 1363.088 752.5022" width="1363.088pt" xmlns="http://www.w3.org/2000/svg" xmlns:xlink="http://www.w3.org/1999/xlink">
 <defs>
  <style type="text/css">
*{stroke-linecap:butt;stroke-linejoin:round;}
  </style>
 </defs>
 <g id="figure_1">
  <g id="patch_1">
   <path d="M 0 752.5022 
L 1363.088 752.5022 
L 1363.088 0 
L 0 0 
z
" style="fill:none;opacity:0;"/>
  </g>
  <g id="axes_1">
   <g id="patch_2">
    <path d="M 64.588 694.5132 
L 1349.638 694.5132 
L 1349.638 36.0192 
L 64.588 36.0192 
z
" style="fill:#f5f5f5;"/>
   </g>
   <g id="matplotlib.axis_1">
    <g id="xtick_1">
     <g id="line2d_1">
      <path clip-path="url(#pb4cfe5436f)" d="M 128.8405 694.5132 
L 128.8405 36.0192 
" style="fill:none;stroke:#d5d5d5;stroke-dasharray:1.85,0.8;stroke-dashoffset:0;stroke-width:0.5;"/>
     </g>
     <g id="line2d_2">
      <defs>
       <path d="M 0 0 
L 0 6.25 
" id="m4b5649e241" style="stroke:#262626;"/>
      </defs>
      <g>
       <use style="fill:#262626;stroke:#262626;" x="128.8405" xlink:href="#m4b5649e241" y="694.5132"/>
      </g>
     </g>
     <g id="text_1">
      <!-- 400 -->
      <defs>
       <path d="M 43.015625 15.578125 
L 43.015625 0 
L 34.71875 0 
L 34.71875 15.578125 
L 2.296875 15.578125 
L 2.296875 22.40625 
L 33.796875 68.796875 
L 43.015625 68.796875 
L 43.015625 22.515625 
L 52.6875 22.515625 
L 52.6875 15.578125 
z
M 34.71875 58.890625 
Q 34.625 58.640625 34.234375 57.9375 
Q 33.84375 57.234375 33.34375 56.34375 
Q 32.859375 55.46875 32.34375 54.5625 
Q 31.84375 53.65625 31.453125 53.078125 
L 13.8125 27.09375 
Q 13.578125 26.703125 13.109375 26.0625 
Q 12.640625 25.4375 12.15625 24.78125 
Q 11.671875 24.125 11.171875 23.484375 
Q 10.6875 22.859375 10.40625 22.515625 
L 34.71875 22.515625 
z
" id="LiberationSans-34"/>
       <path d="M 51.703125 34.421875 
Q 51.703125 24.515625 49.828125 17.75 
Q 47.953125 10.984375 44.703125 6.8125 
Q 41.453125 2.640625 37.0625 0.828125 
Q 32.671875 -0.984375 27.6875 -0.984375 
Q 22.65625 -0.984375 18.3125 0.828125 
Q 13.96875 2.640625 10.765625 6.78125 
Q 7.5625 10.9375 5.734375 17.703125 
Q 3.90625 24.46875 3.90625 34.421875 
Q 3.90625 44.828125 5.734375 51.640625 
Q 7.5625 58.453125 10.78125 62.5 
Q 14.015625 66.546875 18.40625 68.1875 
Q 22.796875 69.828125 27.984375 69.828125 
Q 32.90625 69.828125 37.21875 68.1875 
Q 41.546875 66.546875 44.765625 62.5 
Q 48 58.453125 49.84375 51.640625 
Q 51.703125 44.828125 51.703125 34.421875 
z
M 42.78125 34.421875 
Q 42.78125 42.625 41.796875 48.0625 
Q 40.828125 53.515625 38.921875 56.765625 
Q 37.015625 60.015625 34.25 61.359375 
Q 31.5 62.703125 27.984375 62.703125 
Q 24.265625 62.703125 21.4375 61.328125 
Q 18.609375 59.96875 16.671875 56.71875 
Q 14.75 53.46875 13.765625 48.015625 
Q 12.796875 42.578125 12.796875 34.421875 
Q 12.796875 26.515625 13.796875 21.09375 
Q 14.796875 15.671875 16.71875 12.375 
Q 18.65625 9.078125 21.4375 7.640625 
Q 24.21875 6.203125 27.78125 6.203125 
Q 31.25 6.203125 34.03125 7.640625 
Q 36.8125 9.078125 38.734375 12.375 
Q 40.671875 15.671875 41.71875 21.09375 
Q 42.78125 26.515625 42.78125 34.421875 
z
" id="LiberationSans-30"/>
      </defs>
      <g style="fill:#262626;" transform="translate(115.49425 719.3582)scale(0.16 -0.16)">
       <use xlink:href="#LiberationSans-34"/>
       <use x="55.615234" xlink:href="#LiberationSans-30"/>
       <use x="111.230469" xlink:href="#LiberationSans-30"/>
      </g>
     </g>
    </g>
    <g id="xtick_2">
     <g id="line2d_3">
      <path clip-path="url(#pb4cfe5436f)" d="M 289.47175 694.5132 
L 289.47175 36.0192 
" style="fill:none;stroke:#d5d5d5;stroke-dasharray:1.85,0.8;stroke-dashoffset:0;stroke-width:0.5;"/>
     </g>
     <g id="line2d_4">
      <g>
       <use style="fill:#262626;stroke:#262626;" x="289.47175" xlink:href="#m4b5649e241" y="694.5132"/>
      </g>
     </g>
     <g id="text_2">
      <!-- 450 -->
      <defs>
       <path d="M 51.421875 22.40625 
Q 51.421875 17.234375 49.859375 12.9375 
Q 48.296875 8.640625 45.21875 5.53125 
Q 42.140625 2.4375 37.578125 0.71875 
Q 33.015625 -0.984375 27 -0.984375 
Q 21.578125 -0.984375 17.546875 0.28125 
Q 13.53125 1.5625 10.734375 3.78125 
Q 7.953125 6 6.3125 8.984375 
Q 4.6875 11.96875 4 15.375 
L 12.890625 16.40625 
Q 13.421875 14.453125 14.390625 12.625 
Q 15.375 10.796875 17.0625 9.34375 
Q 18.75 7.90625 21.21875 7.046875 
Q 23.6875 6.203125 27.203125 6.203125 
Q 30.609375 6.203125 33.390625 7.25 
Q 36.1875 8.296875 38.15625 10.34375 
Q 40.140625 12.40625 41.203125 15.375 
Q 42.28125 18.359375 42.28125 22.21875 
Q 42.28125 25.390625 41.25 28.046875 
Q 40.234375 30.71875 38.328125 32.640625 
Q 36.421875 34.578125 33.65625 35.640625 
Q 30.90625 36.71875 27.390625 36.71875 
Q 25.203125 36.71875 23.34375 36.328125 
Q 21.484375 35.9375 19.890625 35.25 
Q 18.3125 34.578125 17.015625 33.671875 
Q 15.71875 32.765625 14.59375 31.78125 
L 6 31.78125 
L 8.296875 68.796875 
L 47.40625 68.796875 
L 47.40625 61.328125 
L 16.3125 61.328125 
L 14.984375 39.5 
Q 17.328125 41.3125 20.84375 42.59375 
Q 24.359375 43.890625 29.203125 43.890625 
Q 34.328125 43.890625 38.421875 42.328125 
Q 42.53125 40.765625 45.40625 37.90625 
Q 48.296875 35.0625 49.859375 31.109375 
Q 51.421875 27.15625 51.421875 22.40625 
z
" id="LiberationSans-35"/>
      </defs>
      <g style="fill:#262626;" transform="translate(276.1255 719.3582)scale(0.16 -0.16)">
       <use xlink:href="#LiberationSans-34"/>
       <use x="55.615234" xlink:href="#LiberationSans-35"/>
       <use x="111.230469" xlink:href="#LiberationSans-30"/>
      </g>
     </g>
    </g>
    <g id="xtick_3">
     <g id="line2d_5">
      <path clip-path="url(#pb4cfe5436f)" d="M 450.103 694.5132 
L 450.103 36.0192 
" style="fill:none;stroke:#d5d5d5;stroke-dasharray:1.85,0.8;stroke-dashoffset:0;stroke-width:0.5;"/>
     </g>
     <g id="line2d_6">
      <g>
       <use style="fill:#262626;stroke:#262626;" x="450.103" xlink:href="#m4b5649e241" y="694.5132"/>
      </g>
     </g>
     <g id="text_3">
      <!-- 500 -->
      <g style="fill:#262626;" transform="translate(436.75675 719.3582)scale(0.16 -0.16)">
       <use xlink:href="#LiberationSans-35"/>
       <use x="55.615234" xlink:href="#LiberationSans-30"/>
       <use x="111.230469" xlink:href="#LiberationSans-30"/>
      </g>
     </g>
    </g>
    <g id="xtick_4">
     <g id="line2d_7">
      <path clip-path="url(#pb4cfe5436f)" d="M 610.73425 694.5132 
L 610.73425 36.0192 
" style="fill:none;stroke:#d5d5d5;stroke-dasharray:1.85,0.8;stroke-dashoffset:0;stroke-width:0.5;"/>
     </g>
     <g id="line2d_8">
      <g>
       <use style="fill:#262626;stroke:#262626;" x="610.73425" xlink:href="#m4b5649e241" y="694.5132"/>
      </g>
     </g>
     <g id="text_4">
      <!-- 550 -->
      <g style="fill:#262626;" transform="translate(597.388 719.3582)scale(0.16 -0.16)">
       <use xlink:href="#LiberationSans-35"/>
       <use x="55.615234" xlink:href="#LiberationSans-35"/>
       <use x="111.230469" xlink:href="#LiberationSans-30"/>
      </g>
     </g>
    </g>
    <g id="xtick_5">
     <g id="line2d_9">
      <path clip-path="url(#pb4cfe5436f)" d="M 771.3655 694.5132 
L 771.3655 36.0192 
" style="fill:none;stroke:#d5d5d5;stroke-dasharray:1.85,0.8;stroke-dashoffset:0;stroke-width:0.5;"/>
     </g>
     <g id="line2d_10">
      <g>
       <use style="fill:#262626;stroke:#262626;" x="771.3655" xlink:href="#m4b5649e241" y="694.5132"/>
      </g>
     </g>
     <g id="text_5">
      <!-- 600 -->
      <defs>
       <path d="M 51.21875 22.515625 
Q 51.21875 17.328125 49.78125 13 
Q 48.34375 8.6875 45.53125 5.578125 
Q 42.71875 2.484375 38.5625 0.75 
Q 34.421875 -0.984375 29 -0.984375 
Q 23 -0.984375 18.5 1.3125 
Q 14.015625 3.609375 11.03125 7.921875 
Q 8.0625 12.25 6.5625 18.53125 
Q 5.078125 24.8125 5.078125 32.8125 
Q 5.078125 42 6.765625 48.921875 
Q 8.453125 55.859375 11.625 60.5 
Q 14.796875 65.140625 19.359375 67.484375 
Q 23.921875 69.828125 29.6875 69.828125 
Q 33.203125 69.828125 36.28125 69.09375 
Q 39.359375 68.359375 41.875 66.71875 
Q 44.390625 65.09375 46.28125 62.40625 
Q 48.1875 59.71875 49.3125 55.8125 
L 40.921875 54.296875 
Q 39.546875 58.734375 36.546875 60.71875 
Q 33.546875 62.703125 29.59375 62.703125 
Q 25.984375 62.703125 23.046875 60.984375 
Q 20.125 59.28125 18.0625 55.875 
Q 16.015625 52.484375 14.90625 47.359375 
Q 13.8125 42.234375 13.8125 35.40625 
Q 16.21875 39.84375 20.5625 42.15625 
Q 24.90625 44.484375 30.515625 44.484375 
Q 35.203125 44.484375 39.015625 42.96875 
Q 42.828125 41.453125 45.53125 38.59375 
Q 48.25 35.75 49.734375 31.671875 
Q 51.21875 27.59375 51.21875 22.515625 
z
M 42.28125 22.125 
Q 42.28125 25.6875 41.40625 28.5625 
Q 40.53125 31.453125 38.765625 33.46875 
Q 37.015625 35.5 34.421875 36.59375 
Q 31.84375 37.703125 28.421875 37.703125 
Q 26.03125 37.703125 23.578125 36.984375 
Q 21.140625 36.28125 19.15625 34.6875 
Q 17.1875 33.109375 15.9375 30.515625 
Q 14.703125 27.9375 14.703125 24.21875 
Q 14.703125 20.40625 15.671875 17.109375 
Q 16.65625 13.8125 18.484375 11.375 
Q 20.3125 8.9375 22.890625 7.515625 
Q 25.484375 6.109375 28.71875 6.109375 
Q 31.890625 6.109375 34.40625 7.203125 
Q 36.921875 8.296875 38.671875 10.375 
Q 40.4375 12.453125 41.359375 15.421875 
Q 42.28125 18.40625 42.28125 22.125 
z
" id="LiberationSans-36"/>
      </defs>
      <g style="fill:#262626;" transform="translate(758.01925 719.3582)scale(0.16 -0.16)">
       <use xlink:href="#LiberationSans-36"/>
       <use x="55.615234" xlink:href="#LiberationSans-30"/>
       <use x="111.230469" xlink:href="#LiberationSans-30"/>
      </g>
     </g>
    </g>
    <g id="xtick_6">
     <g id="line2d_11">
      <path clip-path="url(#pb4cfe5436f)" d="M 931.99675 694.5132 
L 931.99675 36.0192 
" style="fill:none;stroke:#d5d5d5;stroke-dasharray:1.85,0.8;stroke-dashoffset:0;stroke-width:0.5;"/>
     </g>
     <g id="line2d_12">
      <g>
       <use style="fill:#262626;stroke:#262626;" x="931.99675" xlink:href="#m4b5649e241" y="694.5132"/>
      </g>
     </g>
     <g id="text_6">
      <!-- 650 -->
      <g style="fill:#262626;" transform="translate(918.6505 719.3582)scale(0.16 -0.16)">
       <use xlink:href="#LiberationSans-36"/>
       <use x="55.615234" xlink:href="#LiberationSans-35"/>
       <use x="111.230469" xlink:href="#LiberationSans-30"/>
      </g>
     </g>
    </g>
    <g id="xtick_7">
     <g id="line2d_13">
      <path clip-path="url(#pb4cfe5436f)" d="M 1092.628 694.5132 
L 1092.628 36.0192 
" style="fill:none;stroke:#d5d5d5;stroke-dasharray:1.85,0.8;stroke-dashoffset:0;stroke-width:0.5;"/>
     </g>
     <g id="line2d_14">
      <g>
       <use style="fill:#262626;stroke:#262626;" x="1092.628" xlink:href="#m4b5649e241" y="694.5132"/>
      </g>
     </g>
     <g id="text_7">
      <!-- 700 -->
      <defs>
       <path d="M 50.59375 61.671875 
Q 45.40625 53.765625 41.0625 46.453125 
Q 36.71875 39.15625 33.59375 31.75 
Q 30.46875 24.359375 28.734375 16.578125 
Q 27 8.796875 27 0 
L 17.828125 0 
Q 17.828125 8.25 19.78125 16.1875 
Q 21.734375 24.125 25.046875 31.765625 
Q 28.375 39.40625 32.765625 46.78125 
Q 37.15625 54.15625 42.09375 61.328125 
L 5.125 61.328125 
L 5.125 68.796875 
L 50.59375 68.796875 
z
" id="LiberationSans-37"/>
      </defs>
      <g style="fill:#262626;" transform="translate(1079.28175 719.3582)scale(0.16 -0.16)">
       <use xlink:href="#LiberationSans-37"/>
       <use x="55.615234" xlink:href="#LiberationSans-30"/>
       <use x="111.230469" xlink:href="#LiberationSans-30"/>
      </g>
     </g>
    </g>
    <g id="xtick_8">
     <g id="line2d_15">
      <path clip-path="url(#pb4cfe5436f)" d="M 1253.25925 694.5132 
L 1253.25925 36.0192 
" style="fill:none;stroke:#d5d5d5;stroke-dasharray:1.85,0.8;stroke-dashoffset:0;stroke-width:0.5;"/>
     </g>
     <g id="line2d_16">
      <g>
       <use style="fill:#262626;stroke:#262626;" x="1253.25925" xlink:href="#m4b5649e241" y="694.5132"/>
      </g>
     </g>
     <g id="text_8">
      <!-- 750 -->
      <g style="fill:#262626;" transform="translate(1239.913 719.3582)scale(0.16 -0.16)">
       <use xlink:href="#LiberationSans-37"/>
       <use x="55.615234" xlink:href="#LiberationSans-35"/>
       <use x="111.230469" xlink:href="#LiberationSans-30"/>
      </g>
     </g>
    </g>
    <g id="xtick_9">
     <g id="line2d_17">
      <defs>
       <path d="M 0 0 
L 0 3.75 
" id="md7e264f5ca" style="stroke:#262626;"/>
      </defs>
      <g>
       <use style="fill:#262626;stroke:#262626;" x="96.71425" xlink:href="#md7e264f5ca" y="694.5132"/>
      </g>
     </g>
    </g>
    <g id="xtick_10">
     <g id="line2d_18">
      <g>
       <use style="fill:#262626;stroke:#262626;" x="160.96675" xlink:href="#md7e264f5ca" y="694.5132"/>
      </g>
     </g>
    </g>
    <g id="xtick_11">
     <g id="line2d_19">
      <g>
       <use style="fill:#262626;stroke:#262626;" x="193.093" xlink:href="#md7e264f5ca" y="694.5132"/>
      </g>
     </g>
    </g>
    <g id="xtick_12">
     <g id="line2d_20">
      <g>
       <use style="fill:#262626;stroke:#262626;" x="225.21925" xlink:href="#md7e264f5ca" y="694.5132"/>
      </g>
     </g>
    </g>
    <g id="xtick_13">
     <g id="line2d_21">
      <g>
       <use style="fill:#262626;stroke:#262626;" x="257.3455" xlink:href="#md7e264f5ca" y="694.5132"/>
      </g>
     </g>
    </g>
    <g id="xtick_14">
     <g id="line2d_22">
      <g>
       <use style="fill:#262626;stroke:#262626;" x="321.598" xlink:href="#md7e264f5ca" y="694.5132"/>
      </g>
     </g>
    </g>
    <g id="xtick_15">
     <g id="line2d_23">
      <g>
       <use style="fill:#262626;stroke:#262626;" x="353.72425" xlink:href="#md7e264f5ca" y="694.5132"/>
      </g>
     </g>
    </g>
    <g id="xtick_16">
     <g id="line2d_24">
      <g>
       <use style="fill:#262626;stroke:#262626;" x="385.8505" xlink:href="#md7e264f5ca" y="694.5132"/>
      </g>
     </g>
    </g>
    <g id="xtick_17">
     <g id="line2d_25">
      <g>
       <use style="fill:#262626;stroke:#262626;" x="417.97675" xlink:href="#md7e264f5ca" y="694.5132"/>
      </g>
     </g>
    </g>
    <g id="xtick_18">
     <g id="line2d_26">
      <g>
       <use style="fill:#262626;stroke:#262626;" x="482.22925" xlink:href="#md7e264f5ca" y="694.5132"/>
      </g>
     </g>
    </g>
    <g id="xtick_19">
     <g id="line2d_27">
      <g>
       <use style="fill:#262626;stroke:#262626;" x="514.3555" xlink:href="#md7e264f5ca" y="694.5132"/>
      </g>
     </g>
    </g>
    <g id="xtick_20">
     <g id="line2d_28">
      <g>
       <use style="fill:#262626;stroke:#262626;" x="546.48175" xlink:href="#md7e264f5ca" y="694.5132"/>
      </g>
     </g>
    </g>
    <g id="xtick_21">
     <g id="line2d_29">
      <g>
       <use style="fill:#262626;stroke:#262626;" x="578.608" xlink:href="#md7e264f5ca" y="694.5132"/>
      </g>
     </g>
    </g>
    <g id="xtick_22">
     <g id="line2d_30">
      <g>
       <use style="fill:#262626;stroke:#262626;" x="642.8605" xlink:href="#md7e264f5ca" y="694.5132"/>
      </g>
     </g>
    </g>
    <g id="xtick_23">
     <g id="line2d_31">
      <g>
       <use style="fill:#262626;stroke:#262626;" x="674.98675" xlink:href="#md7e264f5ca" y="694.5132"/>
      </g>
     </g>
    </g>
    <g id="xtick_24">
     <g id="line2d_32">
      <g>
       <use style="fill:#262626;stroke:#262626;" x="707.113" xlink:href="#md7e264f5ca" y="694.5132"/>
      </g>
     </g>
    </g>
    <g id="xtick_25">
     <g id="line2d_33">
      <g>
       <use style="fill:#262626;stroke:#262626;" x="739.23925" xlink:href="#md7e264f5ca" y="694.5132"/>
      </g>
     </g>
    </g>
    <g id="xtick_26">
     <g id="line2d_34">
      <g>
       <use style="fill:#262626;stroke:#262626;" x="803.49175" xlink:href="#md7e264f5ca" y="694.5132"/>
      </g>
     </g>
    </g>
    <g id="xtick_27">
     <g id="line2d_35">
      <g>
       <use style="fill:#262626;stroke:#262626;" x="835.618" xlink:href="#md7e264f5ca" y="694.5132"/>
      </g>
     </g>
    </g>
    <g id="xtick_28">
     <g id="line2d_36">
      <g>
       <use style="fill:#262626;stroke:#262626;" x="867.74425" xlink:href="#md7e264f5ca" y="694.5132"/>
      </g>
     </g>
    </g>
    <g id="xtick_29">
     <g id="line2d_37">
      <g>
       <use style="fill:#262626;stroke:#262626;" x="899.8705" xlink:href="#md7e264f5ca" y="694.5132"/>
      </g>
     </g>
    </g>
    <g id="xtick_30">
     <g id="line2d_38">
      <g>
       <use style="fill:#262626;stroke:#262626;" x="964.123" xlink:href="#md7e264f5ca" y="694.5132"/>
      </g>
     </g>
    </g>
    <g id="xtick_31">
     <g id="line2d_39">
      <g>
       <use style="fill:#262626;stroke:#262626;" x="996.24925" xlink:href="#md7e264f5ca" y="694.5132"/>
      </g>
     </g>
    </g>
    <g id="xtick_32">
     <g id="line2d_40">
      <g>
       <use style="fill:#262626;stroke:#262626;" x="1028.3755" xlink:href="#md7e264f5ca" y="694.5132"/>
      </g>
     </g>
    </g>
    <g id="xtick_33">
     <g id="line2d_41">
      <g>
       <use style="fill:#262626;stroke:#262626;" x="1060.50175" xlink:href="#md7e264f5ca" y="694.5132"/>
      </g>
     </g>
    </g>
    <g id="xtick_34">
     <g id="line2d_42">
      <g>
       <use style="fill:#262626;stroke:#262626;" x="1124.75425" xlink:href="#md7e264f5ca" y="694.5132"/>
      </g>
     </g>
    </g>
    <g id="xtick_35">
     <g id="line2d_43">
      <g>
       <use style="fill:#262626;stroke:#262626;" x="1156.8805" xlink:href="#md7e264f5ca" y="694.5132"/>
      </g>
     </g>
    </g>
    <g id="xtick_36">
     <g id="line2d_44">
      <g>
       <use style="fill:#262626;stroke:#262626;" x="1189.00675" xlink:href="#md7e264f5ca" y="694.5132"/>
      </g>
     </g>
    </g>
    <g id="xtick_37">
     <g id="line2d_45">
      <g>
       <use style="fill:#262626;stroke:#262626;" x="1221.133" xlink:href="#md7e264f5ca" y="694.5132"/>
      </g>
     </g>
    </g>
    <g id="xtick_38">
     <g id="line2d_46">
      <g>
       <use style="fill:#262626;stroke:#262626;" x="1285.3855" xlink:href="#md7e264f5ca" y="694.5132"/>
      </g>
     </g>
    </g>
    <g id="xtick_39">
     <g id="line2d_47">
      <g>
       <use style="fill:#262626;stroke:#262626;" x="1317.51175" xlink:href="#md7e264f5ca" y="694.5132"/>
      </g>
     </g>
    </g>
    <g id="xtick_40">
     <g id="line2d_48">
      <g>
       <use style="fill:#262626;stroke:#262626;" x="1349.638" xlink:href="#md7e264f5ca" y="694.5132"/>
      </g>
     </g>
    </g>
    <g id="text_9">
     <!-- Wavelength $\lambda$ (nm) -->
     <defs>
      <path d="M 73.78125 0 
L 62.640625 0 
L 50.734375 43.703125 
Q 50.203125 45.5625 49.578125 48.09375 
Q 48.96875 50.640625 48.484375 52.9375 
Q 47.90625 55.609375 47.3125 58.40625 
Q 46.6875 55.5625 46.09375 52.875 
Q 45.5625 50.53125 44.96875 48.046875 
Q 44.390625 45.5625 43.84375 43.703125 
L 31.84375 0 
L 20.703125 0 
L 0.4375 68.796875 
L 10.15625 68.796875 
L 22.515625 25.09375 
Q 23.34375 22.015625 24.09375 18.984375 
Q 24.859375 15.96875 25.390625 13.578125 
Q 26.03125 10.75 26.5625 8.203125 
Q 27.296875 11.578125 28.078125 14.84375 
Q 28.421875 16.21875 28.765625 17.71875 
Q 29.109375 19.234375 29.46875 20.703125 
Q 29.828125 22.171875 30.1875 23.515625 
Q 30.5625 24.859375 30.859375 25.984375 
L 42.828125 68.796875 
L 51.765625 68.796875 
L 63.71875 25.984375 
Q 64.015625 24.859375 64.375 23.515625 
Q 64.75 22.171875 65.109375 20.71875 
Q 65.484375 19.28125 65.8125 17.765625 
Q 66.15625 16.265625 66.5 14.890625 
Q 67.28125 11.625 68.015625 8.203125 
Q 68.0625 8.203125 68.453125 9.890625 
Q 68.84375 11.578125 69.421875 14.109375 
Q 70.015625 16.65625 70.71875 19.609375 
Q 71.4375 22.5625 72.171875 25.09375 
L 84.328125 68.796875 
L 94.046875 68.796875 
z
" id="LiberationSans-57"/>
      <path d="M 20.21875 -0.984375 
Q 12.25 -0.984375 8.25 3.21875 
Q 4.25 7.421875 4.25 14.75 
Q 4.25 19.96875 6.21875 23.3125 
Q 8.203125 26.65625 11.390625 28.5625 
Q 14.59375 30.46875 18.6875 31.203125 
Q 22.796875 31.9375 27.046875 32.03125 
L 38.921875 32.234375 
L 38.921875 35.109375 
Q 38.921875 38.375 38.234375 40.671875 
Q 37.546875 42.96875 36.125 44.375 
Q 34.71875 45.796875 32.59375 46.453125 
Q 30.46875 47.125 27.59375 47.125 
Q 25.046875 47.125 23 46.75 
Q 20.953125 46.390625 19.4375 45.4375 
Q 17.921875 44.484375 16.984375 42.84375 
Q 16.0625 41.21875 15.765625 38.71875 
L 6.59375 39.546875 
Q 7.078125 42.671875 8.4375 45.28125 
Q 9.8125 47.90625 12.328125 49.796875 
Q 14.84375 51.703125 18.625 52.75 
Q 22.40625 53.8125 27.78125 53.8125 
Q 37.75 53.8125 42.765625 49.234375 
Q 47.796875 44.671875 47.796875 36.03125 
L 47.796875 13.28125 
Q 47.796875 9.375 48.828125 7.390625 
Q 49.859375 5.421875 52.734375 5.421875 
Q 53.46875 5.421875 54.203125 5.515625 
Q 54.9375 5.609375 55.609375 5.765625 
L 55.609375 0.296875 
Q 53.953125 -0.09375 52.3125 -0.28125 
Q 50.6875 -0.484375 48.828125 -0.484375 
Q 46.34375 -0.484375 44.5625 0.171875 
Q 42.78125 0.828125 41.65625 2.171875 
Q 40.53125 3.515625 39.9375 5.484375 
Q 39.359375 7.46875 39.203125 10.109375 
L 38.921875 10.109375 
Q 37.5 7.5625 35.8125 5.515625 
Q 34.125 3.46875 31.875 2.03125 
Q 29.640625 0.59375 26.78125 -0.1875 
Q 23.921875 -0.984375 20.21875 -0.984375 
z
M 22.21875 5.609375 
Q 26.421875 5.609375 29.5625 7.140625 
Q 32.71875 8.6875 34.78125 11.078125 
Q 36.859375 13.484375 37.890625 16.3125 
Q 38.921875 19.140625 38.921875 21.734375 
L 38.921875 26.078125 
L 29.296875 25.875 
Q 26.078125 25.828125 23.171875 25.40625 
Q 20.265625 25 18.0625 23.78125 
Q 15.875 22.5625 14.578125 20.359375 
Q 13.28125 18.171875 13.28125 14.59375 
Q 13.28125 10.296875 15.59375 7.953125 
Q 17.921875 5.609375 22.21875 5.609375 
z
" id="LiberationSans-61"/>
      <path d="M 29.9375 0 
L 19.53125 0 
L 0.34375 52.828125 
L 9.71875 52.828125 
L 21.34375 18.453125 
Q 21.6875 17.390625 22.140625 15.84375 
Q 22.609375 14.3125 23.09375 12.640625 
Q 23.578125 10.984375 24 9.4375 
Q 24.421875 7.90625 24.703125 6.890625 
Q 25 7.90625 25.453125 9.4375 
Q 25.921875 10.984375 26.40625 12.59375 
Q 26.90625 14.203125 27.421875 15.734375 
Q 27.9375 17.28125 28.328125 18.359375 
L 40.328125 52.828125 
L 49.65625 52.828125 
z
" id="LiberationSans-76"/>
      <path d="M 13.484375 24.5625 
Q 13.484375 20.40625 14.328125 16.90625 
Q 15.1875 13.421875 16.96875 10.90625 
Q 18.75 8.40625 21.53125 7 
Q 24.3125 5.609375 28.21875 5.609375 
Q 33.9375 5.609375 37.375 7.90625 
Q 40.828125 10.203125 42.046875 13.71875 
L 49.75 11.53125 
Q 48.921875 9.328125 47.4375 7.109375 
Q 45.953125 4.890625 43.453125 3.09375 
Q 40.96875 1.3125 37.234375 0.15625 
Q 33.5 -0.984375 28.21875 -0.984375 
Q 16.5 -0.984375 10.375 6 
Q 4.25 12.984375 4.25 26.765625 
Q 4.25 34.1875 6.09375 39.328125 
Q 7.953125 44.484375 11.171875 47.703125 
Q 14.40625 50.921875 18.703125 52.359375 
Q 23 53.8125 27.875 53.8125 
Q 34.515625 53.8125 38.984375 51.65625 
Q 43.453125 49.515625 46.15625 45.71875 
Q 48.875 41.9375 50.015625 36.8125 
Q 51.171875 31.6875 51.171875 25.734375 
L 51.171875 24.5625 
z
M 42.09375 31.296875 
Q 41.359375 39.65625 37.84375 43.484375 
Q 34.328125 47.3125 27.734375 47.3125 
Q 25.53125 47.3125 23.109375 46.609375 
Q 20.703125 45.90625 18.65625 44.09375 
Q 16.609375 42.28125 15.1875 39.171875 
Q 13.765625 36.078125 13.578125 31.296875 
z
" id="LiberationSans-65"/>
      <path d="M 6.734375 0 
L 6.734375 72.46875 
L 15.53125 72.46875 
L 15.53125 0 
z
" id="LiberationSans-6c"/>
      <path d="M 40.28125 0 
L 40.28125 33.5 
Q 40.28125 37.359375 39.71875 39.9375 
Q 39.15625 42.53125 37.890625 44.109375 
Q 36.625 45.703125 34.546875 46.359375 
Q 32.46875 47.015625 29.390625 47.015625 
Q 26.265625 47.015625 23.75 45.921875 
Q 21.234375 44.828125 19.453125 42.75 
Q 17.671875 40.671875 16.6875 37.625 
Q 15.71875 34.578125 15.71875 30.609375 
L 15.71875 0 
L 6.9375 0 
L 6.9375 41.546875 
Q 6.9375 43.21875 6.90625 45.046875 
Q 6.890625 46.875 6.828125 48.5 
Q 6.78125 50.140625 6.734375 51.3125 
Q 6.6875 52.484375 6.640625 52.828125 
L 14.9375 52.828125 
Q 14.984375 52.59375 15.03125 51.515625 
Q 15.09375 50.4375 15.15625 49.046875 
Q 15.234375 47.65625 15.28125 46.21875 
Q 15.328125 44.78125 15.328125 43.796875 
L 15.484375 43.796875 
Q 16.75 46.09375 18.265625 47.953125 
Q 19.78125 49.8125 21.78125 51.09375 
Q 23.78125 52.390625 26.359375 53.09375 
Q 28.953125 53.8125 32.375 53.8125 
Q 36.765625 53.8125 39.9375 52.734375 
Q 43.109375 51.65625 45.15625 49.40625 
Q 47.21875 47.171875 48.171875 43.625 
Q 49.125 40.09375 49.125 35.203125 
L 49.125 0 
z
" id="LiberationSans-6e"/>
      <path d="M 26.765625 -20.75 
Q 22.21875 -20.75 18.703125 -19.8125 
Q 15.1875 -18.890625 12.6875 -17.15625 
Q 10.203125 -15.4375 8.640625 -13.03125 
Q 7.078125 -10.640625 6.390625 -7.71875 
L 15.234375 -6.453125 
Q 16.109375 -10.109375 19.109375 -12.078125 
Q 22.125 -14.0625 27 -14.0625 
Q 29.984375 -14.0625 32.421875 -13.234375 
Q 34.859375 -12.40625 36.5625 -10.5625 
Q 38.28125 -8.734375 39.203125 -5.796875 
Q 40.140625 -2.875 40.140625 1.3125 
L 40.140625 9.8125 
L 40.046875 9.8125 
Q 39.0625 7.8125 37.625 5.984375 
Q 36.1875 4.15625 34.109375 2.734375 
Q 32.03125 1.3125 29.296875 0.453125 
Q 26.5625 -0.390625 23.046875 -0.390625 
Q 18.015625 -0.390625 14.421875 1.296875 
Q 10.84375 2.984375 8.5625 6.34375 
Q 6.296875 9.71875 5.25 14.71875 
Q 4.203125 19.734375 4.203125 26.3125 
Q 4.203125 32.671875 5.25 37.75 
Q 6.296875 42.828125 8.65625 46.359375 
Q 11.03125 49.90625 14.8125 51.78125 
Q 18.609375 53.65625 24.03125 53.65625 
Q 29.640625 53.65625 33.765625 51.09375 
Q 37.890625 48.53125 40.140625 43.796875 
L 40.234375 43.796875 
Q 40.234375 45.015625 40.296875 46.53125 
Q 40.375 48.046875 40.453125 49.390625 
Q 40.53125 50.734375 40.625 51.703125 
Q 40.71875 52.6875 40.828125 52.828125 
L 49.171875 52.828125 
Q 49.125 52.390625 49.078125 51.34375 
Q 49.03125 50.296875 48.96875 48.828125 
Q 48.921875 47.359375 48.890625 45.578125 
Q 48.875 43.796875 48.875 41.890625 
L 48.875 1.515625 
Q 48.875 -9.578125 43.421875 -15.15625 
Q 37.984375 -20.75 26.765625 -20.75 
z
M 40.140625 26.421875 
Q 40.140625 31.9375 38.9375 35.859375 
Q 37.75 39.796875 35.796875 42.28125 
Q 33.84375 44.78125 31.328125 45.953125 
Q 28.8125 47.125 26.171875 47.125 
Q 22.796875 47.125 20.375 45.953125 
Q 17.96875 44.78125 16.375 42.265625 
Q 14.796875 39.75 14.03125 35.8125 
Q 13.28125 31.890625 13.28125 26.421875 
Q 13.28125 20.703125 14.03125 16.8125 
Q 14.796875 12.9375 16.359375 10.546875 
Q 17.921875 8.15625 20.3125 7.125 
Q 22.703125 6.109375 26.03125 6.109375 
Q 28.65625 6.109375 31.171875 7.21875 
Q 33.6875 8.34375 35.6875 10.78125 
Q 37.703125 13.234375 38.921875 17.09375 
Q 40.140625 20.953125 40.140625 26.421875 
z
" id="LiberationSans-67"/>
      <path d="M 27.046875 0.390625 
Q 25.046875 -0.140625 22.96875 -0.453125 
Q 20.90625 -0.78125 18.171875 -0.78125 
Q 7.625 -0.78125 7.625 11.1875 
L 7.625 46.4375 
L 1.515625 46.4375 
L 1.515625 52.828125 
L 7.953125 52.828125 
L 10.546875 64.65625 
L 16.40625 64.65625 
L 16.40625 52.828125 
L 26.171875 52.828125 
L 26.171875 46.4375 
L 16.40625 46.4375 
L 16.40625 13.09375 
Q 16.40625 9.28125 17.640625 7.734375 
Q 18.890625 6.203125 21.96875 6.203125 
Q 23.25 6.203125 24.4375 6.390625 
Q 25.640625 6.59375 27.046875 6.890625 
z
" id="LiberationSans-74"/>
      <path d="M 15.484375 43.796875 
Q 16.9375 46.484375 18.640625 48.359375 
Q 20.359375 50.25 22.40625 51.46875 
Q 24.46875 52.6875 26.90625 53.25 
Q 29.34375 53.8125 32.375 53.8125 
Q 37.453125 53.8125 40.703125 52.4375 
Q 43.953125 51.078125 45.828125 48.609375 
Q 47.703125 46.140625 48.40625 42.71875 
Q 49.125 39.3125 49.125 35.203125 
L 49.125 0 
L 40.28125 0 
L 40.28125 33.5 
Q 40.28125 36.859375 39.859375 39.390625 
Q 39.453125 41.9375 38.28125 43.625 
Q 37.109375 45.3125 34.953125 46.15625 
Q 32.8125 47.015625 29.390625 47.015625 
Q 26.265625 47.015625 23.75 45.890625 
Q 21.234375 44.78125 19.453125 42.71875 
Q 17.671875 40.671875 16.6875 37.734375 
Q 15.71875 34.8125 15.71875 31.15625 
L 15.71875 0 
L 6.9375 0 
L 6.9375 72.46875 
L 15.71875 72.46875 
L 15.71875 53.609375 
Q 15.71875 52 15.671875 50.390625 
Q 15.625 48.78125 15.546875 47.40625 
Q 15.484375 46.046875 15.421875 45.09375 
Q 15.375 44.140625 15.328125 43.796875 
z
" id="LiberationSans-68"/>
      <path id="LiberationSans-20"/>
      <path d="M 36.71875 67.4375 
L 48.828125 0 
L 39.3125 0 
L 31.84375 40.4375 
L 5.125 0 
L -4.390625 0 
L 29.734375 52.4375 
L 28.03125 62.109375 
Q 26.953125 68.265625 21.734375 68.265625 
L 17.046875 68.265625 
L 18.5 75.984375 
L 24.21875 75.875 
Q 35.203125 75.734375 36.71875 67.4375 
z
" id="DejaVuSans-Oblique-3bb"/>
      <path d="M 6.203125 25.984375 
Q 6.203125 32.765625 7.21875 38.96875 
Q 8.25 45.171875 10.4375 50.875 
Q 12.640625 56.59375 16.0625 61.953125 
Q 19.484375 67.328125 24.21875 72.46875 
L 32.71875 72.46875 
Q 28.125 67.328125 24.78125 61.9375 
Q 21.4375 56.546875 19.28125 50.796875 
Q 17.140625 45.0625 16.09375 38.859375 
Q 15.046875 32.671875 15.046875 25.875 
Q 15.046875 19.09375 16.09375 12.890625 
Q 17.140625 6.6875 19.28125 0.921875 
Q 21.4375 -4.828125 24.78125 -10.203125 
Q 28.125 -15.578125 32.71875 -20.703125 
L 24.21875 -20.703125 
Q 19.484375 -15.578125 16.0625 -10.203125 
Q 12.640625 -4.828125 10.4375 0.875 
Q 8.25 6.59375 7.21875 12.765625 
Q 6.203125 18.953125 6.203125 25.78125 
z
" id="LiberationSans-28"/>
      <path d="M 37.5 0 
L 37.5 33.5 
Q 37.5 37.359375 37.015625 39.9375 
Q 36.53125 42.53125 35.375 44.109375 
Q 34.234375 45.703125 32.375 46.359375 
Q 30.515625 47.015625 27.828125 47.015625 
Q 25.046875 47.015625 22.796875 45.921875 
Q 20.5625 44.828125 18.96875 42.75 
Q 17.390625 40.671875 16.53125 37.625 
Q 15.671875 34.578125 15.671875 30.609375 
L 15.671875 0 
L 6.9375 0 
L 6.9375 41.546875 
Q 6.9375 43.21875 6.90625 45.046875 
Q 6.890625 46.875 6.828125 48.5 
Q 6.78125 50.140625 6.734375 51.3125 
Q 6.6875 52.484375 6.640625 52.828125 
L 14.9375 52.828125 
Q 14.984375 52.59375 15.03125 51.515625 
Q 15.09375 50.4375 15.15625 49.046875 
Q 15.234375 47.65625 15.28125 46.21875 
Q 15.328125 44.78125 15.328125 43.796875 
L 15.484375 43.796875 
Q 16.65625 46.09375 18.015625 47.953125 
Q 19.390625 49.8125 21.21875 51.09375 
Q 23.046875 52.390625 25.40625 53.09375 
Q 27.78125 53.8125 30.90625 53.8125 
Q 36.921875 53.8125 40.40625 51.421875 
Q 43.890625 49.03125 45.265625 43.796875 
L 45.40625 43.796875 
Q 46.578125 46.09375 48.046875 47.953125 
Q 49.515625 49.8125 51.46875 51.09375 
Q 53.421875 52.390625 55.859375 53.09375 
Q 58.296875 53.8125 61.421875 53.8125 
Q 65.4375 53.8125 68.328125 52.734375 
Q 71.234375 51.65625 73.09375 49.40625 
Q 74.953125 47.171875 75.828125 43.625 
Q 76.703125 40.09375 76.703125 35.203125 
L 76.703125 0 
L 68.015625 0 
L 68.015625 33.5 
Q 68.015625 37.359375 67.53125 39.9375 
Q 67.046875 42.53125 65.890625 44.109375 
Q 64.75 45.703125 62.890625 46.359375 
Q 61.03125 47.015625 58.34375 47.015625 
Q 55.5625 47.015625 53.3125 45.96875 
Q 51.078125 44.921875 49.484375 42.875 
Q 47.90625 40.828125 47.046875 37.75 
Q 46.1875 34.671875 46.1875 30.609375 
L 46.1875 0 
z
" id="LiberationSans-6d"/>
      <path d="M 27.09375 25.78125 
Q 27.09375 18.953125 26.0625 12.765625 
Q 25.046875 6.59375 22.84375 0.875 
Q 20.65625 -4.828125 17.234375 -10.203125 
Q 13.8125 -15.578125 9.078125 -20.703125 
L 0.59375 -20.703125 
Q 5.171875 -15.578125 8.515625 -10.203125 
Q 11.859375 -4.828125 14 0.921875 
Q 16.15625 6.6875 17.203125 12.890625 
Q 18.265625 19.09375 18.265625 25.875 
Q 18.265625 32.671875 17.203125 38.859375 
Q 16.15625 45.0625 14 50.796875 
Q 11.859375 56.546875 8.515625 61.9375 
Q 5.171875 67.328125 0.59375 72.46875 
L 9.078125 72.46875 
Q 13.8125 67.328125 17.234375 61.953125 
Q 20.65625 56.59375 22.84375 50.875 
Q 25.046875 45.171875 26.0625 38.96875 
Q 27.09375 32.765625 27.09375 25.984375 
z
" id="LiberationSans-29"/>
     </defs>
     <g style="fill:#262626;" transform="translate(625.609 741.2702)scale(0.192 -0.192)">
      <use transform="translate(0 0.015625)" xlink:href="#LiberationSans-57"/>
      <use transform="translate(94.384766 0.015625)" xlink:href="#LiberationSans-61"/>
      <use transform="translate(150 0.015625)" xlink:href="#LiberationSans-76"/>
      <use transform="translate(200 0.015625)" xlink:href="#LiberationSans-65"/>
      <use transform="translate(255.615234 0.015625)" xlink:href="#LiberationSans-6c"/>
      <use transform="translate(277.832031 0.015625)" xlink:href="#LiberationSans-65"/>
      <use transform="translate(333.447266 0.015625)" xlink:href="#LiberationSans-6e"/>
      <use transform="translate(389.0625 0.015625)" xlink:href="#LiberationSans-67"/>
      <use transform="translate(444.677734 0.015625)" xlink:href="#LiberationSans-74"/>
      <use transform="translate(472.460938 0.015625)" xlink:href="#LiberationSans-68"/>
      <use transform="translate(528.076172 0.015625)" xlink:href="#LiberationSans-20"/>
      <use transform="translate(555.859375 0.015625)" xlink:href="#DejaVuSans-Oblique-3bb"/>
      <use transform="translate(615.039062 0.015625)" xlink:href="#LiberationSans-20"/>
      <use transform="translate(642.822266 0.015625)" xlink:href="#LiberationSans-28"/>
      <use transform="translate(676.123047 0.015625)" xlink:href="#LiberationSans-6e"/>
      <use transform="translate(731.738281 0.015625)" xlink:href="#LiberationSans-6d"/>
      <use transform="translate(815.039062 0.015625)" xlink:href="#LiberationSans-29"/>
     </g>
    </g>
   </g>
   <g id="matplotlib.axis_2">
    <g id="ytick_1">
     <g id="line2d_49">
      <path clip-path="url(#pb4cfe5436f)" d="M 64.588 554.848939 
L 1349.638 554.848939 
" style="fill:none;stroke:#d5d5d5;stroke-dasharray:1.85,0.8;stroke-dashoffset:0;stroke-width:0.5;"/>
     </g>
     <g id="line2d_50">
      <defs>
       <path d="M 0 0 
L -6.25 0 
" id="m81593956ad" style="stroke:#262626;"/>
      </defs>
      <g>
       <use style="fill:#262626;stroke:#262626;" x="64.588" xlink:href="#m81593956ad" y="554.848939"/>
      </g>
     </g>
     <g id="text_10">
      <!-- 0.0 -->
      <defs>
       <path d="M 9.125 0 
L 9.125 10.6875 
L 18.65625 10.6875 
L 18.65625 0 
z
" id="LiberationSans-2e"/>
      </defs>
      <g style="fill:#262626;" transform="translate(29.098 560.646439)scale(0.16 -0.16)">
       <use xlink:href="#LiberationSans-30"/>
       <use x="55.615234" xlink:href="#LiberationSans-2e"/>
       <use x="83.398438" xlink:href="#LiberationSans-30"/>
      </g>
     </g>
    </g>
    <g id="ytick_2">
     <g id="line2d_51">
      <path clip-path="url(#pb4cfe5436f)" d="M 64.588 412.679656 
L 1349.638 412.679656 
" style="fill:none;stroke:#d5d5d5;stroke-dasharray:1.85,0.8;stroke-dashoffset:0;stroke-width:0.5;"/>
     </g>
     <g id="line2d_52">
      <g>
       <use style="fill:#262626;stroke:#262626;" x="64.588" xlink:href="#m81593956ad" y="412.679656"/>
      </g>
     </g>
     <g id="text_11">
      <!-- 0.1 -->
      <defs>
       <path d="M 7.625 0 
L 7.625 7.46875 
L 25.140625 7.46875 
L 25.140625 60.40625 
L 9.625 49.3125 
L 9.625 57.625 
L 25.875 68.796875 
L 33.984375 68.796875 
L 33.984375 7.46875 
L 50.734375 7.46875 
L 50.734375 0 
z
" id="LiberationSans-31"/>
      </defs>
      <g style="fill:#262626;" transform="translate(29.098 418.477156)scale(0.16 -0.16)">
       <use xlink:href="#LiberationSans-30"/>
       <use x="55.615234" xlink:href="#LiberationSans-2e"/>
       <use x="83.398438" xlink:href="#LiberationSans-31"/>
      </g>
     </g>
    </g>
    <g id="ytick_3">
     <g id="line2d_53">
      <path clip-path="url(#pb4cfe5436f)" d="M 64.588 270.510373 
L 1349.638 270.510373 
" style="fill:none;stroke:#d5d5d5;stroke-dasharray:1.85,0.8;stroke-dashoffset:0;stroke-width:0.5;"/>
     </g>
     <g id="line2d_54">
      <g>
       <use style="fill:#262626;stroke:#262626;" x="64.588" xlink:href="#m81593956ad" y="270.510373"/>
      </g>
     </g>
     <g id="text_12">
      <!-- 0.2 -->
      <defs>
       <path d="M 5.03125 0 
L 5.03125 6.203125 
Q 7.515625 11.921875 11.109375 16.28125 
Q 14.703125 20.65625 18.65625 24.1875 
Q 22.609375 27.734375 26.484375 30.765625 
Q 30.375 33.796875 33.5 36.8125 
Q 36.625 39.84375 38.546875 43.15625 
Q 40.484375 46.484375 40.484375 50.6875 
Q 40.484375 53.609375 39.59375 55.828125 
Q 38.71875 58.0625 37.0625 59.5625 
Q 35.40625 61.078125 33.078125 61.828125 
Q 30.765625 62.59375 27.9375 62.59375 
Q 25.296875 62.59375 22.96875 61.859375 
Q 20.65625 61.140625 18.84375 59.671875 
Q 17.046875 58.203125 15.890625 56.03125 
Q 14.75 53.859375 14.40625 50.984375 
L 5.421875 51.8125 
Q 5.859375 55.515625 7.46875 58.78125 
Q 9.078125 62.0625 11.90625 64.53125 
Q 14.75 67 18.71875 68.40625 
Q 22.703125 69.828125 27.9375 69.828125 
Q 33.0625 69.828125 37.0625 68.609375 
Q 41.0625 67.390625 43.8125 64.984375 
Q 46.578125 62.59375 48.046875 59.078125 
Q 49.515625 55.5625 49.515625 50.984375 
Q 49.515625 47.515625 48.265625 44.390625 
Q 47.015625 41.265625 44.9375 38.421875 
Q 42.875 35.59375 40.140625 32.953125 
Q 37.40625 30.328125 34.421875 27.8125 
Q 31.453125 25.296875 28.421875 22.828125 
Q 25.390625 20.359375 22.71875 17.859375 
Q 20.0625 15.375 17.96875 12.8125 
Q 15.875 10.25 14.703125 7.46875 
L 50.59375 7.46875 
L 50.59375 0 
z
" id="LiberationSans-32"/>
      </defs>
      <g style="fill:#262626;" transform="translate(29.098 276.307873)scale(0.16 -0.16)">
       <use xlink:href="#LiberationSans-30"/>
       <use x="55.615234" xlink:href="#LiberationSans-2e"/>
       <use x="83.398438" xlink:href="#LiberationSans-32"/>
      </g>
     </g>
    </g>
    <g id="ytick_4">
     <g id="line2d_55">
      <path clip-path="url(#pb4cfe5436f)" d="M 64.588 128.341089 
L 1349.638 128.341089 
" style="fill:none;stroke:#d5d5d5;stroke-dasharray:1.85,0.8;stroke-dashoffset:0;stroke-width:0.5;"/>
     </g>
     <g id="line2d_56">
      <g>
       <use style="fill:#262626;stroke:#262626;" x="64.588" xlink:href="#m81593956ad" y="128.341089"/>
      </g>
     </g>
     <g id="text_13">
      <!-- 0.3 -->
      <defs>
       <path d="M 51.21875 19 
Q 51.21875 14.265625 49.671875 10.546875 
Q 48.140625 6.84375 45.1875 4.265625 
Q 42.234375 1.703125 37.859375 0.359375 
Q 33.5 -0.984375 27.875 -0.984375 
Q 21.484375 -0.984375 17.109375 0.609375 
Q 12.75 2.203125 9.90625 4.8125 
Q 7.078125 7.421875 5.65625 10.765625 
Q 4.25 14.109375 3.8125 17.671875 
L 12.890625 18.5 
Q 13.28125 15.765625 14.328125 13.515625 
Q 15.375 11.28125 17.1875 9.671875 
Q 19 8.0625 21.625 7.171875 
Q 24.265625 6.296875 27.875 6.296875 
Q 34.515625 6.296875 38.296875 9.5625 
Q 42.09375 12.84375 42.09375 19.28125 
Q 42.09375 23.09375 40.40625 25.40625 
Q 38.71875 27.734375 36.203125 29.03125 
Q 33.6875 30.328125 30.734375 30.765625 
Q 27.78125 31.203125 25.296875 31.203125 
L 20.3125 31.203125 
L 20.3125 38.8125 
L 25.09375 38.8125 
Q 27.59375 38.8125 30.265625 39.328125 
Q 32.953125 39.84375 35.171875 41.1875 
Q 37.40625 42.53125 38.84375 44.828125 
Q 40.28125 47.125 40.28125 50.6875 
Q 40.28125 56.203125 37.03125 59.390625 
Q 33.796875 62.59375 27.390625 62.59375 
Q 21.578125 62.59375 17.984375 59.609375 
Q 14.40625 56.640625 13.8125 51.21875 
L 4.984375 51.90625 
Q 5.515625 56.453125 7.46875 59.8125 
Q 9.421875 63.1875 12.421875 65.40625 
Q 15.4375 67.625 19.28125 68.71875 
Q 23.140625 69.828125 27.484375 69.828125 
Q 33.25 69.828125 37.390625 68.375 
Q 41.546875 66.9375 44.1875 64.46875 
Q 46.828125 62.015625 48.0625 58.6875 
Q 49.3125 55.375 49.3125 51.609375 
Q 49.3125 48.578125 48.484375 45.9375 
Q 47.65625 43.3125 45.890625 41.203125 
Q 44.140625 39.109375 41.421875 37.59375 
Q 38.71875 36.078125 34.90625 35.296875 
L 34.90625 35.109375 
Q 39.0625 34.671875 42.140625 33.21875 
Q 45.21875 31.78125 47.21875 29.625 
Q 49.21875 27.484375 50.21875 24.75 
Q 51.21875 22.015625 51.21875 19 
z
" id="LiberationSans-33"/>
      </defs>
      <g style="fill:#262626;" transform="translate(29.098 134.138589)scale(0.16 -0.16)">
       <use xlink:href="#LiberationSans-30"/>
       <use x="55.615234" xlink:href="#LiberationSans-2e"/>
       <use x="83.398438" xlink:href="#LiberationSans-33"/>
      </g>
     </g>
    </g>
    <g id="ytick_5">
     <g id="line2d_57">
      <defs>
       <path d="M 0 0 
L -3.75 0 
" id="m74877e4f0c" style="stroke:#262626;"/>
      </defs>
      <g>
       <use style="fill:#262626;stroke:#262626;" x="64.588" xlink:href="#m74877e4f0c" y="668.584366"/>
      </g>
     </g>
    </g>
    <g id="ytick_6">
     <g id="line2d_58">
      <g>
       <use style="fill:#262626;stroke:#262626;" x="64.588" xlink:href="#m74877e4f0c" y="640.150509"/>
      </g>
     </g>
    </g>
    <g id="ytick_7">
     <g id="line2d_59">
      <g>
       <use style="fill:#262626;stroke:#262626;" x="64.588" xlink:href="#m74877e4f0c" y="611.716653"/>
      </g>
     </g>
    </g>
    <g id="ytick_8">
     <g id="line2d_60">
      <g>
       <use style="fill:#262626;stroke:#262626;" x="64.588" xlink:href="#m74877e4f0c" y="583.282796"/>
      </g>
     </g>
    </g>
    <g id="ytick_9">
     <g id="line2d_61">
      <g>
       <use style="fill:#262626;stroke:#262626;" x="64.588" xlink:href="#m74877e4f0c" y="526.415083"/>
      </g>
     </g>
    </g>
    <g id="ytick_10">
     <g id="line2d_62">
      <g>
       <use style="fill:#262626;stroke:#262626;" x="64.588" xlink:href="#m74877e4f0c" y="497.981226"/>
      </g>
     </g>
    </g>
    <g id="ytick_11">
     <g id="line2d_63">
      <g>
       <use style="fill:#262626;stroke:#262626;" x="64.588" xlink:href="#m74877e4f0c" y="469.547369"/>
      </g>
     </g>
    </g>
    <g id="ytick_12">
     <g id="line2d_64">
      <g>
       <use style="fill:#262626;stroke:#262626;" x="64.588" xlink:href="#m74877e4f0c" y="441.113513"/>
      </g>
     </g>
    </g>
    <g id="ytick_13">
     <g id="line2d_65">
      <g>
       <use style="fill:#262626;stroke:#262626;" x="64.588" xlink:href="#m74877e4f0c" y="412.679656"/>
      </g>
     </g>
    </g>
    <g id="ytick_14">
     <g id="line2d_66">
      <g>
       <use style="fill:#262626;stroke:#262626;" x="64.588" xlink:href="#m74877e4f0c" y="384.245799"/>
      </g>
     </g>
    </g>
    <g id="ytick_15">
     <g id="line2d_67">
      <g>
       <use style="fill:#262626;stroke:#262626;" x="64.588" xlink:href="#m74877e4f0c" y="355.811943"/>
      </g>
     </g>
    </g>
    <g id="ytick_16">
     <g id="line2d_68">
      <g>
       <use style="fill:#262626;stroke:#262626;" x="64.588" xlink:href="#m74877e4f0c" y="327.378086"/>
      </g>
     </g>
    </g>
    <g id="ytick_17">
     <g id="line2d_69">
      <g>
       <use style="fill:#262626;stroke:#262626;" x="64.588" xlink:href="#m74877e4f0c" y="298.944229"/>
      </g>
     </g>
    </g>
    <g id="ytick_18">
     <g id="line2d_70">
      <g>
       <use style="fill:#262626;stroke:#262626;" x="64.588" xlink:href="#m74877e4f0c" y="242.076516"/>
      </g>
     </g>
    </g>
    <g id="ytick_19">
     <g id="line2d_71">
      <g>
       <use style="fill:#262626;stroke:#262626;" x="64.588" xlink:href="#m74877e4f0c" y="213.642659"/>
      </g>
     </g>
    </g>
    <g id="ytick_20">
     <g id="line2d_72">
      <g>
       <use style="fill:#262626;stroke:#262626;" x="64.588" xlink:href="#m74877e4f0c" y="185.208803"/>
      </g>
     </g>
    </g>
    <g id="ytick_21">
     <g id="line2d_73">
      <g>
       <use style="fill:#262626;stroke:#262626;" x="64.588" xlink:href="#m74877e4f0c" y="156.774946"/>
      </g>
     </g>
    </g>
    <g id="ytick_22">
     <g id="line2d_74">
      <g>
       <use style="fill:#262626;stroke:#262626;" x="64.588" xlink:href="#m74877e4f0c" y="99.907233"/>
      </g>
     </g>
    </g>
    <g id="ytick_23">
     <g id="line2d_75">
      <g>
       <use style="fill:#262626;stroke:#262626;" x="64.588" xlink:href="#m74877e4f0c" y="71.473376"/>
      </g>
     </g>
    </g>
    <g id="ytick_24">
     <g id="line2d_76">
      <g>
       <use style="fill:#262626;stroke:#262626;" x="64.588" xlink:href="#m74877e4f0c" y="43.039519"/>
      </g>
     </g>
    </g>
    <g id="text_14">
     <!-- Tristimulus Values -->
     <defs>
      <path d="M 35.15625 61.1875 
L 35.15625 0 
L 25.875 0 
L 25.875 61.1875 
L 2.25 61.1875 
L 2.25 68.796875 
L 58.796875 68.796875 
L 58.796875 61.1875 
z
" id="LiberationSans-54"/>
      <path d="M 6.9375 0 
L 6.9375 40.53125 
Q 6.9375 42.1875 6.90625 43.921875 
Q 6.890625 45.65625 6.828125 47.265625 
Q 6.78125 48.875 6.734375 50.28125 
Q 6.6875 51.703125 6.640625 52.828125 
L 14.9375 52.828125 
Q 14.984375 51.703125 15.0625 50.265625 
Q 15.140625 48.828125 15.203125 47.3125 
Q 15.28125 45.796875 15.296875 44.40625 
Q 15.328125 43.015625 15.328125 42.046875 
L 15.53125 42.046875 
Q 16.453125 45.0625 17.5 47.28125 
Q 18.5625 49.515625 19.96875 50.953125 
Q 21.390625 52.390625 23.34375 53.09375 
Q 25.296875 53.8125 28.078125 53.8125 
Q 29.15625 53.8125 30.125 53.640625 
Q 31.109375 53.46875 31.640625 53.328125 
L 31.640625 45.265625 
Q 30.765625 45.515625 29.59375 45.625 
Q 28.421875 45.75 26.953125 45.75 
Q 23.921875 45.75 21.796875 44.375 
Q 19.671875 43.015625 18.328125 40.59375 
Q 17 38.1875 16.359375 34.84375 
Q 15.71875 31.5 15.71875 27.546875 
L 15.71875 0 
z
" id="LiberationSans-72"/>
      <path d="M 6.6875 64.0625 
L 6.6875 72.46875 
L 15.484375 72.46875 
L 15.484375 64.0625 
z
M 6.6875 0 
L 6.6875 52.828125 
L 15.484375 52.828125 
L 15.484375 0 
z
" id="LiberationSans-69"/>
      <path d="M 46.390625 14.59375 
Q 46.390625 10.890625 44.9375 7.984375 
Q 43.5 5.078125 40.765625 3.09375 
Q 38.03125 1.125 34.046875 0.0625 
Q 30.078125 -0.984375 24.953125 -0.984375 
Q 20.359375 -0.984375 16.671875 -0.265625 
Q 12.984375 0.4375 10.203125 2 
Q 7.421875 3.5625 5.53125 6.125 
Q 3.65625 8.6875 2.78125 12.40625 
L 10.546875 13.921875 
Q 11.671875 9.671875 15.1875 7.6875 
Q 18.703125 5.71875 24.953125 5.71875 
Q 27.78125 5.71875 30.140625 6.109375 
Q 32.515625 6.5 34.21875 7.453125 
Q 35.9375 8.40625 36.890625 9.984375 
Q 37.84375 11.578125 37.84375 13.921875 
Q 37.84375 16.3125 36.71875 17.84375 
Q 35.59375 19.390625 33.59375 20.40625 
Q 31.59375 21.4375 28.734375 22.1875 
Q 25.875 22.953125 22.46875 23.875 
Q 19.28125 24.703125 16.15625 25.734375 
Q 13.03125 26.765625 10.515625 28.4375 
Q 8.015625 30.125 6.453125 32.609375 
Q 4.890625 35.109375 4.890625 38.875 
Q 4.890625 46.09375 10.03125 49.875 
Q 15.1875 53.65625 25.046875 53.65625 
Q 33.796875 53.65625 38.9375 50.578125 
Q 44.09375 47.515625 45.453125 40.71875 
L 37.546875 39.75 
Q 37.109375 41.796875 35.9375 43.1875 
Q 34.765625 44.578125 33.109375 45.4375 
Q 31.453125 46.296875 29.375 46.65625 
Q 27.296875 47.015625 25.046875 47.015625 
Q 19.09375 47.015625 16.25 45.203125 
Q 13.421875 43.40625 13.421875 39.75 
Q 13.421875 37.59375 14.46875 36.203125 
Q 15.53125 34.8125 17.40625 33.859375 
Q 19.28125 32.90625 21.921875 32.203125 
Q 24.5625 31.5 27.734375 30.71875 
Q 29.828125 30.171875 32.03125 29.5625 
Q 34.234375 28.953125 36.296875 28.09375 
Q 38.375 27.25 40.203125 26.09375 
Q 42.046875 24.953125 43.40625 23.34375 
Q 44.78125 21.734375 45.578125 19.578125 
Q 46.390625 17.4375 46.390625 14.59375 
z
" id="LiberationSans-73"/>
      <path d="M 15.328125 52.828125 
L 15.328125 19.34375 
Q 15.328125 15.484375 15.890625 12.890625 
Q 16.453125 10.296875 17.71875 8.703125 
Q 19 7.125 21.0625 6.46875 
Q 23.140625 5.8125 26.21875 5.8125 
Q 29.34375 5.8125 31.859375 6.90625 
Q 34.375 8.015625 36.15625 10.078125 
Q 37.9375 12.15625 38.90625 15.203125 
Q 39.890625 18.265625 39.890625 22.21875 
L 39.890625 52.828125 
L 48.6875 52.828125 
L 48.6875 11.28125 
Q 48.6875 9.625 48.703125 7.78125 
Q 48.734375 5.953125 48.78125 4.3125 
Q 48.828125 2.6875 48.875 1.515625 
Q 48.921875 0.34375 48.96875 0 
L 40.671875 0 
Q 40.625 0.25 40.578125 1.3125 
Q 40.53125 2.390625 40.453125 3.78125 
Q 40.375 5.171875 40.328125 6.609375 
Q 40.28125 8.0625 40.28125 9.03125 
L 40.140625 9.03125 
Q 38.875 6.734375 37.359375 4.875 
Q 35.84375 3.03125 33.84375 1.734375 
Q 31.84375 0.4375 29.25 -0.265625 
Q 26.65625 -0.984375 23.25 -0.984375 
Q 18.84375 -0.984375 15.671875 0.09375 
Q 12.5 1.171875 10.453125 3.421875 
Q 8.40625 5.671875 7.453125 9.1875 
Q 6.5 12.703125 6.5 17.625 
L 6.5 52.828125 
z
" id="LiberationSans-75"/>
      <path d="M 38.1875 0 
L 28.515625 0 
L 0.4375 68.796875 
L 10.25 68.796875 
L 29.296875 20.359375 
Q 30.03125 18.171875 30.765625 15.984375 
Q 31.5 13.8125 32.078125 12.109375 
Q 32.765625 10.109375 33.40625 8.203125 
Q 33.984375 10.015625 34.671875 12.015625 
Q 35.25 13.71875 35.953125 15.859375 
Q 36.671875 18.015625 37.5 20.359375 
L 56.453125 68.796875 
L 66.265625 68.796875 
z
" id="LiberationSans-56"/>
     </defs>
     <g style="fill:#262626;" transform="translate(21.114 443.6697)rotate(-90)scale(0.192 -0.192)">
      <use xlink:href="#LiberationSans-54"/>
      <use x="61.037109" xlink:href="#LiberationSans-72"/>
      <use x="94.337891" xlink:href="#LiberationSans-69"/>
      <use x="116.554688" xlink:href="#LiberationSans-73"/>
      <use x="166.554688" xlink:href="#LiberationSans-74"/>
      <use x="194.337891" xlink:href="#LiberationSans-69"/>
      <use x="216.554688" xlink:href="#LiberationSans-6d"/>
      <use x="299.855469" xlink:href="#LiberationSans-75"/>
      <use x="355.470703" xlink:href="#LiberationSans-6c"/>
      <use x="377.6875" xlink:href="#LiberationSans-75"/>
      <use x="433.302734" xlink:href="#LiberationSans-73"/>
      <use x="483.302734" xlink:href="#LiberationSans-20"/>
      <use x="511.085938" xlink:href="#LiberationSans-56"/>
      <use x="577.675781" xlink:href="#LiberationSans-61"/>
      <use x="633.291016" xlink:href="#LiberationSans-6c"/>
      <use x="655.507812" xlink:href="#LiberationSans-75"/>
      <use x="711.123047" xlink:href="#LiberationSans-65"/>
      <use x="766.738281" xlink:href="#LiberationSans-73"/>
     </g>
    </g>
   </g>
   <g id="line2d_77">
    <path clip-path="url(#pb4cfe5436f)" d="M 64.588 554.848939 
L 1349.638 554.848939 
" style="fill:none;stroke:#333333;stroke-dasharray:3.7,1.6;stroke-dashoffset:0;"/>
   </g>
   <g id="line2d_78">
    <path clip-path="url(#pb4cfe5436f)" d="M 64.588 554.806289 
L 80.651125 554.777855 
L 96.71425 554.70677 
L 112.777375 554.607252 
L 128.8405 554.422432 
L 144.903625 554.180744 
L 160.96675 553.654717 
L 177.029875 552.872786 
L 193.093 551.849168 
L 209.156125 551.067236 
L 225.21925 551.749649 
L 241.282375 554.33713 
L 257.3455 558.559558 
L 273.408625 564.416932 
L 289.47175 572.094073 
L 305.534875 581.491463 
L 321.598 591.926688 
L 337.661125 602.106009 
L 353.72425 610.764119 
L 369.787375 618.412826 
L 385.8505 625.066348 
L 401.913625 631.108543 
L 417.97675 637.506161 
L 434.039875 646.036318 
L 450.103 656.315157 
L 466.166125 670.290397 
L 482.22925 681.393819 
L 498.292375 687.862521 
L 514.3555 686.554564 
L 530.418625 675.308973 
L 546.48175 655.803348 
L 562.544875 630.42613 
L 578.608 599.660698 
L 594.671125 563.563916 
L 610.73425 522.44856 
L 626.797375 476.456797 
L 642.8605 426.043569 
L 658.923625 372.30358 
L 674.98675 316.459485 
L 691.049875 260.345269 
L 707.113 205.652746 
L 723.176125 156.931332 
L 739.23925 115.14778 
L 755.302375 83.074389 
L 771.3655 65.374314 
L 787.428625 60.725378 
L 803.49175 71.885667 
L 819.554875 96.139747 
L 835.618 132.492432 
L 851.681125 180.261312 
L 867.74425 232.451655 
L 883.807375 281.414757 
L 899.8705 327.833028 
L 915.933625 371.379479 
L 931.99675 410.305429 
L 948.059875 443.146533 
L 964.123 470.51412 
L 980.186125 492.77783 
L 996.24925 510.079832 
L 1012.312375 522.235306 
L 1028.3755 530.864981 
L 1044.438625 537.973445 
L 1060.50175 543.205275 
L 1076.564875 546.716856 
L 1092.628 549.019999 
L 1108.691125 550.711813 
L 1124.75425 551.863384 
L 1140.817375 552.744834 
L 1156.8805 553.356162 
L 1172.943625 553.796887 
L 1189.00675 554.109659 
L 1205.069875 554.33713 
L 1221.133 554.493516 
L 1237.196125 554.607252 
L 1253.25925 554.678336 
L 1269.322375 554.735204 
L 1285.3855 554.763638 
L 1301.448625 554.792072 
L 1317.51175 554.806289 
L 1333.574875 554.834722 
L 1349.638 554.848939 
" style="fill:none;stroke:#ff0000;stroke-linecap:round;"/>
   </g>
   <g id="line2d_79">
    <path clip-path="url(#pb4cfe5436f)" d="M 64.588 554.863156 
L 80.651125 554.877373 
L 96.71425 554.905807 
L 112.777375 554.948458 
L 128.8405 555.047976 
L 144.903625 555.161712 
L 160.96675 555.431833 
L 177.029875 555.844124 
L 193.093 556.412802 
L 209.156125 556.88196 
L 225.21925 556.540754 
L 241.282375 555.147495 
L 257.3455 552.730617 
L 273.408625 549.460724 
L 289.47175 545.209862 
L 305.534875 539.978032 
L 321.598 533.736801 
L 337.661125 526.742072 
L 353.72425 518.766375 
L 369.787375 509.596456 
L 385.8505 499.203882 
L 401.913625 487.844556 
L 417.97675 473.968834 
L 434.039875 456.069721 
L 450.103 433.493239 
L 466.166125 404.249018 
L 482.22925 372.019241 
L 498.292375 337.870179 
L 514.3555 306.507635 
L 530.418625 283.120788 
L 546.48175 266.003606 
L 562.544875 255.113439 
L 578.608 249.668356 
L 594.671125 249.3698 
L 610.73425 253.762831 
L 626.797375 262.150819 
L 642.8605 274.747017 
L 658.923625 291.522993 
L 674.98675 311.924285 
L 691.049875 335.495952 
L 707.113 361.356545 
L 723.176125 388.709915 
L 739.23925 416.17702 
L 755.302375 442.407253 
L 771.3655 466.050005 
L 787.428625 486.94889 
L 803.49175 504.279325 
L 819.554875 518.126613 
L 835.618 528.860394 
L 851.681125 537.035128 
L 867.74425 543.006238 
L 883.807375 547.214449 
L 899.8705 550.100485 
L 915.933625 552.019771 
L 931.99675 553.199776 
L 948.059875 553.910622 
L 964.123 554.322913 
L 980.186125 554.550384 
L 996.24925 554.692553 
L 1012.312375 554.763638 
L 1028.3755 554.806289 
L 1044.438625 554.834722 
L 1060.50175 554.848939 
L 1076.564875 554.848939 
L 1092.628 554.848939 
L 1108.691125 554.848939 
L 1124.75425 554.848939 
L 1140.817375 554.848939 
L 1156.8805 554.848939 
L 1172.943625 554.848939 
L 1189.00675 554.848939 
L 1205.069875 554.848939 
L 1221.133 554.848939 
L 1237.196125 554.848939 
L 1253.25925 554.848939 
L 1269.322375 554.848939 
L 1285.3855 554.848939 
L 1301.448625 554.848939 
L 1317.51175 554.848939 
L 1333.574875 554.848939 
L 1349.638 554.848939 
" style="fill:none;stroke:#00ff00;stroke-linecap:round;"/>
   </g>
   <g id="line2d_80">
    <path clip-path="url(#pb4cfe5436f)" d="M 64.588 553.185559 
L 80.651125 552.16194 
L 96.71425 549.745062 
L 112.777375 545.650587 
L 128.8405 537.589588 
L 144.903625 526.855807 
L 160.96675 502.146786 
L 177.029875 460.491186 
L 193.093 390.771369 
L 209.156125 290.769496 
L 225.21925 202.709841 
L 241.282375 142.387414 
L 257.3455 110.882701 
L 273.408625 101.897603 
L 289.47175 104.598819 
L 305.534875 111.764151 
L 321.598 130.885919 
L 337.661125 166.79788 
L 353.72425 227.98754 
L 369.787375 290.527808 
L 385.8505 348.78878 
L 401.913625 398.917669 
L 417.97675 437.459762 
L 434.039875 466.050005 
L 450.103 486.94889 
L 466.166125 502.416908 
L 482.22925 516.491667 
L 498.292375 528.661357 
L 514.3555 537.49007 
L 530.418625 543.048889 
L 546.48175 547.043846 
L 562.544875 550.299522 
L 578.608 552.773268 
L 594.671125 554.52195 
L 610.73425 555.673521 
L 626.797375 556.341717 
L 642.8605 556.69714 
L 658.923625 556.810876 
L 674.98675 556.768225 
L 691.049875 556.597622 
L 707.113 556.384368 
L 723.176125 556.171114 
L 739.23925 555.972077 
L 755.302375 555.744606 
L 771.3655 555.545569 
L 787.428625 555.389183 
L 803.49175 555.275447 
L 819.554875 555.161712 
L 835.618 555.062193 
L 851.681125 555.005326 
L 867.74425 554.962675 
L 883.807375 554.920024 
L 899.8705 554.89159 
L 915.933625 554.877373 
L 931.99675 554.863156 
L 948.059875 554.863156 
L 964.123 554.848939 
L 980.186125 554.848939 
L 996.24925 554.848939 
L 1012.312375 554.848939 
L 1028.3755 554.848939 
L 1044.438625 554.848939 
L 1060.50175 554.848939 
L 1076.564875 554.848939 
L 1092.628 554.848939 
L 1108.691125 554.848939 
L 1124.75425 554.848939 
L 1140.817375 554.848939 
L 1156.8805 554.848939 
L 1172.943625 554.848939 
L 1189.00675 554.848939 
L 1205.069875 554.848939 
L 1221.133 554.848939 
L 1237.196125 554.848939 
L 1253.25925 554.848939 
L 1269.322375 554.848939 
L 1285.3855 554.848939 
L 1301.448625 554.848939 
L 1317.51175 554.848939 
L 1333.574875 554.848939 
L 1349.638 554.848939 
" style="fill:none;stroke:#0000ff;stroke-linecap:round;"/>
   </g>
   <g id="patch_3">
    <path d="M 64.588 694.5132 
L 64.588 36.0192 
" style="fill:none;stroke:#333333;stroke-linecap:square;stroke-linejoin:miter;"/>
   </g>
   <g id="patch_4">
    <path d="M 1349.638 694.5132 
L 1349.638 36.0192 
" style="fill:none;stroke:#333333;stroke-linecap:square;stroke-linejoin:miter;"/>
   </g>
   <g id="patch_5">
    <path d="M 64.588 694.5132 
L 1349.638 694.5132 
" style="fill:none;stroke:#333333;stroke-linecap:square;stroke-linejoin:miter;"/>
   </g>
   <g id="patch_6">
    <path d="M 64.588 36.0192 
L 1349.638 36.0192 
" style="fill:none;stroke:#333333;stroke-linecap:square;stroke-linejoin:miter;"/>
   </g>
   <g id="text_15">
    <!-- Wright &amp; Guild (1931) 2$^\circ$ RGB CMFs - Colour Matching Functions -->
    <defs>
     <path d="M 58.25 -0.59375 
Q 53.5625 -0.59375 50.046875 1.015625 
Q 46.53125 2.640625 43.703125 5.609375 
Q 42.234375 4.34375 40.375 3.171875 
Q 38.53125 2 36.25 1.0625 
Q 33.984375 0.140625 31.3125 -0.421875 
Q 28.65625 -0.984375 25.53125 -0.984375 
Q 19.828125 -0.984375 15.640625 0.484375 
Q 11.46875 1.953125 8.78125 4.515625 
Q 6.109375 7.078125 4.8125 10.5625 
Q 3.515625 14.0625 3.515625 18.109375 
Q 3.515625 21.96875 4.75 25.109375 
Q 6 28.265625 8.21875 30.828125 
Q 10.453125 33.40625 13.53125 35.421875 
Q 16.609375 37.453125 20.265625 39.0625 
Q 19.390625 40.71875 18.671875 42.59375 
Q 17.96875 44.484375 17.421875 46.390625 
Q 16.890625 48.296875 16.59375 50.1875 
Q 16.3125 52.09375 16.3125 53.8125 
Q 16.3125 57.03125 17.28125 59.828125 
Q 18.265625 62.640625 20.328125 64.71875 
Q 22.40625 66.796875 25.65625 67.984375 
Q 28.90625 69.1875 33.453125 69.1875 
Q 37.015625 69.1875 40.015625 68.25 
Q 43.015625 67.328125 45.203125 65.5625 
Q 47.40625 63.8125 48.625 61.21875 
Q 49.859375 58.640625 49.859375 55.328125 
Q 49.859375 51.65625 48.234375 48.796875 
Q 46.625 45.953125 43.890625 43.703125 
Q 41.15625 41.453125 37.546875 39.625 
Q 33.9375 37.796875 29.890625 36.1875 
Q 32.90625 30.609375 36.46875 25.703125 
Q 40.046875 20.796875 44.1875 16.0625 
Q 47.171875 20.453125 49.140625 25.3125 
Q 51.125 30.171875 52.546875 36.078125 
L 59.625 33.984375 
Q 57.90625 27.203125 55.296875 21.65625 
Q 52.6875 16.109375 49.265625 11.078125 
Q 51.859375 8.453125 54.4375 7.375 
Q 57.03125 6.296875 59.421875 6.296875 
Q 60.984375 6.296875 62.421875 6.46875 
Q 63.875 6.640625 65.140625 7.078125 
L 65.140625 0.484375 
Q 63.765625 -0.046875 61.9375 -0.3125 
Q 60.109375 -0.59375 58.25 -0.59375 
z
M 42.4375 55.328125 
Q 42.4375 57.125 41.765625 58.59375 
Q 41.109375 60.0625 39.9375 61.109375 
Q 38.765625 62.15625 37.078125 62.71875 
Q 35.40625 63.28125 33.34375 63.28125 
Q 28.65625 63.28125 26.21875 60.765625 
Q 23.78125 58.25 23.78125 53.8125 
Q 23.78125 50.921875 24.6875 47.765625 
Q 25.59375 44.625 26.953125 41.890625 
Q 30.125 43.171875 32.953125 44.5 
Q 35.796875 45.84375 37.890625 47.4375 
Q 39.984375 49.03125 41.203125 50.953125 
Q 42.4375 52.875 42.4375 55.328125 
z
M 38.8125 10.59375 
Q 34.46875 15.71875 30.46875 21.328125 
Q 26.46875 26.953125 23.25 32.90625 
Q 17.71875 30.5625 14.71875 26.953125 
Q 11.71875 23.34375 11.71875 18.21875 
Q 11.71875 15.53125 12.5625 13.203125 
Q 13.421875 10.890625 15.171875 9.15625 
Q 16.9375 7.421875 19.59375 6.421875 
Q 22.265625 5.421875 25.828125 5.421875 
Q 27.984375 5.421875 29.90625 5.875 
Q 31.84375 6.34375 33.5 7.078125 
Q 35.15625 7.8125 36.5 8.734375 
Q 37.84375 9.671875 38.8125 10.59375 
z
" id="LiberationSans-26"/>
     <path d="M 5.03125 34.71875 
Q 5.03125 42.78125 7.203125 49.265625 
Q 9.375 55.765625 13.6875 60.328125 
Q 18.015625 64.890625 24.40625 67.359375 
Q 30.8125 69.828125 39.265625 69.828125 
Q 45.609375 69.828125 50.390625 68.703125 
Q 55.171875 67.578125 58.6875 65.46875 
Q 62.203125 63.375 64.640625 60.375 
Q 67.09375 57.375 68.796875 53.609375 
L 59.90625 50.984375 
Q 58.640625 53.515625 56.859375 55.59375 
Q 55.078125 57.671875 52.53125 59.125 
Q 50 60.59375 46.65625 61.390625 
Q 43.3125 62.203125 39.015625 62.203125 
Q 32.765625 62.203125 28.140625 60.25 
Q 23.53125 58.296875 20.5 54.6875 
Q 17.484375 51.078125 15.984375 46 
Q 14.5 40.921875 14.5 34.71875 
Q 14.5 28.515625 16.109375 23.359375 
Q 17.71875 18.21875 20.890625 14.484375 
Q 24.078125 10.75 28.78125 8.671875 
Q 33.5 6.59375 39.703125 6.59375 
Q 43.75 6.59375 47.171875 7.265625 
Q 50.59375 7.953125 53.34375 9.046875 
Q 56.109375 10.15625 58.203125 11.5 
Q 60.296875 12.84375 61.71875 14.203125 
L 61.71875 26.609375 
L 41.15625 26.609375 
L 41.15625 34.421875 
L 70.3125 34.421875 
L 70.3125 10.6875 
Q 68.015625 8.34375 64.90625 6.21875 
Q 61.8125 4.109375 57.953125 2.484375 
Q 54.109375 0.875 49.515625 -0.046875 
Q 44.921875 -0.984375 39.703125 -0.984375 
Q 31 -0.984375 24.5 1.671875 
Q 18.015625 4.34375 13.6875 9.109375 
Q 9.375 13.875 7.203125 20.40625 
Q 5.03125 26.953125 5.03125 34.71875 
z
" id="LiberationSans-47"/>
     <path d="M 40.09375 8.5 
Q 37.640625 3.421875 33.609375 1.21875 
Q 29.59375 -0.984375 23.640625 -0.984375 
Q 13.625 -0.984375 8.90625 5.75 
Q 4.203125 12.5 4.203125 26.171875 
Q 4.203125 53.8125 23.640625 53.8125 
Q 29.640625 53.8125 33.640625 51.609375 
Q 37.640625 49.421875 40.09375 44.625 
L 40.1875 44.625 
Q 40.1875 45.125 40.15625 46.171875 
Q 40.140625 47.21875 40.109375 48.359375 
Q 40.09375 49.515625 40.09375 50.53125 
Q 40.09375 51.5625 40.09375 52 
L 40.09375 72.46875 
L 48.875 72.46875 
L 48.875 10.890625 
Q 48.875 8.984375 48.890625 7.21875 
Q 48.921875 5.46875 48.96875 4 
Q 49.03125 2.546875 49.078125 1.484375 
Q 49.125 0.4375 49.171875 0 
L 40.765625 0 
Q 40.671875 0.484375 40.59375 1.390625 
Q 40.53125 2.296875 40.453125 3.46875 
Q 40.375 4.640625 40.328125 5.9375 
Q 40.28125 7.234375 40.28125 8.5 
z
M 13.421875 26.46875 
Q 13.421875 21 14.109375 17.09375 
Q 14.796875 13.1875 16.3125 10.671875 
Q 17.828125 8.15625 20.171875 6.984375 
Q 22.515625 5.8125 25.875 5.8125 
Q 29.34375 5.8125 32 6.9375 
Q 34.671875 8.0625 36.453125 10.578125 
Q 38.234375 13.09375 39.15625 17.140625 
Q 40.09375 21.1875 40.09375 27.046875 
Q 40.09375 32.671875 39.15625 36.546875 
Q 38.234375 40.4375 36.421875 42.828125 
Q 34.625 45.21875 32 46.265625 
Q 29.390625 47.3125 25.984375 47.3125 
Q 22.75 47.3125 20.40625 46.1875 
Q 18.0625 45.0625 16.5 42.578125 
Q 14.9375 40.09375 14.171875 36.109375 
Q 13.421875 32.125 13.421875 26.46875 
z
" id="LiberationSans-64"/>
     <path d="M 50.875 35.796875 
Q 50.875 26.609375 49.140625 19.703125 
Q 47.40625 12.796875 44.1875 8.203125 
Q 40.96875 3.609375 36.34375 1.3125 
Q 31.734375 -0.984375 25.984375 -0.984375 
Q 22.015625 -0.984375 18.84375 -0.171875 
Q 15.671875 0.640625 13.171875 2.34375 
Q 10.6875 4.046875 8.921875 6.78125 
Q 7.171875 9.515625 6.109375 13.375 
L 14.5 14.703125 
Q 15.875 10.25 18.78125 8.171875 
Q 21.6875 6.109375 26.125 6.109375 
Q 29.6875 6.109375 32.640625 7.78125 
Q 35.59375 9.46875 37.671875 12.84375 
Q 39.75 16.21875 40.921875 21.296875 
Q 42.09375 26.375 42.1875 33.203125 
Q 41.15625 30.90625 39.375 29.09375 
Q 37.59375 27.296875 35.328125 26.046875 
Q 33.0625 24.8125 30.421875 24.140625 
Q 27.78125 23.484375 25.09375 23.484375 
Q 20.40625 23.484375 16.625 25.171875 
Q 12.84375 26.859375 10.203125 29.875 
Q 7.5625 32.90625 6.125 37.171875 
Q 4.6875 41.453125 4.6875 46.6875 
Q 4.6875 52 6.21875 56.296875 
Q 7.765625 60.59375 10.6875 63.59375 
Q 13.625 66.609375 17.890625 68.21875 
Q 22.171875 69.828125 27.59375 69.828125 
Q 39.0625 69.828125 44.96875 61.328125 
Q 50.875 52.828125 50.875 35.796875 
z
M 41.3125 44.28125 
Q 41.3125 48.09375 40.40625 51.453125 
Q 39.5 54.828125 37.71875 57.3125 
Q 35.9375 59.8125 33.328125 61.25 
Q 30.71875 62.703125 27.296875 62.703125 
Q 24.125 62.703125 21.578125 61.578125 
Q 19.046875 60.453125 17.28125 58.375 
Q 15.53125 56.296875 14.578125 53.3125 
Q 13.625 50.34375 13.625 46.6875 
Q 13.625 43.21875 14.46875 40.234375 
Q 15.328125 37.25 17.03125 35.078125 
Q 18.75 32.90625 21.28125 31.65625 
Q 23.828125 30.421875 27.203125 30.421875 
Q 29.640625 30.421875 32.15625 31.25 
Q 34.671875 32.078125 36.6875 33.78125 
Q 38.71875 35.5 40.015625 38.109375 
Q 41.3125 40.71875 41.3125 44.28125 
z
" id="LiberationSans-39"/>
     <path d="M 31.25 40.921875 
Q 27.34375 40.921875 24.65625 38.203125 
Q 21.96875 35.5 21.96875 31.59375 
Q 21.96875 27.734375 24.65625 25.078125 
Q 27.34375 22.421875 31.25 22.421875 
Q 35.15625 22.421875 37.84375 25.078125 
Q 40.53125 27.734375 40.53125 31.59375 
Q 40.53125 35.453125 37.8125 38.1875 
Q 35.109375 40.921875 31.25 40.921875 
z
M 31.25 47.21875 
Q 34.375 47.21875 37.25 46.015625 
Q 40.140625 44.828125 42.234375 42.578125 
Q 44.484375 40.390625 45.609375 37.59375 
Q 46.734375 34.8125 46.734375 31.59375 
Q 46.734375 25.15625 42.21875 20.6875 
Q 37.703125 16.21875 31.15625 16.21875 
Q 24.5625 16.21875 20.15625 20.609375 
Q 15.765625 25 15.765625 31.59375 
Q 15.765625 38.140625 20.25 42.671875 
Q 24.75 47.21875 31.25 47.21875 
z
" id="DejaVuSans-2218"/>
     <path d="M 56.84375 0 
L 38.96875 28.5625 
L 17.53125 28.5625 
L 17.53125 0 
L 8.203125 0 
L 8.203125 68.796875 
L 40.578125 68.796875 
Q 46.4375 68.796875 50.953125 67.453125 
Q 55.46875 66.109375 58.546875 63.5625 
Q 61.625 61.03125 63.234375 57.375 
Q 64.84375 53.71875 64.84375 49.125 
Q 64.84375 45.84375 63.890625 42.671875 
Q 62.9375 39.5 60.890625 36.859375 
Q 58.84375 34.234375 55.65625 32.328125 
Q 52.484375 30.421875 48.046875 29.640625 
L 67.578125 0 
z
M 55.46875 49.03125 
Q 55.46875 52.15625 54.390625 54.4375 
Q 53.328125 56.734375 51.265625 58.265625 
Q 49.21875 59.8125 46.28125 60.5625 
Q 43.359375 61.328125 39.65625 61.328125 
L 17.53125 61.328125 
L 17.53125 35.9375 
L 40.046875 35.9375 
Q 44.046875 35.9375 46.96875 36.9375 
Q 49.90625 37.9375 51.78125 39.6875 
Q 53.65625 41.453125 54.5625 43.84375 
Q 55.46875 46.234375 55.46875 49.03125 
z
" id="LiberationSans-52"/>
     <path d="M 61.421875 19.390625 
Q 61.421875 14.15625 59.375 10.46875 
Q 57.328125 6.78125 53.859375 4.46875 
Q 50.390625 2.15625 45.796875 1.078125 
Q 41.21875 0 36.140625 0 
L 8.203125 0 
L 8.203125 68.796875 
L 33.203125 68.796875 
Q 38.921875 68.796875 43.40625 67.84375 
Q 47.90625 66.890625 51.03125 64.84375 
Q 54.15625 62.796875 55.78125 59.640625 
Q 57.421875 56.5 57.421875 52.09375 
Q 57.421875 49.21875 56.609375 46.671875 
Q 55.8125 44.140625 54.171875 42.0625 
Q 52.546875 39.984375 50.078125 38.5 
Q 47.609375 37.015625 44.34375 36.28125 
Q 48.484375 35.796875 51.6875 34.375 
Q 54.890625 32.953125 57.03125 30.75 
Q 59.1875 28.5625 60.296875 25.65625 
Q 61.421875 22.75 61.421875 19.390625 
z
M 48.046875 50.984375 
Q 48.046875 56.546875 44.234375 58.9375 
Q 40.4375 61.328125 33.203125 61.328125 
L 17.53125 61.328125 
L 17.53125 39.546875 
L 33.203125 39.546875 
Q 37.3125 39.546875 40.140625 40.34375 
Q 42.96875 41.15625 44.71875 42.640625 
Q 46.484375 44.140625 47.265625 46.234375 
Q 48.046875 48.34375 48.046875 50.984375 
z
M 52 20.125 
Q 52 23.390625 50.796875 25.6875 
Q 49.609375 27.984375 47.359375 29.4375 
Q 45.125 30.90625 41.96875 31.59375 
Q 38.8125 32.28125 34.90625 32.28125 
L 17.53125 32.28125 
L 17.53125 7.46875 
L 35.640625 7.46875 
Q 39.203125 7.46875 42.203125 8.046875 
Q 45.21875 8.640625 47.390625 10.109375 
Q 49.5625 11.578125 50.78125 14.015625 
Q 52 16.453125 52 20.125 
z
" id="LiberationSans-42"/>
     <path d="M 38.671875 62.203125 
Q 32.8125 62.203125 28.296875 60.25 
Q 23.78125 58.296875 20.71875 54.6875 
Q 17.671875 51.078125 16.109375 46 
Q 14.546875 40.921875 14.546875 34.71875 
Q 14.546875 28.515625 16.234375 23.359375 
Q 17.921875 18.21875 21.0625 14.5 
Q 24.21875 10.796875 28.78125 8.734375 
Q 33.34375 6.6875 39.0625 6.6875 
Q 43.0625 6.6875 46.359375 7.734375 
Q 49.65625 8.796875 52.3125 10.6875 
Q 54.984375 12.59375 57.078125 15.203125 
Q 59.1875 17.828125 60.796875 21 
L 68.40625 17.1875 
Q 66.546875 13.328125 63.8125 10 
Q 61.078125 6.6875 57.390625 4.25 
Q 53.71875 1.8125 49.046875 0.40625 
Q 44.390625 -0.984375 38.625 -0.984375 
Q 30.28125 -0.984375 24 1.671875 
Q 17.71875 4.34375 13.5 9.109375 
Q 9.28125 13.875 7.171875 20.40625 
Q 5.078125 26.953125 5.078125 34.71875 
Q 5.078125 42.78125 7.296875 49.265625 
Q 9.515625 55.765625 13.78125 60.328125 
Q 18.0625 64.890625 24.3125 67.359375 
Q 30.5625 69.828125 38.578125 69.828125 
Q 49.5625 69.828125 56.9375 65.53125 
Q 64.3125 61.234375 67.78125 52.78125 
L 58.9375 49.859375 
Q 57.953125 52.296875 56.296875 54.515625 
Q 54.640625 56.734375 52.140625 58.4375 
Q 49.65625 60.15625 46.3125 61.171875 
Q 42.96875 62.203125 38.671875 62.203125 
z
" id="LiberationSans-43"/>
     <path d="M 66.703125 0 
L 66.703125 45.90625 
Q 66.703125 48.390625 66.75 50.96875 
Q 66.796875 53.5625 66.890625 55.71875 
Q 67 58.203125 67.140625 60.546875 
Q 66.453125 58.0625 65.71875 55.609375 
Q 65.09375 53.515625 64.328125 51.140625 
Q 63.578125 48.78125 62.84375 46.875 
L 45.0625 0 
L 38.53125 0 
L 20.515625 46.875 
Q 20.21875 47.609375 19.890625 48.578125 
Q 19.578125 49.5625 19.203125 50.65625 
Q 18.84375 51.765625 18.46875 52.90625 
Q 18.109375 54.046875 17.78125 55.171875 
Q 16.9375 57.765625 16.15625 60.546875 
Q 16.21875 57.8125 16.3125 55.125 
Q 16.40625 52.828125 16.453125 50.3125 
Q 16.5 47.796875 16.5 45.90625 
L 16.5 0 
L 8.203125 0 
L 8.203125 68.796875 
L 20.453125 68.796875 
L 38.765625 21.09375 
Q 39.109375 20.125 39.59375 18.578125 
Q 40.09375 17.046875 40.53125 15.421875 
Q 40.96875 13.8125 41.328125 12.375 
Q 41.703125 10.9375 41.84375 10.15625 
Q 42 10.9375 42.390625 12.40625 
Q 42.78125 13.875 43.28125 15.484375 
Q 43.796875 17.09375 44.28125 18.609375 
Q 44.78125 20.125 45.171875 21.09375 
L 63.140625 68.796875 
L 75.09375 68.796875 
L 75.09375 0 
z
" id="LiberationSans-4d"/>
     <path d="M 17.53125 61.1875 
L 17.53125 35.59375 
L 55.90625 35.59375 
L 55.90625 27.875 
L 17.53125 27.875 
L 17.53125 0 
L 8.203125 0 
L 8.203125 68.796875 
L 57.078125 68.796875 
L 57.078125 61.1875 
z
" id="LiberationSans-46"/>
     <path d="M 4.4375 22.65625 
L 4.4375 30.46875 
L 28.859375 30.46875 
L 28.859375 22.65625 
z
" id="LiberationSans-2d"/>
     <path d="M 51.421875 26.46875 
Q 51.421875 12.59375 45.3125 5.796875 
Q 39.203125 -0.984375 27.59375 -0.984375 
Q 22.078125 -0.984375 17.71875 0.671875 
Q 13.375 2.34375 10.375 5.765625 
Q 7.375 9.1875 5.78125 14.328125 
Q 4.203125 19.484375 4.203125 26.46875 
Q 4.203125 53.8125 27.875 53.8125 
Q 34.03125 53.8125 38.5 52.09375 
Q 42.96875 50.390625 45.828125 46.96875 
Q 48.6875 43.5625 50.046875 38.421875 
Q 51.421875 33.296875 51.421875 26.46875 
z
M 42.1875 26.46875 
Q 42.1875 32.625 41.234375 36.625 
Q 40.28125 40.625 38.453125 43.015625 
Q 36.625 45.40625 33.984375 46.359375 
Q 31.34375 47.3125 28.03125 47.3125 
Q 24.65625 47.3125 21.9375 46.3125 
Q 19.234375 45.3125 17.328125 42.890625 
Q 15.4375 40.484375 14.421875 36.46875 
Q 13.421875 32.46875 13.421875 26.46875 
Q 13.421875 20.3125 14.5 16.28125 
Q 15.578125 12.25 17.453125 9.859375 
Q 19.34375 7.46875 21.90625 6.484375 
Q 24.46875 5.515625 27.484375 5.515625 
Q 30.859375 5.515625 33.59375 6.46875 
Q 36.328125 7.421875 38.234375 9.8125 
Q 40.140625 12.203125 41.15625 16.25 
Q 42.1875 20.3125 42.1875 26.46875 
z
" id="LiberationSans-6f"/>
     <path d="M 13.421875 26.65625 
Q 13.421875 22.125 14.078125 18.3125 
Q 14.75 14.5 16.3125 11.734375 
Q 17.875 8.984375 20.4375 7.46875 
Q 23 5.953125 26.765625 5.953125 
Q 31.453125 5.953125 34.59375 8.484375 
Q 37.75 11.03125 38.484375 16.3125 
L 47.359375 15.71875 
Q 46.921875 12.453125 45.453125 9.421875 
Q 44 6.390625 41.484375 4.09375 
Q 38.96875 1.8125 35.34375 0.40625 
Q 31.734375 -0.984375 27 -0.984375 
Q 20.796875 -0.984375 16.453125 1.109375 
Q 12.109375 3.21875 9.390625 6.90625 
Q 6.6875 10.59375 5.46875 15.59375 
Q 4.25 20.609375 4.25 26.46875 
Q 4.25 31.78125 5.125 35.859375 
Q 6 39.9375 7.59375 42.984375 
Q 9.1875 46.046875 11.328125 48.125 
Q 13.484375 50.203125 15.984375 51.4375 
Q 18.5 52.6875 21.28125 53.25 
Q 24.078125 53.8125 26.90625 53.8125 
Q 31.34375 53.8125 34.8125 52.59375 
Q 38.28125 51.375 40.796875 49.25 
Q 43.3125 47.125 44.875 44.234375 
Q 46.4375 41.359375 47.078125 38.03125 
L 38.03125 37.359375 
Q 37.359375 41.75 34.5625 44.328125 
Q 31.78125 46.921875 26.65625 46.921875 
Q 22.90625 46.921875 20.390625 45.671875 
Q 17.875 44.4375 16.3125 41.921875 
Q 14.75 39.40625 14.078125 35.59375 
Q 13.421875 31.78125 13.421875 26.65625 
z
" id="LiberationSans-63"/>
    </defs>
    <g style="fill:#111111;" transform="translate(368.7706 24.0192)scale(0.2304 -0.2304)">
     <use transform="translate(0 0.53125)" xlink:href="#LiberationSans-57"/>
     <use transform="translate(94.384766 0.53125)" xlink:href="#LiberationSans-72"/>
     <use transform="translate(127.685547 0.53125)" xlink:href="#LiberationSans-69"/>
     <use transform="translate(149.902344 0.53125)" xlink:href="#LiberationSans-67"/>
     <use transform="translate(205.517578 0.53125)" xlink:href="#LiberationSans-68"/>
     <use transform="translate(261.132812 0.53125)" xlink:href="#LiberationSans-74"/>
     <use transform="translate(288.916016 0.53125)" xlink:href="#LiberationSans-20"/>
     <use transform="translate(316.699219 0.53125)" xlink:href="#LiberationSans-26"/>
     <use transform="translate(383.398438 0.53125)" xlink:href="#LiberationSans-20"/>
     <use transform="translate(411.181641 0.53125)" xlink:href="#LiberationSans-47"/>
     <use transform="translate(488.964844 0.53125)" xlink:href="#LiberationSans-75"/>
     <use transform="translate(544.580078 0.53125)" xlink:href="#LiberationSans-69"/>
     <use transform="translate(566.796875 0.53125)" xlink:href="#LiberationSans-6c"/>
     <use transform="translate(589.013672 0.53125)" xlink:href="#LiberationSans-64"/>
     <use transform="translate(644.628906 0.53125)" xlink:href="#LiberationSans-20"/>
     <use transform="translate(672.412109 0.53125)" xlink:href="#LiberationSans-28"/>
     <use transform="translate(705.712891 0.53125)" xlink:href="#LiberationSans-31"/>
     <use transform="translate(761.328125 0.53125)" xlink:href="#LiberationSans-39"/>
     <use transform="translate(816.943359 0.53125)" xlink:href="#LiberationSans-33"/>
     <use transform="translate(872.558594 0.53125)" xlink:href="#LiberationSans-31"/>
     <use transform="translate(928.173828 0.53125)" xlink:href="#LiberationSans-29"/>
     <use transform="translate(961.474609 0.53125)" xlink:href="#LiberationSans-20"/>
     <use transform="translate(989.257812 0.53125)" xlink:href="#LiberationSans-32"/>
     <use transform="translate(1059.467773 38.8125)scale(0.7)" xlink:href="#DejaVuSans-2218"/>
     <use transform="translate(1119.658203 0.53125)" xlink:href="#LiberationSans-20"/>
     <use transform="translate(1147.441406 0.53125)" xlink:href="#LiberationSans-52"/>
     <use transform="translate(1219.658203 0.53125)" xlink:href="#LiberationSans-47"/>
     <use transform="translate(1297.441406 0.53125)" xlink:href="#LiberationSans-42"/>
     <use transform="translate(1364.140625 0.53125)" xlink:href="#LiberationSans-20"/>
     <use transform="translate(1391.923828 0.53125)" xlink:href="#LiberationSans-43"/>
     <use transform="translate(1464.140625 0.53125)" xlink:href="#LiberationSans-4d"/>
     <use transform="translate(1547.441406 0.53125)" xlink:href="#LiberationSans-46"/>
     <use transform="translate(1608.525391 0.53125)" xlink:href="#LiberationSans-73"/>
     <use transform="translate(1658.525391 0.53125)" xlink:href="#LiberationSans-20"/>
     <use transform="translate(1686.308594 0.53125)" xlink:href="#LiberationSans-2d"/>
     <use transform="translate(1719.609375 0.53125)" xlink:href="#LiberationSans-20"/>
     <use transform="translate(1747.392578 0.53125)" xlink:href="#LiberationSans-43"/>
     <use transform="translate(1819.609375 0.53125)" xlink:href="#LiberationSans-6f"/>
     <use transform="translate(1875.224609 0.53125)" xlink:href="#LiberationSans-6c"/>
     <use transform="translate(1897.441406 0.53125)" xlink:href="#LiberationSans-6f"/>
     <use transform="translate(1953.056641 0.53125)" xlink:href="#LiberationSans-75"/>
     <use transform="translate(2008.671875 0.53125)" xlink:href="#LiberationSans-72"/>
     <use transform="translate(2041.972656 0.53125)" xlink:href="#LiberationSans-20"/>
     <use transform="translate(2069.755859 0.53125)" xlink:href="#LiberationSans-4d"/>
     <use transform="translate(2153.056641 0.53125)" xlink:href="#LiberationSans-61"/>
     <use transform="translate(2208.671875 0.53125)" xlink:href="#LiberationSans-74"/>
     <use transform="translate(2236.455078 0.53125)" xlink:href="#LiberationSans-63"/>
     <use transform="translate(2286.455078 0.53125)" xlink:href="#LiberationSans-68"/>
     <use transform="translate(2342.070312 0.53125)" xlink:href="#LiberationSans-69"/>
     <use transform="translate(2364.287109 0.53125)" xlink:href="#LiberationSans-6e"/>
     <use transform="translate(2419.902344 0.53125)" xlink:href="#LiberationSans-67"/>
     <use transform="translate(2475.517578 0.53125)" xlink:href="#LiberationSans-20"/>
     <use transform="translate(2503.300781 0.53125)" xlink:href="#LiberationSans-46"/>
     <use transform="translate(2564.384766 0.53125)" xlink:href="#LiberationSans-75"/>
     <use transform="translate(2620 0.53125)" xlink:href="#LiberationSans-6e"/>
     <use transform="translate(2675.615234 0.53125)" xlink:href="#LiberationSans-63"/>
     <use transform="translate(2725.615234 0.53125)" xlink:href="#LiberationSans-74"/>
     <use transform="translate(2753.398438 0.53125)" xlink:href="#LiberationSans-69"/>
     <use transform="translate(2775.615234 0.53125)" xlink:href="#LiberationSans-6f"/>
     <use transform="translate(2831.230469 0.53125)" xlink:href="#LiberationSans-6e"/>
     <use transform="translate(2886.845703 0.53125)" xlink:href="#LiberationSans-73"/>
    </g>
   </g>
   <g id="legend_1">
    <g id="patch_7">
     <path d="M 1050.95752 110.78928 
L 1342.974 110.78928 
L 1342.974 42.6832 
L 1050.95752 42.6832 
z
" style="fill:#f0f0f0;opacity:0.75;stroke:#cccccc;stroke-linejoin:miter;stroke-width:0.3;"/>
    </g>
    <g id="line2d_81">
     <path d="M 1057.62152 54.81168 
L 1084.27752 54.81168 
" style="fill:none;stroke:#ff0000;stroke-linecap:round;"/>
    </g>
    <g id="line2d_82"/>
    <g id="text_16">
     <!-- $\bar{r}$ - Wright &amp; Guild (1931) 2$^\circ$ RGB CMFs -->
     <defs>
      <path d="M -39.34375 74.515625 
L -10.15625 74.515625 
L -10.15625 67.28125 
L -39.34375 67.28125 
z
" id="DejaVuSans-304"/>
      <path d="M 44.578125 46.390625 
Q 43.21875 47.125 41.453125 47.515625 
Q 39.703125 47.90625 37.703125 47.90625 
Q 30.515625 47.90625 25.140625 42.453125 
Q 19.78125 37.015625 18.015625 27.875 
L 12.5 0 
L 3.515625 0 
L 14.203125 54.6875 
L 23.1875 54.6875 
L 21.484375 46.1875 
Q 25.046875 50.921875 30 53.453125 
Q 34.96875 56 40.578125 56 
Q 42.046875 56 43.453125 55.828125 
Q 44.875 55.671875 46.296875 55.28125 
z
" id="DejaVuSans-Oblique-72"/>
     </defs>
     <g style="fill:#111111;" transform="translate(1094.93992 59.47648)scale(0.13328 -0.13328)">
      <use transform="translate(50.62207 1.484375)" xlink:href="#DejaVuSans-304"/>
      <use transform="translate(0 0.265625)" xlink:href="#DejaVuSans-Oblique-72"/>
      <use transform="translate(41.113281 0.265625)" xlink:href="#LiberationSans-20"/>
      <use transform="translate(68.896484 0.265625)" xlink:href="#LiberationSans-2d"/>
      <use transform="translate(102.197266 0.265625)" xlink:href="#LiberationSans-20"/>
      <use transform="translate(129.980469 0.265625)" xlink:href="#LiberationSans-57"/>
      <use transform="translate(224.365234 0.265625)" xlink:href="#LiberationSans-72"/>
      <use transform="translate(257.666016 0.265625)" xlink:href="#LiberationSans-69"/>
      <use transform="translate(279.882812 0.265625)" xlink:href="#LiberationSans-67"/>
      <use transform="translate(335.498047 0.265625)" xlink:href="#LiberationSans-68"/>
      <use transform="translate(391.113281 0.265625)" xlink:href="#LiberationSans-74"/>
      <use transform="translate(418.896484 0.265625)" xlink:href="#LiberationSans-20"/>
      <use transform="translate(446.679688 0.265625)" xlink:href="#LiberationSans-26"/>
      <use transform="translate(513.378906 0.265625)" xlink:href="#LiberationSans-20"/>
      <use transform="translate(541.162109 0.265625)" xlink:href="#LiberationSans-47"/>
      <use transform="translate(618.945312 0.265625)" xlink:href="#LiberationSans-75"/>
      <use transform="translate(674.560547 0.265625)" xlink:href="#LiberationSans-69"/>
      <use transform="translate(696.777344 0.265625)" xlink:href="#LiberationSans-6c"/>
      <use transform="translate(718.994141 0.265625)" xlink:href="#LiberationSans-64"/>
      <use transform="translate(774.609375 0.265625)" xlink:href="#LiberationSans-20"/>
      <use transform="translate(802.392578 0.265625)" xlink:href="#LiberationSans-28"/>
      <use transform="translate(835.693359 0.265625)" xlink:href="#LiberationSans-31"/>
      <use transform="translate(891.308594 0.265625)" xlink:href="#LiberationSans-39"/>
      <use transform="translate(946.923828 0.265625)" xlink:href="#LiberationSans-33"/>
      <use transform="translate(1002.539062 0.265625)" xlink:href="#LiberationSans-31"/>
      <use transform="translate(1058.154297 0.265625)" xlink:href="#LiberationSans-29"/>
      <use transform="translate(1091.455078 0.265625)" xlink:href="#LiberationSans-20"/>
      <use transform="translate(1119.238281 0.265625)" xlink:href="#LiberationSans-32"/>
      <use transform="translate(1189.448242 38.546875)scale(0.7)" xlink:href="#DejaVuSans-2218"/>
      <use transform="translate(1249.638672 0.265625)" xlink:href="#LiberationSans-20"/>
      <use transform="translate(1277.421875 0.265625)" xlink:href="#LiberationSans-52"/>
      <use transform="translate(1349.638672 0.265625)" xlink:href="#LiberationSans-47"/>
      <use transform="translate(1427.421875 0.265625)" xlink:href="#LiberationSans-42"/>
      <use transform="translate(1494.121094 0.265625)" xlink:href="#LiberationSans-20"/>
      <use transform="translate(1521.904297 0.265625)" xlink:href="#LiberationSans-43"/>
      <use transform="translate(1594.121094 0.265625)" xlink:href="#LiberationSans-4d"/>
      <use transform="translate(1677.421875 0.265625)" xlink:href="#LiberationSans-46"/>
      <use transform="translate(1738.505859 0.265625)" xlink:href="#LiberationSans-73"/>
     </g>
    </g>
    <g id="line2d_83">
     <path d="M 1057.62152 74.40384 
L 1084.27752 74.40384 
" style="fill:none;stroke:#00ff00;stroke-linecap:round;"/>
    </g>
    <g id="line2d_84"/>
    <g id="text_17">
     <!-- $\bar{g}$ - Wright &amp; Guild (1931) 2$^\circ$ RGB CMFs -->
     <defs>
      <path d="M 59.625 54.6875 
L 50.296875 6.78125 
Q 47.609375 -7.125 40.015625 -13.953125 
Q 32.421875 -20.796875 19.578125 -20.796875 
Q 14.84375 -20.796875 10.78125 -20.09375 
Q 6.734375 -19.390625 3.21875 -17.921875 
L 4.890625 -9.1875 
Q 8.203125 -11.328125 11.90625 -12.34375 
Q 15.625 -13.375 19.828125 -13.375 
Q 28.375 -13.375 33.859375 -8.703125 
Q 39.359375 -4.046875 41.109375 4.6875 
L 41.890625 8.796875 
Q 38.140625 4.5 33.15625 2.25 
Q 28.171875 0 22.40625 0 
Q 14.109375 0 9.34375 5.484375 
Q 4.59375 10.984375 4.59375 20.609375 
Q 4.59375 28.171875 7.46875 35.421875 
Q 10.359375 42.671875 15.578125 48.296875 
Q 19.046875 52 23.65625 54 
Q 28.265625 56 33.296875 56 
Q 38.8125 56 42.90625 53.4375 
Q 47.015625 50.875 49.03125 46.1875 
L 50.59375 54.6875 
z
M 46.09375 34.625 
Q 46.09375 41.265625 42.96875 44.875 
Q 39.84375 48.484375 34.078125 48.484375 
Q 30.515625 48.484375 27.296875 47.0625 
Q 24.078125 45.65625 21.78125 43.109375 
Q 18.0625 38.921875 15.984375 33.234375 
Q 13.921875 27.546875 13.921875 21.484375 
Q 13.921875 14.75 17.0625 11.125 
Q 20.21875 7.515625 26.125 7.515625 
Q 34.671875 7.515625 40.375 15.25 
Q 46.09375 23 46.09375 34.625 
z
" id="DejaVuSans-Oblique-67"/>
     </defs>
     <g style="fill:#111111;" transform="translate(1094.93992 79.06864)scale(0.13328 -0.13328)">
      <use transform="translate(64.212891 1.484375)" xlink:href="#DejaVuSans-304"/>
      <use transform="translate(0 0.265625)" xlink:href="#DejaVuSans-Oblique-67"/>
      <use transform="translate(63.476562 0.265625)" xlink:href="#LiberationSans-20"/>
      <use transform="translate(91.259766 0.265625)" xlink:href="#LiberationSans-2d"/>
      <use transform="translate(124.560547 0.265625)" xlink:href="#LiberationSans-20"/>
      <use transform="translate(152.34375 0.265625)" xlink:href="#LiberationSans-57"/>
      <use transform="translate(246.728516 0.265625)" xlink:href="#LiberationSans-72"/>
      <use transform="translate(280.029297 0.265625)" xlink:href="#LiberationSans-69"/>
      <use transform="translate(302.246094 0.265625)" xlink:href="#LiberationSans-67"/>
      <use transform="translate(357.861328 0.265625)" xlink:href="#LiberationSans-68"/>
      <use transform="translate(413.476562 0.265625)" xlink:href="#LiberationSans-74"/>
      <use transform="translate(441.259766 0.265625)" xlink:href="#LiberationSans-20"/>
      <use transform="translate(469.042969 0.265625)" xlink:href="#LiberationSans-26"/>
      <use transform="translate(535.742188 0.265625)" xlink:href="#LiberationSans-20"/>
      <use transform="translate(563.525391 0.265625)" xlink:href="#LiberationSans-47"/>
      <use transform="translate(641.308594 0.265625)" xlink:href="#LiberationSans-75"/>
      <use transform="translate(696.923828 0.265625)" xlink:href="#LiberationSans-69"/>
      <use transform="translate(719.140625 0.265625)" xlink:href="#LiberationSans-6c"/>
      <use transform="translate(741.357422 0.265625)" xlink:href="#LiberationSans-64"/>
      <use transform="translate(796.972656 0.265625)" xlink:href="#LiberationSans-20"/>
      <use transform="translate(824.755859 0.265625)" xlink:href="#LiberationSans-28"/>
      <use transform="translate(858.056641 0.265625)" xlink:href="#LiberationSans-31"/>
      <use transform="translate(913.671875 0.265625)" xlink:href="#LiberationSans-39"/>
      <use transform="translate(969.287109 0.265625)" xlink:href="#LiberationSans-33"/>
      <use transform="translate(1024.902344 0.265625)" xlink:href="#LiberationSans-31"/>
      <use transform="translate(1080.517578 0.265625)" xlink:href="#LiberationSans-29"/>
      <use transform="translate(1113.818359 0.265625)" xlink:href="#LiberationSans-20"/>
      <use transform="translate(1141.601562 0.265625)" xlink:href="#LiberationSans-32"/>
      <use transform="translate(1211.811523 38.546875)scale(0.7)" xlink:href="#DejaVuSans-2218"/>
      <use transform="translate(1272.001953 0.265625)" xlink:href="#LiberationSans-20"/>
      <use transform="translate(1299.785156 0.265625)" xlink:href="#LiberationSans-52"/>
      <use transform="translate(1372.001953 0.265625)" xlink:href="#LiberationSans-47"/>
      <use transform="translate(1449.785156 0.265625)" xlink:href="#LiberationSans-42"/>
      <use transform="translate(1516.484375 0.265625)" xlink:href="#LiberationSans-20"/>
      <use transform="translate(1544.267578 0.265625)" xlink:href="#LiberationSans-43"/>
      <use transform="translate(1616.484375 0.265625)" xlink:href="#LiberationSans-4d"/>
      <use transform="translate(1699.785156 0.265625)" xlink:href="#LiberationSans-46"/>
      <use transform="translate(1760.869141 0.265625)" xlink:href="#LiberationSans-73"/>
     </g>
    </g>
    <g id="line2d_85">
     <path d="M 1057.62152 96.6616 
L 1084.27752 96.6616 
" style="fill:none;stroke:#0000ff;stroke-linecap:round;"/>
    </g>
    <g id="line2d_86"/>
    <g id="text_18">
     <!-- $\bar{b}$ - Wright &amp; Guild (1931) 2$^\circ$ RGB CMFs -->
     <defs>
      <path d="M 49.515625 33.40625 
Q 49.515625 40.484375 46.265625 44.484375 
Q 43.015625 48.484375 37.3125 48.484375 
Q 33.15625 48.484375 29.515625 46.453125 
Q 25.875 44.4375 23.1875 40.578125 
Q 20.359375 36.53125 18.71875 31.171875 
Q 17.09375 25.828125 17.09375 20.515625 
Q 17.09375 13.765625 20.28125 9.9375 
Q 23.484375 6.109375 29.109375 6.109375 
Q 33.34375 6.109375 36.953125 8.078125 
Q 40.578125 10.0625 43.3125 13.921875 
Q 46.09375 17.921875 47.796875 23.234375 
Q 49.515625 28.5625 49.515625 33.40625 
z
M 21.578125 46.390625 
Q 24.90625 50.875 29.90625 53.4375 
Q 34.90625 56 40.375 56 
Q 48.78125 56 53.734375 50.328125 
Q 58.6875 44.671875 58.6875 35.015625 
Q 58.6875 27.09375 55.78125 19.671875 
Q 52.875 12.25 47.515625 6.5 
Q 44 2.6875 39.40625 0.625 
Q 34.8125 -1.421875 29.78125 -1.421875 
Q 24.46875 -1.421875 20.5625 1.015625 
Q 16.65625 3.46875 14.203125 8.296875 
L 12.59375 0 
L 3.609375 0 
L 18.40625 75.984375 
L 27.390625 75.984375 
z
" id="DejaVuSans-Oblique-62"/>
     </defs>
     <g style="fill:#111111;" transform="translate(1094.93992 101.3264)scale(0.13328 -0.13328)">
      <use transform="translate(64.212891 21.484375)" xlink:href="#DejaVuSans-304"/>
      <use transform="translate(0 0.28125)" xlink:href="#DejaVuSans-Oblique-62"/>
      <use transform="translate(63.476562 0.28125)" xlink:href="#LiberationSans-20"/>
      <use transform="translate(91.259766 0.28125)" xlink:href="#LiberationSans-2d"/>
      <use transform="translate(124.560547 0.28125)" xlink:href="#LiberationSans-20"/>
      <use transform="translate(152.34375 0.28125)" xlink:href="#LiberationSans-57"/>
      <use transform="translate(246.728516 0.28125)" xlink:href="#LiberationSans-72"/>
      <use transform="translate(280.029297 0.28125)" xlink:href="#LiberationSans-69"/>
      <use transform="translate(302.246094 0.28125)" xlink:href="#LiberationSans-67"/>
      <use transform="translate(357.861328 0.28125)" xlink:href="#LiberationSans-68"/>
      <use transform="translate(413.476562 0.28125)" xlink:href="#LiberationSans-74"/>
      <use transform="translate(441.259766 0.28125)" xlink:href="#LiberationSans-20"/>
      <use transform="translate(469.042969 0.28125)" xlink:href="#LiberationSans-26"/>
      <use transform="translate(535.742188 0.28125)" xlink:href="#LiberationSans-20"/>
      <use transform="translate(563.525391 0.28125)" xlink:href="#LiberationSans-47"/>
      <use transform="translate(641.308594 0.28125)" xlink:href="#LiberationSans-75"/>
      <use transform="translate(696.923828 0.28125)" xlink:href="#LiberationSans-69"/>
      <use transform="translate(719.140625 0.28125)" xlink:href="#LiberationSans-6c"/>
      <use transform="translate(741.357422 0.28125)" xlink:href="#LiberationSans-64"/>
      <use transform="translate(796.972656 0.28125)" xlink:href="#LiberationSans-20"/>
      <use transform="translate(824.755859 0.28125)" xlink:href="#LiberationSans-28"/>
      <use transform="translate(858.056641 0.28125)" xlink:href="#LiberationSans-31"/>
      <use transform="translate(913.671875 0.28125)" xlink:href="#LiberationSans-39"/>
      <use transform="translate(969.287109 0.28125)" xlink:href="#LiberationSans-33"/>
      <use transform="translate(1024.902344 0.28125)" xlink:href="#LiberationSans-31"/>
      <use transform="translate(1080.517578 0.28125)" xlink:href="#LiberationSans-29"/>
      <use transform="translate(1113.818359 0.28125)" xlink:href="#LiberationSans-20"/>
      <use transform="translate(1141.601562 0.28125)" xlink:href="#LiberationSans-32"/>
      <use transform="translate(1211.811523 38.5625)scale(0.7)" xlink:href="#DejaVuSans-2218"/>
      <use transform="translate(1272.001953 0.28125)" xlink:href="#LiberationSans-20"/>
      <use transform="translate(1299.785156 0.28125)" xlink:href="#LiberationSans-52"/>
      <use transform="translate(1372.001953 0.28125)" xlink:href="#LiberationSans-47"/>
      <use transform="translate(1449.785156 0.28125)" xlink:href="#LiberationSans-42"/>
      <use transform="translate(1516.484375 0.28125)" xlink:href="#LiberationSans-20"/>
      <use transform="translate(1544.267578 0.28125)" xlink:href="#LiberationSans-43"/>
      <use transform="translate(1616.484375 0.28125)" xlink:href="#LiberationSans-4d"/>
      <use transform="translate(1699.785156 0.28125)" xlink:href="#LiberationSans-46"/>
      <use transform="translate(1760.869141 0.28125)" xlink:href="#LiberationSans-73"/>
     </g>
    </g>
   </g>
  </g>
 </g>
 <defs>
  <clipPath id="pb4cfe5436f">
   <rect height="658.494" width="1285.05" x="64.588" y="36.0192"/>
  </clipPath>
 </defs>
</svg>
